<?xml version="1.0" encoding="utf-8"?>
<!-- Generator: Adobe Illustrator 16.0.0, SVG Export Plug-In . SVG Version: 6.00 Build 0)  -->
<!DOCTYPE svg PUBLIC "-//W3C//DTD SVG 1.1//EN" "http://www.w3.org/Graphics/SVG/1.1/DTD/svg11.dtd">
<svg version="1.1" id="Layer_1" xmlns="http://www.w3.org/2000/svg" xmlns:xlink="http://www.w3.org/1999/xlink" x="0px" y="0px"
	 width="700px" height="700px" viewBox="0 0 700 700" enable-background="new 0 0 700 700" xml:space="preserve">
<g>
	<path fill-rule="evenodd" clip-rule="evenodd" fill-opacity="0.2471" d="M185.4,211.7h5.3l-0.1,3.9h-5.3L185.4,211.7l-4.8,0l-1.1-3
		l-0.1-0.1l-14.6,0.1v-4c4.9,0,9.6,0,13.9-0.1h1.1v0.3l0.9,2.9h4.8L185.4,211.7z M235.5,327.3c-0.1-0.7,0.5-1,1.7-1v0.7h0v0.1
		c0.2,0.6,1,1,2.3,1.1l-3.3-0.1c-0.1-0.1-0.3-0.2-0.4-0.3v1.4c0,0,0.1,0.1,0.1,0.1h-1.2c-0.4-0.3-0.5-0.7-0.3-1.1h1V327.3z
		 M215.8,331.8l0.6-4l8.1,0h0.9v0l-0.1,1.2c0.1,0.1,0.2,0.2,0.3,0.4l7.8-0.1h0.9v0.1l-0.1,1.2c0.9,1.1,2,1.8,3.1,1.9l0,0.9
		c-1.3,0-2.9,0-4.8,0l-7.9-0.1l0.2-1.5c-0.4,0-0.9,0-1.3,0L215.8,331.8z M216.3,327.9c-0.8,0.1-1.6,0.2-2.4,0.3
		c-10.2,1.3-20.1,0.9-29.6-1c-0.3-0.1-0.7-0.1-1-0.2c-0.1,0-0.2,0-0.3-0.1c-0.1,0-0.3,0-0.4-0.1c-0.5-0.1-0.9-0.2-1.4-0.3
		c-0.2-0.1-0.5-0.1-0.7-0.2c-0.1,0-0.3-0.1-0.4-0.1c-0.1,0-0.2,0-0.3-0.1c-0.2-0.1-0.5-0.2-1-0.2l0.4-3.6c5.5,1.3,11.4,2.1,17.7,2.4
		c6.1,0.3,12,0.1,17.6-0.7c0.6-0.1,1.1-0.1,1.7-0.2c0.2,0,0.3,0,0.5,0L216.3,327.9z M235.3,321.1h4.6v2.8h-4.3
		c-0.6-0.4-1-0.8-1.1-1.3C234.4,322.1,234.6,321.6,235.3,321.1z"/>
</g>
<g>
	<path fill-rule="evenodd" clip-rule="evenodd" fill="#FF0000" d="M169.4,173.3c6.8,0.1,13.8,5,21.1,14.7c0,0,0.1,0.1,0.1,0.1
		c5.2,8.3,8.8,16.9,10.7,26c0.6,2.9,1,5.8,1.2,8.8c1,12,2.1,24.7,3.2,38.1c1.1,13.5-0.1,30.4-3.5,50.6v0c-0.9,6.4-0.8,9.9,0.3,10.5
		c1.4,0.2,4.3-2.4,8.6-7.9c9.9-12,17.3-17.2,22.3-15.6c5.2,1.1,8,8.8,8.4,23.3c0,0.5-0.1,0.9-0.5,1.3c-0.4,0.4-0.8,0.5-1.3,0.5
		c-0.5,0-0.9-0.1-1.3-0.4c-0.4-0.4-0.5-0.8-0.5-1.3c-0.3-12.2-2.2-18.8-5.8-20c-3.9-0.7-10.1,4.1-18.7,14.4l0,0.1
		c-5.7,7.1-9.9,10.1-12.5,8.9c-3-0.7-3.8-5.4-2.6-14.3c0,0,0-0.1,0-0.1c3.4-19.9,4.5-36.5,3.4-49.7c-1.1-13.4-2.2-26.1-3.2-38.1
		c-0.2-2.8-0.6-5.6-1.2-8.4c-1.8-8.7-5.2-16.9-10.2-24.8c-6.4-8.4-12.5-12.8-18.4-13.2c-3.2-0.1-5.9,0.8-8.2,2.8
		c-2.6,2.3-3.6,5.3-3.1,9.2c0.1,0.5,0,0.9-0.4,1.3c-0.3,0.4-0.7,0.6-1.2,0.6c-0.5,0-0.9-0.1-1.3-0.4c-0.4-0.3-0.6-0.7-0.7-1.2
		c-0.6-5.2,0.9-9.3,4.4-12.3C161.7,174.4,165.3,173.2,169.4,173.3z"/>
</g>
<g>
	<g>
		
			<radialGradient id="SVGID_1_" cx="175.2002" cy="187.3999" r="43.325" gradientTransform="matrix(1 0 0 1.2069 0 -38.7668)" gradientUnits="userSpaceOnUse">
			<stop  offset="0" style="stop-color:#FFFFFF"/>
			<stop  offset="0.5412" style="stop-color:#FFFFFF;stop-opacity:0.8118"/>
			<stop  offset="1" style="stop-color:#FFFFFF;stop-opacity:0"/>
		</radialGradient>
		<path fill-rule="evenodd" clip-rule="evenodd" fill="url(#SVGID_1_)" d="M189.5,188.7L189.5,188.7c5.2,8.1,8.7,16.7,10.5,25.6
			c0.6,2.8,1,5.7,1.2,8.6c0.2,2.2,0.3,4.4,0.5,6.6l-1,0.1c-0.2-2.2-0.4-4.4-0.5-6.6c-0.2-2.9-0.6-5.7-1.2-8.5
			c-1.8-8.8-5.3-17.2-10.4-25.2c-6.7-8.9-13.2-13.5-19.4-13.8c-3.5-0.1-6.5,0.9-9,3.1c-2.9,2.5-4.1,5.9-3.6,10.3l-1,0.1
			c-0.6-4.7,0.8-8.4,4-11.1c2.7-2.4,5.9-3.5,9.8-3.4C175.8,174.8,182.5,179.5,189.5,188.7z"/>
		
			<radialGradient id="SVGID_2_" cx="202.0498" cy="284.5498" r="16.625" gradientTransform="matrix(1 0 0 2.4857 0 -422.7597)" gradientUnits="userSpaceOnUse">
			<stop  offset="0" style="stop-color:#FFFFFF"/>
			<stop  offset="0.5412" style="stop-color:#FFFFFF;stop-opacity:0.8118"/>
			<stop  offset="1" style="stop-color:#FFFFFF;stop-opacity:0"/>
		</radialGradient>
		<path fill-rule="evenodd" clip-rule="evenodd" fill="url(#SVGID_2_)" d="M201.3,238.6l1-0.1c0.9,9.6,1.6,17.1,2.1,22.5
			c1.1,13.4-0.1,30.2-3.5,50.3c-0.7,4.9-0.7,8.3-0.1,10.3c0.3,0.8,0.7,1.3,1.2,1.6c0.5,0.2,1.2,0,2-0.4l0.5,0.9
			c-1.1,0.6-2.1,0.7-2.9,0.4c-0.8-0.3-1.4-1-1.8-2.2c-0.7-2-0.6-5.6,0-10.7c3.4-20,4.6-36.7,3.5-50
			C202.9,255.8,202.2,248.3,201.3,238.6z"/>
		
			<radialGradient id="SVGID_3_" cx="228.2002" cy="309" r="19.95" gradientTransform="matrix(1 0 0 0.7318 0 82.8647)" gradientUnits="userSpaceOnUse">
			<stop  offset="0" style="stop-color:#FFFFFF"/>
			<stop  offset="0.5412" style="stop-color:#FFFFFF;stop-opacity:0.8118"/>
			<stop  offset="1" style="stop-color:#FFFFFF;stop-opacity:0"/>
		</radialGradient>
		<path fill-rule="evenodd" clip-rule="evenodd" fill="url(#SVGID_3_)" d="M210.6,318.2l-0.8-0.7c0.7-0.8,1.4-1.7,2.1-2.6h0
			c9.4-11.4,16.4-16.5,21-15.2c4.6,1.1,7.1,8.5,7.5,22.1l-1,0.1c-0.3-13-2.6-20.1-6.7-21.2c-4.3-1-11,3.9-20,14.9v0
			C212,316.5,211.3,317.4,210.6,318.2z"/>
	</g>
</g>
</svg>
