<?xml version="1.0" encoding="utf-8"?>
<!-- Generator: Adobe Illustrator 16.0.0, SVG Export Plug-In . SVG Version: 6.00 Build 0)  -->
<!DOCTYPE svg PUBLIC "-//W3C//DTD SVG 1.1//EN" "http://www.w3.org/Graphics/SVG/1.1/DTD/svg11.dtd">
<svg version="1.1" id="Layer_1" xmlns="http://www.w3.org/2000/svg" xmlns:xlink="http://www.w3.org/1999/xlink" x="0px" y="0px"
	 width="274px" height="343px" viewBox="0 0 274 343" enable-background="new 0 0 274 343" xml:space="preserve">
<g>
	<g>
		<path fill-rule="evenodd" clip-rule="evenodd" fill-opacity="0.1451" d="M2.55,253.8c-2.93-8.13-0.8-17.93,6.4-29.4
			c0.2-0.4,0.5-0.63,0.9-0.7c0.43-0.1,0.8-0.03,1.1,0.2c0.37,0.23,0.58,0.57,0.65,1c0.1,0.4,0.05,0.78-0.15,1.15
			c-6.53,10.4-8.55,19.32-6.05,26.75c2.6,7.33,9.75,13.22,21.45,17.65l-0.05-0.05c4.8,1.7,7.9,3.5,9.3,5.4
			c1.93,2.4,1.63,4.88-0.9,7.45c-3.73,3.83-7.47,6.63-11.2,8.4c-3.3,1.63-6.75,5.02-10.35,10.15c-0.8,2.53-0.73,4.53,0.2,6
			c1.07,1.43,3.15,2.3,6.25,2.6c7.3,0.8,13.13,2.05,17.5,3.75c4.53,1.77,7.98,4.63,10.35,8.6c1.93,2.97,5.37,4.27,10.3,3.9
			c0.57-0.87,1.38-1.35,2.45-1.45c1-0.13,2.28,0.23,3.85,1.1c2.4,1.37,5.67,4.27,9.8,8.7c9.2,4.17,23.63,3.32,43.3-2.55h0.1
			l28.55-7.6c12.57-3.3,17.67-16.42,15.3-39.35h2.95c2.53,24.9-3.32,39.03-17.55,42.4l-28.5,7.6h-0.05c-20.8,6.17-36,6.92-45.6,2.25
			c-0.2-0.13-0.35-0.27-0.45-0.4c-3.97-4.2-7.08-6.98-9.35-8.35c-0.87-0.5-1.57-0.73-2.1-0.7c-0.2,0.03-0.35,0.17-0.45,0.4
			c-0.13,0.27-0.3,0.48-0.5,0.65c-0.23,0.17-0.47,0.27-0.7,0.3c-6.73,0.73-11.35-1.02-13.85-5.25c-2.1-3.37-5.08-5.82-8.95-7.35
			c-4.13-1.63-9.7-2.82-16.7-3.55c-4.2-0.43-6.98-1.75-8.35-3.95c-1.63-2.13-1.82-5.12-0.55-8.95c0.03-0.13,0.1-0.27,0.2-0.4
			c4.03-5.83,7.92-9.63,11.65-11.4c3.4-1.6,6.87-4.2,10.4-7.8c1.07-1.13,1.27-2.22,0.6-3.25c-1.23-1.5-3.87-2.97-7.9-4.4H25.8
			C13.07,268.48,5.32,261.97,2.55,253.8z"/>
	</g>
	<g>
		<path fill-rule="evenodd" clip-rule="evenodd" fill="#B70000" d="M270.8,24.45c0.03-0.1,0.08-0.15,0.15-0.15
			c-0.2-0.2-0.45-0.3-0.75-0.3l-0.5,0.55c0.17,0.07,0.32,0.1,0.45,0.1C270.38,24.72,270.6,24.65,270.8,24.45z M270.75,25.6
			c-0.2,0.1-0.42,0.13-0.65,0.1c-0.33-0.07-0.68-0.17-1.05-0.3l-0.1,0.15c0.03,0.13,0.12,0.28,0.25,0.45c0.03-0.07,0.08-0.07,0.15,0
			c0.6,0.27,1.02,0.33,1.25,0.2C270.7,26.07,270.75,25.87,270.75,25.6z M261,2.25c5.3-0.53,8.48,3.35,9.55,11.65
			c0.13,1.1,0.22,1.97,0.25,2.6v0.05c0,0.07,0,0.13,0,0.2c0,2.9,0.02,5,0.05,6.3c0.2,0,0.33,0,0.4,0c0.13-0.03,0.22,0.05,0.25,0.25
			c0,0.17,0.03,0.43,0.1,0.8c0.07,0.33,0.1,0.52,0.1,0.55c0.17,1.17,0.02,1.93-0.45,2.3c-0.47,0.43-1.23,0.43-2.3,0
			c-0.17-0.1-0.27-0.2-0.3-0.3c0-0.07,0-0.12,0-0.15c-0.57-0.6-0.7-1.22-0.4-1.85c-0.2-0.53-0.32-0.92-0.35-1.15
			c-0.07-0.23-0.05-0.42,0.05-0.55c0.03-0.07,0.07-0.12,0.1-0.15c-0.17-2.07-0.27-4.07-0.3-6v-0.2c0-0.53-0.07-1.28-0.2-2.25
			c-0.8-6.03-2.9-9.02-6.3-8.95c-4.1,0.37-9.87,4.27-17.3,11.7c-5.83,5.8-10.93,12.12-15.3,18.95c-7.2,11.23-12.5,23.87-15.9,37.9
			l-45.5,189.8v-0.05c-2.63,12.43-4.83,27.02-6.6,43.75c-1,10.77-6.83,16.87-17.5,18.3c-22.2,6.63-39.38,10.5-51.55,11.6
			c-13,1.23-20.57-0.7-22.7-5.8c-2.27-4.73-4.33-7.93-6.2-9.6c-1.2-1.07-2.32-1.17-3.35-0.3v0.1c-4,3.83-8.22,3.2-12.65-1.9
			c-3.53-4.03-9.22-6.75-17.05-8.15c-9.8-1.77-15.72-4.13-17.75-7.1c-2.8-3.47-1-7.42,5.4-11.85c0.03,0,0.08-0.02,0.15-0.05
			c11.33-6.13,17.58-11.33,18.75-15.6c0.73-3.7-3.13-6.75-11.6-9.15c-10.13-2.93-16.2-8.9-18.2-17.9
			c-2.07-8.67-0.17-20.22,5.7-34.65c0.17-0.4,0.42-0.68,0.75-0.85c0.4-0.17,0.8-0.17,1.2,0c0.4,0.17,0.68,0.45,0.85,0.85
			c0.13,0.37,0.13,0.75,0,1.15c-5.53,13.73-7.4,24.67-5.6,32.8c1.83,7.83,7.22,13.03,16.15,15.6c10.73,3.07,15.32,7.38,13.75,12.95
			c-1.13,4.9-7.88,10.73-20.25,17.5c-4.27,2.97-5.8,5.4-4.6,7.3c1.9,2.37,7.2,4.33,15.9,5.9c8.6,1.57,14.83,4.62,18.7,9.15
			c2.93,3.37,5.7,3.9,8.3,1.6c2.23-2.2,4.7-2.12,7.4,0.25c2.1,1.77,4.4,5.28,6.9,10.55c2,3.8,8.6,5.18,19.8,4.15
			c12-1.1,29-4.95,51-11.55c0.07-0.07,0.13-0.1,0.2-0.1c9.17-1.17,14.18-6.32,15.05-15.45v-0.05c1.83-16.87,4.05-31.57,6.65-44.1
			V263l45.6-189.85c3.43-14.33,8.85-27.27,16.25-38.8c4.5-7.07,9.75-13.57,15.75-19.5C249.98,6.68,256.37,2.48,261,2.25z"/>
	</g>
	<g>
		<g>
			
				<radialGradient id="SVGID_1_" cx="14.9502" cy="242.4375" r="20.8243" gradientTransform="matrix(1 0 0 1.036 0 -8.7365)" gradientUnits="userSpaceOnUse">
				<stop  offset="0" style="stop-color:#FFFFFF;stop-opacity:0.5098"/>
				<stop  offset="1" style="stop-color:#FFFFFF;stop-opacity:0"/>
			</radialGradient>
			<path fill-rule="evenodd" clip-rule="evenodd" fill="url(#SVGID_1_)" d="M11.4,220.85c0.1-0.1,0.2-0.1,0.3,0
				c0.1,0,0.17,0.05,0.2,0.15c0.03,0.13,0.03,0.23,0,0.3c-8.13,20.5-5.93,34.53,6.6,42.1c0.07,0.03,0.15,0.12,0.25,0.25
				c0,0.07-0.03,0.13-0.1,0.2c-0.07,0.13-0.13,0.22-0.2,0.25c-0.1,0-0.2-0.02-0.3-0.05C5.18,256.32,2.87,241.97,11.2,221
				C11.23,220.9,11.3,220.85,11.4,220.85z"/>
			
				<radialGradient id="SVGID_2_" cx="191.8379" cy="154.6504" r="75.1924" gradientTransform="matrix(1 0 0 1.0367 0 -5.6783)" gradientUnits="userSpaceOnUse">
				<stop  offset="0" style="stop-color:#FFFFFF;stop-opacity:0.5098"/>
				<stop  offset="1" style="stop-color:#FFFFFF;stop-opacity:0"/>
			</radialGradient>
			<path fill-rule="evenodd" clip-rule="evenodd" fill="url(#SVGID_2_)" d="M209.95,80.3c0.07,0.07,0.1,0.17,0.1,0.3L174.4,228.9
				c-0.03,0.07-0.1,0.15-0.2,0.25c-0.1,0.07-0.2,0.08-0.3,0.05c-0.07-0.03-0.13-0.1-0.2-0.2c-0.1-0.1-0.1-0.2,0-0.3l35.6-148.3
				c0-0.13,0.05-0.22,0.15-0.25c0.1-0.07,0.2-0.08,0.3-0.05C209.82,80.1,209.88,80.17,209.95,80.3z"/>
			
				<radialGradient id="SVGID_3_" cx="109.3335" cy="328.9502" r="32.816" gradientTransform="matrix(1 0 0 1.0366 0 -12.0348)" gradientUnits="userSpaceOnUse">
				<stop  offset="0" style="stop-color:#FFFFFF;stop-opacity:0.5098"/>
				<stop  offset="1" style="stop-color:#FFFFFF;stop-opacity:0"/>
			</radialGradient>
			<path fill-rule="evenodd" clip-rule="evenodd" fill="url(#SVGID_3_)" d="M77.1,335.85c-0.07,0-0.13-0.05-0.2-0.15
				c-0.1-0.07-0.15-0.17-0.15-0.3c0-0.1,0.05-0.2,0.15-0.3c0.07-0.07,0.13-0.1,0.2-0.1c19.9,0.47,41.33-3.82,64.3-12.85
				c0.07-0.03,0.17-0.03,0.3,0c0.1,0.03,0.17,0.12,0.2,0.25c0.03,0.07,0.02,0.15-0.05,0.25c-0.03,0.13-0.08,0.22-0.15,0.25
				C118.6,332,97.07,336.32,77.1,335.85z"/>
			
				<radialGradient id="SVGID_4_" cx="26.75" cy="284.9004" r="14.9875" gradientTransform="matrix(1 0 0 1.0367 0 -10.4551)" gradientUnits="userSpaceOnUse">
				<stop  offset="0" style="stop-color:#FFFFFF;stop-opacity:0.5098"/>
				<stop  offset="1" style="stop-color:#FFFFFF;stop-opacity:0"/>
			</radialGradient>
			<path fill-rule="evenodd" clip-rule="evenodd" fill="url(#SVGID_4_)" d="M37.65,273.75c0.07,0.07,0.15,0.15,0.25,0.25
				c1.87,5.13-5.37,12.5-21.7,22.1c-0.13,0.07-0.23,0.07-0.3,0c-0.1-0.03-0.17-0.08-0.2-0.15c-0.07-0.13-0.08-0.23-0.05-0.3
				c0.03-0.1,0.1-0.18,0.2-0.25c15.87-9.3,22.95-16.35,21.25-21.15c-0.03-0.1-0.03-0.2,0-0.3c0.1-0.13,0.18-0.2,0.25-0.2
				C37.42,273.68,37.52,273.68,37.65,273.75z"/>
			
				<radialGradient id="SVGID_5_" cx="33.3379" cy="313" r="15.5608" gradientTransform="matrix(1 0 0 1.037 0 -11.574)" gradientUnits="userSpaceOnUse">
				<stop  offset="0" style="stop-color:#FFFFFF;stop-opacity:0.5098"/>
				<stop  offset="1" style="stop-color:#FFFFFF;stop-opacity:0"/>
			</radialGradient>
			<path fill-rule="evenodd" clip-rule="evenodd" fill="url(#SVGID_5_)" d="M18.6,306.9c0.1-0.07,0.2-0.08,0.3-0.05
				c16.37,2.93,26.13,6.87,29.3,11.8c0.03,0.07,0.03,0.15,0,0.25c0,0.1-0.05,0.2-0.15,0.3c-0.1,0.03-0.22,0.05-0.35,0.05
				c-0.07-0.03-0.12-0.1-0.15-0.2c-3.13-4.73-12.72-8.55-28.75-11.45c-0.13-0.03-0.23-0.08-0.3-0.15c-0.03-0.1-0.05-0.18-0.05-0.25
				C18.48,307.03,18.53,306.93,18.6,306.9z"/>
		</g>
	</g>
</g>
</svg>
