<?xml version="1.0" encoding="utf-8"?>
<!-- Generator: Adobe Illustrator 16.0.0, SVG Export Plug-In . SVG Version: 6.00 Build 0)  -->
<!DOCTYPE svg PUBLIC "-//W3C//DTD SVG 1.1//EN" "http://www.w3.org/Graphics/SVG/1.1/DTD/svg11.dtd">
<svg version="1.1" id="Layer_1" xmlns="http://www.w3.org/2000/svg" xmlns:xlink="http://www.w3.org/1999/xlink" x="0px" y="0px"
	 width="700px" height="700px" viewBox="0 0 700 700" enable-background="new 0 0 700 700" xml:space="preserve">
<g>
	<path fill-rule="evenodd" clip-rule="evenodd" fill-opacity="0.2471" d="M80.5,189l-0.1,0c1.5,0.4,2,1,1.5,1.9v0L75,191v-1.8
		c0.1,0,0.1-0.1,0.2-0.1H80.5z M451.5,363.5L451.5,363.5c-13.3,1-38.5,3.3-75.8,6.9c-70.9,6.7-119.7,10-146.5,10
		c-17.7,0-32-0.9-42.8-2.6c-11.7-1.9-21-5.1-28.1-9.5c-7.1-4.4-12.8-10.6-17-18.6c-3.8-7.1-7.1-16.9-9.7-29.1v-0.1
		c-0.9-4.1-3.9-15-9-32.6c-6-20.5-9.9-34.4-11.8-41.6c0-0.1,0-0.1,0-0.1c-2.1-11.6-4.3-20.5-6.6-26.9c-0.1-0.3-0.3-0.6-0.3-0.9
		c-2.1-7-8.4-10.7-18.9-11.1v-2.6H83l0.9-1l-0.3-1h1c0.4,0.3,0.6,0.8,0.6,1.5c3.7-0.1,7.1,0.3,10.1,1.1c5,1.7,8.5,4.1,10.6,7.3
		c0.8,1.7,1.6,3.5,2.3,5.4c2.4,6.5,4.7,15.7,6.8,27.5l0-0.1c1.9,7.2,5.8,21.1,11.8,41.5c5.2,17.8,8.2,28.8,9,33
		c2.6,11.9,5.7,21.2,9.4,28.1c3.9,7.4,9.1,13.1,15.6,17.1c6.7,4.2,15.6,7.2,26.6,9c10.6,1.7,24.6,2.6,42.1,2.6
		c26.7,0,75.3-3.3,146-10c37.4-3.5,62.7-5.8,75.9-6.9c25.8-2.1,46.6-3.1,62.2-3.1c15.5,0,24.6-0.1,27.5-0.2h0
		c2.8-0.1,7.9,0.1,15.3,0.7c7.2,0.6,15.9,0.9,26.3,0.8c4.6,0,8-0.9,10.1-2.6c1.8-1.7,2.6-4.1,2.2-7.4c-1-8.1-1.5-12.8-1.7-14v0
		c-0.5-3.4-1.6-7.2-3.3-11.5h4.3c1.5,4,2.5,7.6,2.9,11c0.2,1.3,0.7,5.9,1.7,14c0.5,4.8-0.7,8.4-3.6,10.9c-2.6,2.3-6.8,3.5-12.6,3.5
		h0c-10.5,0-19.4-0.3-26.7-0.8c-7.1-0.6-12-0.8-14.8-0.7c-2.8,0.1-12,0.2-27.7,0.2C497.8,360.4,477.2,361.5,451.5,363.5z"/>
</g>
<g>
	<path fill-rule="evenodd" clip-rule="evenodd" d="M444.7,360.1c-14.1,0.6-37,3.2-68.6,7.8c-31.8,4.6-72.5,5.9-122.2,3.9
		c-50.1-2-77.8-4.5-83.1-7.8c-5.5-3.2-10.1-10.3-13.7-21.3c-3.4-10.4-7.4-19.9-11.8-28.6c-3.6-7-6.7-15.5-9.3-25.5v-0.1
		c-2.7-11.6-4.7-20.1-6.1-25.7c-2.3-9.8-4.8-17.6-7.4-23.5c0,0,0-0.1,0-0.1c-3-7.4-6.4-15.5-10.2-24.2c-0.2-0.5-1.6-3.5-4.1-9.1
		c-2.6-5.7-4.8-10.5-6.7-14.4c-1.9-3.9-4.1-7.7-6.4-11.4c-2-3.1-4.1-4.8-6.3-4.9h0c-2.3,0-4.3,1-6,3c-2.2,2.6-3.6,6.3-4.4,11.1
		c-0.1,0.5-0.3,0.9-0.7,1.1c-0.4,0.3-0.8,0.4-1.3,0.3c-0.2,0-0.4-0.1-0.6-0.2c-0.3,0.1-0.6,0.2-0.9,0.2c0.2-1.3,0.3-2.8,0.5-4.6
		c1-4.4,2.6-7.8,4.8-10.3V176c2.5-2.9,5.4-4.3,8.8-4.2c3.3-0.1,6.3,2.1,9.2,6.5c2.5,3.8,4.7,7.7,6.7,11.7c1.9,3.9,4.2,8.7,6.8,14.5
		c2.5,5.7,3.9,8.7,4.1,9.2c3.8,8.7,7.2,16.8,10.2,24.3c2.7,6,5.2,14,7.5,24.1c1.3,5.6,3.4,14.1,6.1,25.7v0c2.6,9.8,5.6,18.1,9,24.8
		c4.5,8.8,8.5,18.5,12,29.1h0.1c3.2,10,7.3,16.4,12.1,19.4c5.2,2.9,32.3,5.4,81.4,7.3c49.5,1.9,90,0.6,121.6-3.9
		c31.8-4.6,54.8-7.3,69-7.9c14.1-0.6,28.5-1.5,43.4-2.7c14.8-1.2,31.1-2.7,48.8-4.4c17.9-1.7,31.6-1.2,40.9,1.5
		c8.1,2.3,13,2.3,14.8,0h0c1.7-2.9,2.3-6.4,1.7-10.5c-0.3-1.7-0.8-4.1-1.5-7.3c-0.9-4.1-1.5-7.1-1.9-9.1c-0.1-0.5,0-0.9,0.3-1.3
		c0.3-0.4,0.6-0.7,1.1-0.8c0.5-0.1,0.9,0,1.3,0.3c0.4,0.3,0.7,0.6,0.8,1.1c0.4,2,1,5,1.9,9.1c0.7,3.2,1.2,5.7,1.5,7.5
		c0.8,5.1,0.1,9.4-2.1,13c-2.2,4-8.4,4.5-18.7,1.5h0.1c-9.1-2.6-22.3-3.1-39.7-1.4c-17.7,1.7-34,3.1-48.8,4.4
		C473.3,358.6,458.8,359.5,444.7,360.1z"/>
</g>
<g>
	<g>
		
			<radialGradient id="SVGID_1_" cx="527.8242" cy="353.5996" r="57.1757" gradientTransform="matrix(1 0 0 5.812937e-002 0 333.0451)" gradientUnits="userSpaceOnUse">
			<stop  offset="0" style="stop-color:#FFFFFF"/>
			<stop  offset="0.5412" style="stop-color:#FFFFFF;stop-opacity:0.8118"/>
			<stop  offset="1" style="stop-color:#FFFFFF;stop-opacity:0"/>
		</radialGradient>
		<path fill-rule="evenodd" clip-rule="evenodd" fill="url(#SVGID_1_)" d="M470.7,357.5l-0.1-1c5.7-0.4,11.5-0.8,17.4-1.3
			c14.8-1.2,31.1-2.7,48.8-4.4c17.8-1.7,31.3-1.2,40.5,1.5c3,0.9,5.6,1.4,7.8,1.7l-0.1,1c-2.3-0.2-4.9-0.8-8-1.7
			c-9.2-2.7-22.5-3.1-40.1-1.5c-17.7,1.7-33.9,3.1-48.8,4.4C482.2,356.6,476.4,357,470.7,357.5z"/>
		
			<radialGradient id="SVGID_2_" cx="315" cy="372" r="143.4" gradientTransform="matrix(1 0 0 0.2048 0 295.7971)" gradientUnits="userSpaceOnUse">
			<stop  offset="0" style="stop-color:#FFFFFF"/>
			<stop  offset="0.5412" style="stop-color:#FFFFFF;stop-opacity:0.8118"/>
			<stop  offset="1" style="stop-color:#FFFFFF;stop-opacity:0"/>
		</radialGradient>
		<path fill-rule="evenodd" clip-rule="evenodd" fill="url(#SVGID_2_)" d="M375.8,365.7c9.9-1.4,19-2.7,27.2-3.7
			c18-2.3,31.9-3.7,41.6-4.1c0.6,0,1.2,0,1.8,0v1c-0.6,0-1.2,0-1.8,0c-9.7,0.4-23.6,1.8-41.7,4.1c-8.2,1-17.2,2.3-27,3.7
			c-21.7,3.1-47.5,4.7-77.5,4.8c-14,0-28.8-0.2-44.6-0.9c-15-0.6-28-1.2-38.9-1.9c-15.8-1-27.3-2.1-34.6-3.3l0.1-1
			c7.3,1.2,18.8,2.3,34.5,3.3c10.9,0.7,23.9,1.3,39,1.9c15.8,0.6,30.6,0.9,44.5,0.9C328.4,370.4,354.2,368.8,375.8,365.7z"/>
		
			<radialGradient id="SVGID_3_" cx="592.75" cy="339.1001" r="3.175" gradientTransform="matrix(1 0 0 4.8268 0 -1297.6587)" gradientUnits="userSpaceOnUse">
			<stop  offset="0" style="stop-color:#FFFFFF"/>
			<stop  offset="0.5412" style="stop-color:#FFFFFF;stop-opacity:0.8118"/>
			<stop  offset="1" style="stop-color:#FFFFFF;stop-opacity:0"/>
		</radialGradient>
		<path fill-rule="evenodd" clip-rule="evenodd" fill="url(#SVGID_3_)" d="M592.1,325.5c-0.1-0.6-0.2-1.1-0.3-1.6l1-0.2
			c0.1,0.5,0.2,1.1,0.4,1.8c0.4,1.9,0.9,4.3,1.5,7.3c0.7,3.2,1.2,5.7,1.5,7.4c0.8,4.7,0.1,8.8-1.9,12c-0.9,1.4-2.4,2.3-4.5,2.7
			l-0.2-1c1.8-0.3,3.1-1,3.9-2.2c1.9-3.1,2.4-6.9,1.8-11.4c-0.3-1.7-0.8-4.1-1.5-7.4C593,329.9,592.5,327.4,592.1,325.5z"/>
		
			<radialGradient id="SVGID_4_" cx="103.7998" cy="216.2998" r="27" gradientTransform="matrix(1 0 0 1.5815 0 -125.7743)" gradientUnits="userSpaceOnUse">
			<stop  offset="0" style="stop-color:#FFFFFF"/>
			<stop  offset="0.5412" style="stop-color:#FFFFFF;stop-opacity:0.8118"/>
			<stop  offset="1" style="stop-color:#FFFFFF;stop-opacity:0"/>
		</radialGradient>
		<path fill-rule="evenodd" clip-rule="evenodd" fill="url(#SVGID_4_)" d="M77.3,187.9l-1-0.2c0.9-4.7,2.5-8.3,4.7-10.8
			c2.2-2.6,4.8-3.9,7.8-3.8c2.9,0,5.6,2,8.2,5.9c2.4,3.7,4.6,7.6,6.5,11.6c1.9,3.9,4.2,8.7,6.8,14.4c2.5,5.7,3.9,8.7,4.1,9.2
			c3.8,8.7,7.3,16.8,10.3,24.3l0,0c2.3,5.2,4.6,12,6.7,20.4l-0.9,0.3c-2.1-8.4-4.3-15.1-6.6-20.3c-3-7.4-6.4-15.5-10.2-24.3
			c-0.2-0.5-1.6-3.5-4.1-9.2c-2.6-5.7-4.8-10.5-6.8-14.4c-1.9-3.9-4.1-7.8-6.5-11.4c-2.3-3.6-4.8-5.4-7.4-5.5c-2.7-0.1-5,1.1-7,3.4
			C79.6,180,78.2,183.4,77.3,187.9z"/>
		
			<radialGradient id="SVGID_5_" cx="151.6001" cy="313.8999" r="19.2" gradientTransform="matrix(1 0 0 2.5052 0 -472.4847)" gradientUnits="userSpaceOnUse">
			<stop  offset="0" style="stop-color:#FFFFFF"/>
			<stop  offset="0.5412" style="stop-color:#FFFFFF;stop-opacity:0.8118"/>
			<stop  offset="1" style="stop-color:#FFFFFF;stop-opacity:0"/>
		</radialGradient>
		<path fill-rule="evenodd" clip-rule="evenodd" fill="url(#SVGID_5_)" d="M132,266l0.9-0.3c1.3,5.4,3,12.8,5.3,22.3
			c2.6,9.9,5.6,18.2,9.1,25.1c4.5,8.7,8.5,18.4,12,28.9c3.2,9.8,7.1,16.3,11.9,19.5l-0.6,0.8c-4.9-3.3-9-10-12.3-20.1
			c-3.5-10.5-7.4-20.1-11.9-28.8c-3.5-6.9-6.6-15.3-9.2-25.3C135,278.8,133.3,271.4,132,266z"/>
	</g>
</g>
</svg>
