<?xml version="1.0" encoding="utf-8"?>
<!-- Generator: Adobe Illustrator 16.0.0, SVG Export Plug-In . SVG Version: 6.00 Build 0)  -->
<!DOCTYPE svg PUBLIC "-//W3C//DTD SVG 1.1//EN" "http://www.w3.org/Graphics/SVG/1.1/DTD/svg11.dtd">
<svg version="1.1" id="Layer_1" xmlns="http://www.w3.org/2000/svg" xmlns:xlink="http://www.w3.org/1999/xlink" x="0px" y="0px"
	 width="700px" height="700px" viewBox="0 0 700 700" enable-background="new 0 0 700 700" xml:space="preserve">
<g>
	<path fill-opacity="0.2471" d="M48.8,322.8v4c-6.5,0.3-11.3,0.7-14.6,1.2c-4.4,0.9-6.3,4.9-5.9,12c0.6,9.3,0.4,14.3-0.6,15
		c0.3,0.1,1.2,2,2.7,5.8c1.9,4.3,19.1,10.3,51.5,18c33.3,7.9,59.3,13,78.1,15.3c21.8,2.601,33.1,4,33.8,4.101
		c12.1,1.8,23.1,5.1,33.1,9.8c3.7,1.7,11.2,5.9,22.4,12.5c8,4.7,15,8,21.3,9.7c6.2,1.6,13.2,2.399,20.9,2.3v4
		c-8.1,0.1-15.4-0.7-22-2.4c-6.5-1.699-13.9-5.1-22.3-10c-11-6.6-18.4-10.699-22-12.3l0,0c-9.7-4.5-20.4-7.7-32.1-9.5
		c-0.9-0.1-12.1-1.5-33.7-4.1c-18.9-2.3-45.1-7.4-78.6-15.4c-34.5-8.3-52.6-15.1-54.3-20.5l0,0c-2.3-6.1-2.9-9.5-1.6-10.1l0,0
		c0-0.4-0.3-4.3-0.8-11.7c-0.7-9.9,2.4-15.3,9.3-16.2C37,323.5,42,323.1,48.8,322.8z M42.9,213.6c0.7,0,1.4-0.1,2.1-0.1l-0.8,4
		c-0.7,0-1.5,0-2.2,0.1L42.9,213.6z M46,208.8c1.4,0,2.8,0,4.1,0l-0.9,4c-1.4,0-2.8,0-4.1,0L46,208.8z M66.9,204.5
		c0.6,0,1.1,0.2,1.5,0.6s0.5,0.8,0.5,1.4s-0.2,1-0.5,1.5c-0.4,0.4-0.9,0.5-1.5,0.5c-0.9,0-6.4,0-16.6,0l0.6-4
		C60.7,204.5,66,204.5,66.9,204.5z M80.5,189h-0.1c1.5,0.4,2,1,1.5,1.9l0,0l-7.4,0.1l-0.1-0.1H70c0-0.6,0.4-1.1,1.3-1.5h2l0.1,0.1
		c-0.4,0.3-0.1,0.6,0.9,1c0-0.1,0-0.1,0-0.2c0-0.5,0.3-0.9,1-1.3H80.5z"/>
</g>
<g>
	<path d="M77.4,189.4c-0.1,0.5,0.7,0.9,0.3,1.1c-0.4,0.3-0.8,0.4-1.3,0.3c-0.2,0-0.4-0.1-0.6-0.2c-0.4,0.2-0.8,0.3-1.3,0.1
		c-0.5-0.2-0.8-0.4-1-0.9c-7.7-14.2-14.7-19.8-20.9-16.9l0,0c-6.7,3.5-12.7,16.1-17.9,37.7v-0.1c-0.3,1.3-0.6,2.6-0.9,4
		c-0.2,0.9-0.4,1.8-0.5,2.8l-0.1,0.1c-4.7,21.8-8,50.5-9.9,85.9c-1.9,34.3,0.9,52.9,8.5,55.7c8.3,2.7,28.5,6.6,60.6,11.5
		c17.7,2.8,43.2,6.4,76.5,10.8h0.1c20.2,3.2,37.7,7.4,52.5,12.7c10.4,3.7,20.7,8.5,30.8,14.5c12.6,7.3,19.6,11.3,21.1,12l0,0
		c6.2,2.9,12.9,5.8,20,8.6c0.4,0.2,0.8,0.5,1,1c0.2,0.4,0.2,0.9,0,1.301c-0.2,0.399-0.5,0.8-1,1c-0.5,0.199-0.9,0.199-1.3,0
		c-7.2-2.9-13.9-5.801-20.2-8.801c-1.5-0.699-8.6-4.8-21.4-12.1l0,0c-9.9-5.8-20-10.5-30.3-14.2c-14.6-5.2-31.9-9.399-51.9-12.5
		c-33.3-4.5-58.8-8.1-76.5-10.8c-32.4-5-52.8-8.9-61.1-11.7c-9.3-2.8-12.9-22.5-10.9-59.2c1.9-35.6,5.3-64.399,10-86.399
		c0.2-1,0.4-1.9,0.6-2.8c0.3-1.4,0.6-2.7,0.9-4l0,0c5.5-23,12.1-36.3,19.7-39.9l0,0c7.6-4.2,15.7,1.3,24.3,16.4"/>
</g>
<g>
	<g>
		
			<radialGradient id="SVGID_1_" cx="359.96" cy="473.0654" r="143.4" gradientTransform="matrix(1 0 0 -0.2048 -44.96 468.8665)" gradientUnits="userSpaceOnUse">
			<stop  offset="0" style="stop-color:#FFFFFF"/>
			<stop  offset="0.5412" style="stop-color:#FFFFFF;stop-opacity:0.8118"/>
			<stop  offset="1" style="stop-color:#FFFFFF;stop-opacity:0"/>
		</radialGradient>
		<path fill="url(#SVGID_1_)" d="M271,371v0.2c-1.8,0-3.6-0.101-5.4-0.2H271z"/>
		
			<radialGradient id="SVGID_2_" cx="99.71" cy="472.9424" r="18.8495" gradientTransform="matrix(1 0 0 -0.7653 -44.96 546.9002)" gradientUnits="userSpaceOnUse">
			<stop  offset="0" style="stop-color:#FFFFFF"/>
			<stop  offset="0.5412" style="stop-color:#FFFFFF;stop-opacity:0.8118"/>
			<stop  offset="1" style="stop-color:#FFFFFF;stop-opacity:0"/>
		</radialGradient>
		<path fill="url(#SVGID_2_)" d="M74,186.6l-0.8,0.5C65.5,173.9,58.4,168.8,52,172c-5.8,2.9-11,12.1-15.6,27.5l-0.9-0.3
			c4.7-15.8,10.1-25.2,16.1-28.1C58.5,167.5,66,172.7,74,186.6z"/>
		
			<radialGradient id="SVGID_3_" cx="68.96" cy="304.6802" r="18.3249" gradientTransform="matrix(1 0 0 -4.0955 -44.96 1545.4181)" gradientUnits="userSpaceOnUse">
			<stop  offset="0" style="stop-color:#FFFFFF"/>
			<stop  offset="0.5412" style="stop-color:#FFFFFF;stop-opacity:0.8118"/>
			<stop  offset="1" style="stop-color:#FFFFFF;stop-opacity:0"/>
		</radialGradient>
		<path fill="url(#SVGID_3_)" d="M31.1,216.5l1,0.3c-0.1,0.2-0.1,0.4-0.1,0.5c-4.7,21.9-8,50.6-10,86.2c-2,35.1,1.1,54.1,9.3,56.9
			c4.8,1.6,13.6,3.5,26.4,5.899l-0.2,1C44.7,365,35.8,363,31,361.4c-8.6-2.801-12-22.101-10-57.9c1.9-35.6,5.3-64.3,10-86.3
			C31,216.9,31,216.7,31.1,216.5z"/>
		
			<radialGradient id="SVGID_4_" cx="210.3101" cy="416.2793" r="91.596" gradientTransform="matrix(1 0 0 -0.2399 -44.96 491.3154)" gradientUnits="userSpaceOnUse">
			<stop  offset="0" style="stop-color:#FFFFFF"/>
			<stop  offset="0.5412" style="stop-color:#FFFFFF;stop-opacity:0.8118"/>
			<stop  offset="1" style="stop-color:#FFFFFF;stop-opacity:0"/>
		</radialGradient>
		<path fill="url(#SVGID_4_)" d="M73.5,370l0.2-1c5.6,0.9,11.8,1.9,18.4,2.9c17.8,2.8,43.3,6.399,76.5,10.8
			c20.2,3.2,37.6,7.399,52.3,12.7c10.3,3.699,20.5,8.5,30.5,14.3c2.1,1.2,4,2.3,5.8,3.3l-0.5,0.9c-1.8-1-3.7-2.2-5.8-3.4
			c-10-5.8-20.1-10.6-30.4-14.3c-14.7-5.3-32-9.5-52.1-12.601c-33.3-4.399-58.8-8-76.5-10.8C85.3,371.9,79.2,370.9,73.5,370z"/>
		
			<radialGradient id="SVGID_5_" cx="323.5601" cy="277.4858" r="12.6252" gradientTransform="matrix(1 0 0 -0.4653 -44.96 553.5942)" gradientUnits="userSpaceOnUse">
			<stop  offset="0" style="stop-color:#FFFFFF"/>
			<stop  offset="0.5412" style="stop-color:#FFFFFF;stop-opacity:0.8118"/>
			<stop  offset="1" style="stop-color:#FFFFFF;stop-opacity:0"/>
		</radialGradient>
		<path fill="url(#SVGID_5_)" d="M291.5,430l-0.4,1c-6.6-2.7-12.9-5.5-18.8-8.2c-0.8-0.399-3-1.6-6.5-3.6l0.5-0.8
			c3.6,2,5.7,3.199,6.5,3.5l0,0C278.6,424.5,284.8,427.3,291.5,430z"/>
	</g>
</g>
<g>
	<path d="M295,429c0.1,0.1,0.3,0.3,0.4,0.5c0,0.2,0,0.5-0.1,0.8c-0.2,0.2-0.3,0.3-0.4,0.5c-0.3,0.101-0.6,0.2-0.9,0.3l0,0
		c-0.8,0.2-1.8,0-2.9-0.399c-0.2-0.101-0.3-0.3-0.3-0.5c-0.1-0.2-0.1-0.5-0.1-0.7c0.1-0.2,0.2-0.4,0.4-0.6
		c0.2-0.101,0.4-0.2,0.5-0.101c0.9,0.3,1.6,0.4,2.4,0.3v0.101c0.2-0.101,0.4-0.2,0.6-0.3C294.7,428.8,294.9,428.8,295,429z
		 M293.7,431.5c0.2-0.1,0.4-0.2,0.6-0.3c0.1-0.101,0.3-0.101,0.6,0c0.1,0.1,0.2,0.3,0.3,0.6c0.1,0.2,0,0.4-0.1,0.601
		c-0.1,0.199-0.2,0.399-0.4,0.5c-0.3,0.1-0.5,0.199-0.8,0.3c-0.9,0.1-1.8,0-2.8-0.4c-0.2-0.1-0.4-0.2-0.5-0.5c0-0.2,0-0.5,0.1-0.8
		c0-0.2,0.1-0.4,0.2-0.5c0.2-0.1,0.3-0.1,0.5-0.1C292.3,431.5,293,431.5,293.7,431.5L293.7,431.5z M293.5,434c0.3,0,0.5-0.1,0.6-0.2
		c0.2-0.1,0.3-0.1,0.5,0c0.2,0.101,0.3,0.3,0.3,0.601c0.1,0.199,0,0.5-0.1,0.8c0,0.2-0.1,0.3-0.3,0.399
		c-0.3,0.101-0.5,0.2-0.8,0.301l0,0c-0.9,0.199-1.8,0-2.9-0.301c-0.2-0.1-0.3-0.199-0.4-0.5c-0.1-0.199-0.1-0.399,0-0.699
		c0.1-0.301,0.1-0.5,0.2-0.5c0.3-0.101,0.5-0.2,0.6,0C292,434,292.8,434,293.5,434L293.5,434z"/>
</g>
</svg>
