<?xml version="1.0" encoding="utf-8"?>
<!-- Generator: Adobe Illustrator 16.0.0, SVG Export Plug-In . SVG Version: 6.00 Build 0)  -->
<!DOCTYPE svg PUBLIC "-//W3C//DTD SVG 1.1//EN" "http://www.w3.org/Graphics/SVG/1.1/DTD/svg11.dtd">
<svg version="1.1" id="Layer_1" xmlns="http://www.w3.org/2000/svg" xmlns:xlink="http://www.w3.org/1999/xlink" x="0px" y="0px"
	 width="106.33px" height="112px" viewBox="0 0 106.33 112" enable-background="new 0 0 106.33 112" xml:space="preserve">
<g>
	<g>
		<g>
			<linearGradient id="SVGID_1_" gradientUnits="userSpaceOnUse" x1="5.6538" y1="14.0337" x2="102.6788" y2="14.0337">
				<stop  offset="0" style="stop-color:#FFFFFF"/>
				<stop  offset="1" style="stop-color:#9D9D9D"/>
			</linearGradient>
			<path fill-rule="evenodd" clip-rule="evenodd" fill="url(#SVGID_1_)" d="M98.22,5.88h4.05c-0.2,0.67-0.45,1.28-0.75,1.85
				c-0.1,0.17-0.22,0.33-0.35,0.5c-2.07,3.17-6.3,5.97-12.7,8.4c-9.43,3.7-20.87,5.55-34.3,5.55c-13.37,0-24.78-1.85-34.25-5.55
				c-5.83-2.2-9.87-4.72-12.1-7.55C7.45,8.65,7.13,8.2,6.87,7.73c-0.17-0.27-0.3-0.53-0.4-0.8C6.4,6.8,6.35,6.67,6.32,6.53
				c-0.1-0.2-0.17-0.42-0.2-0.65h4.1c-0.01,0.02-0.01,0.05,0,0.08c0.21,0.66,0.53,1.3,0.95,1.92V7.86c1.81,2.91,5.72,5.48,11.73,7.7
				c8.69,3.21,19.11,4.82,31.27,4.82c12.24,0,22.66-1.61,31.25-4.82h-0.03c6.03-2.23,9.99-4.79,11.88-7.7h0.03
				c0.37-0.62,0.67-1.25,0.9-1.9C98.2,5.93,98.21,5.91,98.22,5.88z"/>
			<linearGradient id="SVGID_2_" gradientUnits="userSpaceOnUse" x1="5.6538" y1="14.5337" x2="102.6788" y2="14.5337">
				<stop  offset="0" style="stop-color:#8A8686"/>
				<stop  offset="0.1961" style="stop-color:#FFFFFF"/>
				<stop  offset="0.3294" style="stop-color:#D5D5D5"/>
				<stop  offset="0.5647" style="stop-color:#A39D9D"/>
				<stop  offset="0.7529" style="stop-color:#F7DEDE"/>
				<stop  offset="1" style="stop-color:#645454"/>
			</linearGradient>
			<path fill-rule="evenodd" clip-rule="evenodd" fill="url(#SVGID_2_)" d="M102.27,5.88h0.25c-0.1,0.67-0.27,1.28-0.5,1.85
				c-0.23,0.57-0.52,1.08-0.85,1.55c-2.07,3.17-6.3,5.97-12.7,8.4c-9.43,3.67-20.87,5.5-34.3,5.5c-13.37,0-24.78-1.83-34.25-5.5
				c-5.83-2.2-9.87-4.72-12.1-7.55C7.25,9.43,6.8,8.72,6.47,7.98c-0.07-0.1-0.1-0.18-0.1-0.25C6.33,7.67,6.32,7.6,6.32,7.53
				C6.08,7,5.92,6.45,5.82,5.88h0.3c0.03,0.23,0.1,0.45,0.2,0.65C6.35,6.67,6.4,6.8,6.47,6.93c0.1,0.27,0.23,0.53,0.4,0.8
				C7.13,8.2,7.45,8.65,7.82,9.08c2.23,2.83,6.27,5.35,12.1,7.55c9.47,3.7,20.88,5.55,34.25,5.55c13.43,0,24.87-1.85,34.3-5.55
				c6.4-2.43,10.63-5.23,12.7-8.4c0.13-0.17,0.25-0.33,0.35-0.5C101.82,7.17,102.07,6.55,102.27,5.88z"/>
			<linearGradient id="SVGID_3_" gradientUnits="userSpaceOnUse" x1="7.8164" y1="59.0093" x2="101.1665" y2="59.0093">
				<stop  offset="0.0353" style="stop-color:#F1FEF4;stop-opacity:0.2078"/>
				<stop  offset="0.1333" style="stop-color:#838B58;stop-opacity:0.1765"/>
				<stop  offset="0.2078" style="stop-color:#FFFFFF;stop-opacity:0.2706"/>
				<stop  offset="0.2745" style="stop-color:#D2EBD0;stop-opacity:0.7059"/>
				<stop  offset="0.3373" style="stop-color:#CEE7CC;stop-opacity:0.4118"/>
				<stop  offset="0.4471" style="stop-color:#BCD7C8;stop-opacity:0"/>
				<stop  offset="0.5961" style="stop-color:#8B9C92;stop-opacity:0"/>
				<stop  offset="0.7059" style="stop-color:#9AAEA2;stop-opacity:0.4824"/>
				<stop  offset="0.7608" style="stop-color:#95A797;stop-opacity:0.251"/>
				<stop  offset="0.8196" style="stop-color:#889E92;stop-opacity:0.4"/>
				<stop  offset="0.8863" style="stop-color:#89A08E;stop-opacity:0.5176"/>
				<stop  offset="0.9451" style="stop-color:#EDF8ED;stop-opacity:0.902"/>
				<stop  offset="1" style="stop-color:#D3DFD5;stop-opacity:0.902"/>
			</linearGradient>
			<path fill-rule="evenodd" clip-rule="evenodd" fill="url(#SVGID_3_)" d="M101.17,9.28c-1.8,2.93-2.77,6.37-2.9,10.3l0.05,73.05
				c-0.23,4.43-4.57,8.2-13,11.3c-8.57,3.2-18.95,4.8-31.15,4.8c-12.13,0-22.53-1.6-31.2-4.8c-8.57-3.2-12.85-7.08-12.85-11.65
				c0-0.57,0.07-1.12,0.2-1.65V19.58c-0.1-3.47-0.93-6.62-2.5-9.45c2.23,2.83,6.27,5.35,12.1,7.55c9.47,3.67,20.88,5.5,34.25,5.5
				c13.43,0,24.87-1.83,34.3-5.5C94.87,15.25,99.1,12.45,101.17,9.28z"/>
			
				<radialGradient id="SVGID_4_" cx="54.5161" cy="-3.9663" r="40.5625" gradientTransform="matrix(1 0 0 0.5581 0 -1.7527)" gradientUnits="userSpaceOnUse">
				<stop  offset="0" style="stop-color:#FFFFFF"/>
				<stop  offset="0.1647" style="stop-color:#FEFEFE"/>
				<stop  offset="0.4941" style="stop-color:#FCFCFC;stop-opacity:0.6667"/>
				<stop  offset="1" style="stop-color:#F4F4F4;stop-opacity:0.0275"/>
			</radialGradient>
			<path fill-rule="evenodd" clip-rule="evenodd" fill="url(#SVGID_4_)" d="M98.22,5.88c0,0.02-0.01,0.05-0.02,0.08
				c-0.23,0.65-0.53,1.28-0.9,1.9h-0.03c-1.88,2.91-5.84,5.47-11.88,7.7h0.03c-8.59,3.21-19.01,4.82-31.25,4.82
				c-12.16,0-22.59-1.61-31.27-4.82c-6-2.23-9.91-4.79-11.73-7.7v0.02c-0.42-0.62-0.74-1.27-0.95-1.92c-0.01-0.03-0.01-0.05,0-0.08
				c0-0.04,0-0.08,0.03-0.13c0.03-0.06,0.08-0.1,0.15-0.13c0.07-0.02,0.14-0.01,0.2,0.03c0.06,0.03,0.1,0.08,0.13,0.15
				c0.19,0.61,0.47,1.2,0.85,1.77v0.02c1.79,2.83,5.61,5.33,11.48,7.5c8.65,3.19,19.02,4.78,31.13,4.77
				c12.17,0,22.53-1.59,31.08-4.77c5.9-2.17,9.77-4.67,11.63-7.5h-0.03c0.37-0.58,0.67-1.18,0.9-1.8c0.02-0.07,0.06-0.12,0.13-0.15
				c0.06-0.03,0.12-0.03,0.17,0c0.07,0.02,0.12,0.06,0.15,0.13C98.21,5.82,98.22,5.85,98.22,5.88z"/>
		</g>
	</g>
	<g>
		<linearGradient id="SVGID_5_" gradientUnits="userSpaceOnUse" x1="5.6538" y1="59.0044" x2="102.6788" y2="59.0044">
			<stop  offset="0" style="stop-color:#FFFFFF"/>
			<stop  offset="0.9765" style="stop-color:#808080"/>
		</linearGradient>
		<path fill-rule="evenodd" clip-rule="evenodd" fill="url(#SVGID_5_)" d="M7.59,10.26c-0.03-0.06-0.04-0.13-0.02-0.2
			c0.02-0.07,0.06-0.12,0.13-0.15c0.06-0.03,0.13-0.04,0.2-0.03c0.07,0.02,0.12,0.06,0.15,0.13c1.58,2.87,2.43,6.06,2.52,9.58v71.1
			c-0.13,0.52-0.2,1.05-0.2,1.6c0.03,4.46,4.27,8.27,12.7,11.42h-0.02c8.65,3.19,19.02,4.78,31.13,4.78
			c12.17,0,22.53-1.59,31.08-4.78c3-1.09,5.48-2.28,7.42-3.58h0.03c3.4-2.25,5.19-4.75,5.38-7.5l-0.05-73.05
			c0.13-3.98,1.11-7.46,2.93-10.42c0.04-0.06,0.1-0.1,0.17-0.13c0.06-0.02,0.12-0.01,0.17,0.02c0.06,0.04,0.1,0.1,0.13,0.17
			c0.02,0.06,0.01,0.12-0.03,0.18c-1.78,2.9-2.74,6.29-2.88,10.17l0.05,73.08c-0.16,2.9-2.04,5.53-5.63,7.88h0.02
			c-1.99,1.31-4.51,2.52-7.58,3.63h0.03c-8.59,3.21-19.01,4.82-31.25,4.83c-12.16,0-22.59-1.61-31.27-4.83
			c-8.71-3.25-13.05-7.21-13.02-11.88c0-0.58,0.06-1.15,0.2-1.7v-71C9.97,16.16,9.14,13.05,7.59,10.26z"/>
	</g>
	<g>
		
			<linearGradient id="SVGID_6_" gradientUnits="userSpaceOnUse" x1="49.5068" y1="-155.9204" x2="147.4026" y2="-155.9204" gradientTransform="matrix(0.8581 0.5136 -0.4865 0.8742 -101.3127 95.6005)">
			<stop  offset="0" style="stop-color:#FFFFFF"/>
			<stop  offset="0.9765" style="stop-color:#808080"/>
		</linearGradient>
		<path fill-rule="evenodd" clip-rule="evenodd" fill="url(#SVGID_6_)" d="M102.67,3.58c0.07,0,0.13,0.03,0.17,0.08
			c0.05,0.05,0.07,0.11,0.08,0.17c0,0.07,0,0.17,0,0.3c-0.07,2.23-0.59,4-1.55,5.3V9.41c-2.08,3.21-6.34,6.04-12.8,8.5
			c-9.46,3.68-20.93,5.52-34.4,5.52c-13.41,0-24.85-1.84-34.35-5.52c-5.89-2.22-9.95-4.76-12.2-7.63c-0.58-0.72-1.04-1.45-1.38-2.2
			c-0.08-0.15-0.14-0.31-0.18-0.5C5.63,6.57,5.42,5.52,5.42,4.43c0-0.18,0.02-0.37,0.05-0.55c0.01-0.06,0.04-0.11,0.1-0.15
			c0.06-0.04,0.13-0.06,0.2-0.05c0.06,0.01,0.11,0.04,0.15,0.1c0.04,0.06,0.06,0.13,0.05,0.2c-0.03,0.15-0.05,0.3-0.05,0.45
			c0,1.03,0.21,2.03,0.63,3c0.01,0.02,0.02,0.03,0.02,0.05c0.03,0.15,0.07,0.28,0.13,0.4C7.02,8.6,7.46,9.3,8.02,9.98
			c2.22,2.8,6.22,5.29,12,7.48c9.44,3.65,20.82,5.48,34.15,5.48c13.39,0,24.79-1.82,34.2-5.48c6.34-2.41,10.54-5.17,12.6-8.3V9.13
			c0.9-1.23,1.39-2.9,1.45-5c0-0.13,0-0.23,0-0.3c0-0.07,0.03-0.13,0.08-0.17C102.54,3.61,102.6,3.58,102.67,3.58z"/>
	</g>
	<g>
		
			<radialGradient id="SVGID_7_" cx="-429.7793" cy="-180.4595" r="17.7757" gradientTransform="matrix(0.8245 0.1451 -7.645503e-003 0.1951 382.7941 122.0728)" gradientUnits="userSpaceOnUse">
			<stop  offset="0" style="stop-color:#FFFFFF"/>
			<stop  offset="0.1765" style="stop-color:#FFFFFF"/>
			<stop  offset="0.3686" style="stop-color:#FFFFFF;stop-opacity:0.4902"/>
			<stop  offset="0.5529" style="stop-color:#FFFFFF;stop-opacity:0.2"/>
			<stop  offset="0.7843" style="stop-color:#FFFFFF;stop-opacity:0.0275"/>
			<stop  offset="1" style="stop-color:#FDFDFD;stop-opacity:0"/>
		</radialGradient>
		<path fill-rule="evenodd" clip-rule="evenodd" fill="url(#SVGID_7_)" d="M39.92,28.75c-2.82,0.17-6.23-0.1-10.24-0.82
			c-3.99-0.69-7.43-1.63-10.33-2.82c-2.82-1.16-4.21-2.21-4.18-3.16c0.03-0.95,1.48-1.53,4.35-1.73c2.96-0.15,6.43,0.13,10.41,0.82
			c4.01,0.72,7.4,1.66,10.16,2.82c2.87,1.18,4.29,2.25,4.27,3.21C44.33,28.01,42.85,28.58,39.92,28.75z"/>
	</g>
	<g>
		
			<radialGradient id="SVGID_8_" cx="-263.4526" cy="76.3472" r="47.3251" gradientTransform="matrix(-1.325409e-003 0.867 -0.1131 9.160097e-004 24.7501 280.2005)" gradientUnits="userSpaceOnUse">
			<stop  offset="0" style="stop-color:#FFFFFF"/>
			<stop  offset="0.1765" style="stop-color:#FFFFFF"/>
			<stop  offset="0.3686" style="stop-color:#FFFFFF;stop-opacity:0.4902"/>
			<stop  offset="0.5529" style="stop-color:#FFFFFF;stop-opacity:0.2"/>
			<stop  offset="0.7843" style="stop-color:#FFFFFF;stop-opacity:0.0275"/>
			<stop  offset="1" style="stop-color:#FDFDFD;stop-opacity:0"/>
		</radialGradient>
		<path fill-rule="evenodd" clip-rule="evenodd" fill="url(#SVGID_8_)" d="M16.51,10.89c1.48,0,2.75,3.96,3.81,11.88
			c1.03,8.12,1.53,17.8,1.51,29.04c-0.03,11.21-0.56,20.69-1.59,28.44c-1.06,8.18-2.33,12.27-3.81,12.27s-2.72-4.06-3.72-12.18
			c-1.06-7.75-1.58-17.22-1.55-28.44c0.03-11.24,0.57-20.92,1.63-29.04C13.79,14.88,15.03,10.89,16.51,10.89z"/>
	</g>
</g>
</svg>
