<?xml version="1.0" encoding="utf-8"?>
<!-- Generator: Adobe Illustrator 16.0.0, SVG Export Plug-In . SVG Version: 6.00 Build 0)  -->
<!DOCTYPE svg PUBLIC "-//W3C//DTD SVG 1.1//EN" "http://www.w3.org/Graphics/SVG/1.1/DTD/svg11.dtd">
<svg version="1.1" id="Layer_1" xmlns="http://www.w3.org/2000/svg" xmlns:xlink="http://www.w3.org/1999/xlink" x="0px" y="0px"
	 width="700px" height="700px" viewBox="0 0 700 700" enable-background="new 0 0 700 700" xml:space="preserve">
<g>
	<path fill-rule="evenodd" clip-rule="evenodd" fill-opacity="0.2471" d="M75.9,583.5v0.7c0.4,0.8,1,1.3,1.9,1.8c-1.3,0-2.5,0-3.7,0
		c-0.2-1.1-0.1-2,0.3-2.5C74.7,583.5,75.3,583.5,75.9,583.5z M53,589.8c-0.3,0-0.7-0.1-1-0.1v-0.8l1-0.4V589.8z M56.9,587.1h0.9
		v-0.3l1.7-0.7c0.2,0.1,2.3,0.2,6.5,0.3c2.1,0,4.8,0,8,0v4c-2.8,0-5.5,0-8,0c-3.5-0.1-6.8-0.2-9.8-0.3v-2.7L56.9,587.1z M79.2,566.8
		c-0.7-0.5-1-0.9-0.9-1.4c0.1-0.4,0.4-0.8,1-1.2H88c0.1,0.2,0.2,0.5,0.3,0.8c0.1,0.5-0.1,1-0.4,1.4c-0.3,0.4-0.8,0.6-1.3,0.6
		C85.3,567,82.8,567,79.2,566.8z M276.1,463.5L276.1,463.5c-5.7,0.2-11.9-0.6-18.6-2.3c-6.5-1.7-14.2-3.7-23-5.8
		c-8.8-2.1-17.9-4-27.3-5.6c-9.4-1.6-24.7-3.6-45.9-6c-46-0.2-75.7,0.6-89,2.5c-13.8,2-22.6,10.4-26.6,25.4
		c-4.3,15.7-8.1,39.3-11.6,71c-3.6,31.7-5.9,53-7.1,63.9c-1.1,10-0.2,16.3,2.7,19c1.8,1.3,7,1.8,15.5,1.3v3.9
		c-12.5,1.3-19-0.8-19.6-6.5c-0.8-4-1.2-9.8-1.1-17.5c0.2-11.3,2-32.8,5.6-64.5h0c3.6-31.9,7.5-55.8,11.8-71.5
		c4.5-16.7,14.4-26.1,29.9-28.3c13.5-1.9,43.4-2.8,89.8-2.6c0.1,0,0.1,0,0.3,0c21.3,2.3,36.6,4.3,46.1,6c9.5,1.6,18.6,3.5,27.5,5.7
		c8.8,2.1,16.5,4,23,5.8h0c6.3,1.6,12.1,2.4,17.5,2.2c5.3-0.2,9.1-0.5,11.4-1c0.5-0.1,1.6,0,3.3,0.3c0,0,0.1,0,0.1,0.1v2.8
		c-1.1,0.4-2.4,0.7-3.8,1C285.3,463,281.7,463.3,276.1,463.5z"/>
</g>
<g>
	<path fill-rule="evenodd" clip-rule="evenodd" d="M255.3,456.3C255.3,456.3,255.3,456.3,255.3,456.3c-12.2-5.3-27.8-10.2-46.8-14.8
		c-19.1-4.7-43.1-6.9-72.3-6.8c-29.3,0.1-50.4,0.2-63.4,0.2c-12.1,0.2-22.6,18.1-31.3,53.8C28.3,537.5,23.5,574.4,27,599.5
		c1.7,12.4,3.4,20.5,4.9,24.3c0.2,0.4,0.3,0.8,0.3,1c0.2-0.5,0.5-1.3,0.8-2.5c2.7-9.9,4.5-17.5,5.6-22.8c1.2-6.1,5.2-9.7,12.1-10.7
		c5.6-1,12-7.6,19.2-19.8c4.1-6.9,7.5-10.8,10.4-11.8c2-0.8,3.7-0.5,5.1,0.8c1.2,1,2.1,2.8,2.9,5.5c0.1,0.4,0.1,0.9-0.1,1.3
		c-0.3,0.4-0.6,0.7-1,0.9c-0.5,0.1-0.9,0.1-1.4-0.2c-0.4-0.3-0.7-0.6-0.8-1c-0.5-1.8-1.2-3.1-1.9-3.8c-0.4-0.4-0.9-0.4-1.5-0.2
		c-2.3,1-5.1,4.5-8.6,10.3c-8,13.4-15.2,20.6-21.7,21.4c-5.2,0.7-8.3,3.4-9.2,7.9c-1.1,5.3-3,13-5.7,23c-0.9,3.3-1.9,5.1-3.1,5.4
		c-1.7,1-3.2-0.2-4.5-3.4c-1.6-3.9-3.3-12.3-5.1-25.1c-3.7-25.4,1.2-62.8,14.5-112.1c9.3-38,20.9-56.8,34.7-56.4
		c13,0,34.1,0,63.4-0.2c29.4-0.1,53.8,2.2,73.1,6.9c19.2,4.7,34.9,9.7,47.3,14.9h0c12,4.7,23.7,3.4,35.2-3.9
		c0.4-0.3,0.9-0.4,1.4-0.3c0.5,0.1,0.8,0.3,1.1,0.8c0.2,0.4,0.3,0.8,0.2,1.3c-0.1,0.5-0.4,0.8-0.8,1.1
		C281.2,460.1,268.4,461.5,255.3,456.3z"/>
</g>
<g>
	<g>
		
			<radialGradient id="SVGID_1_" cx="268.7998" cy="454.1504" r="23.025" gradientTransform="matrix(1 0 0 0.1498 0 386.1018)" gradientUnits="userSpaceOnUse">
			<stop  offset="0" style="stop-color:#FFFFFF"/>
			<stop  offset="0.5412" style="stop-color:#FFFFFF;stop-opacity:0.8118"/>
			<stop  offset="1" style="stop-color:#FFFFFF;stop-opacity:0"/>
		</radialGradient>
		<path fill-rule="evenodd" clip-rule="evenodd" fill="url(#SVGID_1_)" d="M255.8,455.2c-3.2-1.3-6.5-2.7-10.1-4l0.4-1
			c3.6,1.3,7,2.7,10.1,4c12.1,4.8,23.9,3.6,35.5-3.5l0.5,0.9C280.3,458.9,268.2,460.1,255.8,455.2L255.8,455.2z"/>
		
			<radialGradient id="SVGID_2_" cx="23.2002" cy="484.7998" r="103.8473" gradientTransform="matrix(0.8448 0.5351 -0.884 1.3955 432.1798 -204.1695)" gradientUnits="userSpaceOnUse">
			<stop  offset="0" style="stop-color:#FFFFFF"/>
			<stop  offset="0.5412" style="stop-color:#FFFFFF;stop-opacity:0.8118"/>
			<stop  offset="1" style="stop-color:#FFFFFF;stop-opacity:0"/>
		</radialGradient>
		<path fill-rule="evenodd" clip-rule="evenodd" fill="url(#SVGID_2_)" d="M236.8,447.2l-0.3,0.9c-8.3-2.7-17.5-5.3-27.7-7.8
			c-19.2-4.7-43.3-7-72.5-6.8c-29.3,0.1-50.4,0.2-63.4,0.2c-12.8,0-23.6,18.3-32.5,54.8c-13.3,48.9-18.1,86-14.6,111.2
			c1.8,12.5,3.4,20.7,5,24.5c0.6,1.5,1.2,2.3,1.6,2.1c0.6-0.3,1.2-1.6,1.9-3.8c1.2-4.7,2.3-8.8,3.3-12.5l1,0.3
			c-0.9,3.6-2,7.8-3.3,12.5c-0.8,2.7-1.6,4.2-2.4,4.5c-1,0.5-2-0.5-2.9-2.8c-1.6-3.8-3.3-12.1-5.1-24.8
			c-3.6-25.3,1.3-62.5,14.6-111.6c9.1-37.2,20.2-55.7,33.5-55.5c13,0,34.1,0,63.4-0.2c29.3-0.1,53.6,2.2,72.8,6.9
			C219.3,441.9,228.5,444.5,236.8,447.2z"/>
		
			<radialGradient id="SVGID_3_" cx="66.25" cy="575.2959" r="20.4519" gradientTransform="matrix(1 0 0 0.8203 0 103.3845)" gradientUnits="userSpaceOnUse">
			<stop  offset="0" style="stop-color:#FFFFFF"/>
			<stop  offset="0.5412" style="stop-color:#FFFFFF;stop-opacity:0.8118"/>
			<stop  offset="1" style="stop-color:#FFFFFF;stop-opacity:0"/>
		</radialGradient>
		<path fill-rule="evenodd" clip-rule="evenodd" fill="url(#SVGID_3_)" d="M51,590c5.9-0.9,12.6-7.7,20.1-20.3
			c3.9-6.5,7.1-10.3,9.8-11.3c1.4-0.6,2.7-0.3,3.8,0.7c1,0.9,1.9,2.5,2.6,4.8l-1,0.3c-0.6-2.1-1.4-3.5-2.3-4.3
			c-0.8-0.7-1.7-0.9-2.8-0.5c-2.5,1-5.6,4.6-9.3,10.9c-7.7,13-14.7,19.9-20.8,20.8c-2,0.3-3.7,0.8-5.1,1.6l-0.5-0.9
			C47,590.8,48.9,590.3,51,590z"/>
	</g>
</g>
<g>
	<path fill-rule="evenodd" clip-rule="evenodd" d="M294,445.2c0.2-0.1,0.4-0.2,0.6-0.3c0.1-0.1,0.3-0.1,0.4,0.1
		c0.1,0.1,0.3,0.3,0.4,0.5c0,0.2,0,0.5-0.1,0.8c-0.2,0.2-0.3,0.3-0.4,0.5c-0.3,0.1-0.6,0.2-0.9,0.3h0c-0.8,0.2-1.8,0-2.9-0.4
		c-0.2-0.1-0.3-0.3-0.3-0.5c-0.1-0.2-0.1-0.5-0.1-0.7c0.1-0.2,0.2-0.4,0.4-0.6c0.2-0.1,0.4-0.2,0.5-0.1
		C292.5,445,293.3,445.2,294,445.2L294,445.2z M293.7,447.5c0.2-0.1,0.4-0.2,0.6-0.3c0.1-0.1,0.3-0.1,0.6,0c0.1,0.1,0.2,0.3,0.3,0.6
		c0.1,0.2,0,0.4-0.1,0.6c-0.1,0.2-0.2,0.4-0.4,0.5c-0.3,0.1-0.5,0.2-0.8,0.3c-0.9,0.1-1.8,0-2.8-0.4c-0.2-0.1-0.4-0.2-0.5-0.5
		c0-0.2,0-0.5,0.1-0.8c0-0.2,0.1-0.4,0.2-0.5c0.2-0.1,0.3-0.1,0.5-0.1C292.3,447.5,293,447.5,293.7,447.5L293.7,447.5z M294.8,450.3
		c0.1,0.2,0,0.5-0.1,0.8c0,0.2-0.1,0.3-0.3,0.4c-0.3,0.1-0.5,0.2-0.8,0.3h0c-0.9,0.2-1.8,0-2.9-0.3c-0.2-0.1-0.3-0.2-0.4-0.5
		c-0.1-0.2-0.1-0.4,0-0.7c0.1-0.3,0.1-0.5,0.2-0.5c0.3-0.1,0.5-0.2,0.6,0c0.9,0.3,1.6,0.4,2.3,0.3v0c0.3,0,0.5-0.1,0.6-0.2
		c0.2-0.1,0.3-0.1,0.5,0C294.7,449.9,294.8,450.1,294.8,450.3z"/>
</g>
</svg>
