<?xml version="1.0" encoding="utf-8"?>
<!-- Generator: Adobe Illustrator 16.0.0, SVG Export Plug-In . SVG Version: 6.00 Build 0)  -->
<!DOCTYPE svg PUBLIC "-//W3C//DTD SVG 1.1//EN" "http://www.w3.org/Graphics/SVG/1.1/DTD/svg11.dtd">
<svg version="1.1" xmlns="http://www.w3.org/2000/svg" xmlns:xlink="http://www.w3.org/1999/xlink" x="0px" y="0px" width="88.5px"
	 height="72px" viewBox="0 0 88.5 72" enable-background="new 0 0 88.5 72" xml:space="preserve">
<g id="Layer_2">
</g>
<g id="Layer_3">
	<g>
		<g>
			<g>
				<path fill-rule="evenodd" clip-rule="evenodd" fill="#43B649" fill-opacity="0" d="M10.13,54.53c0.47,0,0.85,0.17,1.15,0.5
					c0.33,0.33,0.5,0.73,0.5,1.2c0,0.47-0.17,0.87-0.5,1.2c-0.3,0.33-0.68,0.5-1.15,0.5c-0.47,0-0.85-0.17-1.15-0.5
					c-0.33-0.33-0.5-0.73-0.5-1.2c0-0.47,0.17-0.87,0.5-1.2C9.28,54.7,9.67,54.53,10.13,54.53z M10.73,55.53
					c0.07,0.1,0.13,0.13,0.2,0.1c0.37-0.27,0.32-0.5-0.15-0.7C10.52,55.07,10.5,55.27,10.73,55.53z"/>
				<path fill-rule="evenodd" clip-rule="evenodd" fill="#FFFFFF" d="M10.73,55.53c-0.23-0.27-0.22-0.47,0.05-0.6
					c0.47,0.2,0.52,0.43,0.15,0.7C10.87,55.67,10.8,55.63,10.73,55.53z"/>
				
					<path fill-rule="evenodd" clip-rule="evenodd" fill="none" stroke="#FFFFFF" stroke-linecap="round" stroke-linejoin="round" stroke-miterlimit="3" stroke-opacity="0.8" d="
					M10.13,54.53c0.47,0,0.85,0.17,1.15,0.5c0.33,0.33,0.5,0.73,0.5,1.2c0,0.47-0.17,0.87-0.5,1.2c-0.3,0.33-0.68,0.5-1.15,0.5
					c-0.47,0-0.85-0.17-1.15-0.5c-0.33-0.33-0.5-0.73-0.5-1.2c0-0.47,0.17-0.87,0.5-1.2C9.28,54.7,9.67,54.53,10.13,54.53z"/>
			</g>
		</g>
		<g>
			<g>
				<path fill-rule="evenodd" clip-rule="evenodd" fill="#43B649" fill-opacity="0" d="M15.08,54.13c0,0.47-0.17,0.87-0.5,1.2
					c-0.3,0.33-0.68,0.5-1.15,0.5s-0.85-0.17-1.15-0.5c-0.33-0.33-0.5-0.73-0.5-1.2s0.17-0.87,0.5-1.2c0.3-0.33,0.68-0.5,1.15-0.5
					s0.85,0.17,1.15,0.5C14.92,53.27,15.08,53.67,15.08,54.13z M14.03,53.43c0.07,0.1,0.13,0.13,0.2,0.1
					c0.37-0.27,0.32-0.5-0.15-0.7C13.82,52.97,13.8,53.17,14.03,53.43z"/>
				<path fill-rule="evenodd" clip-rule="evenodd" fill="#FFFFFF" d="M14.03,53.43c-0.23-0.27-0.22-0.47,0.05-0.6
					c0.47,0.2,0.52,0.43,0.15,0.7C14.17,53.57,14.1,53.53,14.03,53.43z"/>
				
					<path fill-rule="evenodd" clip-rule="evenodd" fill="none" stroke="#FFFFFF" stroke-linecap="round" stroke-linejoin="round" stroke-miterlimit="3" stroke-opacity="0.8" d="
					M15.08,54.13c0,0.47-0.17,0.87-0.5,1.2c-0.3,0.33-0.68,0.5-1.15,0.5s-0.85-0.17-1.15-0.5c-0.33-0.33-0.5-0.73-0.5-1.2
					s0.17-0.87,0.5-1.2c0.3-0.33,0.68-0.5,1.15-0.5s0.85,0.17,1.15,0.5C14.92,53.27,15.08,53.67,15.08,54.13z"/>
			</g>
		</g>
		<g>
			<g>
				<path fill-rule="evenodd" clip-rule="evenodd" fill="#43B649" fill-opacity="0" d="M15.08,48.08c0,0.47-0.17,0.87-0.5,1.2
					c-0.3,0.33-0.68,0.5-1.15,0.5s-0.85-0.17-1.15-0.5c-0.33-0.33-0.5-0.73-0.5-1.2s0.17-0.87,0.5-1.2c0.3-0.33,0.68-0.5,1.15-0.5
					s0.85,0.17,1.15,0.5C14.92,47.22,15.08,47.62,15.08,48.08z M14.03,47.38c0.07,0.1,0.13,0.13,0.2,0.1
					c0.37-0.27,0.32-0.5-0.15-0.7C13.82,46.92,13.8,47.12,14.03,47.38z"/>
				<path fill-rule="evenodd" clip-rule="evenodd" fill="#FFFFFF" d="M14.03,47.38c-0.23-0.27-0.22-0.47,0.05-0.6
					c0.47,0.2,0.52,0.43,0.15,0.7C14.17,47.52,14.1,47.48,14.03,47.38z"/>
				
					<path fill-rule="evenodd" clip-rule="evenodd" fill="none" stroke="#FFFFFF" stroke-linecap="round" stroke-linejoin="round" stroke-miterlimit="3" stroke-opacity="0.8" d="
					M15.08,48.08c0,0.47-0.17,0.87-0.5,1.2c-0.3,0.33-0.68,0.5-1.15,0.5s-0.85-0.17-1.15-0.5c-0.33-0.33-0.5-0.73-0.5-1.2
					s0.17-0.87,0.5-1.2c0.3-0.33,0.68-0.5,1.15-0.5s0.85,0.17,1.15,0.5C14.92,47.22,15.08,47.62,15.08,48.08z"/>
			</g>
		</g>
		<g>
			<g>
				<path fill-rule="evenodd" clip-rule="evenodd" fill="#43B649" fill-opacity="0" d="M7.53,48.63c0.47,0,0.85,0.17,1.15,0.5
					c0.33,0.33,0.5,0.73,0.5,1.2s-0.17,0.87-0.5,1.2c-0.3,0.33-0.68,0.5-1.15,0.5c-0.47,0-0.85-0.17-1.15-0.5
					c-0.33-0.33-0.5-0.73-0.5-1.2s0.17-0.87,0.5-1.2C6.68,48.8,7.07,48.63,7.53,48.63z M8.13,49.63c0.07,0.1,0.13,0.13,0.2,0.1
					c0.37-0.27,0.32-0.5-0.15-0.7C7.92,49.17,7.9,49.37,8.13,49.63z"/>
				<path fill-rule="evenodd" clip-rule="evenodd" fill="#FFFFFF" d="M8.13,49.63c-0.23-0.27-0.22-0.47,0.05-0.6
					c0.47,0.2,0.52,0.43,0.15,0.7C8.27,49.77,8.2,49.73,8.13,49.63z"/>
				
					<path fill-rule="evenodd" clip-rule="evenodd" fill="none" stroke="#FFFFFF" stroke-linecap="round" stroke-linejoin="round" stroke-miterlimit="3" stroke-opacity="0.8" d="
					M7.53,48.63c0.47,0,0.85,0.17,1.15,0.5c0.33,0.33,0.5,0.73,0.5,1.2s-0.17,0.87-0.5,1.2c-0.3,0.33-0.68,0.5-1.15,0.5
					c-0.47,0-0.85-0.17-1.15-0.5c-0.33-0.33-0.5-0.73-0.5-1.2s0.17-0.87,0.5-1.2C6.68,48.8,7.07,48.63,7.53,48.63z"/>
			</g>
		</g>
		<g>
			<g>
				<path fill-rule="evenodd" clip-rule="evenodd" fill="#43B649" fill-opacity="0" d="M12.28,30.28c0.3-0.33,0.68-0.5,1.15-0.5
					s0.85,0.17,1.15,0.5c0.33,0.33,0.5,0.73,0.5,1.2s-0.17,0.87-0.5,1.2c-0.3,0.33-0.68,0.5-1.15,0.5s-0.85-0.17-1.15-0.5
					c-0.33-0.33-0.5-0.73-0.5-1.2S11.95,30.62,12.28,30.28z M14.23,30.88c0.37-0.27,0.32-0.5-0.15-0.7
					c-0.27,0.13-0.28,0.33-0.05,0.6C14.1,30.88,14.17,30.92,14.23,30.88z"/>
				<path fill-rule="evenodd" clip-rule="evenodd" fill="#FFFFFF" d="M14.23,30.88c-0.07,0.03-0.13,0-0.2-0.1
					c-0.23-0.27-0.22-0.47,0.05-0.6C14.55,30.38,14.6,30.62,14.23,30.88z"/>
				
					<path fill-rule="evenodd" clip-rule="evenodd" fill="none" stroke="#FFFFFF" stroke-linecap="round" stroke-linejoin="round" stroke-miterlimit="3" stroke-opacity="0.8" d="
					M12.28,30.28c0.3-0.33,0.68-0.5,1.15-0.5s0.85,0.17,1.15,0.5c0.33,0.33,0.5,0.73,0.5,1.2s-0.17,0.87-0.5,1.2
					c-0.3,0.33-0.68,0.5-1.15,0.5s-0.85-0.17-1.15-0.5c-0.33-0.33-0.5-0.73-0.5-1.2S11.95,30.62,12.28,30.28z"/>
			</g>
		</g>
		<g>
			<g>
				<path fill-rule="evenodd" clip-rule="evenodd" fill="#43B649" fill-opacity="0" d="M5.38,44.78c0.47,0,0.85,0.17,1.15,0.5
					c0.33,0.33,0.5,0.73,0.5,1.2c0,0.47-0.17,0.87-0.5,1.2c-0.3,0.33-0.68,0.5-1.15,0.5c-0.47,0-0.85-0.17-1.15-0.5
					c-0.33-0.33-0.5-0.73-0.5-1.2c0-0.47,0.17-0.87,0.5-1.2C4.53,44.95,4.92,44.78,5.38,44.78z M5.98,45.78
					c0.07,0.1,0.13,0.13,0.2,0.1c0.37-0.27,0.32-0.5-0.15-0.7C5.77,45.32,5.75,45.52,5.98,45.78z"/>
				<path fill-rule="evenodd" clip-rule="evenodd" fill="#FFFFFF" d="M5.98,45.78c-0.23-0.27-0.22-0.47,0.05-0.6
					c0.47,0.2,0.52,0.43,0.15,0.7C6.12,45.92,6.05,45.88,5.98,45.78z"/>
				
					<path fill-rule="evenodd" clip-rule="evenodd" fill="none" stroke="#FFFFFF" stroke-linecap="round" stroke-linejoin="round" stroke-miterlimit="3" stroke-opacity="0.8" d="
					M5.38,44.78c0.47,0,0.85,0.17,1.15,0.5c0.33,0.33,0.5,0.73,0.5,1.2c0,0.47-0.17,0.87-0.5,1.2c-0.3,0.33-0.68,0.5-1.15,0.5
					c-0.47,0-0.85-0.17-1.15-0.5c-0.33-0.33-0.5-0.73-0.5-1.2c0-0.47,0.17-0.87,0.5-1.2C4.53,44.95,4.92,44.78,5.38,44.78z"/>
			</g>
		</g>
		<g>
			<g>
				<path fill-rule="evenodd" clip-rule="evenodd" fill="#43B649" fill-opacity="0" d="M20.23,56.98c0.47,0,0.85,0.17,1.15,0.5
					c0.33,0.33,0.5,0.73,0.5,1.2c0,0.47-0.17,0.87-0.5,1.2c-0.3,0.33-0.68,0.5-1.15,0.5s-0.85-0.17-1.15-0.5
					c-0.33-0.33-0.5-0.73-0.5-1.2c0-0.47,0.17-0.87,0.5-1.2C19.38,57.15,19.77,56.98,20.23,56.98z M20.83,57.98
					c0.07,0.1,0.13,0.13,0.2,0.1c0.37-0.27,0.32-0.5-0.15-0.7C20.62,57.52,20.6,57.72,20.83,57.98z"/>
				<path fill-rule="evenodd" clip-rule="evenodd" fill="#FFFFFF" d="M20.83,57.98c-0.23-0.27-0.22-0.47,0.05-0.6
					c0.47,0.2,0.52,0.43,0.15,0.7C20.97,58.12,20.9,58.08,20.83,57.98z"/>
				
					<path fill-rule="evenodd" clip-rule="evenodd" fill="none" stroke="#FFFFFF" stroke-linecap="round" stroke-linejoin="round" stroke-miterlimit="3" stroke-opacity="0.8" d="
					M20.23,56.98c0.47,0,0.85,0.17,1.15,0.5c0.33,0.33,0.5,0.73,0.5,1.2c0,0.47-0.17,0.87-0.5,1.2c-0.3,0.33-0.68,0.5-1.15,0.5
					s-0.85-0.17-1.15-0.5c-0.33-0.33-0.5-0.73-0.5-1.2c0-0.47,0.17-0.87,0.5-1.2C19.38,57.15,19.77,56.98,20.23,56.98z"/>
			</g>
		</g>
		<g>
			<g>
				<path fill-rule="evenodd" clip-rule="evenodd" fill="#43B649" fill-opacity="0" d="M24.68,56.38c0.33,0.33,0.5,0.73,0.5,1.2
					s-0.17,0.87-0.5,1.2c-0.3,0.33-0.68,0.5-1.15,0.5c-0.47,0-0.85-0.17-1.15-0.5c-0.33-0.33-0.5-0.73-0.5-1.2s0.17-0.87,0.5-1.2
					c0.3-0.33,0.68-0.5,1.15-0.5C24,55.88,24.38,56.05,24.68,56.38z M24.33,56.98c0.37-0.27,0.32-0.5-0.15-0.7
					c-0.27,0.13-0.28,0.33-0.05,0.6C24.2,56.98,24.27,57.02,24.33,56.98z"/>
				<path fill-rule="evenodd" clip-rule="evenodd" fill="#FFFFFF" d="M24.33,56.98c-0.07,0.03-0.13,0-0.2-0.1
					c-0.23-0.27-0.22-0.47,0.05-0.6C24.65,56.48,24.7,56.72,24.33,56.98z"/>
				
					<path fill-rule="evenodd" clip-rule="evenodd" fill="none" stroke="#FFFFFF" stroke-linecap="round" stroke-linejoin="round" stroke-miterlimit="3" stroke-opacity="0.8" d="
					M24.68,56.38c0.33,0.33,0.5,0.73,0.5,1.2s-0.17,0.87-0.5,1.2c-0.3,0.33-0.68,0.5-1.15,0.5c-0.47,0-0.85-0.17-1.15-0.5
					c-0.33-0.33-0.5-0.73-0.5-1.2s0.17-0.87,0.5-1.2c0.3-0.33,0.68-0.5,1.15-0.5C24,55.88,24.38,56.05,24.68,56.38z"/>
			</g>
		</g>
		<g>
			<g>
				<path fill-rule="evenodd" clip-rule="evenodd" fill="#43B649" fill-opacity="0" d="M25.28,60.83c-0.33-0.33-0.5-0.73-0.5-1.2
					s0.17-0.87,0.5-1.2c0.3-0.33,0.68-0.5,1.15-0.5s0.85,0.17,1.15,0.5c0.33,0.33,0.5,0.73,0.5,1.2s-0.17,0.87-0.5,1.2
					c-0.3,0.33-0.68,0.5-1.15,0.5S25.58,61.17,25.28,60.83z M27.23,59.03c0.37-0.27,0.32-0.5-0.15-0.7
					c-0.27,0.13-0.28,0.33-0.05,0.6C27.1,59.03,27.17,59.07,27.23,59.03z"/>
				<path fill-rule="evenodd" clip-rule="evenodd" fill="#FFFFFF" d="M27.23,59.03c-0.07,0.03-0.13,0-0.2-0.1
					c-0.23-0.27-0.22-0.47,0.05-0.6C27.55,58.53,27.6,58.77,27.23,59.03z"/>
				
					<path fill-rule="evenodd" clip-rule="evenodd" fill="none" stroke="#FFFFFF" stroke-linecap="round" stroke-linejoin="round" stroke-miterlimit="3" stroke-opacity="0.8" d="
					M25.28,60.83c-0.33-0.33-0.5-0.73-0.5-1.2s0.17-0.87,0.5-1.2c0.3-0.33,0.68-0.5,1.15-0.5s0.85,0.17,1.15,0.5
					c0.33,0.33,0.5,0.73,0.5,1.2s-0.17,0.87-0.5,1.2c-0.3,0.33-0.68,0.5-1.15,0.5S25.58,61.17,25.28,60.83z"/>
			</g>
		</g>
		<g>
			<g>
				<path fill-rule="evenodd" clip-rule="evenodd" fill="#43B649" fill-opacity="0" d="M22.83,60.98c0.47,0,0.85,0.17,1.15,0.5
					c0.33,0.33,0.5,0.73,0.5,1.2c0,0.47-0.17,0.87-0.5,1.2c-0.3,0.33-0.68,0.5-1.15,0.5s-0.85-0.17-1.15-0.5
					c-0.33-0.33-0.5-0.73-0.5-1.2c0-0.47,0.17-0.87,0.5-1.2C21.98,61.15,22.37,60.98,22.83,60.98z M23.43,61.98
					c0.07,0.1,0.13,0.13,0.2,0.1c0.37-0.27,0.32-0.5-0.15-0.7C23.22,61.52,23.2,61.72,23.43,61.98z"/>
				<path fill-rule="evenodd" clip-rule="evenodd" fill="#FFFFFF" d="M23.43,61.98c-0.23-0.27-0.22-0.47,0.05-0.6
					c0.47,0.2,0.52,0.43,0.15,0.7C23.57,62.12,23.5,62.08,23.43,61.98z"/>
				
					<path fill-rule="evenodd" clip-rule="evenodd" fill="none" stroke="#FFFFFF" stroke-linecap="round" stroke-linejoin="round" stroke-miterlimit="3" stroke-opacity="0.8" d="
					M22.83,60.98c0.47,0,0.85,0.17,1.15,0.5c0.33,0.33,0.5,0.73,0.5,1.2c0,0.47-0.17,0.87-0.5,1.2c-0.3,0.33-0.68,0.5-1.15,0.5
					s-0.85-0.17-1.15-0.5c-0.33-0.33-0.5-0.73-0.5-1.2c0-0.47,0.17-0.87,0.5-1.2C21.98,61.15,22.37,60.98,22.83,60.98z"/>
			</g>
		</g>
		<g>
			<g>
				<path fill-rule="evenodd" clip-rule="evenodd" fill="#43B649" fill-opacity="0" d="M27.98,64.53c0.33,0.33,0.5,0.73,0.5,1.2
					c0,0.47-0.17,0.87-0.5,1.2c-0.3,0.33-0.68,0.5-1.15,0.5s-0.85-0.17-1.15-0.5c-0.33-0.33-0.5-0.73-0.5-1.2
					c0-0.47,0.17-0.87,0.5-1.2c0.3-0.33,0.68-0.5,1.15-0.5S27.68,64.2,27.98,64.53z M27.63,65.13c0.37-0.27,0.32-0.5-0.15-0.7
					c-0.27,0.13-0.28,0.33-0.05,0.6C27.5,65.13,27.57,65.17,27.63,65.13z"/>
				<path fill-rule="evenodd" clip-rule="evenodd" fill="#FFFFFF" d="M27.63,65.13c-0.07,0.03-0.13,0-0.2-0.1
					c-0.23-0.27-0.22-0.47,0.05-0.6C27.95,64.63,28,64.87,27.63,65.13z"/>
				
					<path fill-rule="evenodd" clip-rule="evenodd" fill="none" stroke="#FFFFFF" stroke-linecap="round" stroke-linejoin="round" stroke-miterlimit="3" stroke-opacity="0.8" d="
					M27.98,64.53c0.33,0.33,0.5,0.73,0.5,1.2c0,0.47-0.17,0.87-0.5,1.2c-0.3,0.33-0.68,0.5-1.15,0.5s-0.85-0.17-1.15-0.5
					c-0.33-0.33-0.5-0.73-0.5-1.2c0-0.47,0.17-0.87,0.5-1.2c0.3-0.33,0.68-0.5,1.15-0.5S27.68,64.2,27.98,64.53z"/>
			</g>
		</g>
		<g>
			<g>
				<path fill-rule="evenodd" clip-rule="evenodd" fill="#43B649" fill-opacity="0" d="M31.58,61.73c0.47,0,0.85,0.17,1.15,0.5
					c0.33,0.33,0.5,0.73,0.5,1.2c0,0.47-0.17,0.87-0.5,1.2c-0.3,0.33-0.68,0.5-1.15,0.5s-0.85-0.17-1.15-0.5
					c-0.33-0.33-0.5-0.73-0.5-1.2c0-0.47,0.17-0.87,0.5-1.2C30.73,61.9,31.12,61.73,31.58,61.73z M32.18,62.73
					c0.07,0.1,0.13,0.13,0.2,0.1c0.37-0.27,0.32-0.5-0.15-0.7C31.97,62.27,31.95,62.47,32.18,62.73z"/>
				<path fill-rule="evenodd" clip-rule="evenodd" fill="#FFFFFF" d="M32.18,62.73c-0.23-0.27-0.22-0.47,0.05-0.6
					c0.47,0.2,0.52,0.43,0.15,0.7C32.32,62.87,32.25,62.83,32.18,62.73z"/>
				
					<path fill-rule="evenodd" clip-rule="evenodd" fill="none" stroke="#FFFFFF" stroke-linecap="round" stroke-linejoin="round" stroke-miterlimit="3" stroke-opacity="0.8" d="
					M31.58,61.73c0.47,0,0.85,0.17,1.15,0.5c0.33,0.33,0.5,0.73,0.5,1.2c0,0.47-0.17,0.87-0.5,1.2c-0.3,0.33-0.68,0.5-1.15,0.5
					s-0.85-0.17-1.15-0.5c-0.33-0.33-0.5-0.73-0.5-1.2c0-0.47,0.17-0.87,0.5-1.2C30.73,61.9,31.12,61.73,31.58,61.73z"/>
			</g>
		</g>
		<g>
			<g>
				<path fill-rule="evenodd" clip-rule="evenodd" fill="#43B649" fill-opacity="0" d="M33.98,63.28c0.47,0,0.85,0.17,1.15,0.5
					c0.33,0.33,0.5,0.73,0.5,1.2c0,0.47-0.17,0.87-0.5,1.2c-0.3,0.33-0.68,0.5-1.15,0.5s-0.85-0.17-1.15-0.5
					c-0.33-0.33-0.5-0.73-0.5-1.2c0-0.47,0.17-0.87,0.5-1.2C33.13,63.45,33.52,63.28,33.98,63.28z M34.58,64.28
					c0.07,0.1,0.13,0.13,0.2,0.1c0.37-0.27,0.32-0.5-0.15-0.7C34.37,63.82,34.35,64.02,34.58,64.28z"/>
				<path fill-rule="evenodd" clip-rule="evenodd" fill="#FFFFFF" d="M34.58,64.28c-0.23-0.27-0.22-0.47,0.05-0.6
					c0.47,0.2,0.52,0.43,0.15,0.7C34.72,64.42,34.65,64.38,34.58,64.28z"/>
				
					<path fill-rule="evenodd" clip-rule="evenodd" fill="none" stroke="#FFFFFF" stroke-linecap="round" stroke-linejoin="round" stroke-miterlimit="3" stroke-opacity="0.8" d="
					M33.98,63.28c0.47,0,0.85,0.17,1.15,0.5c0.33,0.33,0.5,0.73,0.5,1.2c0,0.47-0.17,0.87-0.5,1.2c-0.3,0.33-0.68,0.5-1.15,0.5
					s-0.85-0.17-1.15-0.5c-0.33-0.33-0.5-0.73-0.5-1.2c0-0.47,0.17-0.87,0.5-1.2C33.13,63.45,33.52,63.28,33.98,63.28z"/>
			</g>
		</g>
		<g>
			<g>
				<path fill-rule="evenodd" clip-rule="evenodd" fill="#43B649" fill-opacity="0" d="M38.73,49.73c0.47,0,0.85,0.17,1.15,0.5
					c0.33,0.33,0.5,0.73,0.5,1.2c0,0.47-0.17,0.87-0.5,1.2c-0.3,0.33-0.68,0.5-1.15,0.5s-0.85-0.17-1.15-0.5
					c-0.33-0.33-0.5-0.73-0.5-1.2c0-0.47,0.17-0.87,0.5-1.2C37.88,49.9,38.27,49.73,38.73,49.73z M39.33,50.73
					c0.07,0.1,0.13,0.13,0.2,0.1c0.37-0.27,0.32-0.5-0.15-0.7C39.12,50.27,39.1,50.47,39.33,50.73z"/>
				<path fill-rule="evenodd" clip-rule="evenodd" fill="#FFFFFF" d="M39.33,50.73c-0.23-0.27-0.22-0.47,0.05-0.6
					c0.47,0.2,0.52,0.43,0.15,0.7C39.47,50.87,39.4,50.83,39.33,50.73z"/>
				
					<path fill-rule="evenodd" clip-rule="evenodd" fill="none" stroke="#FFFFFF" stroke-linecap="round" stroke-linejoin="round" stroke-miterlimit="3" stroke-opacity="0.8" d="
					M38.73,49.73c0.47,0,0.85,0.17,1.15,0.5c0.33,0.33,0.5,0.73,0.5,1.2c0,0.47-0.17,0.87-0.5,1.2c-0.3,0.33-0.68,0.5-1.15,0.5
					s-0.85-0.17-1.15-0.5c-0.33-0.33-0.5-0.73-0.5-1.2c0-0.47,0.17-0.87,0.5-1.2C37.88,49.9,38.27,49.73,38.73,49.73z"/>
			</g>
		</g>
		<g>
			<g>
				<path fill-rule="evenodd" clip-rule="evenodd" fill="#43B649" fill-opacity="0" d="M35.98,41.58c0,0.47-0.17,0.87-0.5,1.2
					c-0.3,0.33-0.68,0.5-1.15,0.5s-0.85-0.17-1.15-0.5c-0.33-0.33-0.5-0.73-0.5-1.2s0.17-0.87,0.5-1.2c0.3-0.33,0.68-0.5,1.15-0.5
					s0.85,0.17,1.15,0.5C35.82,40.72,35.98,41.12,35.98,41.58z M34.93,40.88c0.07,0.1,0.13,0.13,0.2,0.1
					c0.37-0.27,0.32-0.5-0.15-0.7C34.72,40.42,34.7,40.62,34.93,40.88z"/>
				<path fill-rule="evenodd" clip-rule="evenodd" fill="#FFFFFF" d="M34.93,40.88c-0.23-0.27-0.22-0.47,0.05-0.6
					c0.47,0.2,0.52,0.43,0.15,0.7C35.07,41.02,35,40.98,34.93,40.88z"/>
				
					<path fill-rule="evenodd" clip-rule="evenodd" fill="none" stroke="#FFFFFF" stroke-linecap="round" stroke-linejoin="round" stroke-miterlimit="3" stroke-opacity="0.8" d="
					M35.98,41.58c0,0.47-0.17,0.87-0.5,1.2c-0.3,0.33-0.68,0.5-1.15,0.5s-0.85-0.17-1.15-0.5c-0.33-0.33-0.5-0.73-0.5-1.2
					s0.17-0.87,0.5-1.2c0.3-0.33,0.68-0.5,1.15-0.5s0.85,0.17,1.15,0.5C35.82,40.72,35.98,41.12,35.98,41.58z"/>
			</g>
		</g>
		<g>
			<g>
				<path fill-rule="evenodd" clip-rule="evenodd" fill="#43B649" fill-opacity="0" d="M40.58,41.58c0,0.47-0.17,0.87-0.5,1.2
					c-0.3,0.33-0.68,0.5-1.15,0.5s-0.85-0.17-1.15-0.5c-0.33-0.33-0.5-0.73-0.5-1.2s0.17-0.87,0.5-1.2c0.3-0.33,0.68-0.5,1.15-0.5
					s0.85,0.17,1.15,0.5C40.42,40.72,40.58,41.12,40.58,41.58z M39.53,40.88c0.07,0.1,0.13,0.13,0.2,0.1
					c0.37-0.27,0.32-0.5-0.15-0.7C39.32,40.42,39.3,40.62,39.53,40.88z"/>
				<path fill-rule="evenodd" clip-rule="evenodd" fill="#FFFFFF" d="M39.53,40.88c-0.23-0.27-0.22-0.47,0.05-0.6
					c0.47,0.2,0.52,0.43,0.15,0.7C39.67,41.02,39.6,40.98,39.53,40.88z"/>
				
					<path fill-rule="evenodd" clip-rule="evenodd" fill="none" stroke="#FFFFFF" stroke-linecap="round" stroke-linejoin="round" stroke-miterlimit="3" stroke-opacity="0.8" d="
					M40.58,41.58c0,0.47-0.17,0.87-0.5,1.2c-0.3,0.33-0.68,0.5-1.15,0.5s-0.85-0.17-1.15-0.5c-0.33-0.33-0.5-0.73-0.5-1.2
					s0.17-0.87,0.5-1.2c0.3-0.33,0.68-0.5,1.15-0.5s0.85,0.17,1.15,0.5C40.42,40.72,40.58,41.12,40.58,41.58z"/>
			</g>
		</g>
		<g>
			<g>
				<path fill-rule="evenodd" clip-rule="evenodd" fill="#43B649" fill-opacity="0" d="M40.58,35.33c0,0.47-0.17,0.87-0.5,1.2
					c-0.3,0.33-0.68,0.5-1.15,0.5s-0.85-0.17-1.15-0.5c-0.33-0.33-0.5-0.73-0.5-1.2s0.17-0.87,0.5-1.2c0.3-0.33,0.68-0.5,1.15-0.5
					s0.85,0.17,1.15,0.5C40.42,34.47,40.58,34.87,40.58,35.33z M39.53,34.63c0.07,0.1,0.13,0.13,0.2,0.1
					c0.37-0.27,0.32-0.5-0.15-0.7C39.32,34.17,39.3,34.37,39.53,34.63z"/>
				<path fill-rule="evenodd" clip-rule="evenodd" fill="#FFFFFF" d="M39.53,34.63c-0.23-0.27-0.22-0.47,0.05-0.6
					c0.47,0.2,0.52,0.43,0.15,0.7C39.67,34.77,39.6,34.73,39.53,34.63z"/>
				
					<path fill-rule="evenodd" clip-rule="evenodd" fill="none" stroke="#FFFFFF" stroke-linecap="round" stroke-linejoin="round" stroke-miterlimit="3" stroke-opacity="0.8" d="
					M40.58,35.33c0,0.47-0.17,0.87-0.5,1.2c-0.3,0.33-0.68,0.5-1.15,0.5s-0.85-0.17-1.15-0.5c-0.33-0.33-0.5-0.73-0.5-1.2
					s0.17-0.87,0.5-1.2c0.3-0.33,0.68-0.5,1.15-0.5s0.85,0.17,1.15,0.5C40.42,34.47,40.58,34.87,40.58,35.33z"/>
			</g>
		</g>
		<g>
			<g>
				<path fill-rule="evenodd" clip-rule="evenodd" fill="#43B649" fill-opacity="0" d="M32.33,28.08c0,0.47-0.17,0.87-0.5,1.2
					c-0.3,0.33-0.68,0.5-1.15,0.5s-0.85-0.17-1.15-0.5c-0.33-0.33-0.5-0.73-0.5-1.2s0.17-0.87,0.5-1.2c0.3-0.33,0.68-0.5,1.15-0.5
					s0.85,0.17,1.15,0.5C32.17,27.22,32.33,27.62,32.33,28.08z M31.28,27.38c0.07,0.1,0.13,0.13,0.2,0.1
					c0.37-0.27,0.32-0.5-0.15-0.7C31.07,26.92,31.05,27.12,31.28,27.38z"/>
				<path fill-rule="evenodd" clip-rule="evenodd" fill="#FFFFFF" d="M31.28,27.38c-0.23-0.27-0.22-0.47,0.05-0.6
					c0.47,0.2,0.52,0.43,0.15,0.7C31.42,27.52,31.35,27.48,31.28,27.38z"/>
				
					<path fill-rule="evenodd" clip-rule="evenodd" fill="none" stroke="#FFFFFF" stroke-linecap="round" stroke-linejoin="round" stroke-miterlimit="3" stroke-opacity="0.8" d="
					M32.33,28.08c0,0.47-0.17,0.87-0.5,1.2c-0.3,0.33-0.68,0.5-1.15,0.5s-0.85-0.17-1.15-0.5c-0.33-0.33-0.5-0.73-0.5-1.2
					s0.17-0.87,0.5-1.2c0.3-0.33,0.68-0.5,1.15-0.5s0.85,0.17,1.15,0.5C32.17,27.22,32.33,27.62,32.33,28.08z"/>
			</g>
		</g>
		<g>
			<g>
				<path fill-rule="evenodd" clip-rule="evenodd" fill="#43B649" fill-opacity="0" d="M26.43,24.63c0.47,0,0.85,0.17,1.15,0.5
					c0.33,0.33,0.5,0.73,0.5,1.2s-0.17,0.87-0.5,1.2c-0.3,0.33-0.68,0.5-1.15,0.5s-0.85-0.17-1.15-0.5c-0.33-0.33-0.5-0.73-0.5-1.2
					s0.17-0.87,0.5-1.2C25.58,24.8,25.97,24.63,26.43,24.63z M27.03,25.63c0.07,0.1,0.13,0.13,0.2,0.1c0.37-0.27,0.32-0.5-0.15-0.7
					C26.82,25.17,26.8,25.37,27.03,25.63z"/>
				<path fill-rule="evenodd" clip-rule="evenodd" fill="#FFFFFF" d="M27.03,25.63c-0.23-0.27-0.22-0.47,0.05-0.6
					c0.47,0.2,0.52,0.43,0.15,0.7C27.17,25.77,27.1,25.73,27.03,25.63z"/>
				
					<path fill-rule="evenodd" clip-rule="evenodd" fill="none" stroke="#FFFFFF" stroke-linecap="round" stroke-linejoin="round" stroke-miterlimit="3" stroke-opacity="0.8" d="
					M26.43,24.63c0.47,0,0.85,0.17,1.15,0.5c0.33,0.33,0.5,0.73,0.5,1.2s-0.17,0.87-0.5,1.2c-0.3,0.33-0.68,0.5-1.15,0.5
					s-0.85-0.17-1.15-0.5c-0.33-0.33-0.5-0.73-0.5-1.2s0.17-0.87,0.5-1.2C25.58,24.8,25.97,24.63,26.43,24.63z"/>
			</g>
		</g>
		<g>
			<g>
				<path fill-rule="evenodd" clip-rule="evenodd" fill="#43B649" fill-opacity="0" d="M22.43,17.23c0,0.47-0.17,0.87-0.5,1.2
					c-0.3,0.33-0.68,0.5-1.15,0.5c-0.47,0-0.85-0.17-1.15-0.5c-0.33-0.33-0.5-0.73-0.5-1.2s0.17-0.87,0.5-1.2
					c0.3-0.33,0.68-0.5,1.15-0.5c0.47,0,0.85,0.17,1.15,0.5C22.27,16.37,22.43,16.77,22.43,17.23z M21.43,15.93
					c-0.27,0.13-0.28,0.33-0.05,0.6c0.07,0.1,0.13,0.13,0.2,0.1C21.95,16.37,21.9,16.13,21.43,15.93z"/>
				<path fill-rule="evenodd" clip-rule="evenodd" fill="#FFFFFF" d="M21.43,15.93c0.47,0.2,0.52,0.43,0.15,0.7
					c-0.07,0.03-0.13,0-0.2-0.1C21.15,16.27,21.17,16.07,21.43,15.93z"/>
				
					<path fill-rule="evenodd" clip-rule="evenodd" fill="none" stroke="#FFFFFF" stroke-linecap="round" stroke-linejoin="round" stroke-miterlimit="3" stroke-opacity="0.8" d="
					M22.43,17.23c0,0.47-0.17,0.87-0.5,1.2c-0.3,0.33-0.68,0.5-1.15,0.5c-0.47,0-0.85-0.17-1.15-0.5c-0.33-0.33-0.5-0.73-0.5-1.2
					s0.17-0.87,0.5-1.2c0.3-0.33,0.68-0.5,1.15-0.5c0.47,0,0.85,0.17,1.15,0.5C22.27,16.37,22.43,16.77,22.43,17.23z"/>
			</g>
		</g>
		<g>
			<g>
				<path fill-rule="evenodd" clip-rule="evenodd" fill="#43B649" fill-opacity="0" d="M10.13,20.68c0.47,0,0.85,0.17,1.15,0.5
					c0.33,0.33,0.5,0.73,0.5,1.2c0,0.47-0.17,0.87-0.5,1.2c-0.3,0.33-0.68,0.5-1.15,0.5c-0.47,0-0.85-0.17-1.15-0.5
					c-0.33-0.33-0.5-0.73-0.5-1.2c0-0.47,0.17-0.87,0.5-1.2C9.28,20.85,9.67,20.68,10.13,20.68z M10.73,21.68
					c0.07,0.1,0.13,0.13,0.2,0.1c0.37-0.27,0.32-0.5-0.15-0.7C10.52,21.22,10.5,21.42,10.73,21.68z"/>
				<path fill-rule="evenodd" clip-rule="evenodd" fill="#FFFFFF" d="M10.73,21.68c-0.23-0.27-0.22-0.47,0.05-0.6
					c0.47,0.2,0.52,0.43,0.15,0.7C10.87,21.82,10.8,21.78,10.73,21.68z"/>
				
					<path fill-rule="evenodd" clip-rule="evenodd" fill="none" stroke="#FFFFFF" stroke-linecap="round" stroke-linejoin="round" stroke-miterlimit="3" stroke-opacity="0.8" d="
					M10.13,20.68c0.47,0,0.85,0.17,1.15,0.5c0.33,0.33,0.5,0.73,0.5,1.2c0,0.47-0.17,0.87-0.5,1.2c-0.3,0.33-0.68,0.5-1.15,0.5
					c-0.47,0-0.85-0.17-1.15-0.5c-0.33-0.33-0.5-0.73-0.5-1.2c0-0.47,0.17-0.87,0.5-1.2C9.28,20.85,9.67,20.68,10.13,20.68z"/>
			</g>
		</g>
		<g>
			<g>
				<path fill-rule="evenodd" clip-rule="evenodd" fill="#43B649" fill-opacity="0" d="M9.63,19.48c0.33,0.33,0.5,0.73,0.5,1.2
					s-0.17,0.87-0.5,1.2c-0.3,0.33-0.68,0.5-1.15,0.5s-0.85-0.17-1.15-0.5c-0.33-0.33-0.5-0.73-0.5-1.2s0.17-0.87,0.5-1.2
					c0.3-0.33,0.68-0.5,1.15-0.5S9.33,19.15,9.63,19.48z M9.28,20.08c0.37-0.27,0.32-0.5-0.15-0.7c-0.27,0.13-0.28,0.33-0.05,0.6
					C9.15,20.08,9.22,20.12,9.28,20.08z"/>
				<path fill-rule="evenodd" clip-rule="evenodd" fill="#FFFFFF" d="M9.28,20.08c-0.07,0.03-0.13,0-0.2-0.1
					c-0.23-0.27-0.22-0.47,0.05-0.6C9.6,19.58,9.65,19.82,9.28,20.08z"/>
				
					<path fill-rule="evenodd" clip-rule="evenodd" fill="none" stroke="#FFFFFF" stroke-linecap="round" stroke-linejoin="round" stroke-miterlimit="3" stroke-opacity="0.8" d="
					M9.63,19.48c0.33,0.33,0.5,0.73,0.5,1.2s-0.17,0.87-0.5,1.2c-0.3,0.33-0.68,0.5-1.15,0.5s-0.85-0.17-1.15-0.5
					c-0.33-0.33-0.5-0.73-0.5-1.2s0.17-0.87,0.5-1.2c0.3-0.33,0.68-0.5,1.15-0.5S9.33,19.15,9.63,19.48z"/>
			</g>
		</g>
		<g>
			<g>
				<path fill-rule="evenodd" clip-rule="evenodd" fill="#43B649" fill-opacity="0" d="M4.68,20.18c0.33,0.33,0.5,0.73,0.5,1.2
					c0,0.47-0.17,0.87-0.5,1.2c-0.3,0.33-0.68,0.5-1.15,0.5c-0.47,0-0.85-0.17-1.15-0.5c-0.33-0.33-0.5-0.73-0.5-1.2
					c0-0.47,0.17-0.87,0.5-1.2c0.3-0.33,0.68-0.5,1.15-0.5C4,19.68,4.38,19.85,4.68,20.18z M4.13,20.68c0.07,0.1,0.13,0.13,0.2,0.1
					c0.37-0.27,0.32-0.5-0.15-0.7C3.92,20.22,3.9,20.42,4.13,20.68z"/>
				<path fill-rule="evenodd" clip-rule="evenodd" fill="#FFFFFF" d="M4.13,20.68c-0.23-0.27-0.22-0.47,0.05-0.6
					c0.47,0.2,0.52,0.43,0.15,0.7C4.27,20.82,4.2,20.78,4.13,20.68z"/>
				
					<path fill-rule="evenodd" clip-rule="evenodd" fill="none" stroke="#FFFFFF" stroke-linecap="round" stroke-linejoin="round" stroke-miterlimit="3" stroke-opacity="0.8" d="
					M4.68,20.18c0.33,0.33,0.5,0.73,0.5,1.2c0,0.47-0.17,0.87-0.5,1.2c-0.3,0.33-0.68,0.5-1.15,0.5c-0.47,0-0.85-0.17-1.15-0.5
					c-0.33-0.33-0.5-0.73-0.5-1.2c0-0.47,0.17-0.87,0.5-1.2c0.3-0.33,0.68-0.5,1.15-0.5C4,19.68,4.38,19.85,4.68,20.18z"/>
			</g>
		</g>
		<g>
			<g>
				<path fill-rule="evenodd" clip-rule="evenodd" fill="#43B649" fill-opacity="0" d="M7.98,6.18c0.33,0.33,0.5,0.73,0.5,1.2
					c0,0.47-0.17,0.87-0.5,1.2c-0.3,0.33-0.68,0.5-1.15,0.5s-0.85-0.17-1.15-0.5c-0.33-0.33-0.5-0.73-0.5-1.2
					c0-0.47,0.17-0.87,0.5-1.2c0.3-0.33,0.68-0.5,1.15-0.5S7.68,5.85,7.98,6.18z M7.63,6.78C8,6.52,7.95,6.28,7.48,6.08
					C7.22,6.22,7.2,6.42,7.43,6.68C7.5,6.78,7.57,6.82,7.63,6.78z"/>
				<path fill-rule="evenodd" clip-rule="evenodd" fill="#FFFFFF" d="M7.63,6.78c-0.07,0.03-0.13,0-0.2-0.1
					C7.2,6.42,7.22,6.22,7.48,6.08C7.95,6.28,8,6.52,7.63,6.78z"/>
				
					<path fill-rule="evenodd" clip-rule="evenodd" fill="none" stroke="#FFFFFF" stroke-linecap="round" stroke-linejoin="round" stroke-miterlimit="3" stroke-opacity="0.8" d="
					M7.98,6.18c0.33,0.33,0.5,0.73,0.5,1.2c0,0.47-0.17,0.87-0.5,1.2c-0.3,0.33-0.68,0.5-1.15,0.5s-0.85-0.17-1.15-0.5
					c-0.33-0.33-0.5-0.73-0.5-1.2c0-0.47,0.17-0.87,0.5-1.2c0.3-0.33,0.68-0.5,1.15-0.5S7.68,5.85,7.98,6.18z"/>
			</g>
		</g>
		<g>
			<g>
				<path fill-rule="evenodd" clip-rule="evenodd" fill="#43B649" fill-opacity="0" d="M40.28,66.88c0,0.4-0.13,0.73-0.4,1
					s-0.58,0.4-0.95,0.4c-0.37,0-0.7-0.13-1-0.4c-0.23-0.27-0.35-0.6-0.35-1c0-0.4,0.12-0.73,0.35-1c0.3-0.27,0.63-0.4,1-0.4
					c0.37,0,0.68,0.13,0.95,0.4S40.28,66.48,40.28,66.88z M39.43,66.33c0.07,0.07,0.12,0.08,0.15,0.05c0.3-0.2,0.27-0.4-0.1-0.6
					C39.25,65.92,39.23,66.1,39.43,66.33z"/>
				<path fill-rule="evenodd" clip-rule="evenodd" fill="#FFFFFF" d="M39.43,66.33c-0.2-0.23-0.18-0.42,0.05-0.55
					c0.37,0.2,0.4,0.4,0.1,0.6C39.55,66.42,39.5,66.4,39.43,66.33z"/>
				
					<path fill-rule="evenodd" clip-rule="evenodd" fill="none" stroke="#FFFFFF" stroke-linecap="round" stroke-linejoin="round" stroke-miterlimit="3" stroke-opacity="0.8" d="
					M40.28,66.88c0,0.4-0.13,0.73-0.4,1s-0.58,0.4-0.95,0.4c-0.37,0-0.7-0.13-1-0.4c-0.23-0.27-0.35-0.6-0.35-1
					c0-0.4,0.12-0.73,0.35-1c0.3-0.27,0.63-0.4,1-0.4c0.37,0,0.68,0.13,0.95,0.4S40.28,66.48,40.28,66.88z"/>
			</g>
		</g>
		<g>
			<g>
				<path fill-rule="evenodd" clip-rule="evenodd" fill="#43B649" fill-opacity="0" d="M24.63,35.03c0,0.47-0.17,0.87-0.5,1.2
					c-0.3,0.33-0.68,0.5-1.15,0.5s-0.85-0.17-1.15-0.5c-0.33-0.33-0.5-0.73-0.5-1.2c0-0.47,0.17-0.87,0.5-1.2
					c0.3-0.33,0.68-0.5,1.15-0.5s0.85,0.17,1.15,0.5C24.47,34.17,24.63,34.57,24.63,35.03z M23.58,34.33c0.07,0.1,0.13,0.13,0.2,0.1
					c0.37-0.27,0.32-0.5-0.15-0.7C23.37,33.87,23.35,34.07,23.58,34.33z"/>
				<path fill-rule="evenodd" clip-rule="evenodd" fill="#FFFFFF" d="M23.58,34.33c-0.23-0.27-0.22-0.47,0.05-0.6
					c0.47,0.2,0.52,0.43,0.15,0.7C23.72,34.47,23.65,34.43,23.58,34.33z"/>
				
					<path fill-rule="evenodd" clip-rule="evenodd" fill="none" stroke="#FFFFFF" stroke-linecap="round" stroke-linejoin="round" stroke-miterlimit="3" stroke-opacity="0.8" d="
					M24.63,35.03c0,0.47-0.17,0.87-0.5,1.2c-0.3,0.33-0.68,0.5-1.15,0.5s-0.85-0.17-1.15-0.5c-0.33-0.33-0.5-0.73-0.5-1.2
					c0-0.47,0.17-0.87,0.5-1.2c0.3-0.33,0.68-0.5,1.15-0.5s0.85,0.17,1.15,0.5C24.47,34.17,24.63,34.57,24.63,35.03z"/>
			</g>
		</g>
		<g>
			<g>
				<path fill-rule="evenodd" clip-rule="evenodd" fill="#FFFFFF" d="M77.73,54.28c-0.37-0.27-0.32-0.5,0.15-0.7
					c0.27,0.13,0.28,0.33,0.05,0.6C77.87,54.28,77.8,54.32,77.73,54.28z"/>
				<path fill-rule="evenodd" clip-rule="evenodd" fill="#43B649" fill-opacity="0" d="M77.38,53.68c0.3-0.33,0.68-0.5,1.15-0.5
					s0.85,0.17,1.15,0.5c0.33,0.33,0.5,0.73,0.5,1.2s-0.17,0.87-0.5,1.2c-0.3,0.33-0.68,0.5-1.15,0.5s-0.85-0.17-1.15-0.5
					c-0.33-0.33-0.5-0.73-0.5-1.2S77.05,54.02,77.38,53.68z M77.73,54.28c0.07,0.03,0.13,0,0.2-0.1c0.23-0.27,0.22-0.47-0.05-0.6
					C77.42,53.78,77.37,54.02,77.73,54.28z"/>
				
					<path fill-rule="evenodd" clip-rule="evenodd" fill="none" stroke="#FFFFFF" stroke-linecap="round" stroke-linejoin="round" stroke-miterlimit="3" stroke-opacity="0.8" d="
					M77.38,53.68c-0.33,0.33-0.5,0.73-0.5,1.2s0.17,0.87,0.5,1.2c0.3,0.33,0.68,0.5,1.15,0.5s0.85-0.17,1.15-0.5
					c0.33-0.33,0.5-0.73,0.5-1.2s-0.17-0.87-0.5-1.2c-0.3-0.33-0.68-0.5-1.15-0.5S77.68,53.35,77.38,53.68z"/>
			</g>
		</g>
		<g>
			<g>
				<path fill-rule="evenodd" clip-rule="evenodd" fill="#FFFFFF" d="M74.63,52.08c-0.07,0.1-0.13,0.13-0.2,0.1
					c-0.37-0.27-0.32-0.5,0.15-0.7C74.85,51.62,74.87,51.82,74.63,52.08z"/>
				<path fill-rule="evenodd" clip-rule="evenodd" fill="#43B649" fill-opacity="0" d="M76.38,53.98c-0.3,0.33-0.68,0.5-1.15,0.5
					c-0.47,0-0.85-0.17-1.15-0.5c-0.33-0.33-0.5-0.73-0.5-1.2s0.17-0.87,0.5-1.2c0.3-0.33,0.68-0.5,1.15-0.5
					c0.47,0,0.85,0.17,1.15,0.5c0.33,0.33,0.5,0.73,0.5,1.2S76.72,53.65,76.38,53.98z M74.63,52.08c0.23-0.27,0.22-0.47-0.05-0.6
					c-0.47,0.2-0.52,0.43-0.15,0.7C74.5,52.22,74.57,52.18,74.63,52.08z"/>
				
					<path fill-rule="evenodd" clip-rule="evenodd" fill="none" stroke="#FFFFFF" stroke-linecap="round" stroke-linejoin="round" stroke-miterlimit="3" stroke-opacity="0.8" d="
					M76.38,53.98c0.33-0.33,0.5-0.73,0.5-1.2s-0.17-0.87-0.5-1.2c-0.3-0.33-0.68-0.5-1.15-0.5c-0.47,0-0.85,0.17-1.15,0.5
					c-0.33,0.33-0.5,0.73-0.5,1.2s0.17,0.87,0.5,1.2c0.3,0.33,0.68,0.5,1.15,0.5C75.7,54.48,76.08,54.32,76.38,53.98z"/>
			</g>
		</g>
		<g>
			<g>
				<path fill-rule="evenodd" clip-rule="evenodd" fill="#43B649" fill-opacity="0" d="M76.38,47.93c-0.3,0.33-0.68,0.5-1.15,0.5
					c-0.47,0-0.85-0.17-1.15-0.5c-0.33-0.33-0.5-0.73-0.5-1.2c0-0.47,0.17-0.87,0.5-1.2c0.3-0.33,0.68-0.5,1.15-0.5
					c0.47,0,0.85,0.17,1.15,0.5c0.33,0.33,0.5,0.73,0.5,1.2C76.88,47.2,76.72,47.6,76.38,47.93z M74.43,46.13
					c0.07,0.03,0.13,0,0.2-0.1c0.23-0.27,0.22-0.47-0.05-0.6C74.12,45.63,74.07,45.87,74.43,46.13z"/>
				<path fill-rule="evenodd" clip-rule="evenodd" fill="#FFFFFF" d="M74.43,46.13c-0.37-0.27-0.32-0.5,0.15-0.7
					c0.27,0.13,0.28,0.33,0.05,0.6C74.57,46.13,74.5,46.17,74.43,46.13z"/>
				
					<path fill-rule="evenodd" clip-rule="evenodd" fill="none" stroke="#FFFFFF" stroke-linecap="round" stroke-linejoin="round" stroke-miterlimit="3" stroke-opacity="0.8" d="
					M76.38,47.93c0.33-0.33,0.5-0.73,0.5-1.2c0-0.47-0.17-0.87-0.5-1.2c-0.3-0.33-0.68-0.5-1.15-0.5c-0.47,0-0.85,0.17-1.15,0.5
					c-0.33,0.33-0.5,0.73-0.5,1.2c0,0.47,0.17,0.87,0.5,1.2c0.3,0.33,0.68,0.5,1.15,0.5C75.7,48.43,76.08,48.27,76.38,47.93z"/>
			</g>
		</g>
		<g>
			<g>
				<path fill-rule="evenodd" clip-rule="evenodd" fill="#43B649" fill-opacity="0" d="M82.28,47.78c0.33,0.33,0.5,0.73,0.5,1.2
					c0,0.47-0.17,0.87-0.5,1.2c-0.3,0.33-0.68,0.5-1.15,0.5s-0.85-0.17-1.15-0.5c-0.33-0.33-0.5-0.73-0.5-1.2
					c0-0.47,0.17-0.87,0.5-1.2c0.3-0.33,0.68-0.5,1.15-0.5S81.98,47.45,82.28,47.78z M80.53,48.28c0.23-0.27,0.22-0.47-0.05-0.6
					c-0.47,0.2-0.52,0.43-0.15,0.7C80.4,48.42,80.47,48.38,80.53,48.28z"/>
				<path fill-rule="evenodd" clip-rule="evenodd" fill="#FFFFFF" d="M80.53,48.28c-0.07,0.1-0.13,0.13-0.2,0.1
					c-0.37-0.27-0.32-0.5,0.15-0.7C80.75,47.82,80.77,48.02,80.53,48.28z"/>
				
					<path fill-rule="evenodd" clip-rule="evenodd" fill="none" stroke="#FFFFFF" stroke-linecap="round" stroke-linejoin="round" stroke-miterlimit="3" stroke-opacity="0.8" d="
					M82.28,47.78c-0.3-0.33-0.68-0.5-1.15-0.5s-0.85,0.17-1.15,0.5c-0.33,0.33-0.5,0.73-0.5,1.2c0,0.47,0.17,0.87,0.5,1.2
					c0.3,0.33,0.68,0.5,1.15,0.5s0.85-0.17,1.15-0.5c0.33-0.33,0.5-0.73,0.5-1.2C82.78,48.52,82.62,48.12,82.28,47.78z"/>
			</g>
		</g>
		<g>
			<g>
				<path fill-rule="evenodd" clip-rule="evenodd" fill="#43B649" fill-opacity="0" d="M75.23,28.48c0.47,0,0.85,0.17,1.15,0.5
					c0.33,0.33,0.5,0.73,0.5,1.2s-0.17,0.87-0.5,1.2c-0.3,0.33-0.68,0.5-1.15,0.5c-0.47,0-0.85-0.17-1.15-0.5
					c-0.33-0.33-0.5-0.73-0.5-1.2s0.17-0.87,0.5-1.2C74.38,28.65,74.77,28.48,75.23,28.48z M74.43,29.58c0.07,0.03,0.13,0,0.2-0.1
					c0.23-0.27,0.22-0.47-0.05-0.6C74.12,29.08,74.07,29.32,74.43,29.58z"/>
				<path fill-rule="evenodd" clip-rule="evenodd" fill="#FFFFFF" d="M74.43,29.58c-0.37-0.27-0.32-0.5,0.15-0.7
					c0.27,0.13,0.28,0.33,0.05,0.6C74.57,29.58,74.5,29.62,74.43,29.58z"/>
				
					<path fill-rule="evenodd" clip-rule="evenodd" fill="none" stroke="#FFFFFF" stroke-linecap="round" stroke-linejoin="round" stroke-miterlimit="3" stroke-opacity="0.8" d="
					M75.23,28.48c-0.47,0-0.85,0.17-1.15,0.5c-0.33,0.33-0.5,0.73-0.5,1.2s0.17,0.87,0.5,1.2c0.3,0.33,0.68,0.5,1.15,0.5
					c0.47,0,0.85-0.17,1.15-0.5c0.33-0.33,0.5-0.73,0.5-1.2s-0.17-0.87-0.5-1.2C76.08,28.65,75.7,28.48,75.23,28.48z"/>
			</g>
		</g>
		<g>
			<g>
				<path fill-rule="evenodd" clip-rule="evenodd" fill="#FFFFFF" d="M82.73,44.48c-0.07,0.1-0.13,0.13-0.2,0.1
					c-0.37-0.27-0.32-0.5,0.15-0.7C82.95,44.02,82.97,44.22,82.73,44.48z"/>
				<path fill-rule="evenodd" clip-rule="evenodd" fill="#43B649" fill-opacity="0" d="M84.48,46.38c-0.3,0.33-0.68,0.5-1.15,0.5
					s-0.85-0.17-1.15-0.5c-0.33-0.33-0.5-0.73-0.5-1.2c0-0.47,0.17-0.87,0.5-1.2c0.3-0.33,0.68-0.5,1.15-0.5s0.85,0.17,1.15,0.5
					c0.33,0.33,0.5,0.73,0.5,1.2C84.98,45.65,84.82,46.05,84.48,46.38z M82.73,44.48c0.23-0.27,0.22-0.47-0.05-0.6
					c-0.47,0.2-0.52,0.43-0.15,0.7C82.6,44.62,82.67,44.58,82.73,44.48z"/>
				
					<path fill-rule="evenodd" clip-rule="evenodd" fill="none" stroke="#FFFFFF" stroke-linecap="round" stroke-linejoin="round" stroke-miterlimit="3" stroke-opacity="0.8" d="
					M84.48,46.38c0.33-0.33,0.5-0.73,0.5-1.2c0-0.47-0.17-0.87-0.5-1.2c-0.3-0.33-0.68-0.5-1.15-0.5s-0.85,0.17-1.15,0.5
					c-0.33,0.33-0.5,0.73-0.5,1.2c0,0.47,0.17,0.87,0.5,1.2c0.3,0.33,0.68,0.5,1.15,0.5S84.18,46.72,84.48,46.38z"/>
			</g>
		</g>
		<g>
			<g>
				<path fill-rule="evenodd" clip-rule="evenodd" fill="#43B649" fill-opacity="0" d="M67.33,56.13c0.3-0.33,0.68-0.5,1.15-0.5
					c0.47,0,0.85,0.17,1.15,0.5c0.33,0.33,0.5,0.73,0.5,1.2s-0.17,0.87-0.5,1.2c-0.3,0.33-0.68,0.5-1.15,0.5
					c-0.47,0-0.85-0.17-1.15-0.5c-0.33-0.33-0.5-0.73-0.5-1.2S67,56.47,67.33,56.13z M67.68,56.73c0.07,0.03,0.13,0,0.2-0.1
					c0.23-0.27,0.22-0.47-0.05-0.6C67.37,56.23,67.32,56.47,67.68,56.73z"/>
				<path fill-rule="evenodd" clip-rule="evenodd" fill="#FFFFFF" d="M67.68,56.73c-0.37-0.27-0.32-0.5,0.15-0.7
					c0.27,0.13,0.28,0.33,0.05,0.6C67.82,56.73,67.75,56.77,67.68,56.73z"/>
				
					<path fill-rule="evenodd" clip-rule="evenodd" fill="none" stroke="#FFFFFF" stroke-linecap="round" stroke-linejoin="round" stroke-miterlimit="3" stroke-opacity="0.8" d="
					M67.33,56.13c-0.33,0.33-0.5,0.73-0.5,1.2s0.17,0.87,0.5,1.2c0.3,0.33,0.68,0.5,1.15,0.5c0.47,0,0.85-0.17,1.15-0.5
					c0.33-0.33,0.5-0.73,0.5-1.2s-0.17-0.87-0.5-1.2c-0.3-0.33-0.68-0.5-1.15-0.5C68.02,55.63,67.63,55.8,67.33,56.13z"/>
			</g>
		</g>
		<g>
			<g>
				<path fill-rule="evenodd" clip-rule="evenodd" fill="#43B649" fill-opacity="0" d="M63.53,56.23c0-0.47,0.17-0.87,0.5-1.2
					c0.3-0.33,0.68-0.5,1.15-0.5c0.47,0,0.85,0.17,1.15,0.5c0.33,0.33,0.5,0.73,0.5,1.2c0,0.47-0.17,0.87-0.5,1.2
					c-0.3,0.33-0.68,0.5-1.15,0.5c-0.47,0-0.85-0.17-1.15-0.5C63.7,57.1,63.53,56.7,63.53,56.23z M64.53,54.93
					c-0.47,0.2-0.52,0.43-0.15,0.7c0.07,0.03,0.13,0,0.2-0.1C64.82,55.27,64.8,55.07,64.53,54.93z"/>
				<path fill-rule="evenodd" clip-rule="evenodd" fill="#FFFFFF" d="M64.53,54.93c0.27,0.13,0.28,0.33,0.05,0.6
					c-0.07,0.1-0.13,0.13-0.2,0.1C64.02,55.37,64.07,55.13,64.53,54.93z"/>
				
					<path fill-rule="evenodd" clip-rule="evenodd" fill="none" stroke="#FFFFFF" stroke-linecap="round" stroke-linejoin="round" stroke-miterlimit="3" stroke-opacity="0.8" d="
					M63.53,56.23c0,0.47,0.17,0.87,0.5,1.2c0.3,0.33,0.68,0.5,1.15,0.5c0.47,0,0.85-0.17,1.15-0.5c0.33-0.33,0.5-0.73,0.5-1.2
					c0-0.47-0.17-0.87-0.5-1.2c-0.3-0.33-0.68-0.5-1.15-0.5c-0.47,0-0.85,0.17-1.15,0.5C63.7,55.37,63.53,55.77,63.53,56.23z"/>
			</g>
		</g>
		<g>
			<g>
				<path fill-rule="evenodd" clip-rule="evenodd" fill="#FFFFFF" d="M61.63,57.58c-0.07,0.1-0.13,0.13-0.2,0.1
					c-0.37-0.27-0.32-0.5,0.15-0.7C61.85,57.12,61.87,57.32,61.63,57.58z"/>
				<path fill-rule="evenodd" clip-rule="evenodd" fill="#43B649" fill-opacity="0" d="M60.58,58.28c0-0.47,0.17-0.87,0.5-1.2
					c0.3-0.33,0.68-0.5,1.15-0.5c0.47,0,0.85,0.17,1.15,0.5c0.33,0.33,0.5,0.73,0.5,1.2s-0.17,0.87-0.5,1.2
					c-0.3,0.33-0.68,0.5-1.15,0.5c-0.47,0-0.85-0.17-1.15-0.5C60.75,59.15,60.58,58.75,60.58,58.28z M61.63,57.58
					c0.23-0.27,0.22-0.47-0.05-0.6c-0.47,0.2-0.52,0.43-0.15,0.7C61.5,57.72,61.57,57.68,61.63,57.58z"/>
				
					<path fill-rule="evenodd" clip-rule="evenodd" fill="none" stroke="#FFFFFF" stroke-linecap="round" stroke-linejoin="round" stroke-miterlimit="3" stroke-opacity="0.8" d="
					M60.58,58.28c0,0.47,0.17,0.87,0.5,1.2c0.3,0.33,0.68,0.5,1.15,0.5c0.47,0,0.85-0.17,1.15-0.5c0.33-0.33,0.5-0.73,0.5-1.2
					s-0.17-0.87-0.5-1.2c-0.3-0.33-0.68-0.5-1.15-0.5c-0.47,0-0.85,0.17-1.15,0.5C60.75,57.42,60.58,57.82,60.58,58.28z"/>
			</g>
		</g>
		<g>
			<g>
				<path fill-rule="evenodd" clip-rule="evenodd" fill="#43B649" fill-opacity="0" d="M64.73,60.13c0.3-0.33,0.68-0.5,1.15-0.5
					s0.85,0.17,1.15,0.5c0.33,0.33,0.5,0.73,0.5,1.2s-0.17,0.87-0.5,1.2c-0.3,0.33-0.68,0.5-1.15,0.5s-0.85-0.17-1.15-0.5
					c-0.33-0.33-0.5-0.73-0.5-1.2S64.4,60.47,64.73,60.13z M65.08,60.73c0.07,0.03,0.13,0,0.2-0.1c0.23-0.27,0.22-0.47-0.05-0.6
					C64.77,60.23,64.72,60.47,65.08,60.73z"/>
				<path fill-rule="evenodd" clip-rule="evenodd" fill="#FFFFFF" d="M65.08,60.73c-0.37-0.27-0.32-0.5,0.15-0.7
					c0.27,0.13,0.28,0.33,0.05,0.6C65.22,60.73,65.15,60.77,65.08,60.73z"/>
				
					<path fill-rule="evenodd" clip-rule="evenodd" fill="none" stroke="#FFFFFF" stroke-linecap="round" stroke-linejoin="round" stroke-miterlimit="3" stroke-opacity="0.8" d="
					M64.73,60.13c-0.33,0.33-0.5,0.73-0.5,1.2s0.17,0.87,0.5,1.2c0.3,0.33,0.68,0.5,1.15,0.5s0.85-0.17,1.15-0.5
					c0.33-0.33,0.5-0.73,0.5-1.2s-0.17-0.87-0.5-1.2c-0.3-0.33-0.68-0.5-1.15-0.5S65.03,59.8,64.73,60.13z"/>
			</g>
		</g>
		<g>
			<g>
				<path fill-rule="evenodd" clip-rule="evenodd" fill="#43B649" fill-opacity="0" d="M61.88,62.68c0.47,0,0.85,0.17,1.15,0.5
					c0.33,0.33,0.5,0.73,0.5,1.2s-0.17,0.87-0.5,1.2c-0.3,0.33-0.68,0.5-1.15,0.5s-0.85-0.17-1.15-0.5c-0.33-0.33-0.5-0.73-0.5-1.2
					s0.17-0.87,0.5-1.2C61.03,62.85,61.42,62.68,61.88,62.68z M61.28,63.68c0.23-0.27,0.22-0.47-0.05-0.6
					c-0.47,0.2-0.52,0.43-0.15,0.7C61.15,63.82,61.22,63.78,61.28,63.68z"/>
				<path fill-rule="evenodd" clip-rule="evenodd" fill="#FFFFFF" d="M61.28,63.68c-0.07,0.1-0.13,0.13-0.2,0.1
					c-0.37-0.27-0.32-0.5,0.15-0.7C61.5,63.22,61.52,63.42,61.28,63.68z"/>
				
					<path fill-rule="evenodd" clip-rule="evenodd" fill="none" stroke="#FFFFFF" stroke-linecap="round" stroke-linejoin="round" stroke-miterlimit="3" stroke-opacity="0.8" d="
					M61.88,62.68c-0.47,0-0.85,0.17-1.15,0.5c-0.33,0.33-0.5,0.73-0.5,1.2s0.17,0.87,0.5,1.2c0.3,0.33,0.68,0.5,1.15,0.5
					s0.85-0.17,1.15-0.5c0.33-0.33,0.5-0.73,0.5-1.2s-0.17-0.87-0.5-1.2C62.73,62.85,62.35,62.68,61.88,62.68z"/>
			</g>
		</g>
		<g>
			<g>
				<path fill-rule="evenodd" clip-rule="evenodd" fill="#FFFFFF" d="M56.28,61.53c-0.37-0.27-0.32-0.5,0.15-0.7
					c0.27,0.13,0.28,0.33,0.05,0.6C56.42,61.53,56.35,61.57,56.28,61.53z"/>
				<path fill-rule="evenodd" clip-rule="evenodd" fill="#43B649" fill-opacity="0" d="M56.28,61.53c0.07,0.03,0.13,0,0.2-0.1
					c0.23-0.27,0.22-0.47-0.05-0.6C55.97,61.03,55.92,61.27,56.28,61.53z M55.43,62.13c0-0.47,0.17-0.87,0.5-1.2
					c0.3-0.33,0.68-0.5,1.15-0.5s0.85,0.17,1.15,0.5c0.33,0.33,0.5,0.73,0.5,1.2s-0.17,0.87-0.5,1.2c-0.3,0.33-0.68,0.5-1.15,0.5
					s-0.85-0.17-1.15-0.5C55.6,63,55.43,62.6,55.43,62.13z"/>
				
					<path fill-rule="evenodd" clip-rule="evenodd" fill="none" stroke="#FFFFFF" stroke-linecap="round" stroke-linejoin="round" stroke-miterlimit="3" stroke-opacity="0.8" d="
					M55.43,62.13c0,0.47,0.17,0.87,0.5,1.2c0.3,0.33,0.68,0.5,1.15,0.5s0.85-0.17,1.15-0.5c0.33-0.33,0.5-0.73,0.5-1.2
					s-0.17-0.87-0.5-1.2c-0.3-0.33-0.68-0.5-1.15-0.5s-0.85,0.17-1.15,0.5C55.6,61.27,55.43,61.67,55.43,62.13z"/>
			</g>
		</g>
		<g>
			<g>
				<path fill-rule="evenodd" clip-rule="evenodd" fill="#43B649" fill-opacity="0" d="M54.73,61.93c0.47,0,0.85,0.17,1.15,0.5
					c0.33,0.33,0.5,0.73,0.5,1.2s-0.17,0.87-0.5,1.2c-0.3,0.33-0.68,0.5-1.15,0.5c-0.47,0-0.85-0.17-1.15-0.5
					c-0.33-0.33-0.5-0.73-0.5-1.2s0.17-0.87,0.5-1.2C53.88,62.1,54.27,61.93,54.73,61.93z M54.13,62.93
					c0.23-0.27,0.22-0.47-0.05-0.6c-0.47,0.2-0.52,0.43-0.15,0.7C54,63.07,54.07,63.03,54.13,62.93z"/>
				<path fill-rule="evenodd" clip-rule="evenodd" fill="#FFFFFF" d="M54.13,62.93c-0.07,0.1-0.13,0.13-0.2,0.1
					c-0.37-0.27-0.32-0.5,0.15-0.7C54.35,62.47,54.37,62.67,54.13,62.93z"/>
				
					<path fill-rule="evenodd" clip-rule="evenodd" fill="none" stroke="#FFFFFF" stroke-linecap="round" stroke-linejoin="round" stroke-miterlimit="3" stroke-opacity="0.8" d="
					M54.73,61.93c-0.47,0-0.85,0.17-1.15,0.5c-0.33,0.33-0.5,0.73-0.5,1.2s0.17,0.87,0.5,1.2c0.3,0.33,0.68,0.5,1.15,0.5
					c0.47,0,0.85-0.17,1.15-0.5c0.33-0.33,0.5-0.73,0.5-1.2s-0.17-0.87-0.5-1.2C55.58,62.1,55.2,61.93,54.73,61.93z"/>
			</g>
		</g>
		<g>
			<g>
				<path fill-rule="evenodd" clip-rule="evenodd" fill="#FFFFFF" d="M49.13,49.48c-0.37-0.27-0.32-0.5,0.15-0.7
					c0.27,0.13,0.28,0.33,0.05,0.6C49.27,49.48,49.2,49.52,49.13,49.48z"/>
				<path fill-rule="evenodd" clip-rule="evenodd" fill="#43B649" fill-opacity="0" d="M48.28,50.08c0-0.47,0.17-0.87,0.5-1.2
					c0.3-0.33,0.68-0.5,1.15-0.5c0.47,0,0.85,0.17,1.15,0.5c0.33,0.33,0.5,0.73,0.5,1.2s-0.17,0.87-0.5,1.2
					c-0.3,0.33-0.68,0.5-1.15,0.5c-0.47,0-0.85-0.17-1.15-0.5C48.45,50.95,48.28,50.55,48.28,50.08z M49.13,49.48
					c0.07,0.03,0.13,0,0.2-0.1c0.23-0.27,0.22-0.47-0.05-0.6C48.82,48.98,48.77,49.22,49.13,49.48z"/>
				
					<path fill-rule="evenodd" clip-rule="evenodd" fill="none" stroke="#FFFFFF" stroke-linecap="round" stroke-linejoin="round" stroke-miterlimit="3" stroke-opacity="0.8" d="
					M48.28,50.08c0,0.47,0.17,0.87,0.5,1.2c0.3,0.33,0.68,0.5,1.15,0.5c0.47,0,0.85-0.17,1.15-0.5c0.33-0.33,0.5-0.73,0.5-1.2
					s-0.17-0.87-0.5-1.2c-0.3-0.33-0.68-0.5-1.15-0.5c-0.47,0-0.85,0.17-1.15,0.5C48.45,49.22,48.28,49.62,48.28,50.08z"/>
			</g>
		</g>
		<g>
			<g>
				<path fill-rule="evenodd" clip-rule="evenodd" fill="#43B649" fill-opacity="0" d="M53.18,39.03c0.3-0.33,0.68-0.5,1.15-0.5
					s0.85,0.17,1.15,0.5c0.33,0.33,0.5,0.73,0.5,1.2c0,0.47-0.17,0.87-0.5,1.2c-0.3,0.33-0.68,0.5-1.15,0.5s-0.85-0.17-1.15-0.5
					c-0.33-0.33-0.5-0.73-0.5-1.2C52.68,39.77,52.85,39.37,53.18,39.03z M53.73,39.53c0.23-0.27,0.22-0.47-0.05-0.6
					c-0.47,0.2-0.52,0.43-0.15,0.7C53.6,39.67,53.67,39.63,53.73,39.53z"/>
				<path fill-rule="evenodd" clip-rule="evenodd" fill="#FFFFFF" d="M53.73,39.53c-0.07,0.1-0.13,0.13-0.2,0.1
					c-0.37-0.27-0.32-0.5,0.15-0.7C53.95,39.07,53.97,39.27,53.73,39.53z"/>
				
					<path fill-rule="evenodd" clip-rule="evenodd" fill="none" stroke="#FFFFFF" stroke-linecap="round" stroke-linejoin="round" stroke-miterlimit="3" stroke-opacity="0.8" d="
					M53.18,39.03c-0.33,0.33-0.5,0.73-0.5,1.2c0,0.47,0.17,0.87,0.5,1.2c0.3,0.33,0.68,0.5,1.15,0.5s0.85-0.17,1.15-0.5
					c0.33-0.33,0.5-0.73,0.5-1.2c0-0.47-0.17-0.87-0.5-1.2c-0.3-0.33-0.68-0.5-1.15-0.5S53.48,38.7,53.18,39.03z"/>
			</g>
		</g>
		<g>
			<g>
				<path fill-rule="evenodd" clip-rule="evenodd" fill="#43B649" fill-opacity="0" d="M48.58,39.03c0.3-0.33,0.68-0.5,1.15-0.5
					c0.47,0,0.85,0.17,1.15,0.5c0.33,0.33,0.5,0.73,0.5,1.2c0,0.47-0.17,0.87-0.5,1.2c-0.3,0.33-0.68,0.5-1.15,0.5
					c-0.47,0-0.85-0.17-1.15-0.5c-0.33-0.33-0.5-0.73-0.5-1.2C48.08,39.77,48.25,39.37,48.58,39.03z M49.13,39.53
					c0.23-0.27,0.22-0.47-0.05-0.6c-0.47,0.2-0.52,0.43-0.15,0.7C49,39.67,49.07,39.63,49.13,39.53z"/>
				<path fill-rule="evenodd" clip-rule="evenodd" fill="#FFFFFF" d="M49.13,39.53c-0.07,0.1-0.13,0.13-0.2,0.1
					c-0.37-0.27-0.32-0.5,0.15-0.7C49.35,39.07,49.37,39.27,49.13,39.53z"/>
				
					<path fill-rule="evenodd" clip-rule="evenodd" fill="none" stroke="#FFFFFF" stroke-linecap="round" stroke-linejoin="round" stroke-miterlimit="3" stroke-opacity="0.8" d="
					M48.58,39.03c-0.33,0.33-0.5,0.73-0.5,1.2c0,0.47,0.17,0.87,0.5,1.2c0.3,0.33,0.68,0.5,1.15,0.5c0.47,0,0.85-0.17,1.15-0.5
					c0.33-0.33,0.5-0.73,0.5-1.2c0-0.47-0.17-0.87-0.5-1.2c-0.3-0.33-0.68-0.5-1.15-0.5C49.27,38.53,48.88,38.7,48.58,39.03z"/>
			</g>
		</g>
		<g>
			<g>
				<path fill-rule="evenodd" clip-rule="evenodd" fill="#43B649" fill-opacity="0" d="M48.58,32.78c0.3-0.33,0.68-0.5,1.15-0.5
					c0.47,0,0.85,0.17,1.15,0.5c0.33,0.33,0.5,0.73,0.5,1.2s-0.17,0.87-0.5,1.2c-0.3,0.33-0.68,0.5-1.15,0.5
					c-0.47,0-0.85-0.17-1.15-0.5c-0.33-0.33-0.5-0.73-0.5-1.2S48.25,33.12,48.58,32.78z M49.13,33.28c0.23-0.27,0.22-0.47-0.05-0.6
					c-0.47,0.2-0.52,0.43-0.15,0.7C49,33.42,49.07,33.38,49.13,33.28z"/>
				<path fill-rule="evenodd" clip-rule="evenodd" fill="#FFFFFF" d="M49.13,33.28c-0.07,0.1-0.13,0.13-0.2,0.1
					c-0.37-0.27-0.32-0.5,0.15-0.7C49.35,32.82,49.37,33.02,49.13,33.28z"/>
				
					<path fill-rule="evenodd" clip-rule="evenodd" fill="none" stroke="#FFFFFF" stroke-linecap="round" stroke-linejoin="round" stroke-miterlimit="3" stroke-opacity="0.8" d="
					M48.58,32.78c-0.33,0.33-0.5,0.73-0.5,1.2s0.17,0.87,0.5,1.2c0.3,0.33,0.68,0.5,1.15,0.5c0.47,0,0.85-0.17,1.15-0.5
					c0.33-0.33,0.5-0.73,0.5-1.2s-0.17-0.87-0.5-1.2c-0.3-0.33-0.68-0.5-1.15-0.5C49.27,32.28,48.88,32.45,48.58,32.78z"/>
			</g>
		</g>
		<g>
			<g>
				<path fill-rule="evenodd" clip-rule="evenodd" fill="#43B649" fill-opacity="0" d="M58.03,25.03c0.47,0,0.85,0.17,1.15,0.5
					c0.33,0.33,0.5,0.73,0.5,1.2s-0.17,0.87-0.5,1.2c-0.3,0.33-0.68,0.5-1.15,0.5s-0.85-0.17-1.15-0.5c-0.33-0.33-0.5-0.73-0.5-1.2
					s0.17-0.87,0.5-1.2C57.18,25.2,57.57,25.03,58.03,25.03z M57.43,26.03c0.23-0.27,0.22-0.47-0.05-0.6
					c-0.47,0.2-0.52,0.43-0.15,0.7C57.3,26.17,57.37,26.13,57.43,26.03z"/>
				<path fill-rule="evenodd" clip-rule="evenodd" fill="#FFFFFF" d="M57.43,26.03c-0.07,0.1-0.13,0.13-0.2,0.1
					c-0.37-0.27-0.32-0.5,0.15-0.7C57.65,25.57,57.67,25.77,57.43,26.03z"/>
				
					<path fill-rule="evenodd" clip-rule="evenodd" fill="none" stroke="#FFFFFF" stroke-linecap="round" stroke-linejoin="round" stroke-miterlimit="3" stroke-opacity="0.8" d="
					M58.03,25.03c-0.47,0-0.85,0.17-1.15,0.5c-0.33,0.33-0.5,0.73-0.5,1.2s0.17,0.87,0.5,1.2c0.3,0.33,0.68,0.5,1.15,0.5
					s0.85-0.17,1.15-0.5c0.33-0.33,0.5-0.73,0.5-1.2s-0.17-0.87-0.5-1.2C58.88,25.2,58.5,25.03,58.03,25.03z"/>
			</g>
		</g>
		<g>
			<g>
				<path fill-rule="evenodd" clip-rule="evenodd" fill="#43B649" fill-opacity="0" d="M63.38,26.18c-0.3,0.33-0.68,0.5-1.15,0.5
					c-0.47,0-0.85-0.17-1.15-0.5c-0.33-0.33-0.5-0.73-0.5-1.2s0.17-0.87,0.5-1.2c0.3-0.33,0.68-0.5,1.15-0.5
					c0.47,0,0.85,0.17,1.15,0.5c0.33,0.33,0.5,0.73,0.5,1.2S63.72,25.85,63.38,26.18z M61.63,24.28c0.23-0.27,0.22-0.47-0.05-0.6
					c-0.47,0.2-0.52,0.43-0.15,0.7C61.5,24.42,61.57,24.38,61.63,24.28z"/>
				<path fill-rule="evenodd" clip-rule="evenodd" fill="#FFFFFF" d="M61.63,24.28c-0.07,0.1-0.13,0.13-0.2,0.1
					c-0.37-0.27-0.32-0.5,0.15-0.7C61.85,23.82,61.87,24.02,61.63,24.28z"/>
				
					<path fill-rule="evenodd" clip-rule="evenodd" fill="none" stroke="#FFFFFF" stroke-linecap="round" stroke-linejoin="round" stroke-miterlimit="3" stroke-opacity="0.8" d="
					M63.38,26.18c0.33-0.33,0.5-0.73,0.5-1.2s-0.17-0.87-0.5-1.2c-0.3-0.33-0.68-0.5-1.15-0.5c-0.47,0-0.85,0.17-1.15,0.5
					c-0.33,0.33-0.5,0.73-0.5,1.2s0.17,0.87,0.5,1.2c0.3,0.33,0.68,0.5,1.15,0.5C62.7,26.68,63.08,26.52,63.38,26.18z"/>
			</g>
		</g>
		<g>
			<g>
				<path fill-rule="evenodd" clip-rule="evenodd" fill="#43B649" fill-opacity="0" d="M69.08,17.08c-0.3,0.33-0.68,0.5-1.15,0.5
					c-0.47,0-0.85-0.17-1.15-0.5c-0.33-0.33-0.5-0.73-0.5-1.2c0-0.47,0.17-0.87,0.5-1.2c0.3-0.33,0.68-0.5,1.15-0.5
					c0.47,0,0.85,0.17,1.15,0.5c0.33,0.33,0.5,0.73,0.5,1.2C69.58,16.35,69.42,16.75,69.08,17.08z M67.33,15.18
					c0.23-0.27,0.22-0.47-0.05-0.6c-0.47,0.2-0.52,0.43-0.15,0.7C67.2,15.32,67.27,15.28,67.33,15.18z"/>
				<path fill-rule="evenodd" clip-rule="evenodd" fill="#FFFFFF" d="M67.33,15.18c-0.07,0.1-0.13,0.13-0.2,0.1
					c-0.37-0.27-0.32-0.5,0.15-0.7C67.55,14.72,67.57,14.92,67.33,15.18z"/>
				
					<path fill-rule="evenodd" clip-rule="evenodd" fill="none" stroke="#FFFFFF" stroke-linecap="round" stroke-linejoin="round" stroke-miterlimit="3" stroke-opacity="0.8" d="
					M69.08,17.08c0.33-0.33,0.5-0.73,0.5-1.2c0-0.47-0.17-0.87-0.5-1.2c-0.3-0.33-0.68-0.5-1.15-0.5c-0.47,0-0.85,0.17-1.15,0.5
					c-0.33,0.33-0.5,0.73-0.5,1.2c0,0.47,0.17,0.87,0.5,1.2c0.3,0.33,0.68,0.5,1.15,0.5C68.4,17.58,68.78,17.42,69.08,17.08z"/>
			</g>
		</g>
		<g>
			<g>
				<path fill-rule="evenodd" clip-rule="evenodd" fill="#43B649" fill-opacity="0" d="M77.38,19.83c0.3-0.33,0.68-0.5,1.15-0.5
					s0.85,0.17,1.15,0.5c0.33,0.33,0.5,0.73,0.5,1.2c0,0.47-0.17,0.87-0.5,1.2c-0.3,0.33-0.68,0.5-1.15,0.5s-0.85-0.17-1.15-0.5
					c-0.33-0.33-0.5-0.73-0.5-1.2C76.88,20.57,77.05,20.17,77.38,19.83z M77.73,20.43c0.07,0.03,0.13,0,0.2-0.1
					c0.23-0.27,0.22-0.47-0.05-0.6C77.42,19.93,77.37,20.17,77.73,20.43z"/>
				<path fill-rule="evenodd" clip-rule="evenodd" fill="#FFFFFF" d="M77.73,20.43c-0.37-0.27-0.32-0.5,0.15-0.7
					c0.27,0.13,0.28,0.33,0.05,0.6C77.87,20.43,77.8,20.47,77.73,20.43z"/>
				
					<path fill-rule="evenodd" clip-rule="evenodd" fill="none" stroke="#FFFFFF" stroke-linecap="round" stroke-linejoin="round" stroke-miterlimit="3" stroke-opacity="0.8" d="
					M77.38,19.83c-0.33,0.33-0.5,0.73-0.5,1.2c0,0.47,0.17,0.87,0.5,1.2c0.3,0.33,0.68,0.5,1.15,0.5s0.85-0.17,1.15-0.5
					c0.33-0.33,0.5-0.73,0.5-1.2c0-0.47-0.17-0.87-0.5-1.2c-0.3-0.33-0.68-0.5-1.15-0.5S77.68,19.5,77.38,19.83z"/>
			</g>
		</g>
		<g>
			<g>
				<path fill-rule="evenodd" clip-rule="evenodd" fill="#FFFFFF" d="M79.43,18.73c-0.37-0.27-0.32-0.5,0.15-0.7
					c0.27,0.13,0.28,0.33,0.05,0.6C79.57,18.73,79.5,18.77,79.43,18.73z"/>
				<path fill-rule="evenodd" clip-rule="evenodd" fill="#43B649" fill-opacity="0" d="M79.43,18.73c0.07,0.03,0.13,0,0.2-0.1
					c0.23-0.27,0.22-0.47-0.05-0.6C79.12,18.23,79.07,18.47,79.43,18.73z M78.58,19.33c0-0.47,0.17-0.87,0.5-1.2
					c0.3-0.33,0.68-0.5,1.15-0.5c0.47,0,0.85,0.17,1.15,0.5c0.33,0.33,0.5,0.73,0.5,1.2s-0.17,0.87-0.5,1.2
					c-0.3,0.33-0.68,0.5-1.15,0.5c-0.47,0-0.85-0.17-1.15-0.5C78.75,20.2,78.58,19.8,78.58,19.33z"/>
				
					<path fill-rule="evenodd" clip-rule="evenodd" fill="none" stroke="#FFFFFF" stroke-linecap="round" stroke-linejoin="round" stroke-miterlimit="3" stroke-opacity="0.8" d="
					M78.58,19.33c0,0.47,0.17,0.87,0.5,1.2c0.3,0.33,0.68,0.5,1.15,0.5c0.47,0,0.85-0.17,1.15-0.5c0.33-0.33,0.5-0.73,0.5-1.2
					s-0.17-0.87-0.5-1.2c-0.3-0.33-0.68-0.5-1.15-0.5c-0.47,0-0.85,0.17-1.15,0.5C78.75,18.47,78.58,18.87,78.58,19.33z"/>
			</g>
		</g>
		<g>
			<g>
				<path fill-rule="evenodd" clip-rule="evenodd" fill="#43B649" fill-opacity="0" d="M84.03,18.88c0.3-0.33,0.68-0.5,1.15-0.5
					c0.47,0,0.85,0.17,1.15,0.5c0.33,0.33,0.5,0.73,0.5,1.2s-0.17,0.87-0.5,1.2c-0.3,0.33-0.68,0.5-1.15,0.5
					c-0.47,0-0.85-0.17-1.15-0.5c-0.33-0.33-0.5-0.73-0.5-1.2S83.7,19.22,84.03,18.88z M84.38,19.48c0.07,0.03,0.13,0,0.2-0.1
					c0.23-0.27,0.22-0.47-0.05-0.6C84.07,18.98,84.02,19.22,84.38,19.48z"/>
				<path fill-rule="evenodd" clip-rule="evenodd" fill="#FFFFFF" d="M84.38,19.48c-0.37-0.27-0.32-0.5,0.15-0.7
					c0.27,0.13,0.28,0.33,0.05,0.6C84.52,19.48,84.45,19.52,84.38,19.48z"/>
				
					<path fill-rule="evenodd" clip-rule="evenodd" fill="none" stroke="#FFFFFF" stroke-linecap="round" stroke-linejoin="round" stroke-miterlimit="3" stroke-opacity="0.8" d="
					M84.03,18.88c-0.33,0.33-0.5,0.73-0.5,1.2s0.17,0.87,0.5,1.2c0.3,0.33,0.68,0.5,1.15,0.5c0.47,0,0.85-0.17,1.15-0.5
					c0.33-0.33,0.5-0.73,0.5-1.2s-0.17-0.87-0.5-1.2c-0.3-0.33-0.68-0.5-1.15-0.5C84.72,18.38,84.33,18.55,84.03,18.88z"/>
			</g>
		</g>
		<g>
			<g>
				<path fill-rule="evenodd" clip-rule="evenodd" fill="#43B649" fill-opacity="0" d="M80.23,6.03c0-0.47,0.17-0.87,0.5-1.2
					c0.3-0.33,0.68-0.5,1.15-0.5s0.85,0.17,1.15,0.5c0.33,0.33,0.5,0.73,0.5,1.2c0,0.47-0.17,0.87-0.5,1.2
					c-0.3,0.33-0.68,0.5-1.15,0.5s-0.85-0.17-1.15-0.5C80.4,6.9,80.23,6.5,80.23,6.03z M81.28,5.33c0.23-0.27,0.22-0.47-0.05-0.6
					c-0.47,0.2-0.52,0.43-0.15,0.7C81.15,5.47,81.22,5.43,81.28,5.33z"/>
				<path fill-rule="evenodd" clip-rule="evenodd" fill="#FFFFFF" d="M81.28,5.33c-0.07,0.1-0.13,0.13-0.2,0.1
					c-0.37-0.27-0.32-0.5,0.15-0.7C81.5,4.87,81.52,5.07,81.28,5.33z"/>
				
					<path fill-rule="evenodd" clip-rule="evenodd" fill="none" stroke="#FFFFFF" stroke-linecap="round" stroke-linejoin="round" stroke-miterlimit="3" stroke-opacity="0.8" d="
					M80.23,6.03c0,0.47,0.17,0.87,0.5,1.2c0.3,0.33,0.68,0.5,1.15,0.5s0.85-0.17,1.15-0.5c0.33-0.33,0.5-0.73,0.5-1.2
					c0-0.47-0.17-0.87-0.5-1.2c-0.3-0.33-0.68-0.5-1.15-0.5s-0.85,0.17-1.15,0.5C80.4,5.17,80.23,5.57,80.23,6.03z"/>
			</g>
		</g>
		<g>
			<g>
				<path fill-rule="evenodd" clip-rule="evenodd" fill="#43B649" fill-opacity="0" d="M50.73,66.53c-0.3,0.27-0.63,0.4-1,0.4
					c-0.37,0-0.68-0.13-0.95-0.4s-0.4-0.6-0.4-1c0-0.4,0.13-0.73,0.4-1s0.58-0.4,0.95-0.4c0.37,0,0.7,0.13,1,0.4
					c0.23,0.27,0.35,0.6,0.35,1C51.08,65.93,50.97,66.27,50.73,66.53z M49.23,64.98c0.2-0.23,0.18-0.42-0.05-0.55
					c-0.37,0.2-0.4,0.4-0.1,0.6C49.12,65.07,49.17,65.05,49.23,64.98z"/>
				<path fill-rule="evenodd" clip-rule="evenodd" fill="#FFFFFF" d="M49.23,64.98c-0.07,0.07-0.12,0.08-0.15,0.05
					c-0.3-0.2-0.27-0.4,0.1-0.6C49.42,64.57,49.43,64.75,49.23,64.98z"/>
				
					<path fill-rule="evenodd" clip-rule="evenodd" fill="none" stroke="#FFFFFF" stroke-linecap="round" stroke-linejoin="round" stroke-miterlimit="3" stroke-opacity="0.8" d="
					M50.73,66.53c0.23-0.27,0.35-0.6,0.35-1c0-0.4-0.12-0.73-0.35-1c-0.3-0.27-0.63-0.4-1-0.4c-0.37,0-0.68,0.13-0.95,0.4
					s-0.4,0.6-0.4,1c0,0.4,0.13,0.73,0.4,1s0.58,0.4,0.95,0.4C50.1,66.93,50.43,66.8,50.73,66.53z"/>
			</g>
		</g>
		<g>
			<g>
				<path fill-rule="evenodd" clip-rule="evenodd" fill="#43B649" fill-opacity="0" d="M64.58,32.48c0.3-0.33,0.68-0.5,1.15-0.5
					c0.47,0,0.85,0.17,1.15,0.5c0.33,0.33,0.5,0.73,0.5,1.2s-0.17,0.87-0.5,1.2c-0.3,0.33-0.68,0.5-1.15,0.5
					c-0.47,0-0.85-0.17-1.15-0.5c-0.33-0.33-0.5-0.73-0.5-1.2S64.25,32.82,64.58,32.48z M65.08,32.38c-0.47,0.2-0.52,0.43-0.15,0.7
					c0.07,0.03,0.13,0,0.2-0.1C65.37,32.72,65.35,32.52,65.08,32.38z"/>
				<path fill-rule="evenodd" clip-rule="evenodd" fill="#FFFFFF" d="M65.08,32.38c0.27,0.13,0.28,0.33,0.05,0.6
					c-0.07,0.1-0.13,0.13-0.2,0.1C64.57,32.82,64.62,32.58,65.08,32.38z"/>
				
					<path fill-rule="evenodd" clip-rule="evenodd" fill="none" stroke="#FFFFFF" stroke-linecap="round" stroke-linejoin="round" stroke-miterlimit="3" stroke-opacity="0.8" d="
					M64.58,32.48c-0.33,0.33-0.5,0.73-0.5,1.2s0.17,0.87,0.5,1.2c0.3,0.33,0.68,0.5,1.15,0.5c0.47,0,0.85-0.17,1.15-0.5
					c0.33-0.33,0.5-0.73,0.5-1.2s-0.17-0.87-0.5-1.2c-0.3-0.33-0.68-0.5-1.15-0.5C65.27,31.98,64.88,32.15,64.58,32.48z"/>
			</g>
		</g>
	</g>
</g>
<g id="Layer_4">
</g>
<g id="Layer_5">
</g>
<g id="Layer_6">
</g>
</svg>
