<?xml version="1.0" encoding="utf-8"?>
<!-- Generator: Adobe Illustrator 16.0.0, SVG Export Plug-In . SVG Version: 6.00 Build 0)  -->
<!DOCTYPE svg PUBLIC "-//W3C//DTD SVG 1.1//EN" "http://www.w3.org/Graphics/SVG/1.1/DTD/svg11.dtd">
<svg version="1.1" xmlns="http://www.w3.org/2000/svg" xmlns:xlink="http://www.w3.org/1999/xlink" x="0px" y="0px" width="88.5px"
	 height="72px" viewBox="0 0 88.5 72" enable-background="new 0 0 88.5 72" xml:space="preserve">
<g id="Layer_2">
</g>
<g id="Layer_3">
</g>
<g id="Layer_4">
	<g>
		<g>
			<g>
				<path fill-rule="evenodd" clip-rule="evenodd" fill="#43B649" fill-opacity="0" d="M13.28,62.63c0,0.47-0.17,0.87-0.5,1.2
					c-0.3,0.33-0.68,0.5-1.15,0.5c-0.47,0-0.85-0.17-1.15-0.5c-0.33-0.33-0.5-0.73-0.5-1.2s0.17-0.87,0.5-1.2
					c0.3-0.33,0.68-0.5,1.15-0.5c0.47,0,0.85,0.17,1.15,0.5C13.12,61.77,13.28,62.17,13.28,62.63z M12.23,61.93
					c0.07,0.1,0.13,0.13,0.2,0.1c0.37-0.27,0.32-0.5-0.15-0.7C12.02,61.47,12,61.67,12.23,61.93z"/>
				<path fill-rule="evenodd" clip-rule="evenodd" fill="#FFFFFF" d="M12.23,61.93c-0.23-0.27-0.22-0.47,0.05-0.6
					c0.47,0.2,0.52,0.43,0.15,0.7C12.37,62.07,12.3,62.03,12.23,61.93z"/>
				
					<path fill-rule="evenodd" clip-rule="evenodd" fill="none" stroke="#FFFFFF" stroke-linecap="round" stroke-linejoin="round" stroke-miterlimit="3" stroke-opacity="0.8" d="
					M13.28,62.63c0,0.47-0.17,0.87-0.5,1.2c-0.3,0.33-0.68,0.5-1.15,0.5c-0.47,0-0.85-0.17-1.15-0.5c-0.33-0.33-0.5-0.73-0.5-1.2
					s0.17-0.87,0.5-1.2c0.3-0.33,0.68-0.5,1.15-0.5c0.47,0,0.85,0.17,1.15,0.5C13.12,61.77,13.28,62.17,13.28,62.63z"/>
			</g>
		</g>
		<g>
			<g>
				<path fill-rule="evenodd" clip-rule="evenodd" fill="#43B649" fill-opacity="0" d="M10.38,58.18c0.33,0.33,0.5,0.73,0.5,1.2
					s-0.17,0.87-0.5,1.2c-0.3,0.33-0.68,0.5-1.15,0.5s-0.85-0.17-1.15-0.5c-0.33-0.33-0.5-0.73-0.5-1.2s0.17-0.87,0.5-1.2
					c0.3-0.33,0.68-0.5,1.15-0.5S10.08,57.85,10.38,58.18z M10.03,58.78c0.37-0.27,0.32-0.5-0.15-0.7c-0.27,0.13-0.28,0.33-0.05,0.6
					C9.9,58.78,9.97,58.82,10.03,58.78z"/>
				<path fill-rule="evenodd" clip-rule="evenodd" fill="#FFFFFF" d="M10.03,58.78c-0.07,0.03-0.13,0-0.2-0.1
					c-0.23-0.27-0.22-0.47,0.05-0.6C10.35,58.28,10.4,58.52,10.03,58.78z"/>
				
					<path fill-rule="evenodd" clip-rule="evenodd" fill="none" stroke="#FFFFFF" stroke-linecap="round" stroke-linejoin="round" stroke-miterlimit="3" stroke-opacity="0.8" d="
					M10.38,58.18c0.33,0.33,0.5,0.73,0.5,1.2s-0.17,0.87-0.5,1.2c-0.3,0.33-0.68,0.5-1.15,0.5s-0.85-0.17-1.15-0.5
					c-0.33-0.33-0.5-0.73-0.5-1.2s0.17-0.87,0.5-1.2c0.3-0.33,0.68-0.5,1.15-0.5S10.08,57.85,10.38,58.18z"/>
			</g>
		</g>
		<g>
			<g>
				<path fill-rule="evenodd" clip-rule="evenodd" fill="#43B649" fill-opacity="0" d="M8.68,55.23c0,0.47-0.17,0.87-0.5,1.2
					c-0.3,0.33-0.68,0.5-1.15,0.5c-0.47,0-0.85-0.17-1.15-0.5c-0.33-0.33-0.5-0.73-0.5-1.2c0-0.47,0.17-0.87,0.5-1.2
					c0.3-0.33,0.68-0.5,1.15-0.5c0.47,0,0.85,0.17,1.15,0.5C8.52,54.37,8.68,54.77,8.68,55.23z M7.63,54.53
					c0.07,0.1,0.13,0.13,0.2,0.1c0.37-0.27,0.32-0.5-0.15-0.7C7.42,54.07,7.4,54.27,7.63,54.53z"/>
				<path fill-rule="evenodd" clip-rule="evenodd" fill="#FFFFFF" d="M7.63,54.53c-0.23-0.27-0.22-0.47,0.05-0.6
					c0.47,0.2,0.52,0.43,0.15,0.7C7.77,54.67,7.7,54.63,7.63,54.53z"/>
				
					<path fill-rule="evenodd" clip-rule="evenodd" fill="none" stroke="#FFFFFF" stroke-linecap="round" stroke-linejoin="round" stroke-miterlimit="3" stroke-opacity="0.8" d="
					M8.68,55.23c0,0.47-0.17,0.87-0.5,1.2c-0.3,0.33-0.68,0.5-1.15,0.5c-0.47,0-0.85-0.17-1.15-0.5c-0.33-0.33-0.5-0.73-0.5-1.2
					c0-0.47,0.17-0.87,0.5-1.2c0.3-0.33,0.68-0.5,1.15-0.5c0.47,0,0.85,0.17,1.15,0.5C8.52,54.37,8.68,54.77,8.68,55.23z"/>
			</g>
		</g>
		<g>
			<g>
				<path fill-rule="evenodd" clip-rule="evenodd" fill="#43B649" fill-opacity="0" d="M5.88,49.23c0.3-0.33,0.68-0.5,1.15-0.5
					c0.47,0,0.85,0.17,1.15,0.5c0.33,0.33,0.5,0.73,0.5,1.2c0,0.47-0.17,0.87-0.5,1.2c-0.3,0.33-0.68,0.5-1.15,0.5
					c-0.47,0-0.85-0.17-1.15-0.5c-0.33-0.33-0.5-0.73-0.5-1.2C5.38,49.97,5.55,49.57,5.88,49.23z M7.83,49.83
					c0.37-0.27,0.32-0.5-0.15-0.7c-0.27,0.13-0.28,0.33-0.05,0.6C7.7,49.83,7.77,49.87,7.83,49.83z"/>
				<path fill-rule="evenodd" clip-rule="evenodd" fill="#FFFFFF" d="M7.83,49.83c-0.07,0.03-0.13,0-0.2-0.1
					c-0.23-0.27-0.22-0.47,0.05-0.6C8.15,49.33,8.2,49.57,7.83,49.83z"/>
				
					<path fill-rule="evenodd" clip-rule="evenodd" fill="none" stroke="#FFFFFF" stroke-linecap="round" stroke-linejoin="round" stroke-miterlimit="3" stroke-opacity="0.8" d="
					M5.88,49.23c0.3-0.33,0.68-0.5,1.15-0.5c0.47,0,0.85,0.17,1.15,0.5c0.33,0.33,0.5,0.73,0.5,1.2c0,0.47-0.17,0.87-0.5,1.2
					c-0.3,0.33-0.68,0.5-1.15,0.5c-0.47,0-0.85-0.17-1.15-0.5c-0.33-0.33-0.5-0.73-0.5-1.2C5.38,49.97,5.55,49.57,5.88,49.23z"/>
			</g>
		</g>
		<g>
			<g>
				<path fill-rule="evenodd" clip-rule="evenodd" fill="#43B649" fill-opacity="0" d="M6.73,45.48c0.37-0.27,0.32-0.5-0.15-0.7
					c-0.27,0.13-0.28,0.33-0.05,0.6C6.6,45.48,6.67,45.52,6.73,45.48z M7.58,46.08c0,0.47-0.17,0.87-0.5,1.2
					c-0.3,0.33-0.68,0.5-1.15,0.5s-0.85-0.17-1.15-0.5c-0.33-0.33-0.5-0.73-0.5-1.2s0.17-0.87,0.5-1.2c0.3-0.33,0.68-0.5,1.15-0.5
					s0.85,0.17,1.15,0.5C7.42,45.22,7.58,45.62,7.58,46.08z"/>
				<path fill-rule="evenodd" clip-rule="evenodd" fill="#FFFFFF" d="M6.73,45.48c-0.07,0.03-0.13,0-0.2-0.1
					c-0.23-0.27-0.22-0.47,0.05-0.6C7.05,44.98,7.1,45.22,6.73,45.48z"/>
				
					<path fill-rule="evenodd" clip-rule="evenodd" fill="none" stroke="#FFFFFF" stroke-linecap="round" stroke-linejoin="round" stroke-miterlimit="3" stroke-opacity="0.8" d="
					M7.58,46.08c0,0.47-0.17,0.87-0.5,1.2c-0.3,0.33-0.68,0.5-1.15,0.5s-0.85-0.17-1.15-0.5c-0.33-0.33-0.5-0.73-0.5-1.2
					s0.17-0.87,0.5-1.2c0.3-0.33,0.68-0.5,1.15-0.5s0.85,0.17,1.15,0.5C7.42,45.22,7.58,45.62,7.58,46.08z"/>
			</g>
		</g>
		<g>
			<g>
				<path fill-rule="evenodd" clip-rule="evenodd" fill="#43B649" fill-opacity="0" d="M19.63,59.83c-0.33-0.33-0.5-0.73-0.5-1.2
					s0.17-0.87,0.5-1.2c0.3-0.33,0.68-0.5,1.15-0.5c0.47,0,0.85,0.17,1.15,0.5c0.33,0.33,0.5,0.73,0.5,1.2s-0.17,0.87-0.5,1.2
					c-0.3,0.33-0.68,0.5-1.15,0.5C20.32,60.33,19.93,60.17,19.63,59.83z M21.43,57.33c-0.27,0.13-0.28,0.33-0.05,0.6
					c0.07,0.1,0.13,0.13,0.2,0.1C21.95,57.77,21.9,57.53,21.43,57.33z"/>
				<path fill-rule="evenodd" clip-rule="evenodd" fill="#FFFFFF" d="M21.43,57.33c0.47,0.2,0.52,0.43,0.15,0.7
					c-0.07,0.03-0.13,0-0.2-0.1C21.15,57.67,21.17,57.47,21.43,57.33z"/>
				
					<path fill-rule="evenodd" clip-rule="evenodd" fill="none" stroke="#FFFFFF" stroke-linecap="round" stroke-linejoin="round" stroke-miterlimit="3" stroke-opacity="0.8" d="
					M19.63,59.83c-0.33-0.33-0.5-0.73-0.5-1.2s0.17-0.87,0.5-1.2c0.3-0.33,0.68-0.5,1.15-0.5c0.47,0,0.85,0.17,1.15,0.5
					c0.33,0.33,0.5,0.73,0.5,1.2s-0.17,0.87-0.5,1.2c-0.3,0.33-0.68,0.5-1.15,0.5C20.32,60.33,19.93,60.17,19.63,59.83z"/>
			</g>
		</g>
		<g>
			<g>
				<path fill-rule="evenodd" clip-rule="evenodd" fill="#43B649" fill-opacity="0" d="M24.18,56.48c0.37-0.27,0.32-0.5-0.15-0.7
					c-0.27,0.13-0.28,0.33-0.05,0.6C24.05,56.48,24.12,56.52,24.18,56.48z M23.38,55.38c0.47,0,0.85,0.17,1.15,0.5
					c0.33,0.33,0.5,0.73,0.5,1.2s-0.17,0.87-0.5,1.2c-0.3,0.33-0.68,0.5-1.15,0.5c-0.47,0-0.85-0.17-1.15-0.5
					c-0.33-0.33-0.5-0.73-0.5-1.2s0.17-0.87,0.5-1.2C22.53,55.55,22.92,55.38,23.38,55.38z"/>
				<path fill-rule="evenodd" clip-rule="evenodd" fill="#FFFFFF" d="M24.18,56.48c-0.07,0.03-0.13,0-0.2-0.1
					c-0.23-0.27-0.22-0.47,0.05-0.6C24.5,55.98,24.55,56.22,24.18,56.48z"/>
				
					<path fill-rule="evenodd" clip-rule="evenodd" fill="none" stroke="#FFFFFF" stroke-linecap="round" stroke-linejoin="round" stroke-miterlimit="3" stroke-opacity="0.8" d="
					M23.38,55.38c0.47,0,0.85,0.17,1.15,0.5c0.33,0.33,0.5,0.73,0.5,1.2s-0.17,0.87-0.5,1.2c-0.3,0.33-0.68,0.5-1.15,0.5
					c-0.47,0-0.85-0.17-1.15-0.5c-0.33-0.33-0.5-0.73-0.5-1.2s0.17-0.87,0.5-1.2C22.53,55.55,22.92,55.38,23.38,55.38z"/>
			</g>
		</g>
		<g>
			<g>
				<path fill-rule="evenodd" clip-rule="evenodd" fill="#43B649" fill-opacity="0" d="M27.83,59.13c0.33,0.33,0.5,0.73,0.5,1.2
					s-0.17,0.87-0.5,1.2c-0.3,0.33-0.68,0.5-1.15,0.5s-0.85-0.17-1.15-0.5c-0.33-0.33-0.5-0.73-0.5-1.2s0.17-0.87,0.5-1.2
					c0.3-0.33,0.68-0.5,1.15-0.5S27.53,58.8,27.83,59.13z M27.48,59.73c0.37-0.27,0.32-0.5-0.15-0.7c-0.27,0.13-0.28,0.33-0.05,0.6
					C27.35,59.73,27.42,59.77,27.48,59.73z"/>
				<path fill-rule="evenodd" clip-rule="evenodd" fill="#FFFFFF" d="M27.48,59.73c-0.07,0.03-0.13,0-0.2-0.1
					c-0.23-0.27-0.22-0.47,0.05-0.6C27.8,59.23,27.85,59.47,27.48,59.73z"/>
				
					<path fill-rule="evenodd" clip-rule="evenodd" fill="none" stroke="#FFFFFF" stroke-linecap="round" stroke-linejoin="round" stroke-miterlimit="3" stroke-opacity="0.8" d="
					M27.83,59.13c0.33,0.33,0.5,0.73,0.5,1.2s-0.17,0.87-0.5,1.2c-0.3,0.33-0.68,0.5-1.15,0.5s-0.85-0.17-1.15-0.5
					c-0.33-0.33-0.5-0.73-0.5-1.2s0.17-0.87,0.5-1.2c0.3-0.33,0.68-0.5,1.15-0.5S27.53,58.8,27.83,59.13z"/>
			</g>
		</g>
		<g>
			<g>
				<path fill-rule="evenodd" clip-rule="evenodd" fill="#43B649" fill-opacity="0" d="M22.23,65.53c-0.33-0.33-0.5-0.73-0.5-1.2
					s0.17-0.87,0.5-1.2c0.3-0.33,0.68-0.5,1.15-0.5c0.47,0,0.85,0.17,1.15,0.5c0.33,0.33,0.5,0.73,0.5,1.2s-0.17,0.87-0.5,1.2
					c-0.3,0.33-0.68,0.5-1.15,0.5C22.92,66.03,22.53,65.87,22.23,65.53z M23.98,63.63c0.07,0.1,0.13,0.13,0.2,0.1
					c0.37-0.27,0.32-0.5-0.15-0.7C23.77,63.17,23.75,63.37,23.98,63.63z"/>
				<path fill-rule="evenodd" clip-rule="evenodd" fill="#FFFFFF" d="M23.98,63.63c-0.23-0.27-0.22-0.47,0.05-0.6
					c0.47,0.2,0.52,0.43,0.15,0.7C24.12,63.77,24.05,63.73,23.98,63.63z"/>
				
					<path fill-rule="evenodd" clip-rule="evenodd" fill="none" stroke="#FFFFFF" stroke-linecap="round" stroke-linejoin="round" stroke-miterlimit="3" stroke-opacity="0.8" d="
					M22.23,65.53c-0.33-0.33-0.5-0.73-0.5-1.2s0.17-0.87,0.5-1.2c0.3-0.33,0.68-0.5,1.15-0.5c0.47,0,0.85,0.17,1.15,0.5
					c0.33,0.33,0.5,0.73,0.5,1.2s-0.17,0.87-0.5,1.2c-0.3,0.33-0.68,0.5-1.15,0.5C22.92,66.03,22.53,65.87,22.23,65.53z"/>
			</g>
		</g>
		<g>
			<g>
				<path fill-rule="evenodd" clip-rule="evenodd" fill="#43B649" fill-opacity="0" d="M26.13,63.38c0.47,0,0.85,0.17,1.15,0.5
					c0.33,0.33,0.5,0.73,0.5,1.2s-0.17,0.87-0.5,1.2c-0.3,0.33-0.68,0.5-1.15,0.5c-0.47,0-0.85-0.17-1.15-0.5
					c-0.33-0.33-0.5-0.73-0.5-1.2s0.17-0.87,0.5-1.2C25.28,63.55,25.67,63.38,26.13,63.38z M26.73,64.38c0.07,0.1,0.13,0.13,0.2,0.1
					c0.37-0.27,0.32-0.5-0.15-0.7C26.52,63.92,26.5,64.12,26.73,64.38z"/>
				<path fill-rule="evenodd" clip-rule="evenodd" fill="#FFFFFF" d="M26.73,64.38c-0.23-0.27-0.22-0.47,0.05-0.6
					c0.47,0.2,0.52,0.43,0.15,0.7C26.87,64.52,26.8,64.48,26.73,64.38z"/>
				
					<path fill-rule="evenodd" clip-rule="evenodd" fill="none" stroke="#FFFFFF" stroke-linecap="round" stroke-linejoin="round" stroke-miterlimit="3" stroke-opacity="0.8" d="
					M26.13,63.38c0.47,0,0.85,0.17,1.15,0.5c0.33,0.33,0.5,0.73,0.5,1.2s-0.17,0.87-0.5,1.2c-0.3,0.33-0.68,0.5-1.15,0.5
					c-0.47,0-0.85-0.17-1.15-0.5c-0.33-0.33-0.5-0.73-0.5-1.2s0.17-0.87,0.5-1.2C25.28,63.55,25.67,63.38,26.13,63.38z"/>
			</g>
		</g>
		<g>
			<g>
				<path fill-rule="evenodd" clip-rule="evenodd" fill="#43B649" fill-opacity="0" d="M31.43,63.38c0.47,0,0.85,0.17,1.15,0.5
					c0.33,0.33,0.5,0.73,0.5,1.2s-0.17,0.87-0.5,1.2c-0.3,0.33-0.68,0.5-1.15,0.5s-0.85-0.17-1.15-0.5c-0.33-0.33-0.5-0.73-0.5-1.2
					s0.17-0.87,0.5-1.2C30.58,63.55,30.97,63.38,31.43,63.38z M32.03,64.38c0.07,0.1,0.13,0.13,0.2,0.1c0.37-0.27,0.32-0.5-0.15-0.7
					C31.82,63.92,31.8,64.12,32.03,64.38z"/>
				<path fill-rule="evenodd" clip-rule="evenodd" fill="#FFFFFF" d="M32.03,64.38c-0.23-0.27-0.22-0.47,0.05-0.6
					c0.47,0.2,0.52,0.43,0.15,0.7C32.17,64.52,32.1,64.48,32.03,64.38z"/>
				
					<path fill-rule="evenodd" clip-rule="evenodd" fill="none" stroke="#FFFFFF" stroke-linecap="round" stroke-linejoin="round" stroke-miterlimit="3" stroke-opacity="0.8" d="
					M31.43,63.38c0.47,0,0.85,0.17,1.15,0.5c0.33,0.33,0.5,0.73,0.5,1.2s-0.17,0.87-0.5,1.2c-0.3,0.33-0.68,0.5-1.15,0.5
					s-0.85-0.17-1.15-0.5c-0.33-0.33-0.5-0.73-0.5-1.2s0.17-0.87,0.5-1.2C30.58,63.55,30.97,63.38,31.43,63.38z"/>
			</g>
		</g>
		<g>
			<g>
				<path fill-rule="evenodd" clip-rule="evenodd" fill="#43B649" fill-opacity="0" d="M33.98,63.38c0.47,0,0.85,0.17,1.15,0.5
					c0.33,0.33,0.5,0.73,0.5,1.2s-0.17,0.87-0.5,1.2c-0.3,0.33-0.68,0.5-1.15,0.5s-0.85-0.17-1.15-0.5c-0.33-0.33-0.5-0.73-0.5-1.2
					s0.17-0.87,0.5-1.2C33.13,63.55,33.52,63.38,33.98,63.38z M34.58,64.38c0.07,0.1,0.13,0.13,0.2,0.1c0.37-0.27,0.32-0.5-0.15-0.7
					C34.37,63.92,34.35,64.12,34.58,64.38z"/>
				<path fill-rule="evenodd" clip-rule="evenodd" fill="#FFFFFF" d="M34.58,64.38c-0.23-0.27-0.22-0.47,0.05-0.6
					c0.47,0.2,0.52,0.43,0.15,0.7C34.72,64.52,34.65,64.48,34.58,64.38z"/>
				
					<path fill-rule="evenodd" clip-rule="evenodd" fill="none" stroke="#FFFFFF" stroke-linecap="round" stroke-linejoin="round" stroke-miterlimit="3" stroke-opacity="0.8" d="
					M33.98,63.38c0.47,0,0.85,0.17,1.15,0.5c0.33,0.33,0.5,0.73,0.5,1.2s-0.17,0.87-0.5,1.2c-0.3,0.33-0.68,0.5-1.15,0.5
					s-0.85-0.17-1.15-0.5c-0.33-0.33-0.5-0.73-0.5-1.2s0.17-0.87,0.5-1.2C33.13,63.55,33.52,63.38,33.98,63.38z"/>
			</g>
		</g>
		<g>
			<g>
				<path fill-rule="evenodd" clip-rule="evenodd" fill="#43B649" fill-opacity="0" d="M40.93,68.53c0,0.47-0.17,0.87-0.5,1.2
					c-0.3,0.33-0.68,0.5-1.15,0.5c-0.47,0-0.85-0.17-1.15-0.5c-0.33-0.33-0.5-0.73-0.5-1.2s0.17-0.87,0.5-1.2
					c0.3-0.33,0.68-0.5,1.15-0.5c0.47,0,0.85,0.17,1.15,0.5C40.77,67.67,40.93,68.07,40.93,68.53z M39.88,67.83
					c0.07,0.1,0.13,0.13,0.2,0.1c0.37-0.27,0.32-0.5-0.15-0.7C39.67,67.37,39.65,67.57,39.88,67.83z"/>
				<path fill-rule="evenodd" clip-rule="evenodd" fill="#FFFFFF" d="M39.88,67.83c-0.23-0.27-0.22-0.47,0.05-0.6
					c0.47,0.2,0.52,0.43,0.15,0.7C40.02,67.97,39.95,67.93,39.88,67.83z"/>
				
					<path fill-rule="evenodd" clip-rule="evenodd" fill="none" stroke="#FFFFFF" stroke-linecap="round" stroke-linejoin="round" stroke-miterlimit="3" stroke-opacity="0.8" d="
					M40.93,68.53c0,0.47-0.17,0.87-0.5,1.2c-0.3,0.33-0.68,0.5-1.15,0.5c-0.47,0-0.85-0.17-1.15-0.5c-0.33-0.33-0.5-0.73-0.5-1.2
					s0.17-0.87,0.5-1.2c0.3-0.33,0.68-0.5,1.15-0.5c0.47,0,0.85,0.17,1.15,0.5C40.77,67.67,40.93,68.07,40.93,68.53z"/>
			</g>
		</g>
		<g>
			<g>
				<path fill-rule="evenodd" clip-rule="evenodd" fill="#43B649" fill-opacity="0" d="M39.88,50.48c0.07,0.1,0.13,0.13,0.2,0.1
					c0.37-0.27,0.32-0.5-0.15-0.7C39.67,50.02,39.65,50.22,39.88,50.48z M40.43,49.98c0.33,0.33,0.5,0.73,0.5,1.2
					c0,0.47-0.17,0.87-0.5,1.2c-0.3,0.33-0.68,0.5-1.15,0.5c-0.47,0-0.85-0.17-1.15-0.5c-0.33-0.33-0.5-0.73-0.5-1.2
					c0-0.47,0.17-0.87,0.5-1.2c0.3-0.33,0.68-0.5,1.15-0.5C39.75,49.48,40.13,49.65,40.43,49.98z"/>
				<path fill-rule="evenodd" clip-rule="evenodd" fill="#FFFFFF" d="M39.88,50.48c-0.23-0.27-0.22-0.47,0.05-0.6
					c0.47,0.2,0.52,0.43,0.15,0.7C40.02,50.62,39.95,50.58,39.88,50.48z"/>
				
					<path fill-rule="evenodd" clip-rule="evenodd" fill="none" stroke="#FFFFFF" stroke-linecap="round" stroke-linejoin="round" stroke-miterlimit="3" stroke-opacity="0.8" d="
					M40.43,49.98c0.33,0.33,0.5,0.73,0.5,1.2c0,0.47-0.17,0.87-0.5,1.2c-0.3,0.33-0.68,0.5-1.15,0.5c-0.47,0-0.85-0.17-1.15-0.5
					c-0.33-0.33-0.5-0.73-0.5-1.2c0-0.47,0.17-0.87,0.5-1.2c0.3-0.33,0.68-0.5,1.15-0.5C39.75,49.48,40.13,49.65,40.43,49.98z"/>
			</g>
		</g>
		<g>
			<g>
				<path fill-rule="evenodd" clip-rule="evenodd" fill="#43B649" fill-opacity="0" d="M39.33,39.13c0.33,0.33,0.5,0.73,0.5,1.2
					s-0.17,0.87-0.5,1.2c-0.3,0.33-0.68,0.5-1.15,0.5s-0.85-0.17-1.15-0.5c-0.33-0.33-0.5-0.73-0.5-1.2s0.17-0.87,0.5-1.2
					c0.3-0.33,0.68-0.5,1.15-0.5S39.03,38.8,39.33,39.13z M38.98,39.73c0.37-0.27,0.32-0.5-0.15-0.7c-0.27,0.13-0.28,0.33-0.05,0.6
					C38.85,39.73,38.92,39.77,38.98,39.73z"/>
				<path fill-rule="evenodd" clip-rule="evenodd" fill="#FFFFFF" d="M38.98,39.73c-0.07,0.03-0.13,0-0.2-0.1
					c-0.23-0.27-0.22-0.47,0.05-0.6C39.3,39.23,39.35,39.47,38.98,39.73z"/>
				
					<path fill-rule="evenodd" clip-rule="evenodd" fill="none" stroke="#FFFFFF" stroke-linecap="round" stroke-linejoin="round" stroke-miterlimit="3" stroke-opacity="0.8" d="
					M39.33,39.13c0.33,0.33,0.5,0.73,0.5,1.2s-0.17,0.87-0.5,1.2c-0.3,0.33-0.68,0.5-1.15,0.5s-0.85-0.17-1.15-0.5
					c-0.33-0.33-0.5-0.73-0.5-1.2s0.17-0.87,0.5-1.2c0.3-0.33,0.68-0.5,1.15-0.5S39.03,38.8,39.33,39.13z"/>
			</g>
		</g>
		<g>
			<g>
				<path fill-rule="evenodd" clip-rule="evenodd" fill="#43B649" fill-opacity="0" d="M40.43,33.23c0.33,0.33,0.5,0.73,0.5,1.2
					s-0.17,0.87-0.5,1.2c-0.3,0.33-0.68,0.5-1.15,0.5c-0.47,0-0.85-0.17-1.15-0.5c-0.33-0.33-0.5-0.73-0.5-1.2s0.17-0.87,0.5-1.2
					c0.3-0.33,0.68-0.5,1.15-0.5C39.75,32.73,40.13,32.9,40.43,33.23z M40.08,33.83c0.37-0.27,0.32-0.5-0.15-0.7
					c-0.27,0.13-0.28,0.33-0.05,0.6C39.95,33.83,40.02,33.87,40.08,33.83z"/>
				<path fill-rule="evenodd" clip-rule="evenodd" fill="#FFFFFF" d="M40.08,33.83c-0.07,0.03-0.13,0-0.2-0.1
					c-0.23-0.27-0.22-0.47,0.05-0.6C40.4,33.33,40.45,33.57,40.08,33.83z"/>
				
					<path fill-rule="evenodd" clip-rule="evenodd" fill="none" stroke="#FFFFFF" stroke-linecap="round" stroke-linejoin="round" stroke-miterlimit="3" stroke-opacity="0.8" d="
					M40.43,33.23c0.33,0.33,0.5,0.73,0.5,1.2s-0.17,0.87-0.5,1.2c-0.3,0.33-0.68,0.5-1.15,0.5c-0.47,0-0.85-0.17-1.15-0.5
					c-0.33-0.33-0.5-0.73-0.5-1.2s0.17-0.87,0.5-1.2c0.3-0.33,0.68-0.5,1.15-0.5C39.75,32.73,40.13,32.9,40.43,33.23z"/>
			</g>
		</g>
		<g>
			<g>
				<path fill-rule="evenodd" clip-rule="evenodd" fill="#43B649" fill-opacity="0" d="M22.98,32.73c0.47,0,0.85,0.17,1.15,0.5
					c0.33,0.33,0.5,0.73,0.5,1.2s-0.17,0.87-0.5,1.2c-0.3,0.33-0.68,0.5-1.15,0.5s-0.85-0.17-1.15-0.5c-0.33-0.33-0.5-0.73-0.5-1.2
					s0.17-0.87,0.5-1.2C22.13,32.9,22.52,32.73,22.98,32.73z M23.58,33.73c0.07,0.1,0.13,0.13,0.2,0.1c0.37-0.27,0.32-0.5-0.15-0.7
					C23.37,33.27,23.35,33.47,23.58,33.73z"/>
				<path fill-rule="evenodd" clip-rule="evenodd" fill="#FFFFFF" d="M23.58,33.73c-0.23-0.27-0.22-0.47,0.05-0.6
					c0.47,0.2,0.52,0.43,0.15,0.7C23.72,33.87,23.65,33.83,23.58,33.73z"/>
				
					<path fill-rule="evenodd" clip-rule="evenodd" fill="none" stroke="#FFFFFF" stroke-linecap="round" stroke-linejoin="round" stroke-miterlimit="3" stroke-opacity="0.8" d="
					M22.98,32.73c0.47,0,0.85,0.17,1.15,0.5c0.33,0.33,0.5,0.73,0.5,1.2s-0.17,0.87-0.5,1.2c-0.3,0.33-0.68,0.5-1.15,0.5
					s-0.85-0.17-1.15-0.5c-0.33-0.33-0.5-0.73-0.5-1.2s0.17-0.87,0.5-1.2C22.13,32.9,22.52,32.73,22.98,32.73z"/>
			</g>
		</g>
		<g>
			<g>
				<path fill-rule="evenodd" clip-rule="evenodd" fill="#43B649" fill-opacity="0" d="M24.98,25.38c-0.33-0.33-0.5-0.73-0.5-1.2
					s0.17-0.87,0.5-1.2c0.3-0.33,0.68-0.5,1.15-0.5c0.47,0,0.85,0.17,1.15,0.5c0.33,0.33,0.5,0.73,0.5,1.2s-0.17,0.87-0.5,1.2
					c-0.3,0.33-0.68,0.5-1.15,0.5C25.67,25.88,25.28,25.72,24.98,25.38z M26.93,23.58c0.37-0.27,0.32-0.5-0.15-0.7
					c-0.27,0.13-0.28,0.33-0.05,0.6C26.8,23.58,26.87,23.62,26.93,23.58z"/>
				<path fill-rule="evenodd" clip-rule="evenodd" fill="#FFFFFF" d="M26.93,23.58c-0.07,0.03-0.13,0-0.2-0.1
					c-0.23-0.27-0.22-0.47,0.05-0.6C27.25,23.08,27.3,23.32,26.93,23.58z"/>
				
					<path fill-rule="evenodd" clip-rule="evenodd" fill="none" stroke="#FFFFFF" stroke-linecap="round" stroke-linejoin="round" stroke-miterlimit="3" stroke-opacity="0.8" d="
					M24.98,25.38c-0.33-0.33-0.5-0.73-0.5-1.2s0.17-0.87,0.5-1.2c0.3-0.33,0.68-0.5,1.15-0.5c0.47,0,0.85,0.17,1.15,0.5
					c0.33,0.33,0.5,0.73,0.5,1.2s-0.17,0.87-0.5,1.2c-0.3,0.33-0.68,0.5-1.15,0.5C25.67,25.88,25.28,25.72,24.98,25.38z"/>
			</g>
		</g>
		<g>
			<g>
				<path fill-rule="evenodd" clip-rule="evenodd" fill="#43B649" fill-opacity="0" d="M32.23,26.83c0.37-0.27,0.32-0.5-0.15-0.7
					c-0.27,0.13-0.28,0.33-0.05,0.6C32.1,26.83,32.17,26.87,32.23,26.83z M33.08,27.43c0,0.47-0.17,0.87-0.5,1.2
					c-0.3,0.33-0.68,0.5-1.15,0.5s-0.85-0.17-1.15-0.5c-0.33-0.33-0.5-0.73-0.5-1.2s0.17-0.87,0.5-1.2c0.3-0.33,0.68-0.5,1.15-0.5
					s0.85,0.17,1.15,0.5C32.92,26.57,33.08,26.97,33.08,27.43z"/>
				<path fill-rule="evenodd" clip-rule="evenodd" fill="#FFFFFF" d="M32.23,26.83c-0.07,0.03-0.13,0-0.2-0.1
					c-0.23-0.27-0.22-0.47,0.05-0.6C32.55,26.33,32.6,26.57,32.23,26.83z"/>
				
					<path fill-rule="evenodd" clip-rule="evenodd" fill="none" stroke="#FFFFFF" stroke-linecap="round" stroke-linejoin="round" stroke-miterlimit="3" stroke-opacity="0.8" d="
					M33.08,27.43c0,0.47-0.17,0.87-0.5,1.2c-0.3,0.33-0.68,0.5-1.15,0.5s-0.85-0.17-1.15-0.5c-0.33-0.33-0.5-0.73-0.5-1.2
					s0.17-0.87,0.5-1.2c0.3-0.33,0.68-0.5,1.15-0.5s0.85,0.17,1.15,0.5C32.92,26.57,33.08,26.97,33.08,27.43z"/>
			</g>
		</g>
		<g>
			<g>
				<path fill-rule="evenodd" clip-rule="evenodd" fill="#43B649" fill-opacity="0" d="M31.33,18.38c0,0.47-0.17,0.87-0.5,1.2
					c-0.3,0.33-0.68,0.5-1.15,0.5s-0.85-0.17-1.15-0.5c-0.33-0.33-0.5-0.73-0.5-1.2c0-0.47,0.17-0.87,0.5-1.2
					c0.3-0.33,0.68-0.5,1.15-0.5s0.85,0.17,1.15,0.5C31.17,17.52,31.33,17.92,31.33,18.38z M30.28,17.68c0.07,0.1,0.13,0.13,0.2,0.1
					c0.37-0.27,0.32-0.5-0.15-0.7C30.07,17.22,30.05,17.42,30.28,17.68z"/>
				<path fill-rule="evenodd" clip-rule="evenodd" fill="#FFFFFF" d="M30.28,17.68c-0.23-0.27-0.22-0.47,0.05-0.6
					c0.47,0.2,0.52,0.43,0.15,0.7C30.42,17.82,30.35,17.78,30.28,17.68z"/>
				
					<path fill-rule="evenodd" clip-rule="evenodd" fill="none" stroke="#FFFFFF" stroke-linecap="round" stroke-linejoin="round" stroke-miterlimit="3" stroke-opacity="0.8" d="
					M31.33,18.38c0,0.47-0.17,0.87-0.5,1.2c-0.3,0.33-0.68,0.5-1.15,0.5s-0.85-0.17-1.15-0.5c-0.33-0.33-0.5-0.73-0.5-1.2
					c0-0.47,0.17-0.87,0.5-1.2c0.3-0.33,0.68-0.5,1.15-0.5s0.85,0.17,1.15,0.5C31.17,17.52,31.33,17.92,31.33,18.38z"/>
			</g>
		</g>
		<g>
			<g>
				<path fill-rule="evenodd" clip-rule="evenodd" fill="#43B649" fill-opacity="0" d="M27.33,18.38c0,0.47-0.17,0.87-0.5,1.2
					c-0.3,0.33-0.68,0.5-1.15,0.5s-0.85-0.17-1.15-0.5c-0.33-0.33-0.5-0.73-0.5-1.2c0-0.47,0.17-0.87,0.5-1.2
					c0.3-0.33,0.68-0.5,1.15-0.5s0.85,0.17,1.15,0.5C27.17,17.52,27.33,17.92,27.33,18.38z M26.28,17.68c0.07,0.1,0.13,0.13,0.2,0.1
					c0.37-0.27,0.32-0.5-0.15-0.7C26.07,17.22,26.05,17.42,26.28,17.68z"/>
				<path fill-rule="evenodd" clip-rule="evenodd" fill="#FFFFFF" d="M26.28,17.68c-0.23-0.27-0.22-0.47,0.05-0.6
					c0.47,0.2,0.52,0.43,0.15,0.7C26.42,17.82,26.35,17.78,26.28,17.68z"/>
				
					<path fill-rule="evenodd" clip-rule="evenodd" fill="none" stroke="#FFFFFF" stroke-linecap="round" stroke-linejoin="round" stroke-miterlimit="3" stroke-opacity="0.8" d="
					M27.33,18.38c0,0.47-0.17,0.87-0.5,1.2c-0.3,0.33-0.68,0.5-1.15,0.5s-0.85-0.17-1.15-0.5c-0.33-0.33-0.5-0.73-0.5-1.2
					c0-0.47,0.17-0.87,0.5-1.2c0.3-0.33,0.68-0.5,1.15-0.5s0.85,0.17,1.15,0.5C27.17,17.52,27.33,17.92,27.33,18.38z"/>
			</g>
		</g>
		<g>
			<g>
				<path fill-rule="evenodd" clip-rule="evenodd" fill="#43B649" fill-opacity="0" d="M20.78,14.08c0.47,0,0.85,0.17,1.15,0.5
					c0.33,0.33,0.5,0.73,0.5,1.2c0,0.47-0.17,0.87-0.5,1.2c-0.3,0.33-0.68,0.5-1.15,0.5c-0.47,0-0.85-0.17-1.15-0.5
					c-0.33-0.33-0.5-0.73-0.5-1.2c0-0.47,0.17-0.87,0.5-1.2C19.93,14.25,20.32,14.08,20.78,14.08z M21.38,15.08
					c0.07,0.1,0.13,0.13,0.2,0.1c0.37-0.27,0.32-0.5-0.15-0.7C21.17,14.62,21.15,14.82,21.38,15.08z"/>
				<path fill-rule="evenodd" clip-rule="evenodd" fill="#FFFFFF" d="M21.38,15.08c-0.23-0.27-0.22-0.47,0.05-0.6
					c0.47,0.2,0.52,0.43,0.15,0.7C21.52,15.22,21.45,15.18,21.38,15.08z"/>
				
					<path fill-rule="evenodd" clip-rule="evenodd" fill="none" stroke="#FFFFFF" stroke-linecap="round" stroke-linejoin="round" stroke-miterlimit="3" stroke-opacity="0.8" d="
					M20.78,14.08c0.47,0,0.85,0.17,1.15,0.5c0.33,0.33,0.5,0.73,0.5,1.2c0,0.47-0.17,0.87-0.5,1.2c-0.3,0.33-0.68,0.5-1.15,0.5
					c-0.47,0-0.85-0.17-1.15-0.5c-0.33-0.33-0.5-0.73-0.5-1.2c0-0.47,0.17-0.87,0.5-1.2C19.93,14.25,20.32,14.08,20.78,14.08z"/>
			</g>
		</g>
		<g>
			<g>
				<path fill-rule="evenodd" clip-rule="evenodd" fill="#43B649" fill-opacity="0" d="M10.08,13.98c-0.33-0.33-0.5-0.73-0.5-1.2
					c0-0.47,0.17-0.87,0.5-1.2c0.3-0.33,0.68-0.5,1.15-0.5s0.85,0.17,1.15,0.5c0.33,0.33,0.5,0.73,0.5,1.2c0,0.47-0.17,0.87-0.5,1.2
					c-0.3,0.33-0.68,0.5-1.15,0.5S10.38,14.32,10.08,13.98z M11.83,12.08c0.07,0.1,0.13,0.13,0.2,0.1c0.37-0.27,0.32-0.5-0.15-0.7
					C11.62,11.62,11.6,11.82,11.83,12.08z"/>
				<path fill-rule="evenodd" clip-rule="evenodd" fill="#FFFFFF" d="M11.83,12.08c-0.23-0.27-0.22-0.47,0.05-0.6
					c0.47,0.2,0.52,0.43,0.15,0.7C11.97,12.22,11.9,12.18,11.83,12.08z"/>
				
					<path fill-rule="evenodd" clip-rule="evenodd" fill="none" stroke="#FFFFFF" stroke-linecap="round" stroke-linejoin="round" stroke-miterlimit="3" stroke-opacity="0.8" d="
					M10.08,13.98c-0.33-0.33-0.5-0.73-0.5-1.2c0-0.47,0.17-0.87,0.5-1.2c0.3-0.33,0.68-0.5,1.15-0.5s0.85,0.17,1.15,0.5
					c0.33,0.33,0.5,0.73,0.5,1.2c0,0.47-0.17,0.87-0.5,1.2c-0.3,0.33-0.68,0.5-1.15,0.5S10.38,14.32,10.08,13.98z"/>
			</g>
		</g>
		<g>
			<g>
				<path fill-rule="evenodd" clip-rule="evenodd" fill="#43B649" fill-opacity="0" d="M7.23,3.63c0.47,0,0.85,0.17,1.15,0.5
					c0.33,0.33,0.5,0.73,0.5,1.2s-0.17,0.87-0.5,1.2c-0.3,0.33-0.68,0.5-1.15,0.5s-0.85-0.17-1.15-0.5c-0.33-0.33-0.5-0.73-0.5-1.2
					s0.17-0.87,0.5-1.2C6.38,3.8,6.77,3.63,7.23,3.63z M7.83,4.63c0.07,0.1,0.13,0.13,0.2,0.1c0.37-0.27,0.32-0.5-0.15-0.7
					C7.62,4.17,7.6,4.37,7.83,4.63z"/>
				<path fill-rule="evenodd" clip-rule="evenodd" fill="#FFFFFF" d="M7.83,4.63C7.6,4.37,7.62,4.17,7.88,4.03
					c0.47,0.2,0.52,0.43,0.15,0.7C7.97,4.77,7.9,4.73,7.83,4.63z"/>
				
					<path fill-rule="evenodd" clip-rule="evenodd" fill="none" stroke="#FFFFFF" stroke-linecap="round" stroke-linejoin="round" stroke-miterlimit="3" stroke-opacity="0.8" d="
					M7.23,3.63c0.47,0,0.85,0.17,1.15,0.5c0.33,0.33,0.5,0.73,0.5,1.2s-0.17,0.87-0.5,1.2c-0.3,0.33-0.68,0.5-1.15,0.5
					s-0.85-0.17-1.15-0.5c-0.33-0.33-0.5-0.73-0.5-1.2s0.17-0.87,0.5-1.2C6.38,3.8,6.77,3.63,7.23,3.63z"/>
			</g>
		</g>
		<g>
			<g>
				<path fill-rule="evenodd" clip-rule="evenodd" fill="#43B649" fill-opacity="0" d="M35.88,67.48c0,0.37-0.12,0.67-0.35,0.9
					c-0.27,0.27-0.57,0.4-0.9,0.4s-0.63-0.13-0.9-0.4c-0.23-0.23-0.35-0.53-0.35-0.9c0-0.37,0.12-0.68,0.35-0.95
					c0.27-0.23,0.57-0.35,0.9-0.35s0.63,0.12,0.9,0.35C35.77,66.8,35.88,67.12,35.88,67.48z M35.08,66.98
					c0.07,0.03,0.12,0.03,0.15,0c0.3-0.17,0.27-0.33-0.1-0.5C34.93,66.58,34.92,66.75,35.08,66.98z"/>
				<path fill-rule="evenodd" clip-rule="evenodd" fill="#FFFFFF" d="M35.08,66.98c-0.17-0.23-0.15-0.4,0.05-0.5
					c0.37,0.17,0.4,0.33,0.1,0.5C35.2,67.02,35.15,67.02,35.08,66.98z"/>
				
					<path fill-rule="evenodd" clip-rule="evenodd" fill="none" stroke="#FFFFFF" stroke-linecap="round" stroke-linejoin="round" stroke-miterlimit="3" stroke-opacity="0.8" d="
					M35.88,67.48c0,0.37-0.12,0.67-0.35,0.9c-0.27,0.27-0.57,0.4-0.9,0.4s-0.63-0.13-0.9-0.4c-0.23-0.23-0.35-0.53-0.35-0.9
					c0-0.37,0.12-0.68,0.35-0.95c0.27-0.23,0.57-0.35,0.9-0.35s0.63,0.12,0.9,0.35C35.77,66.8,35.88,67.12,35.88,67.48z"/>
			</g>
		</g>
		<g>
			<g>
				<path fill-rule="evenodd" clip-rule="evenodd" fill="#43B649" fill-opacity="0" d="M5.58,19.63c0,0.47-0.17,0.87-0.5,1.2
					c-0.3,0.33-0.68,0.5-1.15,0.5s-0.85-0.17-1.15-0.5c-0.33-0.33-0.5-0.73-0.5-1.2c0-0.47,0.17-0.87,0.5-1.2
					c0.3-0.33,0.68-0.5,1.15-0.5s0.85,0.17,1.15,0.5C5.42,18.77,5.58,19.17,5.58,19.63z M4.53,18.93c0.07,0.1,0.13,0.13,0.2,0.1
					c0.37-0.27,0.32-0.5-0.15-0.7C4.32,18.47,4.3,18.67,4.53,18.93z"/>
				<path fill-rule="evenodd" clip-rule="evenodd" fill="#FFFFFF" d="M4.53,18.93c-0.23-0.27-0.22-0.47,0.05-0.6
					c0.47,0.2,0.52,0.43,0.15,0.7C4.67,19.07,4.6,19.03,4.53,18.93z"/>
				
					<path fill-rule="evenodd" clip-rule="evenodd" fill="none" stroke="#FFFFFF" stroke-linecap="round" stroke-linejoin="round" stroke-miterlimit="3" stroke-opacity="0.8" d="
					M5.58,19.63c0,0.47-0.17,0.87-0.5,1.2c-0.3,0.33-0.68,0.5-1.15,0.5s-0.85-0.17-1.15-0.5c-0.33-0.33-0.5-0.73-0.5-1.2
					c0-0.47,0.17-0.87,0.5-1.2c0.3-0.33,0.68-0.5,1.15-0.5s0.85,0.17,1.15,0.5C5.42,18.77,5.58,19.17,5.58,19.63z"/>
			</g>
		</g>
		<g>
			<g>
				<path fill-rule="evenodd" clip-rule="evenodd" fill="#FFFFFF" d="M76.28,60.68c-0.37-0.27-0.32-0.5,0.15-0.7
					c0.27,0.13,0.28,0.33,0.05,0.6C76.42,60.68,76.35,60.72,76.28,60.68z"/>
				<path fill-rule="evenodd" clip-rule="evenodd" fill="#43B649" fill-opacity="0" d="M76.28,60.68c0.07,0.03,0.13,0,0.2-0.1
					c0.23-0.27,0.22-0.47-0.05-0.6C75.97,60.18,75.92,60.42,76.28,60.68z M75.43,61.28c0-0.47,0.17-0.87,0.5-1.2
					c0.3-0.33,0.68-0.5,1.15-0.5s0.85,0.17,1.15,0.5c0.33,0.33,0.5,0.73,0.5,1.2s-0.17,0.87-0.5,1.2c-0.3,0.33-0.68,0.5-1.15,0.5
					s-0.85-0.17-1.15-0.5C75.6,62.15,75.43,61.75,75.43,61.28z"/>
				
					<path fill-rule="evenodd" clip-rule="evenodd" fill="none" stroke="#FFFFFF" stroke-linecap="round" stroke-linejoin="round" stroke-miterlimit="3" stroke-opacity="0.8" d="
					M75.43,61.28c0,0.47,0.17,0.87,0.5,1.2c0.3,0.33,0.68,0.5,1.15,0.5s0.85-0.17,1.15-0.5c0.33-0.33,0.5-0.73,0.5-1.2
					s-0.17-0.87-0.5-1.2c-0.3-0.33-0.68-0.5-1.15-0.5s-0.85,0.17-1.15,0.5C75.6,60.42,75.43,60.82,75.43,61.28z"/>
			</g>
		</g>
		<g>
			<g>
				<path fill-rule="evenodd" clip-rule="evenodd" fill="#43B649" fill-opacity="0" d="M78.33,56.83c0.3-0.33,0.68-0.5,1.15-0.5
					c0.47,0,0.85,0.17,1.15,0.5c0.33,0.33,0.5,0.73,0.5,1.2s-0.17,0.87-0.5,1.2c-0.3,0.33-0.68,0.5-1.15,0.5
					c-0.47,0-0.85-0.17-1.15-0.5c-0.33-0.33-0.5-0.73-0.5-1.2S78,57.17,78.33,56.83z M78.88,57.33c0.23-0.27,0.22-0.47-0.05-0.6
					c-0.47,0.2-0.52,0.43-0.15,0.7C78.75,57.47,78.82,57.43,78.88,57.33z"/>
				<path fill-rule="evenodd" clip-rule="evenodd" fill="#FFFFFF" d="M78.88,57.33c-0.07,0.1-0.13,0.13-0.2,0.1
					c-0.37-0.27-0.32-0.5,0.15-0.7C79.1,56.87,79.12,57.07,78.88,57.33z"/>
				
					<path fill-rule="evenodd" clip-rule="evenodd" fill="none" stroke="#FFFFFF" stroke-linecap="round" stroke-linejoin="round" stroke-miterlimit="3" stroke-opacity="0.8" d="
					M78.33,56.83c-0.33,0.33-0.5,0.73-0.5,1.2s0.17,0.87,0.5,1.2c0.3,0.33,0.68,0.5,1.15,0.5c0.47,0,0.85-0.17,1.15-0.5
					c0.33-0.33,0.5-0.73,0.5-1.2s-0.17-0.87-0.5-1.2c-0.3-0.33-0.68-0.5-1.15-0.5C79.02,56.33,78.63,56.5,78.33,56.83z"/>
			</g>
		</g>
		<g>
			<g>
				<path fill-rule="evenodd" clip-rule="evenodd" fill="#43B649" fill-opacity="0" d="M81.08,53.18c0.23-0.27,0.22-0.47-0.05-0.6
					c-0.47,0.2-0.52,0.43-0.15,0.7C80.95,53.32,81.02,53.28,81.08,53.18z M80.53,52.68c0.3-0.33,0.68-0.5,1.15-0.5
					c0.47,0,0.85,0.17,1.15,0.5c0.33,0.33,0.5,0.73,0.5,1.2s-0.17,0.87-0.5,1.2c-0.3,0.33-0.68,0.5-1.15,0.5
					c-0.47,0-0.85-0.17-1.15-0.5c-0.33-0.33-0.5-0.73-0.5-1.2S80.2,53.02,80.53,52.68z"/>
				<path fill-rule="evenodd" clip-rule="evenodd" fill="#FFFFFF" d="M81.08,53.18c-0.07,0.1-0.13,0.13-0.2,0.1
					c-0.37-0.27-0.32-0.5,0.15-0.7C81.3,52.72,81.32,52.92,81.08,53.18z"/>
				
					<path fill-rule="evenodd" clip-rule="evenodd" fill="none" stroke="#FFFFFF" stroke-linecap="round" stroke-linejoin="round" stroke-miterlimit="3" stroke-opacity="0.8" d="
					M80.53,52.68c-0.33,0.33-0.5,0.73-0.5,1.2s0.17,0.87,0.5,1.2c0.3,0.33,0.68,0.5,1.15,0.5c0.47,0,0.85-0.17,1.15-0.5
					c0.33-0.33,0.5-0.73,0.5-1.2s-0.17-0.87-0.5-1.2c-0.3-0.33-0.68-0.5-1.15-0.5C81.22,52.18,80.83,52.35,80.53,52.68z"/>
			</g>
		</g>
		<g>
			<g>
				<path fill-rule="evenodd" clip-rule="evenodd" fill="#43B649" fill-opacity="0" d="M82.83,47.88c0.33,0.33,0.5,0.73,0.5,1.2
					s-0.17,0.87-0.5,1.2c-0.3,0.33-0.68,0.5-1.15,0.5c-0.47,0-0.85-0.17-1.15-0.5c-0.33-0.33-0.5-0.73-0.5-1.2s0.17-0.87,0.5-1.2
					c0.3-0.33,0.68-0.5,1.15-0.5C82.15,47.38,82.53,47.55,82.83,47.88z M81.08,48.38c0.23-0.27,0.22-0.47-0.05-0.6
					c-0.47,0.2-0.52,0.43-0.15,0.7C80.95,48.52,81.02,48.48,81.08,48.38z"/>
				<path fill-rule="evenodd" clip-rule="evenodd" fill="#FFFFFF" d="M81.08,48.38c-0.07,0.1-0.13,0.13-0.2,0.1
					c-0.37-0.27-0.32-0.5,0.15-0.7C81.3,47.92,81.32,48.12,81.08,48.38z"/>
				
					<path fill-rule="evenodd" clip-rule="evenodd" fill="none" stroke="#FFFFFF" stroke-linecap="round" stroke-linejoin="round" stroke-miterlimit="3" stroke-opacity="0.8" d="
					M82.83,47.88c-0.3-0.33-0.68-0.5-1.15-0.5c-0.47,0-0.85,0.17-1.15,0.5c-0.33,0.33-0.5,0.73-0.5,1.2s0.17,0.87,0.5,1.2
					c0.3,0.33,0.68,0.5,1.15,0.5c0.47,0,0.85-0.17,1.15-0.5c0.33-0.33,0.5-0.73,0.5-1.2S83.17,48.22,82.83,47.88z"/>
			</g>
		</g>
		<g>
			<g>
				<path fill-rule="evenodd" clip-rule="evenodd" fill="#43B649" fill-opacity="0" d="M83.93,45.93c-0.3,0.33-0.68,0.5-1.15,0.5
					s-0.85-0.17-1.15-0.5c-0.33-0.33-0.5-0.73-0.5-1.2c0-0.47,0.17-0.87,0.5-1.2c0.3-0.33,0.68-0.5,1.15-0.5s0.85,0.17,1.15,0.5
					c0.33,0.33,0.5,0.73,0.5,1.2C84.43,45.2,84.27,45.6,83.93,45.93z M82.18,44.03c0.23-0.27,0.22-0.47-0.05-0.6
					c-0.47,0.2-0.52,0.43-0.15,0.7C82.05,44.17,82.12,44.13,82.18,44.03z"/>
				<path fill-rule="evenodd" clip-rule="evenodd" fill="#FFFFFF" d="M82.18,44.03c-0.07,0.1-0.13,0.13-0.2,0.1
					c-0.37-0.27-0.32-0.5,0.15-0.7C82.4,43.57,82.42,43.77,82.18,44.03z"/>
				
					<path fill-rule="evenodd" clip-rule="evenodd" fill="none" stroke="#FFFFFF" stroke-linecap="round" stroke-linejoin="round" stroke-miterlimit="3" stroke-opacity="0.8" d="
					M83.93,45.93c0.33-0.33,0.5-0.73,0.5-1.2c0-0.47-0.17-0.87-0.5-1.2c-0.3-0.33-0.68-0.5-1.15-0.5s-0.85,0.17-1.15,0.5
					c-0.33,0.33-0.5,0.73-0.5,1.2c0,0.47,0.17,0.87,0.5,1.2c0.3,0.33,0.68,0.5,1.15,0.5S83.63,46.27,83.93,45.93z"/>
			</g>
		</g>
		<g>
			<g>
				<path fill-rule="evenodd" clip-rule="evenodd" fill="#43B649" fill-opacity="0" d="M69.08,58.48c-0.3,0.33-0.68,0.5-1.15,0.5
					c-0.47,0-0.85-0.17-1.15-0.5c-0.33-0.33-0.5-0.73-0.5-1.2s0.17-0.87,0.5-1.2c0.3-0.33,0.68-0.5,1.15-0.5
					c0.47,0,0.85,0.17,1.15,0.5c0.33,0.33,0.5,0.73,0.5,1.2S69.42,58.15,69.08,58.48z M67.33,56.58c0.23-0.27,0.22-0.47-0.05-0.6
					c-0.47,0.2-0.52,0.43-0.15,0.7C67.2,56.72,67.27,56.68,67.33,56.58z"/>
				<path fill-rule="evenodd" clip-rule="evenodd" fill="#FFFFFF" d="M67.33,56.58c-0.07,0.1-0.13,0.13-0.2,0.1
					c-0.37-0.27-0.32-0.5,0.15-0.7C67.55,56.12,67.57,56.32,67.33,56.58z"/>
				
					<path fill-rule="evenodd" clip-rule="evenodd" fill="none" stroke="#FFFFFF" stroke-linecap="round" stroke-linejoin="round" stroke-miterlimit="3" stroke-opacity="0.8" d="
					M69.08,58.48c0.33-0.33,0.5-0.73,0.5-1.2s-0.17-0.87-0.5-1.2c-0.3-0.33-0.68-0.5-1.15-0.5c-0.47,0-0.85,0.17-1.15,0.5
					c-0.33,0.33-0.5,0.73-0.5,1.2s0.17,0.87,0.5,1.2c0.3,0.33,0.68,0.5,1.15,0.5C68.4,58.98,68.78,58.82,69.08,58.48z"/>
			</g>
		</g>
		<g>
			<g>
				<path fill-rule="evenodd" clip-rule="evenodd" fill="#FFFFFF" d="M64.73,55.03c-0.07,0.1-0.13,0.13-0.2,0.1
					c-0.37-0.27-0.32-0.5,0.15-0.7C64.95,54.57,64.97,54.77,64.73,55.03z"/>
				<path fill-rule="evenodd" clip-rule="evenodd" fill="#43B649" fill-opacity="0" d="M65.33,54.03c0.47,0,0.85,0.17,1.15,0.5
					c0.33,0.33,0.5,0.73,0.5,1.2c0,0.47-0.17,0.87-0.5,1.2c-0.3,0.33-0.68,0.5-1.15,0.5s-0.85-0.17-1.15-0.5
					c-0.33-0.33-0.5-0.73-0.5-1.2c0-0.47,0.17-0.87,0.5-1.2C64.48,54.2,64.87,54.03,65.33,54.03z M64.73,55.03
					c0.23-0.27,0.22-0.47-0.05-0.6c-0.47,0.2-0.52,0.43-0.15,0.7C64.6,55.17,64.67,55.13,64.73,55.03z"/>
				
					<path fill-rule="evenodd" clip-rule="evenodd" fill="none" stroke="#FFFFFF" stroke-linecap="round" stroke-linejoin="round" stroke-miterlimit="3" stroke-opacity="0.8" d="
					M65.33,54.03c-0.47,0-0.85,0.17-1.15,0.5c-0.33,0.33-0.5,0.73-0.5,1.2c0,0.47,0.17,0.87,0.5,1.2c0.3,0.33,0.68,0.5,1.15,0.5
					s0.85-0.17,1.15-0.5c0.33-0.33,0.5-0.73,0.5-1.2c0-0.47-0.17-0.87-0.5-1.2C66.18,54.2,65.8,54.03,65.33,54.03z"/>
			</g>
		</g>
		<g>
			<g>
				<path fill-rule="evenodd" clip-rule="evenodd" fill="#FFFFFF" d="M61.43,58.28c-0.07,0.1-0.13,0.13-0.2,0.1
					c-0.37-0.27-0.32-0.5,0.15-0.7C61.65,57.82,61.67,58.02,61.43,58.28z"/>
				<path fill-rule="evenodd" clip-rule="evenodd" fill="#43B649" fill-opacity="0" d="M60.38,58.98c0-0.47,0.17-0.87,0.5-1.2
					c0.3-0.33,0.68-0.5,1.15-0.5s0.85,0.17,1.15,0.5c0.33,0.33,0.5,0.73,0.5,1.2c0,0.47-0.17,0.87-0.5,1.2
					c-0.3,0.33-0.68,0.5-1.15,0.5s-0.85-0.17-1.15-0.5C60.55,59.85,60.38,59.45,60.38,58.98z M61.43,58.28
					c0.23-0.27,0.22-0.47-0.05-0.6c-0.47,0.2-0.52,0.43-0.15,0.7C61.3,58.42,61.37,58.38,61.43,58.28z"/>
				
					<path fill-rule="evenodd" clip-rule="evenodd" fill="none" stroke="#FFFFFF" stroke-linecap="round" stroke-linejoin="round" stroke-miterlimit="3" stroke-opacity="0.8" d="
					M60.38,58.98c0,0.47,0.17,0.87,0.5,1.2c0.3,0.33,0.68,0.5,1.15,0.5s0.85-0.17,1.15-0.5c0.33-0.33,0.5-0.73,0.5-1.2
					c0-0.47-0.17-0.87-0.5-1.2c-0.3-0.33-0.68-0.5-1.15-0.5s-0.85,0.17-1.15,0.5C60.55,58.12,60.38,58.52,60.38,58.98z"/>
			</g>
		</g>
		<g>
			<g>
				<path fill-rule="evenodd" clip-rule="evenodd" fill="#FFFFFF" d="M64.73,62.28c-0.07,0.1-0.13,0.13-0.2,0.1
					c-0.37-0.27-0.32-0.5,0.15-0.7C64.95,61.82,64.97,62.02,64.73,62.28z"/>
				<path fill-rule="evenodd" clip-rule="evenodd" fill="#43B649" fill-opacity="0" d="M65.33,61.28c0.47,0,0.85,0.17,1.15,0.5
					c0.33,0.33,0.5,0.73,0.5,1.2c0,0.47-0.17,0.87-0.5,1.2c-0.3,0.33-0.68,0.5-1.15,0.5s-0.85-0.17-1.15-0.5
					c-0.33-0.33-0.5-0.73-0.5-1.2c0-0.47,0.17-0.87,0.5-1.2C64.48,61.45,64.87,61.28,65.33,61.28z M64.73,62.28
					c0.23-0.27,0.22-0.47-0.05-0.6c-0.47,0.2-0.52,0.43-0.15,0.7C64.6,62.42,64.67,62.38,64.73,62.28z"/>
				
					<path fill-rule="evenodd" clip-rule="evenodd" fill="none" stroke="#FFFFFF" stroke-linecap="round" stroke-linejoin="round" stroke-miterlimit="3" stroke-opacity="0.8" d="
					M65.33,61.28c-0.47,0-0.85,0.17-1.15,0.5c-0.33,0.33-0.5,0.73-0.5,1.2c0,0.47,0.17,0.87,0.5,1.2c0.3,0.33,0.68,0.5,1.15,0.5
					s0.85-0.17,1.15-0.5c0.33-0.33,0.5-0.73,0.5-1.2c0-0.47-0.17-0.87-0.5-1.2C66.18,61.45,65.8,61.28,65.33,61.28z"/>
			</g>
		</g>
		<g>
			<g>
				<path fill-rule="evenodd" clip-rule="evenodd" fill="#FFFFFF" d="M61.78,63.13c-0.37-0.27-0.32-0.5,0.15-0.7
					c0.27,0.13,0.28,0.33,0.05,0.6C61.92,63.13,61.85,63.17,61.78,63.13z"/>
				<path fill-rule="evenodd" clip-rule="evenodd" fill="#43B649" fill-opacity="0" d="M60.93,63.73c0-0.47,0.17-0.87,0.5-1.2
					c0.3-0.33,0.68-0.5,1.15-0.5s0.85,0.17,1.15,0.5c0.33,0.33,0.5,0.73,0.5,1.2c0,0.47-0.17,0.87-0.5,1.2
					c-0.3,0.33-0.68,0.5-1.15,0.5s-0.85-0.17-1.15-0.5C61.1,64.6,60.93,64.2,60.93,63.73z M61.78,63.13c0.07,0.03,0.13,0,0.2-0.1
					c0.23-0.27,0.22-0.47-0.05-0.6C61.47,62.63,61.42,62.87,61.78,63.13z"/>
				
					<path fill-rule="evenodd" clip-rule="evenodd" fill="none" stroke="#FFFFFF" stroke-linecap="round" stroke-linejoin="round" stroke-miterlimit="3" stroke-opacity="0.8" d="
					M60.93,63.73c0,0.47,0.17,0.87,0.5,1.2c0.3,0.33,0.68,0.5,1.15,0.5s0.85-0.17,1.15-0.5c0.33-0.33,0.5-0.73,0.5-1.2
					c0-0.47-0.17-0.87-0.5-1.2c-0.3-0.33-0.68-0.5-1.15-0.5s-0.85,0.17-1.15,0.5C61.1,62.87,60.93,63.27,60.93,63.73z"/>
			</g>
		</g>
		<g>
			<g>
				<path fill-rule="evenodd" clip-rule="evenodd" fill="#FFFFFF" d="M56.48,63.13c-0.37-0.27-0.32-0.5,0.15-0.7
					c0.27,0.13,0.28,0.33,0.05,0.6C56.62,63.13,56.55,63.17,56.48,63.13z"/>
				<path fill-rule="evenodd" clip-rule="evenodd" fill="#43B649" fill-opacity="0" d="M56.48,63.13c0.07,0.03,0.13,0,0.2-0.1
					c0.23-0.27,0.22-0.47-0.05-0.6C56.17,62.63,56.12,62.87,56.48,63.13z M55.63,63.73c0-0.47,0.17-0.87,0.5-1.2
					c0.3-0.33,0.68-0.5,1.15-0.5s0.85,0.17,1.15,0.5c0.33,0.33,0.5,0.73,0.5,1.2c0,0.47-0.17,0.87-0.5,1.2
					c-0.3,0.33-0.68,0.5-1.15,0.5s-0.85-0.17-1.15-0.5C55.8,64.6,55.63,64.2,55.63,63.73z"/>
				
					<path fill-rule="evenodd" clip-rule="evenodd" fill="none" stroke="#FFFFFF" stroke-linecap="round" stroke-linejoin="round" stroke-miterlimit="3" stroke-opacity="0.8" d="
					M55.63,63.73c0,0.47,0.17,0.87,0.5,1.2c0.3,0.33,0.68,0.5,1.15,0.5s0.85-0.17,1.15-0.5c0.33-0.33,0.5-0.73,0.5-1.2
					c0-0.47-0.17-0.87-0.5-1.2c-0.3-0.33-0.68-0.5-1.15-0.5s-0.85,0.17-1.15,0.5C55.8,62.87,55.63,63.27,55.63,63.73z"/>
			</g>
		</g>
		<g>
			<g>
				<path fill-rule="evenodd" clip-rule="evenodd" fill="#43B649" fill-opacity="0" d="M54.73,62.03c0.47,0,0.85,0.17,1.15,0.5
					c0.33,0.33,0.5,0.73,0.5,1.2c0,0.47-0.17,0.87-0.5,1.2c-0.3,0.33-0.68,0.5-1.15,0.5c-0.47,0-0.85-0.17-1.15-0.5
					c-0.33-0.33-0.5-0.73-0.5-1.2c0-0.47,0.17-0.87,0.5-1.2C53.88,62.2,54.27,62.03,54.73,62.03z M54.08,62.43
					c-0.47,0.2-0.52,0.43-0.15,0.7c0.07,0.03,0.13,0,0.2-0.1C54.37,62.77,54.35,62.57,54.08,62.43z"/>
				<path fill-rule="evenodd" clip-rule="evenodd" fill="#FFFFFF" d="M54.08,62.43c0.27,0.13,0.28,0.33,0.05,0.6
					c-0.07,0.1-0.13,0.13-0.2,0.1C53.57,62.87,53.62,62.63,54.08,62.43z"/>
				
					<path fill-rule="evenodd" clip-rule="evenodd" fill="none" stroke="#FFFFFF" stroke-linecap="round" stroke-linejoin="round" stroke-miterlimit="3" stroke-opacity="0.8" d="
					M54.73,62.03c-0.47,0-0.85,0.17-1.15,0.5c-0.33,0.33-0.5,0.73-0.5,1.2c0,0.47,0.17,0.87,0.5,1.2c0.3,0.33,0.68,0.5,1.15,0.5
					c0.47,0,0.85-0.17,1.15-0.5c0.33-0.33,0.5-0.73,0.5-1.2c0-0.47-0.17-0.87-0.5-1.2C55.58,62.2,55.2,62.03,54.73,62.03z"/>
			</g>
		</g>
		<g>
			<g>
				<path fill-rule="evenodd" clip-rule="evenodd" fill="#43B649" fill-opacity="0" d="M49.43,65.48c0.47,0,0.85,0.17,1.15,0.5
					c0.33,0.33,0.5,0.73,0.5,1.2c0,0.47-0.17,0.87-0.5,1.2c-0.3,0.33-0.68,0.5-1.15,0.5c-0.47,0-0.85-0.17-1.15-0.5
					c-0.33-0.33-0.5-0.73-0.5-1.2c0-0.47,0.17-0.87,0.5-1.2C48.58,65.65,48.97,65.48,49.43,65.48z M48.83,66.48
					c0.23-0.27,0.22-0.47-0.05-0.6c-0.47,0.2-0.52,0.43-0.15,0.7C48.7,66.62,48.77,66.58,48.83,66.48z"/>
				<path fill-rule="evenodd" clip-rule="evenodd" fill="#FFFFFF" d="M48.83,66.48c-0.07,0.1-0.13,0.13-0.2,0.1
					c-0.37-0.27-0.32-0.5,0.15-0.7C49.05,66.02,49.07,66.22,48.83,66.48z"/>
				
					<path fill-rule="evenodd" clip-rule="evenodd" fill="none" stroke="#FFFFFF" stroke-linecap="round" stroke-linejoin="round" stroke-miterlimit="3" stroke-opacity="0.8" d="
					M49.43,65.48c-0.47,0-0.85,0.17-1.15,0.5c-0.33,0.33-0.5,0.73-0.5,1.2c0,0.47,0.17,0.87,0.5,1.2c0.3,0.33,0.68,0.5,1.15,0.5
					c0.47,0,0.85-0.17,1.15-0.5c0.33-0.33,0.5-0.73,0.5-1.2c0-0.47-0.17-0.87-0.5-1.2C50.28,65.65,49.9,65.48,49.43,65.48z"/>
			</g>
		</g>
		<g>
			<g>
				<path fill-rule="evenodd" clip-rule="evenodd" fill="#43B649" fill-opacity="0" d="M49.43,48.13c0.47,0,0.85,0.17,1.15,0.5
					c0.33,0.33,0.5,0.73,0.5,1.2s-0.17,0.87-0.5,1.2c-0.3,0.33-0.68,0.5-1.15,0.5c-0.47,0-0.85-0.17-1.15-0.5
					c-0.33-0.33-0.5-0.73-0.5-1.2s0.17-0.87,0.5-1.2C48.58,48.3,48.97,48.13,49.43,48.13z M48.83,49.13
					c0.23-0.27,0.22-0.47-0.05-0.6c-0.47,0.2-0.52,0.43-0.15,0.7C48.7,49.27,48.77,49.23,48.83,49.13z"/>
				<path fill-rule="evenodd" clip-rule="evenodd" fill="#FFFFFF" d="M48.83,49.13c-0.07,0.1-0.13,0.13-0.2,0.1
					c-0.37-0.27-0.32-0.5,0.15-0.7C49.05,48.67,49.07,48.87,48.83,49.13z"/>
				
					<path fill-rule="evenodd" clip-rule="evenodd" fill="none" stroke="#FFFFFF" stroke-linecap="round" stroke-linejoin="round" stroke-miterlimit="3" stroke-opacity="0.8" d="
					M49.43,48.13c-0.47,0-0.85,0.17-1.15,0.5c-0.33,0.33-0.5,0.73-0.5,1.2s0.17,0.87,0.5,1.2c0.3,0.33,0.68,0.5,1.15,0.5
					c0.47,0,0.85-0.17,1.15-0.5c0.33-0.33,0.5-0.73,0.5-1.2s-0.17-0.87-0.5-1.2C50.28,48.3,49.9,48.13,49.43,48.13z"/>
			</g>
		</g>
		<g>
			<g>
				<path fill-rule="evenodd" clip-rule="evenodd" fill="#43B649" fill-opacity="0" d="M50.48,37.28c0.47,0,0.85,0.17,1.15,0.5
					c0.33,0.33,0.5,0.73,0.5,1.2c0,0.47-0.17,0.87-0.5,1.2c-0.3,0.33-0.68,0.5-1.15,0.5c-0.47,0-0.85-0.17-1.15-0.5
					c-0.33-0.33-0.5-0.73-0.5-1.2c0-0.47,0.17-0.87,0.5-1.2C49.63,37.45,50.02,37.28,50.48,37.28z M49.83,37.68
					c-0.47,0.2-0.52,0.43-0.15,0.7c0.07,0.03,0.13,0,0.2-0.1C50.12,38.02,50.1,37.82,49.83,37.68z"/>
				<path fill-rule="evenodd" clip-rule="evenodd" fill="#FFFFFF" d="M49.83,37.68c0.27,0.13,0.28,0.33,0.05,0.6
					c-0.07,0.1-0.13,0.13-0.2,0.1C49.32,38.12,49.37,37.88,49.83,37.68z"/>
				
					<path fill-rule="evenodd" clip-rule="evenodd" fill="none" stroke="#FFFFFF" stroke-linecap="round" stroke-linejoin="round" stroke-miterlimit="3" stroke-opacity="0.8" d="
					M50.48,37.28c-0.47,0-0.85,0.17-1.15,0.5c-0.33,0.33-0.5,0.73-0.5,1.2c0,0.47,0.17,0.87,0.5,1.2c0.3,0.33,0.68,0.5,1.15,0.5
					c0.47,0,0.85-0.17,1.15-0.5c0.33-0.33,0.5-0.73,0.5-1.2c0-0.47-0.17-0.87-0.5-1.2C51.33,37.45,50.95,37.28,50.48,37.28z"/>
			</g>
		</g>
		<g>
			<g>
				<path fill-rule="evenodd" clip-rule="evenodd" fill="#43B649" fill-opacity="0" d="M49.43,31.38c0.47,0,0.85,0.17,1.15,0.5
					c0.33,0.33,0.5,0.73,0.5,1.2s-0.17,0.87-0.5,1.2c-0.3,0.33-0.68,0.5-1.15,0.5c-0.47,0-0.85-0.17-1.15-0.5
					c-0.33-0.33-0.5-0.73-0.5-1.2s0.17-0.87,0.5-1.2C48.58,31.55,48.97,31.38,49.43,31.38z M48.83,32.38
					c0.23-0.27,0.22-0.47-0.05-0.6c-0.47,0.2-0.52,0.43-0.15,0.7C48.7,32.52,48.77,32.48,48.83,32.38z"/>
				<path fill-rule="evenodd" clip-rule="evenodd" fill="#FFFFFF" d="M48.83,32.38c-0.07,0.1-0.13,0.13-0.2,0.1
					c-0.37-0.27-0.32-0.5,0.15-0.7C49.05,31.92,49.07,32.12,48.83,32.38z"/>
				
					<path fill-rule="evenodd" clip-rule="evenodd" fill="none" stroke="#FFFFFF" stroke-linecap="round" stroke-linejoin="round" stroke-miterlimit="3" stroke-opacity="0.8" d="
					M49.43,31.38c-0.47,0-0.85,0.17-1.15,0.5c-0.33,0.33-0.5,0.73-0.5,1.2s0.17,0.87,0.5,1.2c0.3,0.33,0.68,0.5,1.15,0.5
					c0.47,0,0.85-0.17,1.15-0.5c0.33-0.33,0.5-0.73,0.5-1.2s-0.17-0.87-0.5-1.2C50.28,31.55,49.9,31.38,49.43,31.38z"/>
			</g>
		</g>
		<g>
			<g>
				<path fill-rule="evenodd" clip-rule="evenodd" fill="#43B649" fill-opacity="0" d="M64.58,31.88c0.3-0.33,0.68-0.5,1.15-0.5
					c0.47,0,0.85,0.17,1.15,0.5c0.33,0.33,0.5,0.73,0.5,1.2s-0.17,0.87-0.5,1.2c-0.3,0.33-0.68,0.5-1.15,0.5
					c-0.47,0-0.85-0.17-1.15-0.5c-0.33-0.33-0.5-0.73-0.5-1.2S64.25,32.22,64.58,31.88z M65.13,32.38c0.23-0.27,0.22-0.47-0.05-0.6
					c-0.47,0.2-0.52,0.43-0.15,0.7C65,32.52,65.07,32.48,65.13,32.38z"/>
				<path fill-rule="evenodd" clip-rule="evenodd" fill="#FFFFFF" d="M65.13,32.38c-0.07,0.1-0.13,0.13-0.2,0.1
					c-0.37-0.27-0.32-0.5,0.15-0.7C65.35,31.92,65.37,32.12,65.13,32.38z"/>
				
					<path fill-rule="evenodd" clip-rule="evenodd" fill="none" stroke="#FFFFFF" stroke-linecap="round" stroke-linejoin="round" stroke-miterlimit="3" stroke-opacity="0.8" d="
					M64.58,31.88c-0.33,0.33-0.5,0.73-0.5,1.2s0.17,0.87,0.5,1.2c0.3,0.33,0.68,0.5,1.15,0.5c0.47,0,0.85-0.17,1.15-0.5
					c0.33-0.33,0.5-0.73,0.5-1.2s-0.17-0.87-0.5-1.2c-0.3-0.33-0.68-0.5-1.15-0.5C65.27,31.38,64.88,31.55,64.58,31.88z"/>
			</g>
		</g>
		<g>
			<g>
				<path fill-rule="evenodd" clip-rule="evenodd" fill="#43B649" fill-opacity="0" d="M63.73,24.03c-0.3,0.33-0.68,0.5-1.15,0.5
					s-0.85-0.17-1.15-0.5c-0.33-0.33-0.5-0.73-0.5-1.2s0.17-0.87,0.5-1.2c0.3-0.33,0.68-0.5,1.15-0.5s0.85,0.17,1.15,0.5
					c0.33,0.33,0.5,0.73,0.5,1.2S64.07,23.7,63.73,24.03z M61.78,22.23c0.07,0.03,0.13,0,0.2-0.1c0.23-0.27,0.22-0.47-0.05-0.6
					C61.47,21.73,61.42,21.97,61.78,22.23z"/>
				<path fill-rule="evenodd" clip-rule="evenodd" fill="#FFFFFF" d="M61.78,22.23c-0.37-0.27-0.32-0.5,0.15-0.7
					c0.27,0.13,0.28,0.33,0.05,0.6C61.92,22.23,61.85,22.27,61.78,22.23z"/>
				
					<path fill-rule="evenodd" clip-rule="evenodd" fill="none" stroke="#FFFFFF" stroke-linecap="round" stroke-linejoin="round" stroke-miterlimit="3" stroke-opacity="0.8" d="
					M63.73,24.03c0.33-0.33,0.5-0.73,0.5-1.2s-0.17-0.87-0.5-1.2c-0.3-0.33-0.68-0.5-1.15-0.5s-0.85,0.17-1.15,0.5
					c-0.33,0.33-0.5,0.73-0.5,1.2s0.17,0.87,0.5,1.2c0.3,0.33,0.68,0.5,1.15,0.5S63.43,24.37,63.73,24.03z"/>
			</g>
		</g>
		<g>
			<g>
				<path fill-rule="evenodd" clip-rule="evenodd" fill="#FFFFFF" d="M56.48,25.48c-0.37-0.27-0.32-0.5,0.15-0.7
					c0.27,0.13,0.28,0.33,0.05,0.6C56.62,25.48,56.55,25.52,56.48,25.48z"/>
				<path fill-rule="evenodd" clip-rule="evenodd" fill="#43B649" fill-opacity="0" d="M56.48,25.48c0.07,0.03,0.13,0,0.2-0.1
					c0.23-0.27,0.22-0.47-0.05-0.6C56.17,24.98,56.12,25.22,56.48,25.48z M55.63,26.08c0-0.47,0.17-0.87,0.5-1.2
					c0.3-0.33,0.68-0.5,1.15-0.5s0.85,0.17,1.15,0.5c0.33,0.33,0.5,0.73,0.5,1.2s-0.17,0.87-0.5,1.2c-0.3,0.33-0.68,0.5-1.15,0.5
					s-0.85-0.17-1.15-0.5C55.8,26.95,55.63,26.55,55.63,26.08z"/>
				
					<path fill-rule="evenodd" clip-rule="evenodd" fill="none" stroke="#FFFFFF" stroke-linecap="round" stroke-linejoin="round" stroke-miterlimit="3" stroke-opacity="0.8" d="
					M55.63,26.08c0,0.47,0.17,0.87,0.5,1.2c0.3,0.33,0.68,0.5,1.15,0.5s0.85-0.17,1.15-0.5c0.33-0.33,0.5-0.73,0.5-1.2
					s-0.17-0.87-0.5-1.2c-0.3-0.33-0.68-0.5-1.15-0.5s-0.85,0.17-1.15,0.5C55.8,25.22,55.63,25.62,55.63,26.08z"/>
			</g>
		</g>
		<g>
			<g>
				<path fill-rule="evenodd" clip-rule="evenodd" fill="#43B649" fill-opacity="0" d="M59.03,15.33c0.47,0,0.85,0.17,1.15,0.5
					c0.33,0.33,0.5,0.73,0.5,1.2c0,0.47-0.17,0.87-0.5,1.2c-0.3,0.33-0.68,0.5-1.15,0.5s-0.85-0.17-1.15-0.5
					c-0.33-0.33-0.5-0.73-0.5-1.2c0-0.47,0.17-0.87,0.5-1.2C58.18,15.5,58.57,15.33,59.03,15.33z M58.43,16.33
					c0.23-0.27,0.22-0.47-0.05-0.6c-0.47,0.2-0.52,0.43-0.15,0.7C58.3,16.47,58.37,16.43,58.43,16.33z"/>
				<path fill-rule="evenodd" clip-rule="evenodd" fill="#FFFFFF" d="M58.43,16.33c-0.07,0.1-0.13,0.13-0.2,0.1
					c-0.37-0.27-0.32-0.5,0.15-0.7C58.65,15.87,58.67,16.07,58.43,16.33z"/>
				
					<path fill-rule="evenodd" clip-rule="evenodd" fill="none" stroke="#FFFFFF" stroke-linecap="round" stroke-linejoin="round" stroke-miterlimit="3" stroke-opacity="0.8" d="
					M59.03,15.33c-0.47,0-0.85,0.17-1.15,0.5c-0.33,0.33-0.5,0.73-0.5,1.2c0,0.47,0.17,0.87,0.5,1.2c0.3,0.33,0.68,0.5,1.15,0.5
					s0.85-0.17,1.15-0.5c0.33-0.33,0.5-0.73,0.5-1.2c0-0.47-0.17-0.87-0.5-1.2C59.88,15.5,59.5,15.33,59.03,15.33z"/>
			</g>
		</g>
		<g>
			<g>
				<path fill-rule="evenodd" clip-rule="evenodd" fill="#43B649" fill-opacity="0" d="M63.03,15.33c0.47,0,0.85,0.17,1.15,0.5
					c0.33,0.33,0.5,0.73,0.5,1.2c0,0.47-0.17,0.87-0.5,1.2c-0.3,0.33-0.68,0.5-1.15,0.5s-0.85-0.17-1.15-0.5
					c-0.33-0.33-0.5-0.73-0.5-1.2c0-0.47,0.17-0.87,0.5-1.2C62.18,15.5,62.57,15.33,63.03,15.33z M62.43,16.33
					c0.23-0.27,0.22-0.47-0.05-0.6c-0.47,0.2-0.52,0.43-0.15,0.7C62.3,16.47,62.37,16.43,62.43,16.33z"/>
				<path fill-rule="evenodd" clip-rule="evenodd" fill="#FFFFFF" d="M62.43,16.33c-0.07,0.1-0.13,0.13-0.2,0.1
					c-0.37-0.27-0.32-0.5,0.15-0.7C62.65,15.87,62.67,16.07,62.43,16.33z"/>
				
					<path fill-rule="evenodd" clip-rule="evenodd" fill="none" stroke="#FFFFFF" stroke-linecap="round" stroke-linejoin="round" stroke-miterlimit="3" stroke-opacity="0.8" d="
					M63.03,15.33c-0.47,0-0.85,0.17-1.15,0.5c-0.33,0.33-0.5,0.73-0.5,1.2c0,0.47,0.17,0.87,0.5,1.2c0.3,0.33,0.68,0.5,1.15,0.5
					s0.85-0.17,1.15-0.5c0.33-0.33,0.5-0.73,0.5-1.2c0-0.47-0.17-0.87-0.5-1.2C63.88,15.5,63.5,15.33,63.03,15.33z"/>
			</g>
		</g>
		<g>
			<g>
				<path fill-rule="evenodd" clip-rule="evenodd" fill="#43B649" fill-opacity="0" d="M66.28,14.48c0-0.47,0.17-0.87,0.5-1.2
					c0.3-0.33,0.68-0.5,1.15-0.5c0.47,0,0.85,0.17,1.15,0.5c0.33,0.33,0.5,0.73,0.5,1.2s-0.17,0.87-0.5,1.2
					c-0.3,0.33-0.68,0.5-1.15,0.5c-0.47,0-0.85-0.17-1.15-0.5C66.45,15.35,66.28,14.95,66.28,14.48z M67.33,13.78
					c0.23-0.27,0.22-0.47-0.05-0.6c-0.47,0.2-0.52,0.43-0.15,0.7C67.2,13.92,67.27,13.88,67.33,13.78z"/>
				<path fill-rule="evenodd" clip-rule="evenodd" fill="#FFFFFF" d="M67.33,13.78c-0.07,0.1-0.13,0.13-0.2,0.1
					c-0.37-0.27-0.32-0.5,0.15-0.7C67.55,13.32,67.57,13.52,67.33,13.78z"/>
				
					<path fill-rule="evenodd" clip-rule="evenodd" fill="none" stroke="#FFFFFF" stroke-linecap="round" stroke-linejoin="round" stroke-miterlimit="3" stroke-opacity="0.8" d="
					M66.28,14.48c0,0.47,0.17,0.87,0.5,1.2c0.3,0.33,0.68,0.5,1.15,0.5c0.47,0,0.85-0.17,1.15-0.5c0.33-0.33,0.5-0.73,0.5-1.2
					s-0.17-0.87-0.5-1.2c-0.3-0.33-0.68-0.5-1.15-0.5c-0.47,0-0.85,0.17-1.15,0.5C66.45,13.62,66.28,14.02,66.28,14.48z"/>
			</g>
		</g>
		<g>
			<g>
				<path fill-rule="evenodd" clip-rule="evenodd" fill="#43B649" fill-opacity="0" d="M77.48,9.73c0.47,0,0.85,0.17,1.15,0.5
					c0.33,0.33,0.5,0.73,0.5,1.2s-0.17,0.87-0.5,1.2c-0.3,0.33-0.68,0.5-1.15,0.5c-0.47,0-0.85-0.17-1.15-0.5
					c-0.33-0.33-0.5-0.73-0.5-1.2s0.17-0.87,0.5-1.2C76.63,9.9,77.02,9.73,77.48,9.73z M76.88,10.73c0.23-0.27,0.22-0.47-0.05-0.6
					c-0.47,0.2-0.52,0.43-0.15,0.7C76.75,10.87,76.82,10.83,76.88,10.73z"/>
				<path fill-rule="evenodd" clip-rule="evenodd" fill="#FFFFFF" d="M76.88,10.73c-0.07,0.1-0.13,0.13-0.2,0.1
					c-0.37-0.27-0.32-0.5,0.15-0.7C77.1,10.27,77.12,10.47,76.88,10.73z"/>
				
					<path fill-rule="evenodd" clip-rule="evenodd" fill="none" stroke="#FFFFFF" stroke-linecap="round" stroke-linejoin="round" stroke-miterlimit="3" stroke-opacity="0.8" d="
					M77.48,9.73c-0.47,0-0.85,0.17-1.15,0.5c-0.33,0.33-0.5,0.73-0.5,1.2s0.17,0.87,0.5,1.2c0.3,0.33,0.68,0.5,1.15,0.5
					c0.47,0,0.85-0.17,1.15-0.5c0.33-0.33,0.5-0.73,0.5-1.2s-0.17-0.87-0.5-1.2C78.33,9.9,77.95,9.73,77.48,9.73z"/>
			</g>
		</g>
		<g>
			<g>
				<path fill-rule="evenodd" clip-rule="evenodd" fill="#43B649" fill-opacity="0" d="M82.63,2.83c0.33,0.33,0.5,0.73,0.5,1.2
					c0,0.47-0.17,0.87-0.5,1.2c-0.3,0.33-0.68,0.5-1.15,0.5c-0.47,0-0.85-0.17-1.15-0.5c-0.33-0.33-0.5-0.73-0.5-1.2
					c0-0.47,0.17-0.87,0.5-1.2c0.3-0.33,0.68-0.5,1.15-0.5C81.95,2.33,82.33,2.5,82.63,2.83z M80.88,3.33
					c0.23-0.27,0.22-0.47-0.05-0.6c-0.47,0.2-0.52,0.43-0.15,0.7C80.75,3.47,80.82,3.43,80.88,3.33z"/>
				<path fill-rule="evenodd" clip-rule="evenodd" fill="#FFFFFF" d="M80.88,3.33c-0.07,0.1-0.13,0.13-0.2,0.1
					c-0.37-0.27-0.32-0.5,0.15-0.7C81.1,2.87,81.12,3.07,80.88,3.33z"/>
				
					<path fill-rule="evenodd" clip-rule="evenodd" fill="none" stroke="#FFFFFF" stroke-linecap="round" stroke-linejoin="round" stroke-miterlimit="3" stroke-opacity="0.8" d="
					M82.63,2.83c-0.3-0.33-0.68-0.5-1.15-0.5c-0.47,0-0.85,0.17-1.15,0.5c-0.33,0.33-0.5,0.73-0.5,1.2c0,0.47,0.17,0.87,0.5,1.2
					c0.3,0.33,0.68,0.5,1.15,0.5c0.47,0,0.85-0.17,1.15-0.5c0.33-0.33,0.5-0.73,0.5-1.2C83.13,3.57,82.97,3.17,82.63,2.83z"/>
			</g>
		</g>
		<g>
			<g>
				<path fill-rule="evenodd" clip-rule="evenodd" fill="#43B649" fill-opacity="0" d="M54.03,64.83c0.33,0,0.63,0.12,0.9,0.35
					c0.23,0.27,0.35,0.58,0.35,0.95c0,0.37-0.12,0.67-0.35,0.9c-0.27,0.27-0.57,0.4-0.9,0.4c-0.33,0-0.63-0.13-0.9-0.4
					c-0.23-0.23-0.35-0.53-0.35-0.9c0-0.37,0.12-0.68,0.35-0.95C53.4,64.95,53.7,64.83,54.03,64.83z M53.58,65.63
					c0.17-0.23,0.15-0.4-0.05-0.5c-0.37,0.17-0.4,0.33-0.1,0.5C53.47,65.67,53.52,65.67,53.58,65.63z"/>
				<path fill-rule="evenodd" clip-rule="evenodd" fill="#FFFFFF" d="M53.58,65.63c-0.07,0.03-0.12,0.03-0.15,0
					c-0.3-0.17-0.27-0.33,0.1-0.5C53.73,65.23,53.75,65.4,53.58,65.63z"/>
				
					<path fill-rule="evenodd" clip-rule="evenodd" fill="none" stroke="#FFFFFF" stroke-linecap="round" stroke-linejoin="round" stroke-miterlimit="3" stroke-opacity="0.8" d="
					M54.03,64.83c-0.33,0-0.63,0.12-0.9,0.35c-0.23,0.27-0.35,0.58-0.35,0.95c0,0.37,0.12,0.67,0.35,0.9c0.27,0.27,0.57,0.4,0.9,0.4
					c0.33,0,0.63-0.13,0.9-0.4c0.23-0.23,0.35-0.53,0.35-0.9c0-0.37-0.12-0.68-0.35-0.95C54.67,64.95,54.37,64.83,54.03,64.83z"/>
			</g>
		</g>
		<g>
			<g>
				<path fill-rule="evenodd" clip-rule="evenodd" fill="#43B649" fill-opacity="0" d="M85.93,17.08c0.33,0.33,0.5,0.73,0.5,1.2
					c0,0.47-0.17,0.87-0.5,1.2c-0.3,0.33-0.68,0.5-1.15,0.5s-0.85-0.17-1.15-0.5c-0.33-0.33-0.5-0.73-0.5-1.2
					c0-0.47,0.17-0.87,0.5-1.2c0.3-0.33,0.68-0.5,1.15-0.5S85.63,16.75,85.93,17.08z M84.18,17.58c0.23-0.27,0.22-0.47-0.05-0.6
					c-0.47,0.2-0.52,0.43-0.15,0.7C84.05,17.72,84.12,17.68,84.18,17.58z"/>
				<path fill-rule="evenodd" clip-rule="evenodd" fill="#FFFFFF" d="M84.18,17.58c-0.07,0.1-0.13,0.13-0.2,0.1
					c-0.37-0.27-0.32-0.5,0.15-0.7C84.4,17.12,84.42,17.32,84.18,17.58z"/>
				
					<path fill-rule="evenodd" clip-rule="evenodd" fill="none" stroke="#FFFFFF" stroke-linecap="round" stroke-linejoin="round" stroke-miterlimit="3" stroke-opacity="0.8" d="
					M85.93,17.08c-0.3-0.33-0.68-0.5-1.15-0.5s-0.85,0.17-1.15,0.5c-0.33,0.33-0.5,0.73-0.5,1.2c0,0.47,0.17,0.87,0.5,1.2
					c0.3,0.33,0.68,0.5,1.15,0.5s0.85-0.17,1.15-0.5c0.33-0.33,0.5-0.73,0.5-1.2C86.43,17.82,86.27,17.42,85.93,17.08z"/>
			</g>
		</g>
	</g>
</g>
<g id="Layer_5">
</g>
<g id="Layer_6">
</g>
</svg>
