<?xml version="1.0" encoding="utf-8"?>
<!-- Generator: Adobe Illustrator 16.0.0, SVG Export Plug-In . SVG Version: 6.00 Build 0)  -->
<!DOCTYPE svg PUBLIC "-//W3C//DTD SVG 1.1//EN" "http://www.w3.org/Graphics/SVG/1.1/DTD/svg11.dtd">
<svg version="1.1" xmlns="http://www.w3.org/2000/svg" xmlns:xlink="http://www.w3.org/1999/xlink" x="0px" y="0px" width="88.5px"
	 height="72px" viewBox="0 0 88.5 72" enable-background="new 0 0 88.5 72" xml:space="preserve">
<g id="Layer_2">
	<g>
		<g>
			<g>
				<path fill-rule="evenodd" clip-rule="evenodd" fill="#43B649" fill-opacity="0" d="M5.63,55.73c0,0.47-0.17,0.87-0.5,1.2
					c-0.3,0.33-0.68,0.5-1.15,0.5s-0.85-0.17-1.15-0.5c-0.33-0.33-0.5-0.73-0.5-1.2c0-0.47,0.17-0.87,0.5-1.2
					c0.3-0.33,0.68-0.5,1.15-0.5s0.85,0.17,1.15,0.5C5.47,54.87,5.63,55.27,5.63,55.73z M4.58,55.03c0.07,0.1,0.13,0.13,0.2,0.1
					c0.37-0.27,0.32-0.5-0.15-0.7C4.37,54.57,4.35,54.77,4.58,55.03z"/>
				<path fill-rule="evenodd" clip-rule="evenodd" fill="#FFFFFF" d="M4.58,55.03c-0.23-0.27-0.22-0.47,0.05-0.6
					c0.47,0.2,0.52,0.43,0.15,0.7C4.72,55.17,4.65,55.13,4.58,55.03z"/>
				
					<path fill-rule="evenodd" clip-rule="evenodd" fill="none" stroke="#FFFFFF" stroke-linecap="round" stroke-linejoin="round" stroke-miterlimit="3" stroke-opacity="0.8" d="
					M5.63,55.73c0,0.47-0.17,0.87-0.5,1.2c-0.3,0.33-0.68,0.5-1.15,0.5s-0.85-0.17-1.15-0.5c-0.33-0.33-0.5-0.73-0.5-1.2
					c0-0.47,0.17-0.87,0.5-1.2c0.3-0.33,0.68-0.5,1.15-0.5s0.85,0.17,1.15,0.5C5.47,54.87,5.63,55.27,5.63,55.73z"/>
			</g>
		</g>
		<g>
			<g>
				<path fill-rule="evenodd" clip-rule="evenodd" fill="#43B649" fill-opacity="0" d="M4.58,51.73c-0.33-0.33-0.5-0.73-0.5-1.2
					s0.17-0.87,0.5-1.2c0.3-0.33,0.68-0.5,1.15-0.5s0.85,0.17,1.15,0.5c0.33,0.33,0.5,0.73,0.5,1.2s-0.17,0.87-0.5,1.2
					c-0.3,0.33-0.68,0.5-1.15,0.5S4.88,52.07,4.58,51.73z M6.53,49.93c0.37-0.27,0.32-0.5-0.15-0.7c-0.27,0.13-0.28,0.33-0.05,0.6
					C6.4,49.93,6.47,49.97,6.53,49.93z"/>
				<path fill-rule="evenodd" clip-rule="evenodd" fill="#FFFFFF" d="M6.53,49.93c-0.07,0.03-0.13,0-0.2-0.1
					c-0.23-0.27-0.22-0.47,0.05-0.6C6.85,49.43,6.9,49.67,6.53,49.93z"/>
				
					<path fill-rule="evenodd" clip-rule="evenodd" fill="none" stroke="#FFFFFF" stroke-linecap="round" stroke-linejoin="round" stroke-miterlimit="3" stroke-opacity="0.8" d="
					M4.58,51.73c-0.33-0.33-0.5-0.73-0.5-1.2s0.17-0.87,0.5-1.2c0.3-0.33,0.68-0.5,1.15-0.5s0.85,0.17,1.15,0.5
					c0.33,0.33,0.5,0.73,0.5,1.2s-0.17,0.87-0.5,1.2c-0.3,0.33-0.68,0.5-1.15,0.5S4.88,52.07,4.58,51.73z"/>
			</g>
		</g>
		<g>
			<g>
				<path fill-rule="evenodd" clip-rule="evenodd" fill="#43B649" fill-opacity="0" d="M5.53,55.73c-0.33-0.33-0.5-0.73-0.5-1.2
					s0.17-0.87,0.5-1.2c0.3-0.33,0.68-0.5,1.15-0.5s0.85,0.17,1.15,0.5c0.33,0.33,0.5,0.73,0.5,1.2s-0.17,0.87-0.5,1.2
					c-0.3,0.33-0.68,0.5-1.15,0.5S5.83,56.07,5.53,55.73z M7.28,53.83c0.07,0.1,0.13,0.13,0.2,0.1c0.37-0.27,0.32-0.5-0.15-0.7
					C7.07,53.37,7.05,53.57,7.28,53.83z"/>
				<path fill-rule="evenodd" clip-rule="evenodd" fill="#FFFFFF" d="M7.28,53.83c-0.23-0.27-0.22-0.47,0.05-0.6
					c0.47,0.2,0.52,0.43,0.15,0.7C7.42,53.97,7.35,53.93,7.28,53.83z"/>
				
					<path fill-rule="evenodd" clip-rule="evenodd" fill="none" stroke="#FFFFFF" stroke-linecap="round" stroke-linejoin="round" stroke-miterlimit="3" stroke-opacity="0.8" d="
					M5.53,55.73c-0.33-0.33-0.5-0.73-0.5-1.2s0.17-0.87,0.5-1.2c0.3-0.33,0.68-0.5,1.15-0.5s0.85,0.17,1.15,0.5
					c0.33,0.33,0.5,0.73,0.5,1.2s-0.17,0.87-0.5,1.2c-0.3,0.33-0.68,0.5-1.15,0.5S5.83,56.07,5.53,55.73z"/>
			</g>
		</g>
		<g>
			<g>
				<path fill-rule="evenodd" clip-rule="evenodd" fill="#43B649" fill-opacity="0" d="M7.83,58.13c0.33,0.33,0.5,0.73,0.5,1.2
					s-0.17,0.87-0.5,1.2c-0.3,0.33-0.68,0.5-1.15,0.5s-0.85-0.17-1.15-0.5c-0.33-0.33-0.5-0.73-0.5-1.2s0.17-0.87,0.5-1.2
					c0.3-0.33,0.68-0.5,1.15-0.5S7.53,57.8,7.83,58.13z M7.48,58.73c0.37-0.27,0.32-0.5-0.15-0.7c-0.27,0.13-0.28,0.33-0.05,0.6
					C7.35,58.73,7.42,58.77,7.48,58.73z"/>
				<path fill-rule="evenodd" clip-rule="evenodd" fill="#FFFFFF" d="M7.48,58.73c-0.07,0.03-0.13,0-0.2-0.1
					c-0.23-0.27-0.22-0.47,0.05-0.6C7.8,58.23,7.85,58.47,7.48,58.73z"/>
				
					<path fill-rule="evenodd" clip-rule="evenodd" fill="none" stroke="#FFFFFF" stroke-linecap="round" stroke-linejoin="round" stroke-miterlimit="3" stroke-opacity="0.8" d="
					M7.83,58.13c0.33,0.33,0.5,0.73,0.5,1.2s-0.17,0.87-0.5,1.2c-0.3,0.33-0.68,0.5-1.15,0.5s-0.85-0.17-1.15-0.5
					c-0.33-0.33-0.5-0.73-0.5-1.2s0.17-0.87,0.5-1.2c0.3-0.33,0.68-0.5,1.15-0.5S7.53,57.8,7.83,58.13z"/>
			</g>
		</g>
		<g>
			<g>
				<path fill-rule="evenodd" clip-rule="evenodd" fill="#43B649" fill-opacity="0" d="M11.03,61.93c0,0.47-0.17,0.87-0.5,1.2
					c-0.3,0.33-0.68,0.5-1.15,0.5c-0.47,0-0.85-0.17-1.15-0.5c-0.33-0.33-0.5-0.73-0.5-1.2c0-0.47,0.17-0.87,0.5-1.2
					c0.3-0.33,0.68-0.5,1.15-0.5c0.47,0,0.85,0.17,1.15,0.5C10.87,61.07,11.03,61.47,11.03,61.93z M9.98,61.23
					c0.07,0.1,0.13,0.13,0.2,0.1c0.37-0.27,0.32-0.5-0.15-0.7C9.77,60.77,9.75,60.97,9.98,61.23z"/>
				<path fill-rule="evenodd" clip-rule="evenodd" fill="#FFFFFF" d="M9.98,61.23c-0.23-0.27-0.22-0.47,0.05-0.6
					c0.47,0.2,0.52,0.43,0.15,0.7C10.12,61.37,10.05,61.33,9.98,61.23z"/>
				
					<path fill-rule="evenodd" clip-rule="evenodd" fill="none" stroke="#FFFFFF" stroke-linecap="round" stroke-linejoin="round" stroke-miterlimit="3" stroke-opacity="0.8" d="
					M11.03,61.93c0,0.47-0.17,0.87-0.5,1.2c-0.3,0.33-0.68,0.5-1.15,0.5c-0.47,0-0.85-0.17-1.15-0.5c-0.33-0.33-0.5-0.73-0.5-1.2
					c0-0.47,0.17-0.87,0.5-1.2c0.3-0.33,0.68-0.5,1.15-0.5c0.47,0,0.85,0.17,1.15,0.5C10.87,61.07,11.03,61.47,11.03,61.93z"/>
			</g>
		</g>
		<g>
			<g>
				<path fill-rule="evenodd" clip-rule="evenodd" fill="#43B649" fill-opacity="0" d="M16.08,61.33c0.37-0.27,0.32-0.5-0.15-0.7
					c-0.27,0.13-0.28,0.33-0.05,0.6C15.95,61.33,16.02,61.37,16.08,61.33z M14.13,63.13c-0.33-0.33-0.5-0.73-0.5-1.2
					c0-0.47,0.17-0.87,0.5-1.2c0.3-0.33,0.68-0.5,1.15-0.5c0.47,0,0.85,0.17,1.15,0.5c0.33,0.33,0.5,0.73,0.5,1.2
					c0,0.47-0.17,0.87-0.5,1.2c-0.3,0.33-0.68,0.5-1.15,0.5C14.82,63.63,14.43,63.47,14.13,63.13z"/>
				<path fill-rule="evenodd" clip-rule="evenodd" fill="#FFFFFF" d="M16.08,61.33c-0.07,0.03-0.13,0-0.2-0.1
					c-0.23-0.27-0.22-0.47,0.05-0.6C16.4,60.83,16.45,61.07,16.08,61.33z"/>
				
					<path fill-rule="evenodd" clip-rule="evenodd" fill="none" stroke="#FFFFFF" stroke-linecap="round" stroke-linejoin="round" stroke-miterlimit="3" stroke-opacity="0.8" d="
					M14.13,63.13c-0.33-0.33-0.5-0.73-0.5-1.2c0-0.47,0.17-0.87,0.5-1.2c0.3-0.33,0.68-0.5,1.15-0.5c0.47,0,0.85,0.17,1.15,0.5
					c0.33,0.33,0.5,0.73,0.5,1.2c0,0.47-0.17,0.87-0.5,1.2c-0.3,0.33-0.68,0.5-1.15,0.5C14.82,63.63,14.43,63.47,14.13,63.13z"/>
			</g>
		</g>
		<g>
			<g>
				<path fill-rule="evenodd" clip-rule="evenodd" fill="#43B649" fill-opacity="0" d="M27.98,66.48c0.33,0.33,0.5,0.73,0.5,1.2
					c0,0.47-0.17,0.87-0.5,1.2c-0.3,0.33-0.68,0.5-1.15,0.5s-0.85-0.17-1.15-0.5c-0.33-0.33-0.5-0.73-0.5-1.2
					c0-0.47,0.17-0.87,0.5-1.2c0.3-0.33,0.68-0.5,1.15-0.5S27.68,66.15,27.98,66.48z M27.63,67.08c0.37-0.27,0.32-0.5-0.15-0.7
					c-0.27,0.13-0.28,0.33-0.05,0.6C27.5,67.08,27.57,67.12,27.63,67.08z"/>
				<path fill-rule="evenodd" clip-rule="evenodd" fill="#FFFFFF" d="M27.63,67.08c-0.07,0.03-0.13,0-0.2-0.1
					c-0.23-0.27-0.22-0.47,0.05-0.6C27.95,66.58,28,66.82,27.63,67.08z"/>
				
					<path fill-rule="evenodd" clip-rule="evenodd" fill="none" stroke="#FFFFFF" stroke-linecap="round" stroke-linejoin="round" stroke-miterlimit="3" stroke-opacity="0.8" d="
					M27.98,66.48c0.33,0.33,0.5,0.73,0.5,1.2c0,0.47-0.17,0.87-0.5,1.2c-0.3,0.33-0.68,0.5-1.15,0.5s-0.85-0.17-1.15-0.5
					c-0.33-0.33-0.5-0.73-0.5-1.2c0-0.47,0.17-0.87,0.5-1.2c0.3-0.33,0.68-0.5,1.15-0.5S27.68,66.15,27.98,66.48z"/>
			</g>
		</g>
		<g>
			<g>
				<path fill-rule="evenodd" clip-rule="evenodd" fill="#43B649" fill-opacity="0" d="M25.68,62.28c0.3-0.33,0.68-0.5,1.15-0.5
					s0.85,0.17,1.15,0.5c0.33,0.33,0.5,0.73,0.5,1.2c0,0.47-0.17,0.87-0.5,1.2c-0.3,0.33-0.68,0.5-1.15,0.5s-0.85-0.17-1.15-0.5
					c-0.33-0.33-0.5-0.73-0.5-1.2C25.18,63.02,25.35,62.62,25.68,62.28z M27.63,62.88c0.37-0.27,0.32-0.5-0.15-0.7
					c-0.27,0.13-0.28,0.33-0.05,0.6C27.5,62.88,27.57,62.92,27.63,62.88z"/>
				<path fill-rule="evenodd" clip-rule="evenodd" fill="#FFFFFF" d="M27.63,62.88c-0.07,0.03-0.13,0-0.2-0.1
					c-0.23-0.27-0.22-0.47,0.05-0.6C27.95,62.38,28,62.62,27.63,62.88z"/>
				
					<path fill-rule="evenodd" clip-rule="evenodd" fill="none" stroke="#FFFFFF" stroke-linecap="round" stroke-linejoin="round" stroke-miterlimit="3" stroke-opacity="0.8" d="
					M25.68,62.28c0.3-0.33,0.68-0.5,1.15-0.5s0.85,0.17,1.15,0.5c0.33,0.33,0.5,0.73,0.5,1.2c0,0.47-0.17,0.87-0.5,1.2
					c-0.3,0.33-0.68,0.5-1.15,0.5s-0.85-0.17-1.15-0.5c-0.33-0.33-0.5-0.73-0.5-1.2C25.18,63.02,25.35,62.62,25.68,62.28z"/>
			</g>
		</g>
		<g>
			<g>
				<path fill-rule="evenodd" clip-rule="evenodd" fill="#43B649" fill-opacity="0" d="M35.13,58.48c0.33,0.33,0.5,0.73,0.5,1.2
					c0,0.47-0.17,0.87-0.5,1.2c-0.3,0.33-0.68,0.5-1.15,0.5s-0.85-0.17-1.15-0.5c-0.33-0.33-0.5-0.73-0.5-1.2
					c0-0.47,0.17-0.87,0.5-1.2c0.3-0.33,0.68-0.5,1.15-0.5S34.83,58.15,35.13,58.48z M34.78,59.08c0.37-0.27,0.32-0.5-0.15-0.7
					c-0.27,0.13-0.28,0.33-0.05,0.6C34.65,59.08,34.72,59.12,34.78,59.08z"/>
				<path fill-rule="evenodd" clip-rule="evenodd" fill="#FFFFFF" d="M34.78,59.08c-0.07,0.03-0.13,0-0.2-0.1
					c-0.23-0.27-0.22-0.47,0.05-0.6C35.1,58.58,35.15,58.82,34.78,59.08z"/>
				
					<path fill-rule="evenodd" clip-rule="evenodd" fill="none" stroke="#FFFFFF" stroke-linecap="round" stroke-linejoin="round" stroke-miterlimit="3" stroke-opacity="0.8" d="
					M35.13,58.48c0.33,0.33,0.5,0.73,0.5,1.2c0,0.47-0.17,0.87-0.5,1.2c-0.3,0.33-0.68,0.5-1.15,0.5s-0.85-0.17-1.15-0.5
					c-0.33-0.33-0.5-0.73-0.5-1.2c0-0.47,0.17-0.87,0.5-1.2c0.3-0.33,0.68-0.5,1.15-0.5S34.83,58.15,35.13,58.48z"/>
			</g>
		</g>
		<g>
			<g>
				<path fill-rule="evenodd" clip-rule="evenodd" fill="#43B649" fill-opacity="0" d="M33.98,52.68c0.47,0,0.85,0.17,1.15,0.5
					c0.33,0.33,0.5,0.73,0.5,1.2s-0.17,0.87-0.5,1.2c-0.3,0.33-0.68,0.5-1.15,0.5s-0.85-0.17-1.15-0.5c-0.33-0.33-0.5-0.73-0.5-1.2
					s0.17-0.87,0.5-1.2C33.13,52.85,33.52,52.68,33.98,52.68z M34.58,53.68c0.07,0.1,0.13,0.13,0.2,0.1c0.37-0.27,0.32-0.5-0.15-0.7
					C34.37,53.22,34.35,53.42,34.58,53.68z"/>
				<path fill-rule="evenodd" clip-rule="evenodd" fill="#FFFFFF" d="M34.58,53.68c-0.23-0.27-0.22-0.47,0.05-0.6
					c0.47,0.2,0.52,0.43,0.15,0.7C34.72,53.82,34.65,53.78,34.58,53.68z"/>
				
					<path fill-rule="evenodd" clip-rule="evenodd" fill="none" stroke="#FFFFFF" stroke-linecap="round" stroke-linejoin="round" stroke-miterlimit="3" stroke-opacity="0.8" d="
					M33.98,52.68c0.47,0,0.85,0.17,1.15,0.5c0.33,0.33,0.5,0.73,0.5,1.2s-0.17,0.87-0.5,1.2c-0.3,0.33-0.68,0.5-1.15,0.5
					s-0.85-0.17-1.15-0.5c-0.33-0.33-0.5-0.73-0.5-1.2s0.17-0.87,0.5-1.2C33.13,52.85,33.52,52.68,33.98,52.68z"/>
			</g>
		</g>
		<g>
			<g>
				<path fill-rule="evenodd" clip-rule="evenodd" fill="#43B649" fill-opacity="0" d="M40.23,56.28c0,0.47-0.17,0.87-0.5,1.2
					c-0.3,0.33-0.68,0.5-1.15,0.5s-0.85-0.17-1.15-0.5c-0.33-0.33-0.5-0.73-0.5-1.2s0.17-0.87,0.5-1.2c0.3-0.33,0.68-0.5,1.15-0.5
					s0.85,0.17,1.15,0.5C40.07,55.42,40.23,55.82,40.23,56.28z M39.18,55.58c0.07,0.1,0.13,0.13,0.2,0.1
					c0.37-0.27,0.32-0.5-0.15-0.7C38.97,55.12,38.95,55.32,39.18,55.58z"/>
				<path fill-rule="evenodd" clip-rule="evenodd" fill="#FFFFFF" d="M39.18,55.58c-0.23-0.27-0.22-0.47,0.05-0.6
					c0.47,0.2,0.52,0.43,0.15,0.7C39.32,55.72,39.25,55.68,39.18,55.58z"/>
				
					<path fill-rule="evenodd" clip-rule="evenodd" fill="none" stroke="#FFFFFF" stroke-linecap="round" stroke-linejoin="round" stroke-miterlimit="3" stroke-opacity="0.8" d="
					M40.23,56.28c0,0.47-0.17,0.87-0.5,1.2c-0.3,0.33-0.68,0.5-1.15,0.5s-0.85-0.17-1.15-0.5c-0.33-0.33-0.5-0.73-0.5-1.2
					s0.17-0.87,0.5-1.2c0.3-0.33,0.68-0.5,1.15-0.5s0.85,0.17,1.15,0.5C40.07,55.42,40.23,55.82,40.23,56.28z"/>
			</g>
		</g>
		<g>
			<g>
				<path fill-rule="evenodd" clip-rule="evenodd" fill="#43B649" fill-opacity="0" d="M35.88,45.18c0.33,0.33,0.5,0.73,0.5,1.2
					s-0.17,0.87-0.5,1.2c-0.3,0.33-0.68,0.5-1.15,0.5s-0.85-0.17-1.15-0.5c-0.33-0.33-0.5-0.73-0.5-1.2s0.17-0.87,0.5-1.2
					c0.3-0.33,0.68-0.5,1.15-0.5S35.58,44.85,35.88,45.18z M35.53,45.78c0.37-0.27,0.32-0.5-0.15-0.7c-0.27,0.13-0.28,0.33-0.05,0.6
					C35.4,45.78,35.47,45.82,35.53,45.78z"/>
				<path fill-rule="evenodd" clip-rule="evenodd" fill="#FFFFFF" d="M35.53,45.78c-0.07,0.03-0.13,0-0.2-0.1
					c-0.23-0.27-0.22-0.47,0.05-0.6C35.85,45.28,35.9,45.52,35.53,45.78z"/>
				
					<path fill-rule="evenodd" clip-rule="evenodd" fill="none" stroke="#FFFFFF" stroke-linecap="round" stroke-linejoin="round" stroke-miterlimit="3" stroke-opacity="0.8" d="
					M35.88,45.18c0.33,0.33,0.5,0.73,0.5,1.2s-0.17,0.87-0.5,1.2c-0.3,0.33-0.68,0.5-1.15,0.5s-0.85-0.17-1.15-0.5
					c-0.33-0.33-0.5-0.73-0.5-1.2s0.17-0.87,0.5-1.2c0.3-0.33,0.68-0.5,1.15-0.5S35.58,44.85,35.88,45.18z"/>
			</g>
		</g>
		<g>
			<g>
				<path fill-rule="evenodd" clip-rule="evenodd" fill="#43B649" fill-opacity="0" d="M35.88,40.83c0.33,0.33,0.5,0.73,0.5,1.2
					s-0.17,0.87-0.5,1.2c-0.3,0.33-0.68,0.5-1.15,0.5s-0.85-0.17-1.15-0.5c-0.33-0.33-0.5-0.73-0.5-1.2s0.17-0.87,0.5-1.2
					c0.3-0.33,0.68-0.5,1.15-0.5S35.58,40.5,35.88,40.83z M35.33,41.33c0.07,0.1,0.13,0.13,0.2,0.1c0.37-0.27,0.32-0.5-0.15-0.7
					C35.12,40.87,35.1,41.07,35.33,41.33z"/>
				<path fill-rule="evenodd" clip-rule="evenodd" fill="#FFFFFF" d="M35.33,41.33c-0.23-0.27-0.22-0.47,0.05-0.6
					c0.47,0.2,0.52,0.43,0.15,0.7C35.47,41.47,35.4,41.43,35.33,41.33z"/>
				
					<path fill-rule="evenodd" clip-rule="evenodd" fill="none" stroke="#FFFFFF" stroke-linecap="round" stroke-linejoin="round" stroke-miterlimit="3" stroke-opacity="0.8" d="
					M35.88,40.83c0.33,0.33,0.5,0.73,0.5,1.2s-0.17,0.87-0.5,1.2c-0.3,0.33-0.68,0.5-1.15,0.5s-0.85-0.17-1.15-0.5
					c-0.33-0.33-0.5-0.73-0.5-1.2s0.17-0.87,0.5-1.2c0.3-0.33,0.68-0.5,1.15-0.5S35.58,40.5,35.88,40.83z"/>
			</g>
		</g>
		<g>
			<g>
				<path fill-rule="evenodd" clip-rule="evenodd" fill="#43B649" fill-opacity="0" d="M40.43,38.88c0.33,0.33,0.5,0.73,0.5,1.2
					s-0.17,0.87-0.5,1.2c-0.3,0.33-0.68,0.5-1.15,0.5c-0.47,0-0.85-0.17-1.15-0.5c-0.33-0.33-0.5-0.73-0.5-1.2s0.17-0.87,0.5-1.2
					c0.3-0.33,0.68-0.5,1.15-0.5C39.75,38.38,40.13,38.55,40.43,38.88z M40.08,39.48c0.37-0.27,0.32-0.5-0.15-0.7
					c-0.27,0.13-0.28,0.33-0.05,0.6C39.95,39.48,40.02,39.52,40.08,39.48z"/>
				<path fill-rule="evenodd" clip-rule="evenodd" fill="#FFFFFF" d="M40.08,39.48c-0.07,0.03-0.13,0-0.2-0.1
					c-0.23-0.27-0.22-0.47,0.05-0.6C40.4,38.98,40.45,39.22,40.08,39.48z"/>
				
					<path fill-rule="evenodd" clip-rule="evenodd" fill="none" stroke="#FFFFFF" stroke-linecap="round" stroke-linejoin="round" stroke-miterlimit="3" stroke-opacity="0.8" d="
					M40.43,38.88c0.33,0.33,0.5,0.73,0.5,1.2s-0.17,0.87-0.5,1.2c-0.3,0.33-0.68,0.5-1.15,0.5c-0.47,0-0.85-0.17-1.15-0.5
					c-0.33-0.33-0.5-0.73-0.5-1.2s0.17-0.87,0.5-1.2c0.3-0.33,0.68-0.5,1.15-0.5C39.75,38.38,40.13,38.55,40.43,38.88z"/>
			</g>
		</g>
		<g>
			<g>
				<path fill-rule="evenodd" clip-rule="evenodd" fill="#43B649" fill-opacity="0" d="M38.13,44.23c0.3-0.33,0.68-0.5,1.15-0.5
					c0.47,0,0.85,0.17,1.15,0.5c0.33,0.33,0.5,0.73,0.5,1.2c0,0.47-0.17,0.87-0.5,1.2c-0.3,0.33-0.68,0.5-1.15,0.5
					c-0.47,0-0.85-0.17-1.15-0.5c-0.33-0.33-0.5-0.73-0.5-1.2C37.63,44.97,37.8,44.57,38.13,44.23z M40.08,44.83
					c0.37-0.27,0.32-0.5-0.15-0.7c-0.27,0.13-0.28,0.33-0.05,0.6C39.95,44.83,40.02,44.87,40.08,44.83z"/>
				<path fill-rule="evenodd" clip-rule="evenodd" fill="#FFFFFF" d="M40.08,44.83c-0.07,0.03-0.13,0-0.2-0.1
					c-0.23-0.27-0.22-0.47,0.05-0.6C40.4,44.33,40.45,44.57,40.08,44.83z"/>
				
					<path fill-rule="evenodd" clip-rule="evenodd" fill="none" stroke="#FFFFFF" stroke-linecap="round" stroke-linejoin="round" stroke-miterlimit="3" stroke-opacity="0.8" d="
					M38.13,44.23c0.3-0.33,0.68-0.5,1.15-0.5c0.47,0,0.85,0.17,1.15,0.5c0.33,0.33,0.5,0.73,0.5,1.2c0,0.47-0.17,0.87-0.5,1.2
					c-0.3,0.33-0.68,0.5-1.15,0.5c-0.47,0-0.85-0.17-1.15-0.5c-0.33-0.33-0.5-0.73-0.5-1.2C37.63,44.97,37.8,44.57,38.13,44.23z"/>
			</g>
		</g>
		<g>
			<g>
				<path fill-rule="evenodd" clip-rule="evenodd" fill="#43B649" fill-opacity="0" d="M20.53,55.43c0.3-0.33,0.68-0.5,1.15-0.5
					s0.85,0.17,1.15,0.5c0.33,0.33,0.5,0.73,0.5,1.2s-0.17,0.87-0.5,1.2c-0.3,0.33-0.68,0.5-1.15,0.5s-0.85-0.17-1.15-0.5
					c-0.33-0.33-0.5-0.73-0.5-1.2S20.2,55.77,20.53,55.43z M22.28,55.93c0.07,0.1,0.13,0.13,0.2,0.1c0.37-0.27,0.32-0.5-0.15-0.7
					C22.07,55.47,22.05,55.67,22.28,55.93z"/>
				<path fill-rule="evenodd" clip-rule="evenodd" fill="#FFFFFF" d="M22.28,55.93c-0.23-0.27-0.22-0.47,0.05-0.6
					c0.47,0.2,0.52,0.43,0.15,0.7C22.42,56.07,22.35,56.03,22.28,55.93z"/>
				
					<path fill-rule="evenodd" clip-rule="evenodd" fill="none" stroke="#FFFFFF" stroke-linecap="round" stroke-linejoin="round" stroke-miterlimit="3" stroke-opacity="0.8" d="
					M20.53,55.43c0.3-0.33,0.68-0.5,1.15-0.5s0.85,0.17,1.15,0.5c0.33,0.33,0.5,0.73,0.5,1.2s-0.17,0.87-0.5,1.2
					c-0.3,0.33-0.68,0.5-1.15,0.5s-0.85-0.17-1.15-0.5c-0.33-0.33-0.5-0.73-0.5-1.2S20.2,55.77,20.53,55.43z"/>
			</g>
		</g>
		<g>
			<g>
				<path fill-rule="evenodd" clip-rule="evenodd" fill="#43B649" fill-opacity="0" d="M19.28,62.78c-0.33-0.33-0.5-0.73-0.5-1.2
					s0.17-0.87,0.5-1.2c0.3-0.33,0.68-0.5,1.15-0.5s0.85,0.17,1.15,0.5c0.33,0.33,0.5,0.73,0.5,1.2s-0.17,0.87-0.5,1.2
					c-0.3,0.33-0.68,0.5-1.15,0.5S19.58,63.12,19.28,62.78z M21.03,60.88c0.07,0.1,0.13,0.13,0.2,0.1c0.37-0.27,0.32-0.5-0.15-0.7
					C20.82,60.42,20.8,60.62,21.03,60.88z"/>
				<path fill-rule="evenodd" clip-rule="evenodd" fill="#FFFFFF" d="M21.03,60.88c-0.23-0.27-0.22-0.47,0.05-0.6
					c0.47,0.2,0.52,0.43,0.15,0.7C21.17,61.02,21.1,60.98,21.03,60.88z"/>
				
					<path fill-rule="evenodd" clip-rule="evenodd" fill="none" stroke="#FFFFFF" stroke-linecap="round" stroke-linejoin="round" stroke-miterlimit="3" stroke-opacity="0.8" d="
					M19.28,62.78c-0.33-0.33-0.5-0.73-0.5-1.2s0.17-0.87,0.5-1.2c0.3-0.33,0.68-0.5,1.15-0.5s0.85,0.17,1.15,0.5
					c0.33,0.33,0.5,0.73,0.5,1.2s-0.17,0.87-0.5,1.2c-0.3,0.33-0.68,0.5-1.15,0.5S19.58,63.12,19.28,62.78z"/>
			</g>
		</g>
		<g>
			<g>
				<path fill-rule="evenodd" clip-rule="evenodd" fill="#43B649" fill-opacity="0" d="M33.28,66.48c0.33,0.33,0.5,0.73,0.5,1.2
					c0,0.47-0.17,0.87-0.5,1.2c-0.3,0.33-0.68,0.5-1.15,0.5c-0.47,0-0.85-0.17-1.15-0.5c-0.33-0.33-0.5-0.73-0.5-1.2
					c0-0.47,0.17-0.87,0.5-1.2c0.3-0.33,0.68-0.5,1.15-0.5C32.6,65.98,32.98,66.15,33.28,66.48z M32.93,67.08
					c0.37-0.27,0.32-0.5-0.15-0.7c-0.27,0.13-0.28,0.33-0.05,0.6C32.8,67.08,32.87,67.12,32.93,67.08z"/>
				<path fill-rule="evenodd" clip-rule="evenodd" fill="#FFFFFF" d="M32.93,67.08c-0.07,0.03-0.13,0-0.2-0.1
					c-0.23-0.27-0.22-0.47,0.05-0.6C33.25,66.58,33.3,66.82,32.93,67.08z"/>
				
					<path fill-rule="evenodd" clip-rule="evenodd" fill="none" stroke="#FFFFFF" stroke-linecap="round" stroke-linejoin="round" stroke-miterlimit="3" stroke-opacity="0.8" d="
					M33.28,66.48c0.33,0.33,0.5,0.73,0.5,1.2c0,0.47-0.17,0.87-0.5,1.2c-0.3,0.33-0.68,0.5-1.15,0.5c-0.47,0-0.85-0.17-1.15-0.5
					c-0.33-0.33-0.5-0.73-0.5-1.2c0-0.47,0.17-0.87,0.5-1.2c0.3-0.33,0.68-0.5,1.15-0.5C32.6,65.98,32.98,66.15,33.28,66.48z"/>
			</g>
		</g>
		<g>
			<g>
				<path fill-rule="evenodd" clip-rule="evenodd" fill="#43B649" fill-opacity="0" d="M34.73,64.83c0.47,0,0.85,0.17,1.15,0.5
					c0.33,0.33,0.5,0.73,0.5,1.2s-0.17,0.87-0.5,1.2c-0.3,0.33-0.68,0.5-1.15,0.5s-0.85-0.17-1.15-0.5c-0.33-0.33-0.5-0.73-0.5-1.2
					s0.17-0.87,0.5-1.2C33.88,65,34.27,64.83,34.73,64.83z M35.33,65.83c0.07,0.1,0.13,0.13,0.2,0.1c0.37-0.27,0.32-0.5-0.15-0.7
					C35.12,65.37,35.1,65.57,35.33,65.83z"/>
				<path fill-rule="evenodd" clip-rule="evenodd" fill="#FFFFFF" d="M35.33,65.83c-0.23-0.27-0.22-0.47,0.05-0.6
					c0.47,0.2,0.52,0.43,0.15,0.7C35.47,65.97,35.4,65.93,35.33,65.83z"/>
				
					<path fill-rule="evenodd" clip-rule="evenodd" fill="none" stroke="#FFFFFF" stroke-linecap="round" stroke-linejoin="round" stroke-miterlimit="3" stroke-opacity="0.8" d="
					M34.73,64.83c0.47,0,0.85,0.17,1.15,0.5c0.33,0.33,0.5,0.73,0.5,1.2s-0.17,0.87-0.5,1.2c-0.3,0.33-0.68,0.5-1.15,0.5
					s-0.85-0.17-1.15-0.5c-0.33-0.33-0.5-0.73-0.5-1.2s0.17-0.87,0.5-1.2C33.88,65,34.27,64.83,34.73,64.83z"/>
			</g>
		</g>
		<g>
			<g>
				<path fill-rule="evenodd" clip-rule="evenodd" fill="#43B649" fill-opacity="0" d="M40.58,68.23c0,0.47-0.17,0.87-0.5,1.2
					c-0.3,0.33-0.68,0.5-1.15,0.5s-0.85-0.17-1.15-0.5c-0.33-0.33-0.5-0.73-0.5-1.2c0-0.47,0.17-0.87,0.5-1.2
					c0.3-0.33,0.68-0.5,1.15-0.5s0.85,0.17,1.15,0.5C40.42,67.37,40.58,67.77,40.58,68.23z M39.53,67.53c0.07,0.1,0.13,0.13,0.2,0.1
					c0.37-0.27,0.32-0.5-0.15-0.7C39.32,67.07,39.3,67.27,39.53,67.53z"/>
				<path fill-rule="evenodd" clip-rule="evenodd" fill="#FFFFFF" d="M39.53,67.53c-0.23-0.27-0.22-0.47,0.05-0.6
					c0.47,0.2,0.52,0.43,0.15,0.7C39.67,67.67,39.6,67.63,39.53,67.53z"/>
				
					<path fill-rule="evenodd" clip-rule="evenodd" fill="none" stroke="#FFFFFF" stroke-linecap="round" stroke-linejoin="round" stroke-miterlimit="3" stroke-opacity="0.8" d="
					M40.58,68.23c0,0.47-0.17,0.87-0.5,1.2c-0.3,0.33-0.68,0.5-1.15,0.5s-0.85-0.17-1.15-0.5c-0.33-0.33-0.5-0.73-0.5-1.2
					c0-0.47,0.17-0.87,0.5-1.2c0.3-0.33,0.68-0.5,1.15-0.5s0.85,0.17,1.15,0.5C40.42,67.37,40.58,67.77,40.58,68.23z"/>
			</g>
		</g>
		<g>
			<g>
				<path fill-rule="evenodd" clip-rule="evenodd" fill="#43B649" fill-opacity="0" d="M27.98,31.08c0.33,0.33,0.5,0.73,0.5,1.2
					c0,0.47-0.17,0.87-0.5,1.2c-0.3,0.33-0.68,0.5-1.15,0.5s-0.85-0.17-1.15-0.5c-0.33-0.33-0.5-0.73-0.5-1.2
					c0-0.47,0.17-0.87,0.5-1.2c0.3-0.33,0.68-0.5,1.15-0.5S27.68,30.75,27.98,31.08z M27.63,31.68c0.37-0.27,0.32-0.5-0.15-0.7
					c-0.27,0.13-0.28,0.33-0.05,0.6C27.5,31.68,27.57,31.72,27.63,31.68z"/>
				<path fill-rule="evenodd" clip-rule="evenodd" fill="#FFFFFF" d="M27.63,31.68c-0.07,0.03-0.13,0-0.2-0.1
					c-0.23-0.27-0.22-0.47,0.05-0.6C27.95,31.18,28,31.42,27.63,31.68z"/>
				
					<path fill-rule="evenodd" clip-rule="evenodd" fill="none" stroke="#FFFFFF" stroke-linecap="round" stroke-linejoin="round" stroke-miterlimit="3" stroke-opacity="0.8" d="
					M27.98,31.08c0.33,0.33,0.5,0.73,0.5,1.2c0,0.47-0.17,0.87-0.5,1.2c-0.3,0.33-0.68,0.5-1.15,0.5s-0.85-0.17-1.15-0.5
					c-0.33-0.33-0.5-0.73-0.5-1.2c0-0.47,0.17-0.87,0.5-1.2c0.3-0.33,0.68-0.5,1.15-0.5S27.68,30.75,27.98,31.08z"/>
			</g>
		</g>
		<g>
			<g>
				<path fill-rule="evenodd" clip-rule="evenodd" fill="#43B649" fill-opacity="0" d="M32.93,32.63c0.33,0.33,0.5,0.73,0.5,1.2
					s-0.17,0.87-0.5,1.2c-0.3,0.33-0.68,0.5-1.15,0.5c-0.47,0-0.85-0.17-1.15-0.5c-0.33-0.33-0.5-0.73-0.5-1.2s0.17-0.87,0.5-1.2
					c0.3-0.33,0.68-0.5,1.15-0.5C32.25,32.13,32.63,32.3,32.93,32.63z M32.58,33.23c0.37-0.27,0.32-0.5-0.15-0.7
					c-0.27,0.13-0.28,0.33-0.05,0.6C32.45,33.23,32.52,33.27,32.58,33.23z"/>
				<path fill-rule="evenodd" clip-rule="evenodd" fill="#FFFFFF" d="M32.58,33.23c-0.07,0.03-0.13,0-0.2-0.1
					c-0.23-0.27-0.22-0.47,0.05-0.6C32.9,32.73,32.95,32.97,32.58,33.23z"/>
				
					<path fill-rule="evenodd" clip-rule="evenodd" fill="none" stroke="#FFFFFF" stroke-linecap="round" stroke-linejoin="round" stroke-miterlimit="3" stroke-opacity="0.8" d="
					M32.93,32.63c0.33,0.33,0.5,0.73,0.5,1.2s-0.17,0.87-0.5,1.2c-0.3,0.33-0.68,0.5-1.15,0.5c-0.47,0-0.85-0.17-1.15-0.5
					c-0.33-0.33-0.5-0.73-0.5-1.2s0.17-0.87,0.5-1.2c0.3-0.33,0.68-0.5,1.15-0.5C32.25,32.13,32.63,32.3,32.93,32.63z"/>
			</g>
		</g>
		<g>
			<g>
				<path fill-rule="evenodd" clip-rule="evenodd" fill="#43B649" fill-opacity="0" d="M10.18,5.68c0,0.47-0.17,0.87-0.5,1.2
					C9.38,7.22,9,7.38,8.53,7.38c-0.47,0-0.85-0.17-1.15-0.5c-0.33-0.33-0.5-0.73-0.5-1.2s0.17-0.87,0.5-1.2
					c0.3-0.33,0.68-0.5,1.15-0.5c0.47,0,0.85,0.17,1.15,0.5C10.02,4.82,10.18,5.22,10.18,5.68z M9.13,4.98
					c0.07,0.1,0.13,0.13,0.2,0.1c0.37-0.27,0.32-0.5-0.15-0.7C8.92,4.52,8.9,4.72,9.13,4.98z"/>
				<path fill-rule="evenodd" clip-rule="evenodd" fill="#FFFFFF" d="M9.13,4.98C8.9,4.72,8.92,4.52,9.18,4.38
					c0.47,0.2,0.52,0.43,0.15,0.7C9.27,5.12,9.2,5.08,9.13,4.98z"/>
				
					<path fill-rule="evenodd" clip-rule="evenodd" fill="none" stroke="#FFFFFF" stroke-linecap="round" stroke-linejoin="round" stroke-miterlimit="3" stroke-opacity="0.8" d="
					M10.18,5.68c0,0.47-0.17,0.87-0.5,1.2C9.38,7.22,9,7.38,8.53,7.38c-0.47,0-0.85-0.17-1.15-0.5c-0.33-0.33-0.5-0.73-0.5-1.2
					s0.17-0.87,0.5-1.2c0.3-0.33,0.68-0.5,1.15-0.5c0.47,0,0.85,0.17,1.15,0.5C10.02,4.82,10.18,5.22,10.18,5.68z"/>
			</g>
		</g>
		<g>
			<g>
				<path fill-rule="evenodd" clip-rule="evenodd" fill="#43B649" fill-opacity="0" d="M7.83,8.08c0.33,0.33,0.5,0.73,0.5,1.2
					c0,0.47-0.17,0.87-0.5,1.2c-0.3,0.33-0.68,0.5-1.15,0.5s-0.85-0.17-1.15-0.5c-0.33-0.33-0.5-0.73-0.5-1.2
					c0-0.47,0.17-0.87,0.5-1.2c0.3-0.33,0.68-0.5,1.15-0.5S7.53,7.75,7.83,8.08z M7.48,8.68c0.37-0.27,0.32-0.5-0.15-0.7
					c-0.27,0.13-0.28,0.33-0.05,0.6C7.35,8.68,7.42,8.72,7.48,8.68z"/>
				<path fill-rule="evenodd" clip-rule="evenodd" fill="#FFFFFF" d="M7.48,8.68c-0.07,0.03-0.13,0-0.2-0.1
					c-0.23-0.27-0.22-0.47,0.05-0.6C7.8,8.18,7.85,8.42,7.48,8.68z"/>
				
					<path fill-rule="evenodd" clip-rule="evenodd" fill="none" stroke="#FFFFFF" stroke-linecap="round" stroke-linejoin="round" stroke-miterlimit="3" stroke-opacity="0.8" d="
					M7.83,8.08c0.33,0.33,0.5,0.73,0.5,1.2c0,0.47-0.17,0.87-0.5,1.2c-0.3,0.33-0.68,0.5-1.15,0.5s-0.85-0.17-1.15-0.5
					c-0.33-0.33-0.5-0.73-0.5-1.2c0-0.47,0.17-0.87,0.5-1.2c0.3-0.33,0.68-0.5,1.15-0.5S7.53,7.75,7.83,8.08z"/>
			</g>
		</g>
		<g>
			<g>
				<path fill-rule="evenodd" clip-rule="evenodd" fill="#43B649" fill-opacity="0" d="M5.53,11.88c0.3-0.33,0.68-0.5,1.15-0.5
					s0.85,0.17,1.15,0.5c0.33,0.33,0.5,0.73,0.5,1.2s-0.17,0.87-0.5,1.2c-0.3,0.33-0.68,0.5-1.15,0.5s-0.85-0.17-1.15-0.5
					c-0.33-0.33-0.5-0.73-0.5-1.2S5.2,12.22,5.53,11.88z M7.48,12.48c0.37-0.27,0.32-0.5-0.15-0.7c-0.27,0.13-0.28,0.33-0.05,0.6
					C7.35,12.48,7.42,12.52,7.48,12.48z"/>
				<path fill-rule="evenodd" clip-rule="evenodd" fill="#FFFFFF" d="M7.48,12.48c-0.07,0.03-0.13,0-0.2-0.1
					c-0.23-0.27-0.22-0.47,0.05-0.6C7.8,11.98,7.85,12.22,7.48,12.48z"/>
				
					<path fill-rule="evenodd" clip-rule="evenodd" fill="none" stroke="#FFFFFF" stroke-linecap="round" stroke-linejoin="round" stroke-miterlimit="3" stroke-opacity="0.8" d="
					M5.53,11.88c0.3-0.33,0.68-0.5,1.15-0.5s0.85,0.17,1.15,0.5c0.33,0.33,0.5,0.73,0.5,1.2s-0.17,0.87-0.5,1.2
					c-0.3,0.33-0.68,0.5-1.15,0.5s-0.85-0.17-1.15-0.5c-0.33-0.33-0.5-0.73-0.5-1.2S5.2,12.22,5.53,11.88z"/>
			</g>
		</g>
		<g>
			<g>
				<path fill-rule="evenodd" clip-rule="evenodd" fill="#43B649" fill-opacity="0" d="M2.53,27.98c-0.33-0.33-0.5-0.73-0.5-1.2
					c0-0.47,0.17-0.87,0.5-1.2c0.3-0.33,0.68-0.5,1.15-0.5s0.85,0.17,1.15,0.5c0.33,0.33,0.5,0.73,0.5,1.2c0,0.47-0.17,0.87-0.5,1.2
					c-0.3,0.33-0.68,0.5-1.15,0.5S2.83,28.32,2.53,27.98z M4.28,26.08c0.07,0.1,0.13,0.13,0.2,0.1c0.37-0.27,0.32-0.5-0.15-0.7
					C4.07,25.62,4.05,25.82,4.28,26.08z"/>
				<path fill-rule="evenodd" clip-rule="evenodd" fill="#FFFFFF" d="M4.28,26.08c-0.23-0.27-0.22-0.47,0.05-0.6
					c0.47,0.2,0.52,0.43,0.15,0.7C4.42,26.22,4.35,26.18,4.28,26.08z"/>
				
					<path fill-rule="evenodd" clip-rule="evenodd" fill="none" stroke="#FFFFFF" stroke-linecap="round" stroke-linejoin="round" stroke-miterlimit="3" stroke-opacity="0.8" d="
					M2.53,27.98c-0.33-0.33-0.5-0.73-0.5-1.2c0-0.47,0.17-0.87,0.5-1.2c0.3-0.33,0.68-0.5,1.15-0.5s0.85,0.17,1.15,0.5
					c0.33,0.33,0.5,0.73,0.5,1.2c0,0.47-0.17,0.87-0.5,1.2c-0.3,0.33-0.68,0.5-1.15,0.5S2.83,28.32,2.53,27.98z"/>
			</g>
		</g>
		<g>
			<g>
				<path fill-rule="evenodd" clip-rule="evenodd" fill="#43B649" fill-opacity="0" d="M24.13,38.88c0.33,0.33,0.5,0.73,0.5,1.2
					s-0.17,0.87-0.5,1.2c-0.3,0.33-0.68,0.5-1.15,0.5s-0.85-0.17-1.15-0.5c-0.33-0.33-0.5-0.73-0.5-1.2s0.17-0.87,0.5-1.2
					c0.3-0.33,0.68-0.5,1.15-0.5S23.83,38.55,24.13,38.88z M23.78,39.48c0.37-0.27,0.32-0.5-0.15-0.7c-0.27,0.13-0.28,0.33-0.05,0.6
					C23.65,39.48,23.72,39.52,23.78,39.48z"/>
				<path fill-rule="evenodd" clip-rule="evenodd" fill="#FFFFFF" d="M23.78,39.48c-0.07,0.03-0.13,0-0.2-0.1
					c-0.23-0.27-0.22-0.47,0.05-0.6C24.1,38.98,24.15,39.22,23.78,39.48z"/>
				
					<path fill-rule="evenodd" clip-rule="evenodd" fill="none" stroke="#FFFFFF" stroke-linecap="round" stroke-linejoin="round" stroke-miterlimit="3" stroke-opacity="0.8" d="
					M24.13,38.88c0.33,0.33,0.5,0.73,0.5,1.2s-0.17,0.87-0.5,1.2c-0.3,0.33-0.68,0.5-1.15,0.5s-0.85-0.17-1.15-0.5
					c-0.33-0.33-0.5-0.73-0.5-1.2s0.17-0.87,0.5-1.2c0.3-0.33,0.68-0.5,1.15-0.5S23.83,38.55,24.13,38.88z"/>
			</g>
		</g>
		<g>
			<g>
				<path fill-rule="evenodd" clip-rule="evenodd" fill="#43B649" fill-opacity="0" d="M23.53,13.88c0.47,0,0.85,0.17,1.15,0.5
					c0.33,0.33,0.5,0.73,0.5,1.2s-0.17,0.87-0.5,1.2c-0.3,0.33-0.68,0.5-1.15,0.5c-0.47,0-0.85-0.17-1.15-0.5
					c-0.33-0.33-0.5-0.73-0.5-1.2s0.17-0.87,0.5-1.2C22.68,14.05,23.07,13.88,23.53,13.88z M24.13,14.88c0.07,0.1,0.13,0.13,0.2,0.1
					c0.37-0.27,0.32-0.5-0.15-0.7C23.92,14.42,23.9,14.62,24.13,14.88z"/>
				<path fill-rule="evenodd" clip-rule="evenodd" fill="#FFFFFF" d="M24.13,14.88c-0.23-0.27-0.22-0.47,0.05-0.6
					c0.47,0.2,0.52,0.43,0.15,0.7C24.27,15.02,24.2,14.98,24.13,14.88z"/>
				
					<path fill-rule="evenodd" clip-rule="evenodd" fill="none" stroke="#FFFFFF" stroke-linecap="round" stroke-linejoin="round" stroke-miterlimit="3" stroke-opacity="0.8" d="
					M23.53,13.88c0.47,0,0.85,0.17,1.15,0.5c0.33,0.33,0.5,0.73,0.5,1.2s-0.17,0.87-0.5,1.2c-0.3,0.33-0.68,0.5-1.15,0.5
					c-0.47,0-0.85-0.17-1.15-0.5c-0.33-0.33-0.5-0.73-0.5-1.2s0.17-0.87,0.5-1.2C22.68,14.05,23.07,13.88,23.53,13.88z"/>
			</g>
		</g>
		<g>
			<g>
				<path fill-rule="evenodd" clip-rule="evenodd" fill="#43B649" fill-opacity="0" d="M27.73,15.38c0.47,0,0.85,0.17,1.15,0.5
					c0.33,0.33,0.5,0.73,0.5,1.2s-0.17,0.87-0.5,1.2c-0.3,0.33-0.68,0.5-1.15,0.5s-0.85-0.17-1.15-0.5c-0.33-0.33-0.5-0.73-0.5-1.2
					s0.17-0.87,0.5-1.2C26.88,15.55,27.27,15.38,27.73,15.38z M28.33,16.38c0.07,0.1,0.13,0.13,0.2,0.1c0.37-0.27,0.32-0.5-0.15-0.7
					C28.12,15.92,28.1,16.12,28.33,16.38z"/>
				<path fill-rule="evenodd" clip-rule="evenodd" fill="#FFFFFF" d="M28.33,16.38c-0.23-0.27-0.22-0.47,0.05-0.6
					c0.47,0.2,0.52,0.43,0.15,0.7C28.47,16.52,28.4,16.48,28.33,16.38z"/>
				
					<path fill-rule="evenodd" clip-rule="evenodd" fill="none" stroke="#FFFFFF" stroke-linecap="round" stroke-linejoin="round" stroke-miterlimit="3" stroke-opacity="0.8" d="
					M27.73,15.38c0.47,0,0.85,0.17,1.15,0.5c0.33,0.33,0.5,0.73,0.5,1.2s-0.17,0.87-0.5,1.2c-0.3,0.33-0.68,0.5-1.15,0.5
					s-0.85-0.17-1.15-0.5c-0.33-0.33-0.5-0.73-0.5-1.2s0.17-0.87,0.5-1.2C26.88,15.55,27.27,15.38,27.73,15.38z"/>
			</g>
		</g>
		<g>
			<g>
				<path fill-rule="evenodd" clip-rule="evenodd" fill="#43B649" fill-opacity="0" d="M10.13,24.33c0,0.47-0.17,0.87-0.5,1.2
					c-0.3,0.33-0.68,0.5-1.15,0.5s-0.85-0.17-1.15-0.5c-0.33-0.33-0.5-0.73-0.5-1.2s0.17-0.87,0.5-1.2c0.3-0.33,0.68-0.5,1.15-0.5
					s0.85,0.17,1.15,0.5C9.97,23.47,10.13,23.87,10.13,24.33z M9.08,23.63c0.07,0.1,0.13,0.13,0.2,0.1c0.37-0.27,0.32-0.5-0.15-0.7
					C8.87,23.17,8.85,23.37,9.08,23.63z"/>
				<path fill-rule="evenodd" clip-rule="evenodd" fill="#FFFFFF" d="M9.08,23.63c-0.23-0.27-0.22-0.47,0.05-0.6
					c0.47,0.2,0.52,0.43,0.15,0.7C9.22,23.77,9.15,23.73,9.08,23.63z"/>
				
					<path fill-rule="evenodd" clip-rule="evenodd" fill="none" stroke="#FFFFFF" stroke-linecap="round" stroke-linejoin="round" stroke-miterlimit="3" stroke-opacity="0.8" d="
					M10.13,24.33c0,0.47-0.17,0.87-0.5,1.2c-0.3,0.33-0.68,0.5-1.15,0.5s-0.85-0.17-1.15-0.5c-0.33-0.33-0.5-0.73-0.5-1.2
					s0.17-0.87,0.5-1.2c0.3-0.33,0.68-0.5,1.15-0.5s0.85,0.17,1.15,0.5C9.97,23.47,10.13,23.87,10.13,24.33z"/>
			</g>
		</g>
		<g>
			<g>
				<path fill-rule="evenodd" clip-rule="evenodd" fill="#43B649" fill-opacity="0" d="M8.83,27.98c-0.33-0.33-0.5-0.73-0.5-1.2
					c0-0.47,0.17-0.87,0.5-1.2c0.3-0.33,0.68-0.5,1.15-0.5s0.85,0.17,1.15,0.5c0.33,0.33,0.5,0.73,0.5,1.2c0,0.47-0.17,0.87-0.5,1.2
					c-0.3,0.33-0.68,0.5-1.15,0.5S9.13,28.32,8.83,27.98z M10.58,26.08c0.07,0.1,0.13,0.13,0.2,0.1c0.37-0.27,0.32-0.5-0.15-0.7
					C10.37,25.62,10.35,25.82,10.58,26.08z"/>
				<path fill-rule="evenodd" clip-rule="evenodd" fill="#FFFFFF" d="M10.58,26.08c-0.23-0.27-0.22-0.47,0.05-0.6
					c0.47,0.2,0.52,0.43,0.15,0.7C10.72,26.22,10.65,26.18,10.58,26.08z"/>
				
					<path fill-rule="evenodd" clip-rule="evenodd" fill="none" stroke="#FFFFFF" stroke-linecap="round" stroke-linejoin="round" stroke-miterlimit="3" stroke-opacity="0.8" d="
					M8.83,27.98c-0.33-0.33-0.5-0.73-0.5-1.2c0-0.47,0.17-0.87,0.5-1.2c0.3-0.33,0.68-0.5,1.15-0.5s0.85,0.17,1.15,0.5
					c0.33,0.33,0.5,0.73,0.5,1.2c0,0.47-0.17,0.87-0.5,1.2c-0.3,0.33-0.68,0.5-1.15,0.5S9.13,28.32,8.83,27.98z"/>
			</g>
		</g>
		<g>
			<g>
				<path fill-rule="evenodd" clip-rule="evenodd" fill="#43B649" fill-opacity="0" d="M84.68,52.68c0.47,0,0.85,0.17,1.15,0.5
					c0.33,0.33,0.5,0.73,0.5,1.2s-0.17,0.87-0.5,1.2c-0.3,0.33-0.68,0.5-1.15,0.5c-0.47,0-0.85-0.17-1.15-0.5
					c-0.33-0.33-0.5-0.73-0.5-1.2s0.17-0.87,0.5-1.2C83.83,52.85,84.22,52.68,84.68,52.68z M84.08,53.68
					c0.23-0.27,0.22-0.47-0.05-0.6c-0.47,0.2-0.52,0.43-0.15,0.7C83.95,53.82,84.02,53.78,84.08,53.68z"/>
				<path fill-rule="evenodd" clip-rule="evenodd" fill="#FFFFFF" d="M84.08,53.68c-0.07,0.1-0.13,0.13-0.2,0.1
					c-0.37-0.27-0.32-0.5,0.15-0.7C84.3,53.22,84.32,53.42,84.08,53.68z"/>
				
					<path fill-rule="evenodd" clip-rule="evenodd" fill="none" stroke="#FFFFFF" stroke-linecap="round" stroke-linejoin="round" stroke-miterlimit="3" stroke-opacity="0.8" d="
					M84.68,52.68c-0.47,0-0.85,0.17-1.15,0.5c-0.33,0.33-0.5,0.73-0.5,1.2s0.17,0.87,0.5,1.2c0.3,0.33,0.68,0.5,1.15,0.5
					c0.47,0,0.85-0.17,1.15-0.5c0.33-0.33,0.5-0.73,0.5-1.2s-0.17-0.87-0.5-1.2C85.53,52.85,85.15,52.68,84.68,52.68z"/>
			</g>
		</g>
		<g>
			<g>
				<path fill-rule="evenodd" clip-rule="evenodd" fill="#FFFFFF" d="M82.28,47.93c0.27,0.13,0.28,0.33,0.05,0.6
					c-0.07,0.1-0.13,0.13-0.2,0.1C81.77,48.37,81.82,48.13,82.28,47.93z"/>
				<path fill-rule="evenodd" clip-rule="evenodd" fill="#43B649" fill-opacity="0" d="M84.08,50.43c-0.3,0.33-0.68,0.5-1.15,0.5
					c-0.47,0-0.85-0.17-1.15-0.5c-0.33-0.33-0.5-0.73-0.5-1.2c0-0.47,0.17-0.87,0.5-1.2c0.3-0.33,0.68-0.5,1.15-0.5
					c0.47,0,0.85,0.17,1.15,0.5c0.33,0.33,0.5,0.73,0.5,1.2C84.58,49.7,84.42,50.1,84.08,50.43z M82.28,47.93
					c-0.47,0.2-0.52,0.43-0.15,0.7c0.07,0.03,0.13,0,0.2-0.1C82.57,48.27,82.55,48.07,82.28,47.93z"/>
				
					<path fill-rule="evenodd" clip-rule="evenodd" fill="none" stroke="#FFFFFF" stroke-linecap="round" stroke-linejoin="round" stroke-miterlimit="3" stroke-opacity="0.8" d="
					M84.08,50.43c0.33-0.33,0.5-0.73,0.5-1.2c0-0.47-0.17-0.87-0.5-1.2c-0.3-0.33-0.68-0.5-1.15-0.5c-0.47,0-0.85,0.17-1.15,0.5
					c-0.33,0.33-0.5,0.73-0.5,1.2c0,0.47,0.17,0.87,0.5,1.2c0.3,0.33,0.68,0.5,1.15,0.5C83.4,50.93,83.78,50.77,84.08,50.43z"/>
			</g>
		</g>
		<g>
			<g>
				<path fill-rule="evenodd" clip-rule="evenodd" fill="#43B649" fill-opacity="0" d="M83.18,51.98c0.33,0.33,0.5,0.73,0.5,1.2
					c0,0.47-0.17,0.87-0.5,1.2c-0.3,0.33-0.68,0.5-1.15,0.5s-0.85-0.17-1.15-0.5c-0.33-0.33-0.5-0.73-0.5-1.2
					c0-0.47,0.17-0.87,0.5-1.2c0.3-0.33,0.68-0.5,1.15-0.5S82.88,51.65,83.18,51.98z M81.43,52.48c0.23-0.27,0.22-0.47-0.05-0.6
					c-0.47,0.2-0.52,0.43-0.15,0.7C81.3,52.62,81.37,52.58,81.43,52.48z"/>
				<path fill-rule="evenodd" clip-rule="evenodd" fill="#FFFFFF" d="M81.43,52.48c-0.07,0.1-0.13,0.13-0.2,0.1
					c-0.37-0.27-0.32-0.5,0.15-0.7C81.65,52.02,81.67,52.22,81.43,52.48z"/>
				
					<path fill-rule="evenodd" clip-rule="evenodd" fill="none" stroke="#FFFFFF" stroke-linecap="round" stroke-linejoin="round" stroke-miterlimit="3" stroke-opacity="0.8" d="
					M83.18,51.98c-0.3-0.33-0.68-0.5-1.15-0.5s-0.85,0.17-1.15,0.5c-0.33,0.33-0.5,0.73-0.5,1.2c0,0.47,0.17,0.87,0.5,1.2
					c0.3,0.33,0.68,0.5,1.15,0.5s0.85-0.17,1.15-0.5c0.33-0.33,0.5-0.73,0.5-1.2C83.68,52.72,83.52,52.32,83.18,51.98z"/>
			</g>
		</g>
		<g>
			<g>
				<path fill-rule="evenodd" clip-rule="evenodd" fill="#43B649" fill-opacity="0" d="M80.38,57.98c0-0.47,0.17-0.87,0.5-1.2
					c0.3-0.33,0.68-0.5,1.15-0.5s0.85,0.17,1.15,0.5c0.33,0.33,0.5,0.73,0.5,1.2c0,0.47-0.17,0.87-0.5,1.2
					c-0.3,0.33-0.68,0.5-1.15,0.5s-0.85-0.17-1.15-0.5C80.55,58.85,80.38,58.45,80.38,57.98z M81.43,57.28
					c0.23-0.27,0.22-0.47-0.05-0.6c-0.47,0.2-0.52,0.43-0.15,0.7C81.3,57.42,81.37,57.38,81.43,57.28z"/>
				<path fill-rule="evenodd" clip-rule="evenodd" fill="#FFFFFF" d="M81.43,57.28c-0.07,0.1-0.13,0.13-0.2,0.1
					c-0.37-0.27-0.32-0.5,0.15-0.7C81.65,56.82,81.67,57.02,81.43,57.28z"/>
				
					<path fill-rule="evenodd" clip-rule="evenodd" fill="none" stroke="#FFFFFF" stroke-linecap="round" stroke-linejoin="round" stroke-miterlimit="3" stroke-opacity="0.8" d="
					M80.38,57.98c0,0.47,0.17,0.87,0.5,1.2c0.3,0.33,0.68,0.5,1.15,0.5s0.85-0.17,1.15-0.5c0.33-0.33,0.5-0.73,0.5-1.2
					c0-0.47-0.17-0.87-0.5-1.2c-0.3-0.33-0.68-0.5-1.15-0.5s-0.85,0.17-1.15,0.5C80.55,57.12,80.38,57.52,80.38,57.98z"/>
			</g>
		</g>
		<g>
			<g>
				<path fill-rule="evenodd" clip-rule="evenodd" fill="#43B649" fill-opacity="0" d="M78.18,59.43c0.3-0.33,0.68-0.5,1.15-0.5
					s0.85,0.17,1.15,0.5c0.33,0.33,0.5,0.73,0.5,1.2s-0.17,0.87-0.5,1.2c-0.3,0.33-0.68,0.5-1.15,0.5s-0.85-0.17-1.15-0.5
					c-0.33-0.33-0.5-0.73-0.5-1.2S77.85,59.77,78.18,59.43z M78.73,59.93c0.23-0.27,0.22-0.47-0.05-0.6
					c-0.47,0.2-0.52,0.43-0.15,0.7C78.6,60.07,78.67,60.03,78.73,59.93z"/>
				<path fill-rule="evenodd" clip-rule="evenodd" fill="#FFFFFF" d="M78.73,59.93c-0.07,0.1-0.13,0.13-0.2,0.1
					c-0.37-0.27-0.32-0.5,0.15-0.7C78.95,59.47,78.97,59.67,78.73,59.93z"/>
				
					<path fill-rule="evenodd" clip-rule="evenodd" fill="none" stroke="#FFFFFF" stroke-linecap="round" stroke-linejoin="round" stroke-miterlimit="3" stroke-opacity="0.8" d="
					M78.18,59.43c-0.33,0.33-0.5,0.73-0.5,1.2s0.17,0.87,0.5,1.2c0.3,0.33,0.68,0.5,1.15,0.5s0.85-0.17,1.15-0.5
					c0.33-0.33,0.5-0.73,0.5-1.2s-0.17-0.87-0.5-1.2c-0.3-0.33-0.68-0.5-1.15-0.5S78.48,59.1,78.18,59.43z"/>
			</g>
		</g>
		<g>
			<g>
				<path fill-rule="evenodd" clip-rule="evenodd" fill="#43B649" fill-opacity="0" d="M72.28,59.43c0.3-0.33,0.68-0.5,1.15-0.5
					c0.47,0,0.85,0.17,1.15,0.5c0.33,0.33,0.5,0.73,0.5,1.2s-0.17,0.87-0.5,1.2c-0.3,0.33-0.68,0.5-1.15,0.5
					c-0.47,0-0.85-0.17-1.15-0.5c-0.33-0.33-0.5-0.73-0.5-1.2S71.95,59.77,72.28,59.43z M72.83,59.93c0.23-0.27,0.22-0.47-0.05-0.6
					c-0.47,0.2-0.52,0.43-0.15,0.7C72.7,60.07,72.77,60.03,72.83,59.93z"/>
				<path fill-rule="evenodd" clip-rule="evenodd" fill="#FFFFFF" d="M72.83,59.93c-0.07,0.1-0.13,0.13-0.2,0.1
					c-0.37-0.27-0.32-0.5,0.15-0.7C73.05,59.47,73.07,59.67,72.83,59.93z"/>
				
					<path fill-rule="evenodd" clip-rule="evenodd" fill="none" stroke="#FFFFFF" stroke-linecap="round" stroke-linejoin="round" stroke-miterlimit="3" stroke-opacity="0.8" d="
					M72.28,59.43c-0.33,0.33-0.5,0.73-0.5,1.2s0.17,0.87,0.5,1.2c0.3,0.33,0.68,0.5,1.15,0.5c0.47,0,0.85-0.17,1.15-0.5
					c0.33-0.33,0.5-0.73,0.5-1.2s-0.17-0.87-0.5-1.2c-0.3-0.33-0.68-0.5-1.15-0.5C72.97,58.93,72.58,59.1,72.28,59.43z"/>
			</g>
		</g>
		<g>
			<g>
				<path fill-rule="evenodd" clip-rule="evenodd" fill="#43B649" fill-opacity="0" d="M61.88,64.63c0.47,0,0.85,0.17,1.15,0.5
					c0.33,0.33,0.5,0.73,0.5,1.2s-0.17,0.87-0.5,1.2c-0.3,0.33-0.68,0.5-1.15,0.5s-0.85-0.17-1.15-0.5c-0.33-0.33-0.5-0.73-0.5-1.2
					s0.17-0.87,0.5-1.2C61.03,64.8,61.42,64.63,61.88,64.63z M61.23,65.03c-0.47,0.2-0.52,0.43-0.15,0.7c0.07,0.03,0.13,0,0.2-0.1
					C61.52,65.37,61.5,65.17,61.23,65.03z"/>
				<path fill-rule="evenodd" clip-rule="evenodd" fill="#FFFFFF" d="M61.23,65.03c0.27,0.13,0.28,0.33,0.05,0.6
					c-0.07,0.1-0.13,0.13-0.2,0.1C60.72,65.47,60.77,65.23,61.23,65.03z"/>
				
					<path fill-rule="evenodd" clip-rule="evenodd" fill="none" stroke="#FFFFFF" stroke-linecap="round" stroke-linejoin="round" stroke-miterlimit="3" stroke-opacity="0.8" d="
					M61.88,64.63c-0.47,0-0.85,0.17-1.15,0.5c-0.33,0.33-0.5,0.73-0.5,1.2s0.17,0.87,0.5,1.2c0.3,0.33,0.68,0.5,1.15,0.5
					s0.85-0.17,1.15-0.5c0.33-0.33,0.5-0.73,0.5-1.2s-0.17-0.87-0.5-1.2C62.73,64.8,62.35,64.63,61.88,64.63z"/>
			</g>
		</g>
		<g>
			<g>
				<path fill-rule="evenodd" clip-rule="evenodd" fill="#43B649" fill-opacity="0" d="M60.23,62.13c0-0.47,0.17-0.87,0.5-1.2
					c0.3-0.33,0.68-0.5,1.15-0.5s0.85,0.17,1.15,0.5c0.33,0.33,0.5,0.73,0.5,1.2s-0.17,0.87-0.5,1.2c-0.3,0.33-0.68,0.5-1.15,0.5
					s-0.85-0.17-1.15-0.5C60.4,63,60.23,62.6,60.23,62.13z M61.28,61.43c0.23-0.27,0.22-0.47-0.05-0.6c-0.47,0.2-0.52,0.43-0.15,0.7
					C61.15,61.57,61.22,61.53,61.28,61.43z"/>
				<path fill-rule="evenodd" clip-rule="evenodd" fill="#FFFFFF" d="M61.28,61.43c-0.07,0.1-0.13,0.13-0.2,0.1
					c-0.37-0.27-0.32-0.5,0.15-0.7C61.5,60.97,61.52,61.17,61.28,61.43z"/>
				
					<path fill-rule="evenodd" clip-rule="evenodd" fill="none" stroke="#FFFFFF" stroke-linecap="round" stroke-linejoin="round" stroke-miterlimit="3" stroke-opacity="0.8" d="
					M60.23,62.13c0,0.47,0.17,0.87,0.5,1.2c0.3,0.33,0.68,0.5,1.15,0.5s0.85-0.17,1.15-0.5c0.33-0.33,0.5-0.73,0.5-1.2
					s-0.17-0.87-0.5-1.2c-0.3-0.33-0.68-0.5-1.15-0.5s-0.85,0.17-1.15,0.5C60.4,61.27,60.23,61.67,60.23,62.13z"/>
			</g>
		</g>
		<g>
			<g>
				<path fill-rule="evenodd" clip-rule="evenodd" fill="#43B649" fill-opacity="0" d="M53.58,57.13c0.3-0.33,0.68-0.5,1.15-0.5
					c0.47,0,0.85,0.17,1.15,0.5c0.33,0.33,0.5,0.73,0.5,1.2s-0.17,0.87-0.5,1.2c-0.3,0.33-0.68,0.5-1.15,0.5
					c-0.47,0-0.85-0.17-1.15-0.5c-0.33-0.33-0.5-0.73-0.5-1.2S53.25,57.47,53.58,57.13z M53.93,57.73c0.07,0.03,0.13,0,0.2-0.1
					c0.23-0.27,0.22-0.47-0.05-0.6C53.62,57.23,53.57,57.47,53.93,57.73z"/>
				<path fill-rule="evenodd" clip-rule="evenodd" fill="#FFFFFF" d="M53.93,57.73c-0.37-0.27-0.32-0.5,0.15-0.7
					c0.27,0.13,0.28,0.33,0.05,0.6C54.07,57.73,54,57.77,53.93,57.73z"/>
				
					<path fill-rule="evenodd" clip-rule="evenodd" fill="none" stroke="#FFFFFF" stroke-linecap="round" stroke-linejoin="round" stroke-miterlimit="3" stroke-opacity="0.8" d="
					M53.58,57.13c-0.33,0.33-0.5,0.73-0.5,1.2s0.17,0.87,0.5,1.2c0.3,0.33,0.68,0.5,1.15,0.5c0.47,0,0.85-0.17,1.15-0.5
					c0.33-0.33,0.5-0.73,0.5-1.2s-0.17-0.87-0.5-1.2c-0.3-0.33-0.68-0.5-1.15-0.5C54.27,56.63,53.88,56.8,53.58,57.13z"/>
			</g>
		</g>
		<g>
			<g>
				<path fill-rule="evenodd" clip-rule="evenodd" fill="#43B649" fill-opacity="0" d="M54.73,51.33c0.47,0,0.85,0.17,1.15,0.5
					c0.33,0.33,0.5,0.73,0.5,1.2s-0.17,0.87-0.5,1.2c-0.3,0.33-0.68,0.5-1.15,0.5c-0.47,0-0.85-0.17-1.15-0.5
					c-0.33-0.33-0.5-0.73-0.5-1.2s0.17-0.87,0.5-1.2C53.88,51.5,54.27,51.33,54.73,51.33z M54.13,52.33
					c0.23-0.27,0.22-0.47-0.05-0.6c-0.47,0.2-0.52,0.43-0.15,0.7C54,52.47,54.07,52.43,54.13,52.33z"/>
				<path fill-rule="evenodd" clip-rule="evenodd" fill="#FFFFFF" d="M54.13,52.33c-0.07,0.1-0.13,0.13-0.2,0.1
					c-0.37-0.27-0.32-0.5,0.15-0.7C54.35,51.87,54.37,52.07,54.13,52.33z"/>
				
					<path fill-rule="evenodd" clip-rule="evenodd" fill="none" stroke="#FFFFFF" stroke-linecap="round" stroke-linejoin="round" stroke-miterlimit="3" stroke-opacity="0.8" d="
					M54.73,51.33c-0.47,0-0.85,0.17-1.15,0.5c-0.33,0.33-0.5,0.73-0.5,1.2s0.17,0.87,0.5,1.2c0.3,0.33,0.68,0.5,1.15,0.5
					c0.47,0,0.85-0.17,1.15-0.5c0.33-0.33,0.5-0.73,0.5-1.2s-0.17-0.87-0.5-1.2C55.58,51.5,55.2,51.33,54.73,51.33z"/>
			</g>
		</g>
		<g>
			<g>
				<path fill-rule="evenodd" clip-rule="evenodd" fill="#FFFFFF" d="M49.53,54.23c-0.07,0.1-0.13,0.13-0.2,0.1
					c-0.37-0.27-0.32-0.5,0.15-0.7C49.75,53.77,49.77,53.97,49.53,54.23z"/>
				<path fill-rule="evenodd" clip-rule="evenodd" fill="#43B649" fill-opacity="0" d="M51.28,53.73c0.33,0.33,0.5,0.73,0.5,1.2
					c0,0.47-0.17,0.87-0.5,1.2c-0.3,0.33-0.68,0.5-1.15,0.5s-0.85-0.17-1.15-0.5c-0.33-0.33-0.5-0.73-0.5-1.2
					c0-0.47,0.17-0.87,0.5-1.2c0.3-0.33,0.68-0.5,1.15-0.5S50.98,53.4,51.28,53.73z M49.53,54.23c0.23-0.27,0.22-0.47-0.05-0.6
					c-0.47,0.2-0.52,0.43-0.15,0.7C49.4,54.37,49.47,54.33,49.53,54.23z"/>
				
					<path fill-rule="evenodd" clip-rule="evenodd" fill="none" stroke="#FFFFFF" stroke-linecap="round" stroke-linejoin="round" stroke-miterlimit="3" stroke-opacity="0.8" d="
					M51.28,53.73c-0.3-0.33-0.68-0.5-1.15-0.5s-0.85,0.17-1.15,0.5c-0.33,0.33-0.5,0.73-0.5,1.2c0,0.47,0.17,0.87,0.5,1.2
					c0.3,0.33,0.68,0.5,1.15,0.5s0.85-0.17,1.15-0.5c0.33-0.33,0.5-0.73,0.5-1.2C51.78,54.47,51.62,54.07,51.28,53.73z"/>
			</g>
		</g>
		<g>
			<g>
				<path fill-rule="evenodd" clip-rule="evenodd" fill="#43B649" fill-opacity="0" d="M52.83,43.83c0.3-0.33,0.68-0.5,1.15-0.5
					c0.47,0,0.85,0.17,1.15,0.5c0.33,0.33,0.5,0.73,0.5,1.2s-0.17,0.87-0.5,1.2c-0.3,0.33-0.68,0.5-1.15,0.5
					c-0.47,0-0.85-0.17-1.15-0.5c-0.33-0.33-0.5-0.73-0.5-1.2S52.5,44.17,52.83,43.83z M53.38,44.33c0.23-0.27,0.22-0.47-0.05-0.6
					c-0.47,0.2-0.52,0.43-0.15,0.7C53.25,44.47,53.32,44.43,53.38,44.33z"/>
				<path fill-rule="evenodd" clip-rule="evenodd" fill="#FFFFFF" d="M53.38,44.33c-0.07,0.1-0.13,0.13-0.2,0.1
					c-0.37-0.27-0.32-0.5,0.15-0.7C53.6,43.87,53.62,44.07,53.38,44.33z"/>
				
					<path fill-rule="evenodd" clip-rule="evenodd" fill="none" stroke="#FFFFFF" stroke-linecap="round" stroke-linejoin="round" stroke-miterlimit="3" stroke-opacity="0.8" d="
					M52.83,43.83c-0.33,0.33-0.5,0.73-0.5,1.2s0.17,0.87,0.5,1.2c0.3,0.33,0.68,0.5,1.15,0.5c0.47,0,0.85-0.17,1.15-0.5
					c0.33-0.33,0.5-0.73,0.5-1.2s-0.17-0.87-0.5-1.2c-0.3-0.33-0.68-0.5-1.15-0.5C53.52,43.33,53.13,43.5,52.83,43.83z"/>
			</g>
		</g>
		<g>
			<g>
				<path fill-rule="evenodd" clip-rule="evenodd" fill="#43B649" fill-opacity="0" d="M52.83,39.48c0.3-0.33,0.68-0.5,1.15-0.5
					c0.47,0,0.85,0.17,1.15,0.5c0.33,0.33,0.5,0.73,0.5,1.2c0,0.47-0.17,0.87-0.5,1.2c-0.3,0.33-0.68,0.5-1.15,0.5
					c-0.47,0-0.85-0.17-1.15-0.5c-0.33-0.33-0.5-0.73-0.5-1.2C52.33,40.22,52.5,39.82,52.83,39.48z M53.18,40.08
					c0.07,0.03,0.13,0,0.2-0.1c0.23-0.27,0.22-0.47-0.05-0.6C52.87,39.58,52.82,39.82,53.18,40.08z"/>
				<path fill-rule="evenodd" clip-rule="evenodd" fill="#FFFFFF" d="M53.18,40.08c-0.37-0.27-0.32-0.5,0.15-0.7
					c0.27,0.13,0.28,0.33,0.05,0.6C53.32,40.08,53.25,40.12,53.18,40.08z"/>
				
					<path fill-rule="evenodd" clip-rule="evenodd" fill="none" stroke="#FFFFFF" stroke-linecap="round" stroke-linejoin="round" stroke-miterlimit="3" stroke-opacity="0.8" d="
					M52.83,39.48c-0.33,0.33-0.5,0.73-0.5,1.2c0,0.47,0.17,0.87,0.5,1.2c0.3,0.33,0.68,0.5,1.15,0.5c0.47,0,0.85-0.17,1.15-0.5
					c0.33-0.33,0.5-0.73,0.5-1.2c0-0.47-0.17-0.87-0.5-1.2c-0.3-0.33-0.68-0.5-1.15-0.5C53.52,38.98,53.13,39.15,52.83,39.48z"/>
			</g>
		</g>
		<g>
			<g>
				<path fill-rule="evenodd" clip-rule="evenodd" fill="#43B649" fill-opacity="0" d="M49.43,37.08c0.47,0,0.85,0.17,1.15,0.5
					c0.33,0.33,0.5,0.73,0.5,1.2s-0.17,0.87-0.5,1.2c-0.3,0.33-0.68,0.5-1.15,0.5c-0.47,0-0.85-0.17-1.15-0.5
					c-0.33-0.33-0.5-0.73-0.5-1.2s0.17-0.87,0.5-1.2C48.58,37.25,48.97,37.08,49.43,37.08z M48.83,38.08
					c0.23-0.27,0.22-0.47-0.05-0.6c-0.47,0.2-0.52,0.43-0.15,0.7C48.7,38.22,48.77,38.18,48.83,38.08z"/>
				<path fill-rule="evenodd" clip-rule="evenodd" fill="#FFFFFF" d="M48.83,38.08c-0.07,0.1-0.13,0.13-0.2,0.1
					c-0.37-0.27-0.32-0.5,0.15-0.7C49.05,37.62,49.07,37.82,48.83,38.08z"/>
				
					<path fill-rule="evenodd" clip-rule="evenodd" fill="none" stroke="#FFFFFF" stroke-linecap="round" stroke-linejoin="round" stroke-miterlimit="3" stroke-opacity="0.8" d="
					M49.43,37.08c-0.47,0-0.85,0.17-1.15,0.5c-0.33,0.33-0.5,0.73-0.5,1.2s0.17,0.87,0.5,1.2c0.3,0.33,0.68,0.5,1.15,0.5
					c0.47,0,0.85-0.17,1.15-0.5c0.33-0.33,0.5-0.73,0.5-1.2s-0.17-0.87-0.5-1.2C50.28,37.25,49.9,37.08,49.43,37.08z"/>
			</g>
		</g>
		<g>
			<g>
				<path fill-rule="evenodd" clip-rule="evenodd" fill="#43B649" fill-opacity="0" d="M49.43,42.38c0.47,0,0.85,0.17,1.15,0.5
					c0.33,0.33,0.5,0.73,0.5,1.2s-0.17,0.87-0.5,1.2c-0.3,0.33-0.68,0.5-1.15,0.5c-0.47,0-0.85-0.17-1.15-0.5
					c-0.33-0.33-0.5-0.73-0.5-1.2s0.17-0.87,0.5-1.2C48.58,42.55,48.97,42.38,49.43,42.38z M48.83,43.38
					c0.23-0.27,0.22-0.47-0.05-0.6c-0.47,0.2-0.52,0.43-0.15,0.7C48.7,43.52,48.77,43.48,48.83,43.38z"/>
				<path fill-rule="evenodd" clip-rule="evenodd" fill="#FFFFFF" d="M48.83,43.38c-0.07,0.1-0.13,0.13-0.2,0.1
					c-0.37-0.27-0.32-0.5,0.15-0.7C49.05,42.92,49.07,43.12,48.83,43.38z"/>
				
					<path fill-rule="evenodd" clip-rule="evenodd" fill="none" stroke="#FFFFFF" stroke-linecap="round" stroke-linejoin="round" stroke-miterlimit="3" stroke-opacity="0.8" d="
					M49.43,42.38c-0.47,0-0.85,0.17-1.15,0.5c-0.33,0.33-0.5,0.73-0.5,1.2s0.17,0.87,0.5,1.2c0.3,0.33,0.68,0.5,1.15,0.5
					c0.47,0,0.85-0.17,1.15-0.5c0.33-0.33,0.5-0.73,0.5-1.2s-0.17-0.87-0.5-1.2C50.28,42.55,49.9,42.38,49.43,42.38z"/>
			</g>
		</g>
		<g>
			<g>
				<path fill-rule="evenodd" clip-rule="evenodd" fill="#43B649" fill-opacity="0" d="M68.18,56.48c-0.3,0.33-0.68,0.5-1.15,0.5
					s-0.85-0.17-1.15-0.5c-0.33-0.33-0.5-0.73-0.5-1.2s0.17-0.87,0.5-1.2c0.3-0.33,0.68-0.5,1.15-0.5s0.85,0.17,1.15,0.5
					c0.33,0.33,0.5,0.73,0.5,1.2S68.52,56.15,68.18,56.48z M66.23,54.68c0.07,0.03,0.13,0,0.2-0.1c0.23-0.27,0.22-0.47-0.05-0.6
					C65.92,54.18,65.87,54.42,66.23,54.68z"/>
				<path fill-rule="evenodd" clip-rule="evenodd" fill="#FFFFFF" d="M66.23,54.68c-0.37-0.27-0.32-0.5,0.15-0.7
					c0.27,0.13,0.28,0.33,0.05,0.6C66.37,54.68,66.3,54.72,66.23,54.68z"/>
				
					<path fill-rule="evenodd" clip-rule="evenodd" fill="none" stroke="#FFFFFF" stroke-linecap="round" stroke-linejoin="round" stroke-miterlimit="3" stroke-opacity="0.8" d="
					M68.18,56.48c0.33-0.33,0.5-0.73,0.5-1.2s-0.17-0.87-0.5-1.2c-0.3-0.33-0.68-0.5-1.15-0.5s-0.85,0.17-1.15,0.5
					c-0.33,0.33-0.5,0.73-0.5,1.2s0.17,0.87,0.5,1.2c0.3,0.33,0.68,0.5,1.15,0.5S67.88,56.82,68.18,56.48z"/>
			</g>
		</g>
		<g>
			<g>
				<path fill-rule="evenodd" clip-rule="evenodd" fill="#43B649" fill-opacity="0" d="M67.13,59.03c0.3-0.33,0.68-0.5,1.15-0.5
					s0.85,0.17,1.15,0.5c0.33,0.33,0.5,0.73,0.5,1.2c0,0.47-0.17,0.87-0.5,1.2c-0.3,0.33-0.68,0.5-1.15,0.5s-0.85-0.17-1.15-0.5
					c-0.33-0.33-0.5-0.73-0.5-1.2C66.63,59.77,66.8,59.37,67.13,59.03z M67.68,59.53c0.23-0.27,0.22-0.47-0.05-0.6
					c-0.47,0.2-0.52,0.43-0.15,0.7C67.55,59.67,67.62,59.63,67.68,59.53z"/>
				<path fill-rule="evenodd" clip-rule="evenodd" fill="#FFFFFF" d="M67.68,59.53c-0.07,0.1-0.13,0.13-0.2,0.1
					c-0.37-0.27-0.32-0.5,0.15-0.7C67.9,59.07,67.92,59.27,67.68,59.53z"/>
				
					<path fill-rule="evenodd" clip-rule="evenodd" fill="none" stroke="#FFFFFF" stroke-linecap="round" stroke-linejoin="round" stroke-miterlimit="3" stroke-opacity="0.8" d="
					M67.13,59.03c-0.33,0.33-0.5,0.73-0.5,1.2c0,0.47,0.17,0.87,0.5,1.2c0.3,0.33,0.68,0.5,1.15,0.5s0.85-0.17,1.15-0.5
					c0.33-0.33,0.5-0.73,0.5-1.2c0-0.47-0.17-0.87-0.5-1.2c-0.3-0.33-0.68-0.5-1.15-0.5S67.43,58.7,67.13,59.03z"/>
			</g>
		</g>
		<g>
			<g>
				<path fill-rule="evenodd" clip-rule="evenodd" fill="#43B649" fill-opacity="0" d="M56.58,64.63c0.47,0,0.85,0.17,1.15,0.5
					c0.33,0.33,0.5,0.73,0.5,1.2s-0.17,0.87-0.5,1.2c-0.3,0.33-0.68,0.5-1.15,0.5s-0.85-0.17-1.15-0.5c-0.33-0.33-0.5-0.73-0.5-1.2
					s0.17-0.87,0.5-1.2C55.73,64.8,56.12,64.63,56.58,64.63z M55.93,65.03c-0.47,0.2-0.52,0.43-0.15,0.7c0.07,0.03,0.13,0,0.2-0.1
					C56.22,65.37,56.2,65.17,55.93,65.03z"/>
				<path fill-rule="evenodd" clip-rule="evenodd" fill="#FFFFFF" d="M55.93,65.03c0.27,0.13,0.28,0.33,0.05,0.6
					c-0.07,0.1-0.13,0.13-0.2,0.1C55.42,65.47,55.47,65.23,55.93,65.03z"/>
				
					<path fill-rule="evenodd" clip-rule="evenodd" fill="none" stroke="#FFFFFF" stroke-linecap="round" stroke-linejoin="round" stroke-miterlimit="3" stroke-opacity="0.8" d="
					M56.58,64.63c-0.47,0-0.85,0.17-1.15,0.5c-0.33,0.33-0.5,0.73-0.5,1.2s0.17,0.87,0.5,1.2c0.3,0.33,0.68,0.5,1.15,0.5
					s0.85-0.17,1.15-0.5c0.33-0.33,0.5-0.73,0.5-1.2s-0.17-0.87-0.5-1.2C57.43,64.8,57.05,64.63,56.58,64.63z"/>
			</g>
		</g>
		<g>
			<g>
				<path fill-rule="evenodd" clip-rule="evenodd" fill="#43B649" fill-opacity="0" d="M53.98,63.48c0.47,0,0.85,0.17,1.15,0.5
					c0.33,0.33,0.5,0.73,0.5,1.2c0,0.47-0.17,0.87-0.5,1.2c-0.3,0.33-0.68,0.5-1.15,0.5c-0.47,0-0.85-0.17-1.15-0.5
					c-0.33-0.33-0.5-0.73-0.5-1.2c0-0.47,0.17-0.87,0.5-1.2C53.13,63.65,53.52,63.48,53.98,63.48z M53.38,64.48
					c0.23-0.27,0.22-0.47-0.05-0.6c-0.47,0.2-0.52,0.43-0.15,0.7C53.25,64.62,53.32,64.58,53.38,64.48z"/>
				<path fill-rule="evenodd" clip-rule="evenodd" fill="#FFFFFF" d="M53.38,64.48c-0.07,0.1-0.13,0.13-0.2,0.1
					c-0.37-0.27-0.32-0.5,0.15-0.7C53.6,64.02,53.62,64.22,53.38,64.48z"/>
				
					<path fill-rule="evenodd" clip-rule="evenodd" fill="none" stroke="#FFFFFF" stroke-linecap="round" stroke-linejoin="round" stroke-miterlimit="3" stroke-opacity="0.8" d="
					M53.98,63.48c-0.47,0-0.85,0.17-1.15,0.5c-0.33,0.33-0.5,0.73-0.5,1.2c0,0.47,0.17,0.87,0.5,1.2c0.3,0.33,0.68,0.5,1.15,0.5
					c0.47,0,0.85-0.17,1.15-0.5c0.33-0.33,0.5-0.73,0.5-1.2c0-0.47-0.17-0.87-0.5-1.2C54.83,63.65,54.45,63.48,53.98,63.48z"/>
			</g>
		</g>
		<g>
			<g>
				<path fill-rule="evenodd" clip-rule="evenodd" fill="#FFFFFF" d="M49.13,66.18c-0.07,0.1-0.13,0.13-0.2,0.1
					c-0.37-0.27-0.32-0.5,0.15-0.7C49.35,65.72,49.37,65.92,49.13,66.18z"/>
				<path fill-rule="evenodd" clip-rule="evenodd" fill="#43B649" fill-opacity="0" d="M50.88,68.08c-0.3,0.33-0.68,0.5-1.15,0.5
					c-0.47,0-0.85-0.17-1.15-0.5c-0.33-0.33-0.5-0.73-0.5-1.2s0.17-0.87,0.5-1.2c0.3-0.33,0.68-0.5,1.15-0.5
					c0.47,0,0.85,0.17,1.15,0.5c0.33,0.33,0.5,0.73,0.5,1.2S51.22,67.75,50.88,68.08z M49.13,66.18c0.23-0.27,0.22-0.47-0.05-0.6
					c-0.47,0.2-0.52,0.43-0.15,0.7C49,66.32,49.07,66.28,49.13,66.18z"/>
				
					<path fill-rule="evenodd" clip-rule="evenodd" fill="none" stroke="#FFFFFF" stroke-linecap="round" stroke-linejoin="round" stroke-miterlimit="3" stroke-opacity="0.8" d="
					M50.88,68.08c0.33-0.33,0.5-0.73,0.5-1.2s-0.17-0.87-0.5-1.2c-0.3-0.33-0.68-0.5-1.15-0.5c-0.47,0-0.85,0.17-1.15,0.5
					c-0.33,0.33-0.5,0.73-0.5,1.2s0.17,0.87,0.5,1.2c0.3,0.33,0.68,0.5,1.15,0.5C50.2,68.58,50.58,68.42,50.88,68.08z"/>
			</g>
		</g>
		<g>
			<g>
				<path fill-rule="evenodd" clip-rule="evenodd" fill="#43B649" fill-opacity="0" d="M60.23,30.98c0-0.47,0.17-0.87,0.5-1.2
					c0.3-0.33,0.68-0.5,1.15-0.5s0.85,0.17,1.15,0.5c0.33,0.33,0.5,0.73,0.5,1.2s-0.17,0.87-0.5,1.2c-0.3,0.33-0.68,0.5-1.15,0.5
					s-0.85-0.17-1.15-0.5C60.4,31.85,60.23,31.45,60.23,30.98z M61.28,30.28c0.23-0.27,0.22-0.47-0.05-0.6
					c-0.47,0.2-0.52,0.43-0.15,0.7C61.15,30.42,61.22,30.38,61.28,30.28z"/>
				<path fill-rule="evenodd" clip-rule="evenodd" fill="#FFFFFF" d="M61.28,30.28c-0.07,0.1-0.13,0.13-0.2,0.1
					c-0.37-0.27-0.32-0.5,0.15-0.7C61.5,29.82,61.52,30.02,61.28,30.28z"/>
				
					<path fill-rule="evenodd" clip-rule="evenodd" fill="none" stroke="#FFFFFF" stroke-linecap="round" stroke-linejoin="round" stroke-miterlimit="3" stroke-opacity="0.8" d="
					M60.23,30.98c0,0.47,0.17,0.87,0.5,1.2c0.3,0.33,0.68,0.5,1.15,0.5s0.85-0.17,1.15-0.5c0.33-0.33,0.5-0.73,0.5-1.2
					s-0.17-0.87-0.5-1.2c-0.3-0.33-0.68-0.5-1.15-0.5s-0.85,0.17-1.15,0.5C60.4,30.12,60.23,30.52,60.23,30.98z"/>
			</g>
		</g>
		<g>
			<g>
				<path fill-rule="evenodd" clip-rule="evenodd" fill="#43B649" fill-opacity="0" d="M58.03,31.28c0.33,0.33,0.5,0.73,0.5,1.2
					s-0.17,0.87-0.5,1.2c-0.3,0.33-0.68,0.5-1.15,0.5s-0.85-0.17-1.15-0.5c-0.33-0.33-0.5-0.73-0.5-1.2s0.17-0.87,0.5-1.2
					c0.3-0.33,0.68-0.5,1.15-0.5S57.73,30.95,58.03,31.28z M56.08,31.88c0.07,0.03,0.13,0,0.2-0.1c0.23-0.27,0.22-0.47-0.05-0.6
					C55.77,31.38,55.72,31.62,56.08,31.88z"/>
				<path fill-rule="evenodd" clip-rule="evenodd" fill="#FFFFFF" d="M56.08,31.88c-0.37-0.27-0.32-0.5,0.15-0.7
					c0.27,0.13,0.28,0.33,0.05,0.6C56.22,31.88,56.15,31.92,56.08,31.88z"/>
				
					<path fill-rule="evenodd" clip-rule="evenodd" fill="none" stroke="#FFFFFF" stroke-linecap="round" stroke-linejoin="round" stroke-miterlimit="3" stroke-opacity="0.8" d="
					M58.03,31.28c-0.3-0.33-0.68-0.5-1.15-0.5s-0.85,0.17-1.15,0.5c-0.33,0.33-0.5,0.73-0.5,1.2s0.17,0.87,0.5,1.2
					c0.3,0.33,0.68,0.5,1.15,0.5s0.85-0.17,1.15-0.5c0.33-0.33,0.5-0.73,0.5-1.2S58.37,31.62,58.03,31.28z"/>
			</g>
		</g>
		<g>
			<g>
				<path fill-rule="evenodd" clip-rule="evenodd" fill="#43B649" fill-opacity="0" d="M80.13,2.63c0.47,0,0.85,0.17,1.15,0.5
					c0.33,0.33,0.5,0.73,0.5,1.2s-0.17,0.87-0.5,1.2c-0.3,0.33-0.68,0.5-1.15,0.5s-0.85-0.17-1.15-0.5c-0.33-0.33-0.5-0.73-0.5-1.2
					s0.17-0.87,0.5-1.2C79.28,2.8,79.67,2.63,80.13,2.63z M79.53,3.63c0.23-0.27,0.22-0.47-0.05-0.6c-0.47,0.2-0.52,0.43-0.15,0.7
					C79.4,3.77,79.47,3.73,79.53,3.63z"/>
				<path fill-rule="evenodd" clip-rule="evenodd" fill="#FFFFFF" d="M79.53,3.63c-0.07,0.1-0.13,0.13-0.2,0.1
					c-0.37-0.27-0.32-0.5,0.15-0.7C79.75,3.17,79.77,3.37,79.53,3.63z"/>
				
					<path fill-rule="evenodd" clip-rule="evenodd" fill="none" stroke="#FFFFFF" stroke-linecap="round" stroke-linejoin="round" stroke-miterlimit="3" stroke-opacity="0.8" d="
					M80.13,2.63c-0.47,0-0.85,0.17-1.15,0.5c-0.33,0.33-0.5,0.73-0.5,1.2s0.17,0.87,0.5,1.2c0.3,0.33,0.68,0.5,1.15,0.5
					s0.85-0.17,1.15-0.5c0.33-0.33,0.5-0.73,0.5-1.2s-0.17-0.87-0.5-1.2C80.98,2.8,80.6,2.63,80.13,2.63z"/>
			</g>
		</g>
		<g>
			<g>
				<path fill-rule="evenodd" clip-rule="evenodd" fill="#43B649" fill-opacity="0" d="M80.38,7.93c0-0.47,0.17-0.87,0.5-1.2
					c0.3-0.33,0.68-0.5,1.15-0.5s0.85,0.17,1.15,0.5c0.33,0.33,0.5,0.73,0.5,1.2s-0.17,0.87-0.5,1.2c-0.3,0.33-0.68,0.5-1.15,0.5
					s-0.85-0.17-1.15-0.5C80.55,8.8,80.38,8.4,80.38,7.93z M81.43,7.23c0.23-0.27,0.22-0.47-0.05-0.6c-0.47,0.2-0.52,0.43-0.15,0.7
					C81.3,7.37,81.37,7.33,81.43,7.23z"/>
				<path fill-rule="evenodd" clip-rule="evenodd" fill="#FFFFFF" d="M81.43,7.23c-0.07,0.1-0.13,0.13-0.2,0.1
					c-0.37-0.27-0.32-0.5,0.15-0.7C81.65,6.77,81.67,6.97,81.43,7.23z"/>
				
					<path fill-rule="evenodd" clip-rule="evenodd" fill="none" stroke="#FFFFFF" stroke-linecap="round" stroke-linejoin="round" stroke-miterlimit="3" stroke-opacity="0.8" d="
					M80.38,7.93c0,0.47,0.17,0.87,0.5,1.2c0.3,0.33,0.68,0.5,1.15,0.5s0.85-0.17,1.15-0.5c0.33-0.33,0.5-0.73,0.5-1.2
					s-0.17-0.87-0.5-1.2c-0.3-0.33-0.68-0.5-1.15-0.5s-0.85,0.17-1.15,0.5C80.55,7.07,80.38,7.47,80.38,7.93z"/>
			</g>
		</g>
		<g>
			<g>
				<path fill-rule="evenodd" clip-rule="evenodd" fill="#43B649" fill-opacity="0" d="M80.38,11.73c0-0.47,0.17-0.87,0.5-1.2
					c0.3-0.33,0.68-0.5,1.15-0.5s0.85,0.17,1.15,0.5c0.33,0.33,0.5,0.73,0.5,1.2s-0.17,0.87-0.5,1.2c-0.3,0.33-0.68,0.5-1.15,0.5
					s-0.85-0.17-1.15-0.5C80.55,12.6,80.38,12.2,80.38,11.73z M81.43,11.03c0.23-0.27,0.22-0.47-0.05-0.6
					c-0.47,0.2-0.52,0.43-0.15,0.7C81.3,11.17,81.37,11.13,81.43,11.03z"/>
				<path fill-rule="evenodd" clip-rule="evenodd" fill="#FFFFFF" d="M81.43,11.03c-0.07,0.1-0.13,0.13-0.2,0.1
					c-0.37-0.27-0.32-0.5,0.15-0.7C81.65,10.57,81.67,10.77,81.43,11.03z"/>
				
					<path fill-rule="evenodd" clip-rule="evenodd" fill="none" stroke="#FFFFFF" stroke-linecap="round" stroke-linejoin="round" stroke-miterlimit="3" stroke-opacity="0.8" d="
					M80.38,11.73c0,0.47,0.17,0.87,0.5,1.2c0.3,0.33,0.68,0.5,1.15,0.5s0.85-0.17,1.15-0.5c0.33-0.33,0.5-0.73,0.5-1.2
					s-0.17-0.87-0.5-1.2c-0.3-0.33-0.68-0.5-1.15-0.5s-0.85,0.17-1.15,0.5C80.55,10.87,80.38,11.27,80.38,11.73z"/>
			</g>
		</g>
		<g>
			<g>
				<path fill-rule="evenodd" clip-rule="evenodd" fill="#43B649" fill-opacity="0" d="M84.98,23.73c0.47,0,0.85,0.17,1.15,0.5
					c0.33,0.33,0.5,0.73,0.5,1.2s-0.17,0.87-0.5,1.2c-0.3,0.33-0.68,0.5-1.15,0.5c-0.47,0-0.85-0.17-1.15-0.5
					c-0.33-0.33-0.5-0.73-0.5-1.2s0.17-0.87,0.5-1.2C84.13,23.9,84.52,23.73,84.98,23.73z M84.38,24.73
					c0.23-0.27,0.22-0.47-0.05-0.6c-0.47,0.2-0.52,0.43-0.15,0.7C84.25,24.87,84.32,24.83,84.38,24.73z"/>
				<path fill-rule="evenodd" clip-rule="evenodd" fill="#FFFFFF" d="M84.38,24.73c-0.07,0.1-0.13,0.13-0.2,0.1
					c-0.37-0.27-0.32-0.5,0.15-0.7C84.6,24.27,84.62,24.47,84.38,24.73z"/>
				
					<path fill-rule="evenodd" clip-rule="evenodd" fill="none" stroke="#FFFFFF" stroke-linecap="round" stroke-linejoin="round" stroke-miterlimit="3" stroke-opacity="0.8" d="
					M84.98,23.73c-0.47,0-0.85,0.17-1.15,0.5c-0.33,0.33-0.5,0.73-0.5,1.2s0.17,0.87,0.5,1.2c0.3,0.33,0.68,0.5,1.15,0.5
					c0.47,0,0.85-0.17,1.15-0.5c0.33-0.33,0.5-0.73,0.5-1.2s-0.17-0.87-0.5-1.2C85.83,23.9,85.45,23.73,84.98,23.73z"/>
			</g>
		</g>
		<g>
			<g>
				<path fill-rule="evenodd" clip-rule="evenodd" fill="#43B649" fill-opacity="0" d="M64.58,37.58c0.3-0.33,0.68-0.5,1.15-0.5
					c0.47,0,0.85,0.17,1.15,0.5c0.33,0.33,0.5,0.73,0.5,1.2s-0.17,0.87-0.5,1.2c-0.3,0.33-0.68,0.5-1.15,0.5
					c-0.47,0-0.85-0.17-1.15-0.5c-0.33-0.33-0.5-0.73-0.5-1.2S64.25,37.92,64.58,37.58z M65.13,38.08c0.23-0.27,0.22-0.47-0.05-0.6
					c-0.47,0.2-0.52,0.43-0.15,0.7C65,38.22,65.07,38.18,65.13,38.08z"/>
				<path fill-rule="evenodd" clip-rule="evenodd" fill="#FFFFFF" d="M65.13,38.08c-0.07,0.1-0.13,0.13-0.2,0.1
					c-0.37-0.27-0.32-0.5,0.15-0.7C65.35,37.62,65.37,37.82,65.13,38.08z"/>
				
					<path fill-rule="evenodd" clip-rule="evenodd" fill="none" stroke="#FFFFFF" stroke-linecap="round" stroke-linejoin="round" stroke-miterlimit="3" stroke-opacity="0.8" d="
					M64.58,37.58c-0.33,0.33-0.5,0.73-0.5,1.2s0.17,0.87,0.5,1.2c0.3,0.33,0.68,0.5,1.15,0.5c0.47,0,0.85-0.17,1.15-0.5
					c0.33-0.33,0.5-0.73,0.5-1.2s-0.17-0.87-0.5-1.2c-0.3-0.33-0.68-0.5-1.15-0.5C65.27,37.08,64.88,37.25,64.58,37.58z"/>
			</g>
		</g>
		<g>
			<g>
				<path fill-rule="evenodd" clip-rule="evenodd" fill="#43B649" fill-opacity="0" d="M65.18,12.53c0.47,0,0.85,0.17,1.15,0.5
					c0.33,0.33,0.5,0.73,0.5,1.2s-0.17,0.87-0.5,1.2c-0.3,0.33-0.68,0.5-1.15,0.5c-0.47,0-0.85-0.17-1.15-0.5
					c-0.33-0.33-0.5-0.73-0.5-1.2s0.17-0.87,0.5-1.2C64.33,12.7,64.72,12.53,65.18,12.53z M64.58,13.53
					c0.23-0.27,0.22-0.47-0.05-0.6c-0.47,0.2-0.52,0.43-0.15,0.7C64.45,13.67,64.52,13.63,64.58,13.53z"/>
				<path fill-rule="evenodd" clip-rule="evenodd" fill="#FFFFFF" d="M64.58,13.53c-0.07,0.1-0.13,0.13-0.2,0.1
					c-0.37-0.27-0.32-0.5,0.15-0.7C64.8,13.07,64.82,13.27,64.58,13.53z"/>
				
					<path fill-rule="evenodd" clip-rule="evenodd" fill="none" stroke="#FFFFFF" stroke-linecap="round" stroke-linejoin="round" stroke-miterlimit="3" stroke-opacity="0.8" d="
					M65.18,12.53c-0.47,0-0.85,0.17-1.15,0.5c-0.33,0.33-0.5,0.73-0.5,1.2s0.17,0.87,0.5,1.2c0.3,0.33,0.68,0.5,1.15,0.5
					c0.47,0,0.85-0.17,1.15-0.5c0.33-0.33,0.5-0.73,0.5-1.2s-0.17-0.87-0.5-1.2C66.03,12.7,65.65,12.53,65.18,12.53z"/>
			</g>
		</g>
		<g>
			<g>
				<path fill-rule="evenodd" clip-rule="evenodd" fill="#43B649" fill-opacity="0" d="M60.93,14.03c0.47,0,0.85,0.17,1.15,0.5
					c0.33,0.33,0.5,0.73,0.5,1.2s-0.17,0.87-0.5,1.2c-0.3,0.33-0.68,0.5-1.15,0.5c-0.47,0-0.85-0.17-1.15-0.5
					c-0.33-0.33-0.5-0.73-0.5-1.2s0.17-0.87,0.5-1.2C60.08,14.2,60.47,14.03,60.93,14.03z M60.33,15.03
					c0.23-0.27,0.22-0.47-0.05-0.6c-0.47,0.2-0.52,0.43-0.15,0.7C60.2,15.17,60.27,15.13,60.33,15.03z"/>
				<path fill-rule="evenodd" clip-rule="evenodd" fill="#FFFFFF" d="M60.33,15.03c-0.07,0.1-0.13,0.13-0.2,0.1
					c-0.37-0.27-0.32-0.5,0.15-0.7C60.55,14.57,60.57,14.77,60.33,15.03z"/>
				
					<path fill-rule="evenodd" clip-rule="evenodd" fill="none" stroke="#FFFFFF" stroke-linecap="round" stroke-linejoin="round" stroke-miterlimit="3" stroke-opacity="0.8" d="
					M60.93,14.03c-0.47,0-0.85,0.17-1.15,0.5c-0.33,0.33-0.5,0.73-0.5,1.2s0.17,0.87,0.5,1.2c0.3,0.33,0.68,0.5,1.15,0.5
					c0.47,0,0.85-0.17,1.15-0.5c0.33-0.33,0.5-0.73,0.5-1.2s-0.17-0.87-0.5-1.2C61.78,14.2,61.4,14.03,60.93,14.03z"/>
			</g>
		</g>
		<g>
			<g>
				<path fill-rule="evenodd" clip-rule="evenodd" fill="#43B649" fill-opacity="0" d="M79.08,21.78c0.3-0.33,0.68-0.5,1.15-0.5
					c0.47,0,0.85,0.17,1.15,0.5c0.33,0.33,0.5,0.73,0.5,1.2s-0.17,0.87-0.5,1.2c-0.3,0.33-0.68,0.5-1.15,0.5
					c-0.47,0-0.85-0.17-1.15-0.5c-0.33-0.33-0.5-0.73-0.5-1.2S78.75,22.12,79.08,21.78z M79.58,21.68c-0.47,0.2-0.52,0.43-0.15,0.7
					c0.07,0.03,0.13,0,0.2-0.1C79.87,22.02,79.85,21.82,79.58,21.68z"/>
				<path fill-rule="evenodd" clip-rule="evenodd" fill="#FFFFFF" d="M79.58,21.68c0.27,0.13,0.28,0.33,0.05,0.6
					c-0.07,0.1-0.13,0.13-0.2,0.1C79.07,22.12,79.12,21.88,79.58,21.68z"/>
				
					<path fill-rule="evenodd" clip-rule="evenodd" fill="none" stroke="#FFFFFF" stroke-linecap="round" stroke-linejoin="round" stroke-miterlimit="3" stroke-opacity="0.8" d="
					M79.08,21.78c-0.33,0.33-0.5,0.73-0.5,1.2s0.17,0.87,0.5,1.2c0.3,0.33,0.68,0.5,1.15,0.5c0.47,0,0.85-0.17,1.15-0.5
					c0.33-0.33,0.5-0.73,0.5-1.2s-0.17-0.87-0.5-1.2c-0.3-0.33-0.68-0.5-1.15-0.5C79.77,21.28,79.38,21.45,79.08,21.78z"/>
			</g>
		</g>
		<g>
			<g>
				<path fill-rule="evenodd" clip-rule="evenodd" fill="#43B649" fill-opacity="0" d="M79.88,24.23c0.33,0.33,0.5,0.73,0.5,1.2
					s-0.17,0.87-0.5,1.2c-0.3,0.33-0.68,0.5-1.15,0.5c-0.47,0-0.85-0.17-1.15-0.5c-0.33-0.33-0.5-0.73-0.5-1.2s0.17-0.87,0.5-1.2
					c0.3-0.33,0.68-0.5,1.15-0.5C79.2,23.73,79.58,23.9,79.88,24.23z M77.93,24.83c0.07,0.03,0.13,0,0.2-0.1
					c0.23-0.27,0.22-0.47-0.05-0.6C77.62,24.33,77.57,24.57,77.93,24.83z"/>
				<path fill-rule="evenodd" clip-rule="evenodd" fill="#FFFFFF" d="M77.93,24.83c-0.37-0.27-0.32-0.5,0.15-0.7
					c0.27,0.13,0.28,0.33,0.05,0.6C78.07,24.83,78,24.87,77.93,24.83z"/>
				
					<path fill-rule="evenodd" clip-rule="evenodd" fill="none" stroke="#FFFFFF" stroke-linecap="round" stroke-linejoin="round" stroke-miterlimit="3" stroke-opacity="0.8" d="
					M79.88,24.23c-0.3-0.33-0.68-0.5-1.15-0.5c-0.47,0-0.85,0.17-1.15,0.5c-0.33,0.33-0.5,0.73-0.5,1.2s0.17,0.87,0.5,1.2
					c0.3,0.33,0.68,0.5,1.15,0.5c0.47,0,0.85-0.17,1.15-0.5c0.33-0.33,0.5-0.73,0.5-1.2S80.22,24.57,79.88,24.23z"/>
			</g>
		</g>
	</g>
</g>
<g id="Layer_3">
</g>
<g id="Layer_4">
</g>
<g id="Layer_5">
</g>
<g id="Layer_6">
</g>
</svg>
