<?xml version="1.0" encoding="utf-8"?>
<!-- Generator: Adobe Illustrator 16.0.0, SVG Export Plug-In . SVG Version: 6.00 Build 0)  -->
<!DOCTYPE svg PUBLIC "-//W3C//DTD SVG 1.1//EN" "http://www.w3.org/Graphics/SVG/1.1/DTD/svg11.dtd">
<svg version="1.1" xmlns="http://www.w3.org/2000/svg" xmlns:xlink="http://www.w3.org/1999/xlink" x="0px" y="0px" width="88.5px"
	 height="72px" viewBox="0 0 88.5 72" enable-background="new 0 0 88.5 72" xml:space="preserve">
<g id="Layer_2">
</g>
<g id="Layer_3">
</g>
<g id="Layer_4">
</g>
<g id="Layer_5">
	<g>
		<g>
			<g>
				<path fill-rule="evenodd" clip-rule="evenodd" fill="#43B649" fill-opacity="0" d="M8.63,52.33c0.47,0,0.85,0.17,1.15,0.5
					c0.33,0.33,0.5,0.73,0.5,1.2s-0.17,0.87-0.5,1.2c-0.3,0.33-0.68,0.5-1.15,0.5c-0.47,0-0.85-0.17-1.15-0.5
					c-0.33-0.33-0.5-0.73-0.5-1.2s0.17-0.87,0.5-1.2C7.78,52.5,8.17,52.33,8.63,52.33z M9.23,53.33c0.07,0.1,0.13,0.13,0.2,0.1
					c0.37-0.27,0.32-0.5-0.15-0.7C9.02,52.87,9,53.07,9.23,53.33z"/>
				<path fill-rule="evenodd" clip-rule="evenodd" fill="#FFFFFF" d="M9.23,53.33c-0.23-0.27-0.22-0.47,0.05-0.6
					c0.47,0.2,0.52,0.43,0.15,0.7C9.37,53.47,9.3,53.43,9.23,53.33z"/>
				
					<path fill-rule="evenodd" clip-rule="evenodd" fill="none" stroke="#FFFFFF" stroke-linecap="round" stroke-linejoin="round" stroke-miterlimit="3" stroke-opacity="0.8" d="
					M8.63,52.33c0.47,0,0.85,0.17,1.15,0.5c0.33,0.33,0.5,0.73,0.5,1.2s-0.17,0.87-0.5,1.2c-0.3,0.33-0.68,0.5-1.15,0.5
					c-0.47,0-0.85-0.17-1.15-0.5c-0.33-0.33-0.5-0.73-0.5-1.2s0.17-0.87,0.5-1.2C7.78,52.5,8.17,52.33,8.63,52.33z"/>
			</g>
		</g>
		<g>
			<g>
				<path fill-rule="evenodd" clip-rule="evenodd" fill="#43B649" fill-opacity="0" d="M13.78,56.33c0,0.47-0.17,0.87-0.5,1.2
					c-0.3,0.33-0.68,0.5-1.15,0.5c-0.47,0-0.85-0.17-1.15-0.5c-0.33-0.33-0.5-0.73-0.5-1.2s0.17-0.87,0.5-1.2
					c0.3-0.33,0.68-0.5,1.15-0.5c0.47,0,0.85,0.17,1.15,0.5C13.62,55.47,13.78,55.87,13.78,56.33z M12.73,55.63
					c0.07,0.1,0.13,0.13,0.2,0.1c0.37-0.27,0.32-0.5-0.15-0.7C12.52,55.17,12.5,55.37,12.73,55.63z"/>
				<path fill-rule="evenodd" clip-rule="evenodd" fill="#FFFFFF" d="M12.73,55.63c-0.23-0.27-0.22-0.47,0.05-0.6
					c0.47,0.2,0.52,0.43,0.15,0.7C12.87,55.77,12.8,55.73,12.73,55.63z"/>
				
					<path fill-rule="evenodd" clip-rule="evenodd" fill="none" stroke="#FFFFFF" stroke-linecap="round" stroke-linejoin="round" stroke-miterlimit="3" stroke-opacity="0.8" d="
					M13.78,56.33c0,0.47-0.17,0.87-0.5,1.2c-0.3,0.33-0.68,0.5-1.15,0.5c-0.47,0-0.85-0.17-1.15-0.5c-0.33-0.33-0.5-0.73-0.5-1.2
					s0.17-0.87,0.5-1.2c0.3-0.33,0.68-0.5,1.15-0.5c0.47,0,0.85,0.17,1.15,0.5C13.62,55.47,13.78,55.87,13.78,56.33z"/>
			</g>
		</g>
		<g>
			<g>
				<path fill-rule="evenodd" clip-rule="evenodd" fill="#43B649" fill-opacity="0" d="M7.13,47.23c0.47,0,0.85,0.17,1.15,0.5
					c0.33,0.33,0.5,0.73,0.5,1.2c0,0.47-0.17,0.87-0.5,1.2c-0.3,0.33-0.68,0.5-1.15,0.5c-0.47,0-0.85-0.17-1.15-0.5
					c-0.33-0.33-0.5-0.73-0.5-1.2c0-0.47,0.17-0.87,0.5-1.2C6.28,47.4,6.67,47.23,7.13,47.23z M7.73,48.23
					c0.07,0.1,0.13,0.13,0.2,0.1c0.37-0.27,0.32-0.5-0.15-0.7C7.52,47.77,7.5,47.97,7.73,48.23z"/>
				<path fill-rule="evenodd" clip-rule="evenodd" fill="#FFFFFF" d="M7.73,48.23c-0.23-0.27-0.22-0.47,0.05-0.6
					c0.47,0.2,0.52,0.43,0.15,0.7C7.87,48.37,7.8,48.33,7.73,48.23z"/>
				
					<path fill-rule="evenodd" clip-rule="evenodd" fill="none" stroke="#FFFFFF" stroke-linecap="round" stroke-linejoin="round" stroke-miterlimit="3" stroke-opacity="0.8" d="
					M7.13,47.23c0.47,0,0.85,0.17,1.15,0.5c0.33,0.33,0.5,0.73,0.5,1.2c0,0.47-0.17,0.87-0.5,1.2c-0.3,0.33-0.68,0.5-1.15,0.5
					c-0.47,0-0.85-0.17-1.15-0.5c-0.33-0.33-0.5-0.73-0.5-1.2c0-0.47,0.17-0.87,0.5-1.2C6.28,47.4,6.67,47.23,7.13,47.23z"/>
			</g>
		</g>
		<g>
			<g>
				<path fill-rule="evenodd" clip-rule="evenodd" fill="#43B649" fill-opacity="0" d="M7.63,42.38c0.33,0.33,0.5,0.73,0.5,1.2
					s-0.17,0.87-0.5,1.2c-0.3,0.33-0.68,0.5-1.15,0.5s-0.85-0.17-1.15-0.5c-0.33-0.33-0.5-0.73-0.5-1.2s0.17-0.87,0.5-1.2
					c0.3-0.33,0.68-0.5,1.15-0.5S7.33,42.05,7.63,42.38z M7.28,42.98c0.37-0.27,0.32-0.5-0.15-0.7c-0.27,0.13-0.28,0.33-0.05,0.6
					C7.15,42.98,7.22,43.02,7.28,42.98z"/>
				<path fill-rule="evenodd" clip-rule="evenodd" fill="#FFFFFF" d="M7.28,42.98c-0.07,0.03-0.13,0-0.2-0.1
					c-0.23-0.27-0.22-0.47,0.05-0.6C7.6,42.48,7.65,42.72,7.28,42.98z"/>
				
					<path fill-rule="evenodd" clip-rule="evenodd" fill="none" stroke="#FFFFFF" stroke-linecap="round" stroke-linejoin="round" stroke-miterlimit="3" stroke-opacity="0.8" d="
					M7.63,42.38c0.33,0.33,0.5,0.73,0.5,1.2s-0.17,0.87-0.5,1.2c-0.3,0.33-0.68,0.5-1.15,0.5s-0.85-0.17-1.15-0.5
					c-0.33-0.33-0.5-0.73-0.5-1.2s0.17-0.87,0.5-1.2c0.3-0.33,0.68-0.5,1.15-0.5S7.33,42.05,7.63,42.38z"/>
			</g>
		</g>
		<g>
			<g>
				<path fill-rule="evenodd" clip-rule="evenodd" fill="#43B649" fill-opacity="0" d="M22.78,57.48c0.47,0,0.85,0.17,1.15,0.5
					c0.33,0.33,0.5,0.73,0.5,1.2c0,0.47-0.17,0.87-0.5,1.2c-0.3,0.33-0.68,0.5-1.15,0.5c-0.47,0-0.85-0.17-1.15-0.5
					c-0.33-0.33-0.5-0.73-0.5-1.2c0-0.47,0.17-0.87,0.5-1.2C21.93,57.65,22.32,57.48,22.78,57.48z M23.38,58.48
					c0.07,0.1,0.13,0.13,0.2,0.1c0.37-0.27,0.32-0.5-0.15-0.7C23.17,58.02,23.15,58.22,23.38,58.48z"/>
				<path fill-rule="evenodd" clip-rule="evenodd" fill="#FFFFFF" d="M23.38,58.48c-0.23-0.27-0.22-0.47,0.05-0.6
					c0.47,0.2,0.52,0.43,0.15,0.7C23.52,58.62,23.45,58.58,23.38,58.48z"/>
				
					<path fill-rule="evenodd" clip-rule="evenodd" fill="none" stroke="#FFFFFF" stroke-linecap="round" stroke-linejoin="round" stroke-miterlimit="3" stroke-opacity="0.8" d="
					M22.78,57.48c0.47,0,0.85,0.17,1.15,0.5c0.33,0.33,0.5,0.73,0.5,1.2c0,0.47-0.17,0.87-0.5,1.2c-0.3,0.33-0.68,0.5-1.15,0.5
					c-0.47,0-0.85-0.17-1.15-0.5c-0.33-0.33-0.5-0.73-0.5-1.2c0-0.47,0.17-0.87,0.5-1.2C21.93,57.65,22.32,57.48,22.78,57.48z"/>
			</g>
		</g>
		<g>
			<g>
				<path fill-rule="evenodd" clip-rule="evenodd" fill="#43B649" fill-opacity="0" d="M25.53,58.53c0.3-0.33,0.68-0.5,1.15-0.5
					s0.85,0.17,1.15,0.5c0.33,0.33,0.5,0.73,0.5,1.2c0,0.47-0.17,0.87-0.5,1.2c-0.3,0.33-0.68,0.5-1.15,0.5s-0.85-0.17-1.15-0.5
					c-0.33-0.33-0.5-0.73-0.5-1.2C25.03,59.27,25.2,58.87,25.53,58.53z M27.48,59.13c0.37-0.27,0.32-0.5-0.15-0.7
					c-0.27,0.13-0.28,0.33-0.05,0.6C27.35,59.13,27.42,59.17,27.48,59.13z"/>
				<path fill-rule="evenodd" clip-rule="evenodd" fill="#FFFFFF" d="M27.48,59.13c-0.07,0.03-0.13,0-0.2-0.1
					c-0.23-0.27-0.22-0.47,0.05-0.6C27.8,58.63,27.85,58.87,27.48,59.13z"/>
				
					<path fill-rule="evenodd" clip-rule="evenodd" fill="none" stroke="#FFFFFF" stroke-linecap="round" stroke-linejoin="round" stroke-miterlimit="3" stroke-opacity="0.8" d="
					M25.53,58.53c0.3-0.33,0.68-0.5,1.15-0.5s0.85,0.17,1.15,0.5c0.33,0.33,0.5,0.73,0.5,1.2c0,0.47-0.17,0.87-0.5,1.2
					c-0.3,0.33-0.68,0.5-1.15,0.5s-0.85-0.17-1.15-0.5c-0.33-0.33-0.5-0.73-0.5-1.2C25.03,59.27,25.2,58.87,25.53,58.53z"/>
			</g>
		</g>
		<g>
			<g>
				<path fill-rule="evenodd" clip-rule="evenodd" fill="#43B649" fill-opacity="0" d="M30.03,61.33c-0.33-0.33-0.5-0.73-0.5-1.2
					s0.17-0.87,0.5-1.2c0.3-0.33,0.68-0.5,1.15-0.5s0.85,0.17,1.15,0.5c0.33,0.33,0.5,0.73,0.5,1.2s-0.17,0.87-0.5,1.2
					c-0.3,0.33-0.68,0.5-1.15,0.5S30.33,61.67,30.03,61.33z M31.98,59.53c0.37-0.27,0.32-0.5-0.15-0.7
					c-0.27,0.13-0.28,0.33-0.05,0.6C31.85,59.53,31.92,59.57,31.98,59.53z"/>
				<path fill-rule="evenodd" clip-rule="evenodd" fill="#FFFFFF" d="M31.98,59.53c-0.07,0.03-0.13,0-0.2-0.1
					c-0.23-0.27-0.22-0.47,0.05-0.6C32.3,59.03,32.35,59.27,31.98,59.53z"/>
				
					<path fill-rule="evenodd" clip-rule="evenodd" fill="none" stroke="#FFFFFF" stroke-linecap="round" stroke-linejoin="round" stroke-miterlimit="3" stroke-opacity="0.8" d="
					M30.03,61.33c-0.33-0.33-0.5-0.73-0.5-1.2s0.17-0.87,0.5-1.2c0.3-0.33,0.68-0.5,1.15-0.5s0.85,0.17,1.15,0.5
					c0.33,0.33,0.5,0.73,0.5,1.2s-0.17,0.87-0.5,1.2c-0.3,0.33-0.68,0.5-1.15,0.5S30.33,61.67,30.03,61.33z"/>
			</g>
		</g>
		<g>
			<g>
				<path fill-rule="evenodd" clip-rule="evenodd" fill="#43B649" fill-opacity="0" d="M33.68,58.43c0.47,0,0.85,0.17,1.15,0.5
					c0.33,0.33,0.5,0.73,0.5,1.2s-0.17,0.87-0.5,1.2c-0.3,0.33-0.68,0.5-1.15,0.5s-0.85-0.17-1.15-0.5c-0.33-0.33-0.5-0.73-0.5-1.2
					s0.17-0.87,0.5-1.2C32.83,58.6,33.22,58.43,33.68,58.43z M34.28,59.43c0.07,0.1,0.13,0.13,0.2,0.1c0.37-0.27,0.32-0.5-0.15-0.7
					C34.07,58.97,34.05,59.17,34.28,59.43z"/>
				<path fill-rule="evenodd" clip-rule="evenodd" fill="#FFFFFF" d="M34.28,59.43c-0.23-0.27-0.22-0.47,0.05-0.6
					c0.47,0.2,0.52,0.43,0.15,0.7C34.42,59.57,34.35,59.53,34.28,59.43z"/>
				
					<path fill-rule="evenodd" clip-rule="evenodd" fill="none" stroke="#FFFFFF" stroke-linecap="round" stroke-linejoin="round" stroke-miterlimit="3" stroke-opacity="0.8" d="
					M33.68,58.43c0.47,0,0.85,0.17,1.15,0.5c0.33,0.33,0.5,0.73,0.5,1.2s-0.17,0.87-0.5,1.2c-0.3,0.33-0.68,0.5-1.15,0.5
					s-0.85-0.17-1.15-0.5c-0.33-0.33-0.5-0.73-0.5-1.2s0.17-0.87,0.5-1.2C32.83,58.6,33.22,58.43,33.68,58.43z"/>
			</g>
		</g>
		<g>
			<g>
				<path fill-rule="evenodd" clip-rule="evenodd" fill="#43B649" fill-opacity="0" d="M34.13,61.08c0.47,0,0.85,0.17,1.15,0.5
					c0.33,0.33,0.5,0.73,0.5,1.2s-0.17,0.87-0.5,1.2c-0.3,0.33-0.68,0.5-1.15,0.5c-0.47,0-0.85-0.17-1.15-0.5
					c-0.33-0.33-0.5-0.73-0.5-1.2s0.17-0.87,0.5-1.2C33.28,61.25,33.67,61.08,34.13,61.08z M34.78,61.48
					c-0.27,0.13-0.28,0.33-0.05,0.6c0.07,0.1,0.13,0.13,0.2,0.1C35.3,61.92,35.25,61.68,34.78,61.48z"/>
				<path fill-rule="evenodd" clip-rule="evenodd" fill="#FFFFFF" d="M34.78,61.48c0.47,0.2,0.52,0.43,0.15,0.7
					c-0.07,0.03-0.13,0-0.2-0.1C34.5,61.82,34.52,61.62,34.78,61.48z"/>
				
					<path fill-rule="evenodd" clip-rule="evenodd" fill="none" stroke="#FFFFFF" stroke-linecap="round" stroke-linejoin="round" stroke-miterlimit="3" stroke-opacity="0.8" d="
					M34.13,61.08c0.47,0,0.85,0.17,1.15,0.5c0.33,0.33,0.5,0.73,0.5,1.2s-0.17,0.87-0.5,1.2c-0.3,0.33-0.68,0.5-1.15,0.5
					c-0.47,0-0.85-0.17-1.15-0.5c-0.33-0.33-0.5-0.73-0.5-1.2s0.17-0.87,0.5-1.2C33.28,61.25,33.67,61.08,34.13,61.08z"/>
			</g>
		</g>
		<g>
			<g>
				<path fill-rule="evenodd" clip-rule="evenodd" fill="#43B649" fill-opacity="0" d="M37.48,64.53c-0.33-0.33-0.5-0.73-0.5-1.2
					s0.17-0.87,0.5-1.2c0.3-0.33,0.68-0.5,1.15-0.5c0.47,0,0.85,0.17,1.15,0.5c0.33,0.33,0.5,0.73,0.5,1.2s-0.17,0.87-0.5,1.2
					c-0.3,0.33-0.68,0.5-1.15,0.5C38.17,65.03,37.78,64.87,37.48,64.53z M39.23,62.63c0.07,0.1,0.13,0.13,0.2,0.1
					c0.37-0.27,0.32-0.5-0.15-0.7C39.02,62.17,39,62.37,39.23,62.63z"/>
				<path fill-rule="evenodd" clip-rule="evenodd" fill="#FFFFFF" d="M39.23,62.63c-0.23-0.27-0.22-0.47,0.05-0.6
					c0.47,0.2,0.52,0.43,0.15,0.7C39.37,62.77,39.3,62.73,39.23,62.63z"/>
				
					<path fill-rule="evenodd" clip-rule="evenodd" fill="none" stroke="#FFFFFF" stroke-linecap="round" stroke-linejoin="round" stroke-miterlimit="3" stroke-opacity="0.8" d="
					M37.48,64.53c-0.33-0.33-0.5-0.73-0.5-1.2s0.17-0.87,0.5-1.2c0.3-0.33,0.68-0.5,1.15-0.5c0.47,0,0.85,0.17,1.15,0.5
					c0.33,0.33,0.5,0.73,0.5,1.2s-0.17,0.87-0.5,1.2c-0.3,0.33-0.68,0.5-1.15,0.5C38.17,65.03,37.78,64.87,37.48,64.53z"/>
			</g>
		</g>
		<g>
			<g>
				<path fill-rule="evenodd" clip-rule="evenodd" fill="#43B649" fill-opacity="0" d="M39.78,43.48c0.33,0.33,0.5,0.73,0.5,1.2
					c0,0.47-0.17,0.87-0.5,1.2c-0.3,0.33-0.68,0.5-1.15,0.5c-0.47,0-0.85-0.17-1.15-0.5c-0.33-0.33-0.5-0.73-0.5-1.2
					c0-0.47,0.17-0.87,0.5-1.2c0.3-0.33,0.68-0.5,1.15-0.5C39.1,42.98,39.48,43.15,39.78,43.48z M39.23,43.98
					c0.07,0.1,0.13,0.13,0.2,0.1c0.37-0.27,0.32-0.5-0.15-0.7C39.02,43.52,39,43.72,39.23,43.98z"/>
				<path fill-rule="evenodd" clip-rule="evenodd" fill="#FFFFFF" d="M39.23,43.98c-0.23-0.27-0.22-0.47,0.05-0.6
					c0.47,0.2,0.52,0.43,0.15,0.7C39.37,44.12,39.3,44.08,39.23,43.98z"/>
				
					<path fill-rule="evenodd" clip-rule="evenodd" fill="none" stroke="#FFFFFF" stroke-linecap="round" stroke-linejoin="round" stroke-miterlimit="3" stroke-opacity="0.8" d="
					M39.78,43.48c0.33,0.33,0.5,0.73,0.5,1.2c0,0.47-0.17,0.87-0.5,1.2c-0.3,0.33-0.68,0.5-1.15,0.5c-0.47,0-0.85-0.17-1.15-0.5
					c-0.33-0.33-0.5-0.73-0.5-1.2c0-0.47,0.17-0.87,0.5-1.2c0.3-0.33,0.68-0.5,1.15-0.5C39.1,42.98,39.48,43.15,39.78,43.48z"/>
			</g>
		</g>
		<g>
			<g>
				<path fill-rule="evenodd" clip-rule="evenodd" fill="#43B649" fill-opacity="0" d="M28.23,52.63c0.33,0.33,0.5,0.73,0.5,1.2
					s-0.17,0.87-0.5,1.2c-0.3,0.33-0.68,0.5-1.15,0.5s-0.85-0.17-1.15-0.5c-0.33-0.33-0.5-0.73-0.5-1.2s0.17-0.87,0.5-1.2
					c0.3-0.33,0.68-0.5,1.15-0.5S27.93,52.3,28.23,52.63z M27.88,53.23c0.37-0.27,0.32-0.5-0.15-0.7c-0.27,0.13-0.28,0.33-0.05,0.6
					C27.75,53.23,27.82,53.27,27.88,53.23z"/>
				<path fill-rule="evenodd" clip-rule="evenodd" fill="#FFFFFF" d="M27.88,53.23c-0.07,0.03-0.13,0-0.2-0.1
					c-0.23-0.27-0.22-0.47,0.05-0.6C28.2,52.73,28.25,52.97,27.88,53.23z"/>
				
					<path fill-rule="evenodd" clip-rule="evenodd" fill="none" stroke="#FFFFFF" stroke-linecap="round" stroke-linejoin="round" stroke-miterlimit="3" stroke-opacity="0.8" d="
					M28.23,52.63c0.33,0.33,0.5,0.73,0.5,1.2s-0.17,0.87-0.5,1.2c-0.3,0.33-0.68,0.5-1.15,0.5s-0.85-0.17-1.15-0.5
					c-0.33-0.33-0.5-0.73-0.5-1.2s0.17-0.87,0.5-1.2c0.3-0.33,0.68-0.5,1.15-0.5S27.93,52.3,28.23,52.63z"/>
			</g>
		</g>
		<g>
			<g>
				<path fill-rule="evenodd" clip-rule="evenodd" fill="#43B649" fill-opacity="0" d="M23.63,48.88c0.47,0,0.85,0.17,1.15,0.5
					c0.33,0.33,0.5,0.73,0.5,1.2s-0.17,0.87-0.5,1.2c-0.3,0.33-0.68,0.5-1.15,0.5c-0.47,0-0.85-0.17-1.15-0.5
					c-0.33-0.33-0.5-0.73-0.5-1.2s0.17-0.87,0.5-1.2C22.78,49.05,23.17,48.88,23.63,48.88z M24.23,49.88c0.07,0.1,0.13,0.13,0.2,0.1
					c0.37-0.27,0.32-0.5-0.15-0.7C24.02,49.42,24,49.62,24.23,49.88z"/>
				<path fill-rule="evenodd" clip-rule="evenodd" fill="#FFFFFF" d="M24.23,49.88c-0.23-0.27-0.22-0.47,0.05-0.6
					c0.47,0.2,0.52,0.43,0.15,0.7C24.37,50.02,24.3,49.98,24.23,49.88z"/>
				
					<path fill-rule="evenodd" clip-rule="evenodd" fill="none" stroke="#FFFFFF" stroke-linecap="round" stroke-linejoin="round" stroke-miterlimit="3" stroke-opacity="0.8" d="
					M23.63,48.88c0.47,0,0.85,0.17,1.15,0.5c0.33,0.33,0.5,0.73,0.5,1.2s-0.17,0.87-0.5,1.2c-0.3,0.33-0.68,0.5-1.15,0.5
					c-0.47,0-0.85-0.17-1.15-0.5c-0.33-0.33-0.5-0.73-0.5-1.2s0.17-0.87,0.5-1.2C22.78,49.05,23.17,48.88,23.63,48.88z"/>
			</g>
		</g>
		<g>
			<g>
				<path fill-rule="evenodd" clip-rule="evenodd" fill="#43B649" fill-opacity="0" d="M20.23,54.08c-0.33-0.33-0.5-0.73-0.5-1.2
					s0.17-0.87,0.5-1.2c0.3-0.33,0.68-0.5,1.15-0.5c0.47,0,0.85,0.17,1.15,0.5c0.33,0.33,0.5,0.73,0.5,1.2s-0.17,0.87-0.5,1.2
					c-0.3,0.33-0.68,0.5-1.15,0.5C20.92,54.58,20.53,54.42,20.23,54.08z M21.98,52.18c0.07,0.1,0.13,0.13,0.2,0.1
					c0.37-0.27,0.32-0.5-0.15-0.7C21.77,51.72,21.75,51.92,21.98,52.18z"/>
				<path fill-rule="evenodd" clip-rule="evenodd" fill="#FFFFFF" d="M21.98,52.18c-0.23-0.27-0.22-0.47,0.05-0.6
					c0.47,0.2,0.52,0.43,0.15,0.7C22.12,52.32,22.05,52.28,21.98,52.18z"/>
				
					<path fill-rule="evenodd" clip-rule="evenodd" fill="none" stroke="#FFFFFF" stroke-linecap="round" stroke-linejoin="round" stroke-miterlimit="3" stroke-opacity="0.8" d="
					M20.23,54.08c-0.33-0.33-0.5-0.73-0.5-1.2s0.17-0.87,0.5-1.2c0.3-0.33,0.68-0.5,1.15-0.5c0.47,0,0.85,0.17,1.15,0.5
					c0.33,0.33,0.5,0.73,0.5,1.2s-0.17,0.87-0.5,1.2c-0.3,0.33-0.68,0.5-1.15,0.5C20.92,54.58,20.53,54.42,20.23,54.08z"/>
			</g>
		</g>
		<g>
			<g>
				<path fill-rule="evenodd" clip-rule="evenodd" fill="#43B649" fill-opacity="0" d="M23.03,46.43c0,0.47-0.17,0.87-0.5,1.2
					c-0.3,0.33-0.68,0.5-1.15,0.5c-0.47,0-0.85-0.17-1.15-0.5c-0.33-0.33-0.5-0.73-0.5-1.2c0-0.47,0.17-0.87,0.5-1.2
					c0.3-0.33,0.68-0.5,1.15-0.5c0.47,0,0.85,0.17,1.15,0.5C22.87,45.57,23.03,45.97,23.03,46.43z M21.98,45.73
					c0.07,0.1,0.13,0.13,0.2,0.1c0.37-0.27,0.32-0.5-0.15-0.7C21.77,45.27,21.75,45.47,21.98,45.73z"/>
				<path fill-rule="evenodd" clip-rule="evenodd" fill="#FFFFFF" d="M21.98,45.73c-0.23-0.27-0.22-0.47,0.05-0.6
					c0.47,0.2,0.52,0.43,0.15,0.7C22.12,45.87,22.05,45.83,21.98,45.73z"/>
				
					<path fill-rule="evenodd" clip-rule="evenodd" fill="none" stroke="#FFFFFF" stroke-linecap="round" stroke-linejoin="round" stroke-miterlimit="3" stroke-opacity="0.8" d="
					M23.03,46.43c0,0.47-0.17,0.87-0.5,1.2c-0.3,0.33-0.68,0.5-1.15,0.5c-0.47,0-0.85-0.17-1.15-0.5c-0.33-0.33-0.5-0.73-0.5-1.2
					c0-0.47,0.17-0.87,0.5-1.2c0.3-0.33,0.68-0.5,1.15-0.5c0.47,0,0.85,0.17,1.15,0.5C22.87,45.57,23.03,45.97,23.03,46.43z"/>
			</g>
		</g>
		<g>
			<g>
				<path fill-rule="evenodd" clip-rule="evenodd" fill="#43B649" fill-opacity="0" d="M40.58,33.13c0,0.47-0.17,0.87-0.5,1.2
					c-0.3,0.33-0.68,0.5-1.15,0.5s-0.85-0.17-1.15-0.5c-0.33-0.33-0.5-0.73-0.5-1.2c0-0.47,0.17-0.87,0.5-1.2
					c0.3-0.33,0.68-0.5,1.15-0.5s0.85,0.17,1.15,0.5C40.42,32.27,40.58,32.67,40.58,33.13z M39.53,32.43c0.07,0.1,0.13,0.13,0.2,0.1
					c0.37-0.27,0.32-0.5-0.15-0.7C39.32,31.97,39.3,32.17,39.53,32.43z"/>
				<path fill-rule="evenodd" clip-rule="evenodd" fill="#FFFFFF" d="M39.53,32.43c-0.23-0.27-0.22-0.47,0.05-0.6
					c0.47,0.2,0.52,0.43,0.15,0.7C39.67,32.57,39.6,32.53,39.53,32.43z"/>
				
					<path fill-rule="evenodd" clip-rule="evenodd" fill="none" stroke="#FFFFFF" stroke-linecap="round" stroke-linejoin="round" stroke-miterlimit="3" stroke-opacity="0.8" d="
					M40.58,33.13c0,0.47-0.17,0.87-0.5,1.2c-0.3,0.33-0.68,0.5-1.15,0.5s-0.85-0.17-1.15-0.5c-0.33-0.33-0.5-0.73-0.5-1.2
					c0-0.47,0.17-0.87,0.5-1.2c0.3-0.33,0.68-0.5,1.15-0.5s0.85,0.17,1.15,0.5C40.42,32.27,40.58,32.67,40.58,33.13z"/>
			</g>
		</g>
		<g>
			<g>
				<path fill-rule="evenodd" clip-rule="evenodd" fill="#43B649" fill-opacity="0" d="M41.18,26.68c0,0.47-0.17,0.87-0.5,1.2
					c-0.3,0.33-0.68,0.5-1.15,0.5c-0.47,0-0.85-0.17-1.15-0.5c-0.33-0.33-0.5-0.73-0.5-1.2s0.17-0.87,0.5-1.2
					c0.3-0.33,0.68-0.5,1.15-0.5c0.47,0,0.85,0.17,1.15,0.5C41.02,25.82,41.18,26.22,41.18,26.68z M40.13,25.98
					c0.07,0.1,0.13,0.13,0.2,0.1c0.37-0.27,0.32-0.5-0.15-0.7C39.92,25.52,39.9,25.72,40.13,25.98z"/>
				<path fill-rule="evenodd" clip-rule="evenodd" fill="#FFFFFF" d="M40.13,25.98c-0.23-0.27-0.22-0.47,0.05-0.6
					c0.47,0.2,0.52,0.43,0.15,0.7C40.27,26.12,40.2,26.08,40.13,25.98z"/>
				
					<path fill-rule="evenodd" clip-rule="evenodd" fill="none" stroke="#FFFFFF" stroke-linecap="round" stroke-linejoin="round" stroke-miterlimit="3" stroke-opacity="0.8" d="
					M41.18,26.68c0,0.47-0.17,0.87-0.5,1.2c-0.3,0.33-0.68,0.5-1.15,0.5c-0.47,0-0.85-0.17-1.15-0.5c-0.33-0.33-0.5-0.73-0.5-1.2
					s0.17-0.87,0.5-1.2c0.3-0.33,0.68-0.5,1.15-0.5c0.47,0,0.85,0.17,1.15,0.5C41.02,25.82,41.18,26.22,41.18,26.68z"/>
			</g>
		</g>
		<g>
			<g>
				<path fill-rule="evenodd" clip-rule="evenodd" fill="#43B649" fill-opacity="0" d="M24.83,26.68c0,0.47-0.17,0.87-0.5,1.2
					c-0.3,0.33-0.68,0.5-1.15,0.5s-0.85-0.17-1.15-0.5c-0.33-0.33-0.5-0.73-0.5-1.2s0.17-0.87,0.5-1.2c0.3-0.33,0.68-0.5,1.15-0.5
					s0.85,0.17,1.15,0.5C24.67,25.82,24.83,26.22,24.83,26.68z M23.78,25.98c0.07,0.1,0.13,0.13,0.2,0.1
					c0.37-0.27,0.32-0.5-0.15-0.7C23.57,25.52,23.55,25.72,23.78,25.98z"/>
				<path fill-rule="evenodd" clip-rule="evenodd" fill="#FFFFFF" d="M23.78,25.98c-0.23-0.27-0.22-0.47,0.05-0.6
					c0.47,0.2,0.52,0.43,0.15,0.7C23.92,26.12,23.85,26.08,23.78,25.98z"/>
				
					<path fill-rule="evenodd" clip-rule="evenodd" fill="none" stroke="#FFFFFF" stroke-linecap="round" stroke-linejoin="round" stroke-miterlimit="3" stroke-opacity="0.8" d="
					M24.83,26.68c0,0.47-0.17,0.87-0.5,1.2c-0.3,0.33-0.68,0.5-1.15,0.5s-0.85-0.17-1.15-0.5c-0.33-0.33-0.5-0.73-0.5-1.2
					s0.17-0.87,0.5-1.2c0.3-0.33,0.68-0.5,1.15-0.5s0.85,0.17,1.15,0.5C24.67,25.82,24.83,26.22,24.83,26.68z"/>
			</g>
		</g>
		<g>
			<g>
				<path fill-rule="evenodd" clip-rule="evenodd" fill="#43B649" fill-opacity="0" d="M27.83,15.68c0.33,0.33,0.5,0.73,0.5,1.2
					c0,0.47-0.17,0.87-0.5,1.2c-0.3,0.33-0.68,0.5-1.15,0.5s-0.85-0.17-1.15-0.5c-0.33-0.33-0.5-0.73-0.5-1.2
					c0-0.47,0.17-0.87,0.5-1.2c0.3-0.33,0.68-0.5,1.15-0.5S27.53,15.35,27.83,15.68z M27.48,16.28c0.37-0.27,0.32-0.5-0.15-0.7
					c-0.27,0.13-0.28,0.33-0.05,0.6C27.35,16.28,27.42,16.32,27.48,16.28z"/>
				<path fill-rule="evenodd" clip-rule="evenodd" fill="#FFFFFF" d="M27.48,16.28c-0.07,0.03-0.13,0-0.2-0.1
					c-0.23-0.27-0.22-0.47,0.05-0.6C27.8,15.78,27.85,16.02,27.48,16.28z"/>
				
					<path fill-rule="evenodd" clip-rule="evenodd" fill="none" stroke="#FFFFFF" stroke-linecap="round" stroke-linejoin="round" stroke-miterlimit="3" stroke-opacity="0.8" d="
					M27.83,15.68c0.33,0.33,0.5,0.73,0.5,1.2c0,0.47-0.17,0.87-0.5,1.2c-0.3,0.33-0.68,0.5-1.15,0.5s-0.85-0.17-1.15-0.5
					c-0.33-0.33-0.5-0.73-0.5-1.2c0-0.47,0.17-0.87,0.5-1.2c0.3-0.33,0.68-0.5,1.15-0.5S27.53,15.35,27.83,15.68z"/>
			</g>
		</g>
		<g>
			<g>
				<path fill-rule="evenodd" clip-rule="evenodd" fill="#43B649" fill-opacity="0" d="M12.48,8.88c0.47,0,0.85,0.17,1.15,0.5
					c0.33,0.33,0.5,0.73,0.5,1.2s-0.17,0.87-0.5,1.2c-0.3,0.33-0.68,0.5-1.15,0.5s-0.85-0.17-1.15-0.5c-0.33-0.33-0.5-0.73-0.5-1.2
					s0.17-0.87,0.5-1.2C11.63,9.05,12.02,8.88,12.48,8.88z M13.08,9.88c0.07,0.1,0.13,0.13,0.2,0.1c0.37-0.27,0.32-0.5-0.15-0.7
					C12.87,9.42,12.85,9.62,13.08,9.88z"/>
				<path fill-rule="evenodd" clip-rule="evenodd" fill="#FFFFFF" d="M13.08,9.88c-0.23-0.27-0.22-0.47,0.05-0.6
					c0.47,0.2,0.52,0.43,0.15,0.7C13.22,10.02,13.15,9.98,13.08,9.88z"/>
				
					<path fill-rule="evenodd" clip-rule="evenodd" fill="none" stroke="#FFFFFF" stroke-linecap="round" stroke-linejoin="round" stroke-miterlimit="3" stroke-opacity="0.8" d="
					M12.48,8.88c0.47,0,0.85,0.17,1.15,0.5c0.33,0.33,0.5,0.73,0.5,1.2s-0.17,0.87-0.5,1.2c-0.3,0.33-0.68,0.5-1.15,0.5
					s-0.85-0.17-1.15-0.5c-0.33-0.33-0.5-0.73-0.5-1.2s0.17-0.87,0.5-1.2C11.63,9.05,12.02,8.88,12.48,8.88z"/>
			</g>
		</g>
		<g>
			<g>
				<path fill-rule="evenodd" clip-rule="evenodd" fill="#43B649" fill-opacity="0" d="M7.28,10.43c0.47,0,0.85,0.17,1.15,0.5
					c0.33,0.33,0.5,0.73,0.5,1.2c0,0.47-0.17,0.87-0.5,1.2c-0.3,0.33-0.68,0.5-1.15,0.5c-0.47,0-0.85-0.17-1.15-0.5
					c-0.33-0.33-0.5-0.73-0.5-1.2c0-0.47,0.17-0.87,0.5-1.2C6.43,10.6,6.82,10.43,7.28,10.43z M7.88,11.43
					c0.07,0.1,0.13,0.13,0.2,0.1c0.37-0.27,0.32-0.5-0.15-0.7C7.67,10.97,7.65,11.17,7.88,11.43z"/>
				<path fill-rule="evenodd" clip-rule="evenodd" fill="#FFFFFF" d="M7.88,11.43c-0.23-0.27-0.22-0.47,0.05-0.6
					c0.47,0.2,0.52,0.43,0.15,0.7C8.02,11.57,7.95,11.53,7.88,11.43z"/>
				
					<path fill-rule="evenodd" clip-rule="evenodd" fill="none" stroke="#FFFFFF" stroke-linecap="round" stroke-linejoin="round" stroke-miterlimit="3" stroke-opacity="0.8" d="
					M7.28,10.43c0.47,0,0.85,0.17,1.15,0.5c0.33,0.33,0.5,0.73,0.5,1.2c0,0.47-0.17,0.87-0.5,1.2c-0.3,0.33-0.68,0.5-1.15,0.5
					c-0.47,0-0.85-0.17-1.15-0.5c-0.33-0.33-0.5-0.73-0.5-1.2c0-0.47,0.17-0.87,0.5-1.2C6.43,10.6,6.82,10.43,7.28,10.43z"/>
			</g>
		</g>
		<g>
			<g>
				<path fill-rule="evenodd" clip-rule="evenodd" fill="#43B649" fill-opacity="0" d="M6.23,22.78c0.47,0,0.85,0.17,1.15,0.5
					c0.33,0.33,0.5,0.73,0.5,1.2s-0.17,0.87-0.5,1.2c-0.3,0.33-0.68,0.5-1.15,0.5s-0.85-0.17-1.15-0.5c-0.33-0.33-0.5-0.73-0.5-1.2
					s0.17-0.87,0.5-1.2C5.38,22.95,5.77,22.78,6.23,22.78z M6.83,23.78c0.07,0.1,0.13,0.13,0.2,0.1c0.37-0.27,0.32-0.5-0.15-0.7
					C6.62,23.32,6.6,23.52,6.83,23.78z"/>
				<path fill-rule="evenodd" clip-rule="evenodd" fill="#FFFFFF" d="M6.83,23.78c-0.23-0.27-0.22-0.47,0.05-0.6
					c0.47,0.2,0.52,0.43,0.15,0.7C6.97,23.92,6.9,23.88,6.83,23.78z"/>
				
					<path fill-rule="evenodd" clip-rule="evenodd" fill="none" stroke="#FFFFFF" stroke-linecap="round" stroke-linejoin="round" stroke-miterlimit="3" stroke-opacity="0.8" d="
					M6.23,22.78c0.47,0,0.85,0.17,1.15,0.5c0.33,0.33,0.5,0.73,0.5,1.2s-0.17,0.87-0.5,1.2c-0.3,0.33-0.68,0.5-1.15,0.5
					s-0.85-0.17-1.15-0.5c-0.33-0.33-0.5-0.73-0.5-1.2s0.17-0.87,0.5-1.2C5.38,22.95,5.77,22.78,6.23,22.78z"/>
			</g>
		</g>
		<g>
			<g>
				<path fill-rule="evenodd" clip-rule="evenodd" fill="#43B649" fill-opacity="0" d="M80.08,50.98c0.47,0,0.85,0.17,1.15,0.5
					c0.33,0.33,0.5,0.73,0.5,1.2c0,0.47-0.17,0.87-0.5,1.2c-0.3,0.33-0.68,0.5-1.15,0.5s-0.85-0.17-1.15-0.5
					c-0.33-0.33-0.5-0.73-0.5-1.2c0-0.47,0.17-0.87,0.5-1.2C79.23,51.15,79.62,50.98,80.08,50.98z M79.48,51.98
					c0.23-0.27,0.22-0.47-0.05-0.6c-0.47,0.2-0.52,0.43-0.15,0.7C79.35,52.12,79.42,52.08,79.48,51.98z"/>
				<path fill-rule="evenodd" clip-rule="evenodd" fill="#FFFFFF" d="M79.48,51.98c-0.07,0.1-0.13,0.13-0.2,0.1
					c-0.37-0.27-0.32-0.5,0.15-0.7C79.7,51.52,79.72,51.72,79.48,51.98z"/>
				
					<path fill-rule="evenodd" clip-rule="evenodd" fill="none" stroke="#FFFFFF" stroke-linecap="round" stroke-linejoin="round" stroke-miterlimit="3" stroke-opacity="0.8" d="
					M80.08,50.98c-0.47,0-0.85,0.17-1.15,0.5c-0.33,0.33-0.5,0.73-0.5,1.2c0,0.47,0.17,0.87,0.5,1.2c0.3,0.33,0.68,0.5,1.15,0.5
					s0.85-0.17,1.15-0.5c0.33-0.33,0.5-0.73,0.5-1.2c0-0.47-0.17-0.87-0.5-1.2C80.93,51.15,80.55,50.98,80.08,50.98z"/>
			</g>
		</g>
		<g>
			<g>
				<path fill-rule="evenodd" clip-rule="evenodd" fill="#43B649" fill-opacity="0" d="M77.73,53.78c0.33,0.33,0.5,0.73,0.5,1.2
					c0,0.47-0.17,0.87-0.5,1.2c-0.3,0.33-0.68,0.5-1.15,0.5s-0.85-0.17-1.15-0.5c-0.33-0.33-0.5-0.73-0.5-1.2
					c0-0.47,0.17-0.87,0.5-1.2c0.3-0.33,0.68-0.5,1.15-0.5S77.43,53.45,77.73,53.78z M75.78,54.38c0.07,0.03,0.13,0,0.2-0.1
					c0.23-0.27,0.22-0.47-0.05-0.6C75.47,53.88,75.42,54.12,75.78,54.38z"/>
				<path fill-rule="evenodd" clip-rule="evenodd" fill="#FFFFFF" d="M75.78,54.38c-0.37-0.27-0.32-0.5,0.15-0.7
					c0.27,0.13,0.28,0.33,0.05,0.6C75.92,54.38,75.85,54.42,75.78,54.38z"/>
				
					<path fill-rule="evenodd" clip-rule="evenodd" fill="none" stroke="#FFFFFF" stroke-linecap="round" stroke-linejoin="round" stroke-miterlimit="3" stroke-opacity="0.8" d="
					M77.73,53.78c-0.3-0.33-0.68-0.5-1.15-0.5s-0.85,0.17-1.15,0.5c-0.33,0.33-0.5,0.73-0.5,1.2c0,0.47,0.17,0.87,0.5,1.2
					c0.3,0.33,0.68,0.5,1.15,0.5s0.85-0.17,1.15-0.5c0.33-0.33,0.5-0.73,0.5-1.2C78.23,54.52,78.07,54.12,77.73,53.78z"/>
			</g>
		</g>
		<g>
			<g>
				<path fill-rule="evenodd" clip-rule="evenodd" fill="#43B649" fill-opacity="0" d="M82.73,46.38c0.33,0.33,0.5,0.73,0.5,1.2
					s-0.17,0.87-0.5,1.2c-0.3,0.33-0.68,0.5-1.15,0.5s-0.85-0.17-1.15-0.5c-0.33-0.33-0.5-0.73-0.5-1.2s0.17-0.87,0.5-1.2
					c0.3-0.33,0.68-0.5,1.15-0.5S82.43,46.05,82.73,46.38z M80.98,46.88c0.23-0.27,0.22-0.47-0.05-0.6c-0.47,0.2-0.52,0.43-0.15,0.7
					C80.85,47.02,80.92,46.98,80.98,46.88z"/>
				<path fill-rule="evenodd" clip-rule="evenodd" fill="#FFFFFF" d="M80.98,46.88c-0.07,0.1-0.13,0.13-0.2,0.1
					c-0.37-0.27-0.32-0.5,0.15-0.7C81.2,46.42,81.22,46.62,80.98,46.88z"/>
				
					<path fill-rule="evenodd" clip-rule="evenodd" fill="none" stroke="#FFFFFF" stroke-linecap="round" stroke-linejoin="round" stroke-miterlimit="3" stroke-opacity="0.8" d="
					M82.73,46.38c-0.3-0.33-0.68-0.5-1.15-0.5s-0.85,0.17-1.15,0.5c-0.33,0.33-0.5,0.73-0.5,1.2s0.17,0.87,0.5,1.2
					c0.3,0.33,0.68,0.5,1.15,0.5s0.85-0.17,1.15-0.5c0.33-0.33,0.5-0.73,0.5-1.2S83.07,46.72,82.73,46.38z"/>
			</g>
		</g>
		<g>
			<g>
				<path fill-rule="evenodd" clip-rule="evenodd" fill="#43B649" fill-opacity="0" d="M83.33,41.03c0.33,0.33,0.5,0.73,0.5,1.2
					c0,0.47-0.17,0.87-0.5,1.2c-0.3,0.33-0.68,0.5-1.15,0.5c-0.47,0-0.85-0.17-1.15-0.5c-0.33-0.33-0.5-0.73-0.5-1.2
					c0-0.47,0.17-0.87,0.5-1.2c0.3-0.33,0.68-0.5,1.15-0.5C82.65,40.53,83.03,40.7,83.33,41.03z M81.58,41.53
					c0.23-0.27,0.22-0.47-0.05-0.6c-0.47,0.2-0.52,0.43-0.15,0.7C81.45,41.67,81.52,41.63,81.58,41.53z"/>
				<path fill-rule="evenodd" clip-rule="evenodd" fill="#FFFFFF" d="M81.58,41.53c-0.07,0.1-0.13,0.13-0.2,0.1
					c-0.37-0.27-0.32-0.5,0.15-0.7C81.8,41.07,81.82,41.27,81.58,41.53z"/>
				
					<path fill-rule="evenodd" clip-rule="evenodd" fill="none" stroke="#FFFFFF" stroke-linecap="round" stroke-linejoin="round" stroke-miterlimit="3" stroke-opacity="0.8" d="
					M83.33,41.03c-0.3-0.33-0.68-0.5-1.15-0.5c-0.47,0-0.85,0.17-1.15,0.5c-0.33,0.33-0.5,0.73-0.5,1.2c0,0.47,0.17,0.87,0.5,1.2
					c0.3,0.33,0.68,0.5,1.15,0.5c0.47,0,0.85-0.17,1.15-0.5c0.33-0.33,0.5-0.73,0.5-1.2C83.83,41.77,83.67,41.37,83.33,41.03z"/>
			</g>
		</g>
		<g>
			<g>
				<path fill-rule="evenodd" clip-rule="evenodd" fill="#43B649" fill-opacity="0" d="M64.78,56.63c0.3-0.33,0.68-0.5,1.15-0.5
					c0.47,0,0.85,0.17,1.15,0.5c0.33,0.33,0.5,0.73,0.5,1.2s-0.17,0.87-0.5,1.2c-0.3,0.33-0.68,0.5-1.15,0.5
					c-0.47,0-0.85-0.17-1.15-0.5c-0.33-0.33-0.5-0.73-0.5-1.2S64.45,56.97,64.78,56.63z M65.13,57.23c0.07,0.03,0.13,0,0.2-0.1
					c0.23-0.27,0.22-0.47-0.05-0.6C64.82,56.73,64.77,56.97,65.13,57.23z"/>
				<path fill-rule="evenodd" clip-rule="evenodd" fill="#FFFFFF" d="M65.13,57.23c-0.37-0.27-0.32-0.5,0.15-0.7
					c0.27,0.13,0.28,0.33,0.05,0.6C65.27,57.23,65.2,57.27,65.13,57.23z"/>
				
					<path fill-rule="evenodd" clip-rule="evenodd" fill="none" stroke="#FFFFFF" stroke-linecap="round" stroke-linejoin="round" stroke-miterlimit="3" stroke-opacity="0.8" d="
					M64.78,56.63c-0.33,0.33-0.5,0.73-0.5,1.2s0.17,0.87,0.5,1.2c0.3,0.33,0.68,0.5,1.15,0.5c0.47,0,0.85-0.17,1.15-0.5
					c0.33-0.33,0.5-0.73,0.5-1.2s-0.17-0.87-0.5-1.2c-0.3-0.33-0.68-0.5-1.15-0.5C65.47,56.13,65.08,56.3,64.78,56.63z"/>
			</g>
		</g>
		<g>
			<g>
				<path fill-rule="evenodd" clip-rule="evenodd" fill="#FFFFFF" d="M61.38,57.68c-0.07,0.1-0.13,0.13-0.2,0.1
					c-0.37-0.27-0.32-0.5,0.15-0.7C61.6,57.22,61.62,57.42,61.38,57.68z"/>
				<path fill-rule="evenodd" clip-rule="evenodd" fill="#43B649" fill-opacity="0" d="M60.33,58.38c0-0.47,0.17-0.87,0.5-1.2
					c0.3-0.33,0.68-0.5,1.15-0.5c0.47,0,0.85,0.17,1.15,0.5c0.33,0.33,0.5,0.73,0.5,1.2s-0.17,0.87-0.5,1.2
					c-0.3,0.33-0.68,0.5-1.15,0.5c-0.47,0-0.85-0.17-1.15-0.5C60.5,59.25,60.33,58.85,60.33,58.38z M61.38,57.68
					c0.23-0.27,0.22-0.47-0.05-0.6c-0.47,0.2-0.52,0.43-0.15,0.7C61.25,57.82,61.32,57.78,61.38,57.68z"/>
				
					<path fill-rule="evenodd" clip-rule="evenodd" fill="none" stroke="#FFFFFF" stroke-linecap="round" stroke-linejoin="round" stroke-miterlimit="3" stroke-opacity="0.8" d="
					M60.33,58.38c0,0.47,0.17,0.87,0.5,1.2c0.3,0.33,0.68,0.5,1.15,0.5c0.47,0,0.85-0.17,1.15-0.5c0.33-0.33,0.5-0.73,0.5-1.2
					s-0.17-0.87-0.5-1.2c-0.3-0.33-0.68-0.5-1.15-0.5c-0.47,0-0.85,0.17-1.15,0.5C60.5,57.52,60.33,57.92,60.33,58.38z"/>
			</g>
		</g>
		<g>
			<g>
				<path fill-rule="evenodd" clip-rule="evenodd" fill="#FFFFFF" d="M56.73,58.18c-0.37-0.27-0.32-0.5,0.15-0.7
					c0.27,0.13,0.28,0.33,0.05,0.6C56.87,58.18,56.8,58.22,56.73,58.18z"/>
				<path fill-rule="evenodd" clip-rule="evenodd" fill="#43B649" fill-opacity="0" d="M56.73,58.18c0.07,0.03,0.13,0,0.2-0.1
					c0.23-0.27,0.22-0.47-0.05-0.6C56.42,57.68,56.37,57.92,56.73,58.18z M55.88,58.78c0-0.47,0.17-0.87,0.5-1.2
					c0.3-0.33,0.68-0.5,1.15-0.5s0.85,0.17,1.15,0.5c0.33,0.33,0.5,0.73,0.5,1.2s-0.17,0.87-0.5,1.2c-0.3,0.33-0.68,0.5-1.15,0.5
					s-0.85-0.17-1.15-0.5C56.05,59.65,55.88,59.25,55.88,58.78z"/>
				
					<path fill-rule="evenodd" clip-rule="evenodd" fill="none" stroke="#FFFFFF" stroke-linecap="round" stroke-linejoin="round" stroke-miterlimit="3" stroke-opacity="0.8" d="
					M55.88,58.78c0,0.47,0.17,0.87,0.5,1.2c0.3,0.33,0.68,0.5,1.15,0.5s0.85-0.17,1.15-0.5c0.33-0.33,0.5-0.73,0.5-1.2
					s-0.17-0.87-0.5-1.2c-0.3-0.33-0.68-0.5-1.15-0.5s-0.85,0.17-1.15,0.5C56.05,57.92,55.88,58.32,55.88,58.78z"/>
			</g>
		</g>
		<g>
			<g>
				<path fill-rule="evenodd" clip-rule="evenodd" fill="#FFFFFF" d="M54.38,57.48c0.27,0.13,0.28,0.33,0.05,0.6
					c-0.07,0.1-0.13,0.13-0.2,0.1C53.87,57.92,53.92,57.68,54.38,57.48z"/>
				<path fill-rule="evenodd" clip-rule="evenodd" fill="#43B649" fill-opacity="0" d="M55.03,57.08c0.47,0,0.85,0.17,1.15,0.5
					c0.33,0.33,0.5,0.73,0.5,1.2s-0.17,0.87-0.5,1.2c-0.3,0.33-0.68,0.5-1.15,0.5s-0.85-0.17-1.15-0.5c-0.33-0.33-0.5-0.73-0.5-1.2
					s0.17-0.87,0.5-1.2C54.18,57.25,54.57,57.08,55.03,57.08z M54.38,57.48c-0.47,0.2-0.52,0.43-0.15,0.7c0.07,0.03,0.13,0,0.2-0.1
					C54.67,57.82,54.65,57.62,54.38,57.48z"/>
				
					<path fill-rule="evenodd" clip-rule="evenodd" fill="none" stroke="#FFFFFF" stroke-linecap="round" stroke-linejoin="round" stroke-miterlimit="3" stroke-opacity="0.8" d="
					M55.03,57.08c-0.47,0-0.85,0.17-1.15,0.5c-0.33,0.33-0.5,0.73-0.5,1.2s0.17,0.87,0.5,1.2c0.3,0.33,0.68,0.5,1.15,0.5
					s0.85-0.17,1.15-0.5c0.33-0.33,0.5-0.73,0.5-1.2s-0.17-0.87-0.5-1.2C55.88,57.25,55.5,57.08,55.03,57.08z"/>
			</g>
		</g>
		<g>
			<g>
				<path fill-rule="evenodd" clip-rule="evenodd" fill="#43B649" fill-opacity="0" d="M54.53,59.73c0.47,0,0.85,0.17,1.15,0.5
					c0.33,0.33,0.5,0.73,0.5,1.2c0,0.47-0.17,0.87-0.5,1.2c-0.3,0.33-0.68,0.5-1.15,0.5s-0.85-0.17-1.15-0.5
					c-0.33-0.33-0.5-0.73-0.5-1.2c0-0.47,0.17-0.87,0.5-1.2C53.68,59.9,54.07,59.73,54.53,59.73z M53.93,60.73
					c0.23-0.27,0.22-0.47-0.05-0.6c-0.47,0.2-0.52,0.43-0.15,0.7C53.8,60.87,53.87,60.83,53.93,60.73z"/>
				<path fill-rule="evenodd" clip-rule="evenodd" fill="#FFFFFF" d="M53.93,60.73c-0.07,0.1-0.13,0.13-0.2,0.1
					c-0.37-0.27-0.32-0.5,0.15-0.7C54.15,60.27,54.17,60.47,53.93,60.73z"/>
				
					<path fill-rule="evenodd" clip-rule="evenodd" fill="none" stroke="#FFFFFF" stroke-linecap="round" stroke-linejoin="round" stroke-miterlimit="3" stroke-opacity="0.8" d="
					M54.53,59.73c-0.47,0-0.85,0.17-1.15,0.5c-0.33,0.33-0.5,0.73-0.5,1.2c0,0.47,0.17,0.87,0.5,1.2c0.3,0.33,0.68,0.5,1.15,0.5
					s0.85-0.17,1.15-0.5c0.33-0.33,0.5-0.73,0.5-1.2c0-0.47-0.17-0.87-0.5-1.2C55.38,59.9,55,59.73,54.53,59.73z"/>
			</g>
		</g>
		<g>
			<g>
				<path fill-rule="evenodd" clip-rule="evenodd" fill="#43B649" fill-opacity="0" d="M50.08,60.28c0.47,0,0.85,0.17,1.15,0.5
					c0.33,0.33,0.5,0.73,0.5,1.2c0,0.47-0.17,0.87-0.5,1.2c-0.3,0.33-0.68,0.5-1.15,0.5s-0.85-0.17-1.15-0.5
					c-0.33-0.33-0.5-0.73-0.5-1.2c0-0.47,0.17-0.87,0.5-1.2C49.23,60.45,49.62,60.28,50.08,60.28z M49.48,61.28
					c0.23-0.27,0.22-0.47-0.05-0.6c-0.47,0.2-0.52,0.43-0.15,0.7C49.35,61.42,49.42,61.38,49.48,61.28z"/>
				<path fill-rule="evenodd" clip-rule="evenodd" fill="#FFFFFF" d="M49.48,61.28c-0.07,0.1-0.13,0.13-0.2,0.1
					c-0.37-0.27-0.32-0.5,0.15-0.7C49.7,60.82,49.72,61.02,49.48,61.28z"/>
				
					<path fill-rule="evenodd" clip-rule="evenodd" fill="none" stroke="#FFFFFF" stroke-linecap="round" stroke-linejoin="round" stroke-miterlimit="3" stroke-opacity="0.8" d="
					M50.08,60.28c-0.47,0-0.85,0.17-1.15,0.5c-0.33,0.33-0.5,0.73-0.5,1.2c0,0.47,0.17,0.87,0.5,1.2c0.3,0.33,0.68,0.5,1.15,0.5
					s0.85-0.17,1.15-0.5c0.33-0.33,0.5-0.73,0.5-1.2c0-0.47-0.17-0.87-0.5-1.2C50.93,60.45,50.55,60.28,50.08,60.28z"/>
			</g>
		</g>
		<g>
			<g>
				<path fill-rule="evenodd" clip-rule="evenodd" fill="#43B649" fill-opacity="0" d="M48.93,42.18c0.3-0.33,0.68-0.5,1.15-0.5
					s0.85,0.17,1.15,0.5c0.33,0.33,0.5,0.73,0.5,1.2s-0.17,0.87-0.5,1.2c-0.3,0.33-0.68,0.5-1.15,0.5s-0.85-0.17-1.15-0.5
					c-0.33-0.33-0.5-0.73-0.5-1.2S48.6,42.52,48.93,42.18z M49.28,42.78c0.07,0.03,0.13,0,0.2-0.1c0.23-0.27,0.22-0.47-0.05-0.6
					C48.97,42.28,48.92,42.52,49.28,42.78z"/>
				<path fill-rule="evenodd" clip-rule="evenodd" fill="#FFFFFF" d="M49.28,42.78c-0.37-0.27-0.32-0.5,0.15-0.7
					c0.27,0.13,0.28,0.33,0.05,0.6C49.42,42.78,49.35,42.82,49.28,42.78z"/>
				
					<path fill-rule="evenodd" clip-rule="evenodd" fill="none" stroke="#FFFFFF" stroke-linecap="round" stroke-linejoin="round" stroke-miterlimit="3" stroke-opacity="0.8" d="
					M48.93,42.18c-0.33,0.33-0.5,0.73-0.5,1.2s0.17,0.87,0.5,1.2c0.3,0.33,0.68,0.5,1.15,0.5s0.85-0.17,1.15-0.5
					c0.33-0.33,0.5-0.73,0.5-1.2s-0.17-0.87-0.5-1.2c-0.3-0.33-0.68-0.5-1.15-0.5S49.23,41.85,48.93,42.18z"/>
			</g>
		</g>
		<g>
			<g>
				<path fill-rule="evenodd" clip-rule="evenodd" fill="#43B649" fill-opacity="0" d="M59.98,52.53c0-0.47,0.17-0.87,0.5-1.2
					c0.3-0.33,0.68-0.5,1.15-0.5s0.85,0.17,1.15,0.5c0.33,0.33,0.5,0.73,0.5,1.2s-0.17,0.87-0.5,1.2c-0.3,0.33-0.68,0.5-1.15,0.5
					s-0.85-0.17-1.15-0.5C60.15,53.4,59.98,53,59.98,52.53z M61.03,51.83c0.23-0.27,0.22-0.47-0.05-0.6
					c-0.47,0.2-0.52,0.43-0.15,0.7C60.9,51.97,60.97,51.93,61.03,51.83z"/>
				<path fill-rule="evenodd" clip-rule="evenodd" fill="#FFFFFF" d="M61.03,51.83c-0.07,0.1-0.13,0.13-0.2,0.1
					c-0.37-0.27-0.32-0.5,0.15-0.7C61.25,51.37,61.27,51.57,61.03,51.83z"/>
				
					<path fill-rule="evenodd" clip-rule="evenodd" fill="none" stroke="#FFFFFF" stroke-linecap="round" stroke-linejoin="round" stroke-miterlimit="3" stroke-opacity="0.8" d="
					M59.98,52.53c0,0.47,0.17,0.87,0.5,1.2c0.3,0.33,0.68,0.5,1.15,0.5s0.85-0.17,1.15-0.5c0.33-0.33,0.5-0.73,0.5-1.2
					s-0.17-0.87-0.5-1.2c-0.3-0.33-0.68-0.5-1.15-0.5s-0.85,0.17-1.15,0.5C60.15,51.67,59.98,52.07,59.98,52.53z"/>
			</g>
		</g>
		<g>
			<g>
				<path fill-rule="evenodd" clip-rule="evenodd" fill="#43B649" fill-opacity="0" d="M65.03,47.53c0.47,0,0.85,0.17,1.15,0.5
					c0.33,0.33,0.5,0.73,0.5,1.2c0,0.47-0.17,0.87-0.5,1.2c-0.3,0.33-0.68,0.5-1.15,0.5s-0.85-0.17-1.15-0.5
					c-0.33-0.33-0.5-0.73-0.5-1.2c0-0.47,0.17-0.87,0.5-1.2C64.18,47.7,64.57,47.53,65.03,47.53z M64.43,48.53
					c0.23-0.27,0.22-0.47-0.05-0.6c-0.47,0.2-0.52,0.43-0.15,0.7C64.3,48.67,64.37,48.63,64.43,48.53z"/>
				<path fill-rule="evenodd" clip-rule="evenodd" fill="#FFFFFF" d="M64.43,48.53c-0.07,0.1-0.13,0.13-0.2,0.1
					c-0.37-0.27-0.32-0.5,0.15-0.7C64.65,48.07,64.67,48.27,64.43,48.53z"/>
				
					<path fill-rule="evenodd" clip-rule="evenodd" fill="none" stroke="#FFFFFF" stroke-linecap="round" stroke-linejoin="round" stroke-miterlimit="3" stroke-opacity="0.8" d="
					M65.03,47.53c-0.47,0-0.85,0.17-1.15,0.5c-0.33,0.33-0.5,0.73-0.5,1.2c0,0.47,0.17,0.87,0.5,1.2c0.3,0.33,0.68,0.5,1.15,0.5
					s0.85-0.17,1.15-0.5c0.33-0.33,0.5-0.73,0.5-1.2c0-0.47-0.17-0.87-0.5-1.2C65.88,47.7,65.5,47.53,65.03,47.53z"/>
			</g>
		</g>
		<g>
			<g>
				<path fill-rule="evenodd" clip-rule="evenodd" fill="#43B649" fill-opacity="0" d="M68.48,52.73c-0.3,0.33-0.68,0.5-1.15,0.5
					s-0.85-0.17-1.15-0.5c-0.33-0.33-0.5-0.73-0.5-1.2s0.17-0.87,0.5-1.2c0.3-0.33,0.68-0.5,1.15-0.5s0.85,0.17,1.15,0.5
					c0.33,0.33,0.5,0.73,0.5,1.2S68.82,52.4,68.48,52.73z M66.53,50.93c0.07,0.03,0.13,0,0.2-0.1c0.23-0.27,0.22-0.47-0.05-0.6
					C66.22,50.43,66.17,50.67,66.53,50.93z"/>
				<path fill-rule="evenodd" clip-rule="evenodd" fill="#FFFFFF" d="M66.53,50.93c-0.37-0.27-0.32-0.5,0.15-0.7
					c0.27,0.13,0.28,0.33,0.05,0.6C66.67,50.93,66.6,50.97,66.53,50.93z"/>
				
					<path fill-rule="evenodd" clip-rule="evenodd" fill="none" stroke="#FFFFFF" stroke-linecap="round" stroke-linejoin="round" stroke-miterlimit="3" stroke-opacity="0.8" d="
					M68.48,52.73c0.33-0.33,0.5-0.73,0.5-1.2s-0.17-0.87-0.5-1.2c-0.3-0.33-0.68-0.5-1.15-0.5s-0.85,0.17-1.15,0.5
					c-0.33,0.33-0.5,0.73-0.5,1.2s0.17,0.87,0.5,1.2c0.3,0.33,0.68,0.5,1.15,0.5S68.18,53.07,68.48,52.73z"/>
			</g>
		</g>
		<g>
			<g>
				<path fill-rule="evenodd" clip-rule="evenodd" fill="#FFFFFF" d="M66.53,44.48c-0.37-0.27-0.32-0.5,0.15-0.7
					c0.27,0.13,0.28,0.33,0.05,0.6C66.67,44.48,66.6,44.52,66.53,44.48z"/>
				<path fill-rule="evenodd" clip-rule="evenodd" fill="#43B649" fill-opacity="0" d="M66.53,44.48c0.07,0.03,0.13,0,0.2-0.1
					c0.23-0.27,0.22-0.47-0.05-0.6C66.22,43.98,66.17,44.22,66.53,44.48z M65.68,45.08c0-0.47,0.17-0.87,0.5-1.2
					c0.3-0.33,0.68-0.5,1.15-0.5s0.85,0.17,1.15,0.5c0.33,0.33,0.5,0.73,0.5,1.2s-0.17,0.87-0.5,1.2c-0.3,0.33-0.68,0.5-1.15,0.5
					s-0.85-0.17-1.15-0.5C65.85,45.95,65.68,45.55,65.68,45.08z"/>
				
					<path fill-rule="evenodd" clip-rule="evenodd" fill="none" stroke="#FFFFFF" stroke-linecap="round" stroke-linejoin="round" stroke-miterlimit="3" stroke-opacity="0.8" d="
					M65.68,45.08c0,0.47,0.17,0.87,0.5,1.2c0.3,0.33,0.68,0.5,1.15,0.5s0.85-0.17,1.15-0.5c0.33-0.33,0.5-0.73,0.5-1.2
					s-0.17-0.87-0.5-1.2c-0.3-0.33-0.68-0.5-1.15-0.5s-0.85,0.17-1.15,0.5C65.85,44.22,65.68,44.62,65.68,45.08z"/>
			</g>
		</g>
		<g>
			<g>
				<path fill-rule="evenodd" clip-rule="evenodd" fill="#43B649" fill-opacity="0" d="M48.63,30.58c0.3-0.33,0.68-0.5,1.15-0.5
					s0.85,0.17,1.15,0.5c0.33,0.33,0.5,0.73,0.5,1.2c0,0.47-0.17,0.87-0.5,1.2c-0.3,0.33-0.68,0.5-1.15,0.5s-0.85-0.17-1.15-0.5
					c-0.33-0.33-0.5-0.73-0.5-1.2C48.13,31.32,48.3,30.92,48.63,30.58z M48.98,31.18c0.07,0.03,0.13,0,0.2-0.1
					c0.23-0.27,0.22-0.47-0.05-0.6C48.67,30.68,48.62,30.92,48.98,31.18z"/>
				<path fill-rule="evenodd" clip-rule="evenodd" fill="#FFFFFF" d="M48.98,31.18c-0.37-0.27-0.32-0.5,0.15-0.7
					c0.27,0.13,0.28,0.33,0.05,0.6C49.12,31.18,49.05,31.22,48.98,31.18z"/>
				
					<path fill-rule="evenodd" clip-rule="evenodd" fill="none" stroke="#FFFFFF" stroke-linecap="round" stroke-linejoin="round" stroke-miterlimit="3" stroke-opacity="0.8" d="
					M48.63,30.58c-0.33,0.33-0.5,0.73-0.5,1.2c0,0.47,0.17,0.87,0.5,1.2c0.3,0.33,0.68,0.5,1.15,0.5s0.85-0.17,1.15-0.5
					c0.33-0.33,0.5-0.73,0.5-1.2c0-0.47-0.17-0.87-0.5-1.2c-0.3-0.33-0.68-0.5-1.15-0.5S48.93,30.25,48.63,30.58z"/>
			</g>
		</g>
		<g>
			<g>
				<path fill-rule="evenodd" clip-rule="evenodd" fill="#43B649" fill-opacity="0" d="M49.18,23.63c0.47,0,0.85,0.17,1.15,0.5
					c0.33,0.33,0.5,0.73,0.5,1.2s-0.17,0.87-0.5,1.2c-0.3,0.33-0.68,0.5-1.15,0.5c-0.47,0-0.85-0.17-1.15-0.5
					c-0.33-0.33-0.5-0.73-0.5-1.2s0.17-0.87,0.5-1.2C48.33,23.8,48.72,23.63,49.18,23.63z M48.58,24.63
					c0.23-0.27,0.22-0.47-0.05-0.6c-0.47,0.2-0.52,0.43-0.15,0.7C48.45,24.77,48.52,24.73,48.58,24.63z"/>
				<path fill-rule="evenodd" clip-rule="evenodd" fill="#FFFFFF" d="M48.58,24.63c-0.07,0.1-0.13,0.13-0.2,0.1
					c-0.37-0.27-0.32-0.5,0.15-0.7C48.8,24.17,48.82,24.37,48.58,24.63z"/>
				
					<path fill-rule="evenodd" clip-rule="evenodd" fill="none" stroke="#FFFFFF" stroke-linecap="round" stroke-linejoin="round" stroke-miterlimit="3" stroke-opacity="0.8" d="
					M49.18,23.63c-0.47,0-0.85,0.17-1.15,0.5c-0.33,0.33-0.5,0.73-0.5,1.2s0.17,0.87,0.5,1.2c0.3,0.33,0.68,0.5,1.15,0.5
					c0.47,0,0.85-0.17,1.15-0.5c0.33-0.33,0.5-0.73,0.5-1.2s-0.17-0.87-0.5-1.2C50.03,23.8,49.65,23.63,49.18,23.63z"/>
			</g>
		</g>
		<g>
			<g>
				<path fill-rule="evenodd" clip-rule="evenodd" fill="#43B649" fill-opacity="0" d="M65.53,23.63c0.47,0,0.85,0.17,1.15,0.5
					c0.33,0.33,0.5,0.73,0.5,1.2s-0.17,0.87-0.5,1.2c-0.3,0.33-0.68,0.5-1.15,0.5s-0.85-0.17-1.15-0.5c-0.33-0.33-0.5-0.73-0.5-1.2
					s0.17-0.87,0.5-1.2C64.68,23.8,65.07,23.63,65.53,23.63z M64.93,24.63c0.23-0.27,0.22-0.47-0.05-0.6
					c-0.47,0.2-0.52,0.43-0.15,0.7C64.8,24.77,64.87,24.73,64.93,24.63z"/>
				<path fill-rule="evenodd" clip-rule="evenodd" fill="#FFFFFF" d="M64.93,24.63c-0.07,0.1-0.13,0.13-0.2,0.1
					c-0.37-0.27-0.32-0.5,0.15-0.7C65.15,24.17,65.17,24.37,64.93,24.63z"/>
				
					<path fill-rule="evenodd" clip-rule="evenodd" fill="none" stroke="#FFFFFF" stroke-linecap="round" stroke-linejoin="round" stroke-miterlimit="3" stroke-opacity="0.8" d="
					M65.53,23.63c-0.47,0-0.85,0.17-1.15,0.5c-0.33,0.33-0.5,0.73-0.5,1.2s0.17,0.87,0.5,1.2c0.3,0.33,0.68,0.5,1.15,0.5
					s0.85-0.17,1.15-0.5c0.33-0.33,0.5-0.73,0.5-1.2s-0.17-0.87-0.5-1.2C66.38,23.8,66,23.63,65.53,23.63z"/>
			</g>
		</g>
		<g>
			<g>
				<path fill-rule="evenodd" clip-rule="evenodd" fill="#43B649" fill-opacity="0" d="M63.13,16.73c-0.3,0.33-0.68,0.5-1.15,0.5
					c-0.47,0-0.85-0.17-1.15-0.5c-0.33-0.33-0.5-0.73-0.5-1.2c0-0.47,0.17-0.87,0.5-1.2c0.3-0.33,0.68-0.5,1.15-0.5
					c0.47,0,0.85,0.17,1.15,0.5c0.33,0.33,0.5,0.73,0.5,1.2C63.63,16,63.47,16.4,63.13,16.73z M61.38,14.83
					c0.23-0.27,0.22-0.47-0.05-0.6c-0.47,0.2-0.52,0.43-0.15,0.7C61.25,14.97,61.32,14.93,61.38,14.83z"/>
				<path fill-rule="evenodd" clip-rule="evenodd" fill="#FFFFFF" d="M61.38,14.83c-0.07,0.1-0.13,0.13-0.2,0.1
					c-0.37-0.27-0.32-0.5,0.15-0.7C61.6,14.37,61.62,14.57,61.38,14.83z"/>
				
					<path fill-rule="evenodd" clip-rule="evenodd" fill="none" stroke="#FFFFFF" stroke-linecap="round" stroke-linejoin="round" stroke-miterlimit="3" stroke-opacity="0.8" d="
					M63.13,16.73c0.33-0.33,0.5-0.73,0.5-1.2c0-0.47-0.17-0.87-0.5-1.2c-0.3-0.33-0.68-0.5-1.15-0.5c-0.47,0-0.85,0.17-1.15,0.5
					c-0.33,0.33-0.5,0.73-0.5,1.2c0,0.47,0.17,0.87,0.5,1.2c0.3,0.33,0.68,0.5,1.15,0.5C62.45,17.23,62.83,17.07,63.13,16.73z"/>
			</g>
		</g>
		<g>
			<g>
				<path fill-rule="evenodd" clip-rule="evenodd" fill="#43B649" fill-opacity="0" d="M75.08,8.03c0.3-0.33,0.68-0.5,1.15-0.5
					c0.47,0,0.85,0.17,1.15,0.5c0.33,0.33,0.5,0.73,0.5,1.2s-0.17,0.87-0.5,1.2c-0.3,0.33-0.68,0.5-1.15,0.5
					c-0.47,0-0.85-0.17-1.15-0.5c-0.33-0.33-0.5-0.73-0.5-1.2S74.75,8.37,75.08,8.03z M75.43,8.63c0.07,0.03,0.13,0,0.2-0.1
					c0.23-0.27,0.22-0.47-0.05-0.6C75.12,8.13,75.07,8.37,75.43,8.63z"/>
				<path fill-rule="evenodd" clip-rule="evenodd" fill="#FFFFFF" d="M75.43,8.63c-0.37-0.27-0.32-0.5,0.15-0.7
					c0.27,0.13,0.28,0.33,0.05,0.6C75.57,8.63,75.5,8.67,75.43,8.63z"/>
				
					<path fill-rule="evenodd" clip-rule="evenodd" fill="none" stroke="#FFFFFF" stroke-linecap="round" stroke-linejoin="round" stroke-miterlimit="3" stroke-opacity="0.8" d="
					M75.08,8.03c-0.33,0.33-0.5,0.73-0.5,1.2s0.17,0.87,0.5,1.2c0.3,0.33,0.68,0.5,1.15,0.5c0.47,0,0.85-0.17,1.15-0.5
					c0.33-0.33,0.5-0.73,0.5-1.2s-0.17-0.87-0.5-1.2c-0.3-0.33-0.68-0.5-1.15-0.5C75.77,7.53,75.38,7.7,75.08,8.03z"/>
			</g>
		</g>
		<g>
			<g>
				<path fill-rule="evenodd" clip-rule="evenodd" fill="#43B649" fill-opacity="0" d="M79.78,10.78c0-0.47,0.17-0.87,0.5-1.2
					c0.3-0.33,0.68-0.5,1.15-0.5c0.47,0,0.85,0.17,1.15,0.5c0.33,0.33,0.5,0.73,0.5,1.2c0,0.47-0.17,0.87-0.5,1.2
					c-0.3,0.33-0.68,0.5-1.15,0.5c-0.47,0-0.85-0.17-1.15-0.5C79.95,11.65,79.78,11.25,79.78,10.78z M80.83,10.08
					c0.23-0.27,0.22-0.47-0.05-0.6c-0.47,0.2-0.52,0.43-0.15,0.7C80.7,10.22,80.77,10.18,80.83,10.08z"/>
				<path fill-rule="evenodd" clip-rule="evenodd" fill="#FFFFFF" d="M80.83,10.08c-0.07,0.1-0.13,0.13-0.2,0.1
					c-0.37-0.27-0.32-0.5,0.15-0.7C81.05,9.62,81.07,9.82,80.83,10.08z"/>
				
					<path fill-rule="evenodd" clip-rule="evenodd" fill="none" stroke="#FFFFFF" stroke-linecap="round" stroke-linejoin="round" stroke-miterlimit="3" stroke-opacity="0.8" d="
					M79.78,10.78c0,0.47,0.17,0.87,0.5,1.2c0.3,0.33,0.68,0.5,1.15,0.5c0.47,0,0.85-0.17,1.15-0.5c0.33-0.33,0.5-0.73,0.5-1.2
					c0-0.47-0.17-0.87-0.5-1.2c-0.3-0.33-0.68-0.5-1.15-0.5c-0.47,0-0.85,0.17-1.15,0.5C79.95,9.92,79.78,10.32,79.78,10.78z"/>
			</g>
		</g>
		<g>
			<g>
				<path fill-rule="evenodd" clip-rule="evenodd" fill="#43B649" fill-opacity="0" d="M83.63,24.33c-0.3,0.33-0.68,0.5-1.15,0.5
					c-0.47,0-0.85-0.17-1.15-0.5c-0.33-0.33-0.5-0.73-0.5-1.2c0-0.47,0.17-0.87,0.5-1.2c0.3-0.33,0.68-0.5,1.15-0.5
					c0.47,0,0.85,0.17,1.15,0.5c0.33,0.33,0.5,0.73,0.5,1.2C84.13,23.6,83.97,24,83.63,24.33z M81.88,22.43
					c0.23-0.27,0.22-0.47-0.05-0.6c-0.47,0.2-0.52,0.43-0.15,0.7C81.75,22.57,81.82,22.53,81.88,22.43z"/>
				<path fill-rule="evenodd" clip-rule="evenodd" fill="#FFFFFF" d="M81.88,22.43c-0.07,0.1-0.13,0.13-0.2,0.1
					c-0.37-0.27-0.32-0.5,0.15-0.7C82.1,21.97,82.12,22.17,81.88,22.43z"/>
				
					<path fill-rule="evenodd" clip-rule="evenodd" fill="none" stroke="#FFFFFF" stroke-linecap="round" stroke-linejoin="round" stroke-miterlimit="3" stroke-opacity="0.8" d="
					M83.63,24.33c0.33-0.33,0.5-0.73,0.5-1.2c0-0.47-0.17-0.87-0.5-1.2c-0.3-0.33-0.68-0.5-1.15-0.5c-0.47,0-0.85,0.17-1.15,0.5
					c-0.33,0.33-0.5,0.73-0.5,1.2c0,0.47,0.17,0.87,0.5,1.2c0.3,0.33,0.68,0.5,1.15,0.5C82.95,24.83,83.33,24.67,83.63,24.33z"/>
			</g>
		</g>
	</g>
</g>
<g id="Layer_6">
</g>
</svg>
