<?xml version="1.0" encoding="utf-8"?>
<!-- Generator: Adobe Illustrator 16.0.0, SVG Export Plug-In . SVG Version: 6.00 Build 0)  -->
<!DOCTYPE svg PUBLIC "-//W3C//DTD SVG 1.1//EN" "http://www.w3.org/Graphics/SVG/1.1/DTD/svg11.dtd">
<svg version="1.1" xmlns="http://www.w3.org/2000/svg" xmlns:xlink="http://www.w3.org/1999/xlink" x="0px" y="0px" width="88.5px"
	 height="72px" viewBox="0 0 88.5 72" enable-background="new 0 0 88.5 72" xml:space="preserve">
<g id="Layer_2">
</g>
<g id="Layer_3">
</g>
<g id="Layer_4">
</g>
<g id="Layer_5">
</g>
<g id="Layer_6">
	<g>
		<g>
			<g>
				<path fill-rule="evenodd" clip-rule="evenodd" fill="#43B649" fill-opacity="0" d="M5.93,52.28c0.33,0.33,0.5,0.73,0.5,1.2
					c0,0.47-0.17,0.87-0.5,1.2c-0.3,0.33-0.68,0.5-1.15,0.5c-0.47,0-0.85-0.17-1.15-0.5c-0.33-0.33-0.5-0.73-0.5-1.2
					c0-0.47,0.17-0.87,0.5-1.2c0.3-0.33,0.68-0.5,1.15-0.5C5.25,51.78,5.63,51.95,5.93,52.28z M5.58,52.88
					c0.37-0.27,0.32-0.5-0.15-0.7c-0.27,0.13-0.28,0.33-0.05,0.6C5.45,52.88,5.52,52.92,5.58,52.88z"/>
				<path fill-rule="evenodd" clip-rule="evenodd" fill="#FFFFFF" d="M5.58,52.88c-0.07,0.03-0.13,0-0.2-0.1
					c-0.23-0.27-0.22-0.47,0.05-0.6C5.9,52.38,5.95,52.62,5.58,52.88z"/>
				
					<path fill-rule="evenodd" clip-rule="evenodd" fill="none" stroke="#FFFFFF" stroke-linecap="round" stroke-linejoin="round" stroke-miterlimit="3" stroke-opacity="0.8" d="
					M5.93,52.28c0.33,0.33,0.5,0.73,0.5,1.2c0,0.47-0.17,0.87-0.5,1.2c-0.3,0.33-0.68,0.5-1.15,0.5c-0.47,0-0.85-0.17-1.15-0.5
					c-0.33-0.33-0.5-0.73-0.5-1.2c0-0.47,0.17-0.87,0.5-1.2c0.3-0.33,0.68-0.5,1.15-0.5C5.25,51.78,5.63,51.95,5.93,52.28z"/>
			</g>
		</g>
		<g>
			<g>
				<path fill-rule="evenodd" clip-rule="evenodd" fill="#43B649" fill-opacity="0" d="M22.83,58.68c0.47,0,0.85,0.17,1.15,0.5
					c0.33,0.33,0.5,0.73,0.5,1.2s-0.17,0.87-0.5,1.2c-0.3,0.33-0.68,0.5-1.15,0.5s-0.85-0.17-1.15-0.5c-0.33-0.33-0.5-0.73-0.5-1.2
					s0.17-0.87,0.5-1.2C21.98,58.85,22.37,58.68,22.83,58.68z M23.43,59.68c0.07,0.1,0.13,0.13,0.2,0.1c0.37-0.27,0.32-0.5-0.15-0.7
					C23.22,59.22,23.2,59.42,23.43,59.68z"/>
				<path fill-rule="evenodd" clip-rule="evenodd" fill="#FFFFFF" d="M23.43,59.68c-0.23-0.27-0.22-0.47,0.05-0.6
					c0.47,0.2,0.52,0.43,0.15,0.7C23.57,59.82,23.5,59.78,23.43,59.68z"/>
				
					<path fill-rule="evenodd" clip-rule="evenodd" fill="none" stroke="#FFFFFF" stroke-linecap="round" stroke-linejoin="round" stroke-miterlimit="3" stroke-opacity="0.8" d="
					M22.83,58.68c0.47,0,0.85,0.17,1.15,0.5c0.33,0.33,0.5,0.73,0.5,1.2s-0.17,0.87-0.5,1.2c-0.3,0.33-0.68,0.5-1.15,0.5
					s-0.85-0.17-1.15-0.5c-0.33-0.33-0.5-0.73-0.5-1.2s0.17-0.87,0.5-1.2C21.98,58.85,22.37,58.68,22.83,58.68z"/>
			</g>
		</g>
		<g>
			<g>
				<path fill-rule="evenodd" clip-rule="evenodd" fill="#43B649" fill-opacity="0" d="M25.28,60.78c-0.33-0.33-0.5-0.73-0.5-1.2
					s0.17-0.87,0.5-1.2c0.3-0.33,0.68-0.5,1.15-0.5s0.85,0.17,1.15,0.5c0.33,0.33,0.5,0.73,0.5,1.2s-0.17,0.87-0.5,1.2
					c-0.3,0.33-0.68,0.5-1.15,0.5S25.58,61.12,25.28,60.78z M27.23,58.98c0.37-0.27,0.32-0.5-0.15-0.7
					c-0.27,0.13-0.28,0.33-0.05,0.6C27.1,58.98,27.17,59.02,27.23,58.98z"/>
				<path fill-rule="evenodd" clip-rule="evenodd" fill="#FFFFFF" d="M27.23,58.98c-0.07,0.03-0.13,0-0.2-0.1
					c-0.23-0.27-0.22-0.47,0.05-0.6C27.55,58.48,27.6,58.72,27.23,58.98z"/>
				
					<path fill-rule="evenodd" clip-rule="evenodd" fill="none" stroke="#FFFFFF" stroke-linecap="round" stroke-linejoin="round" stroke-miterlimit="3" stroke-opacity="0.8" d="
					M25.28,60.78c-0.33-0.33-0.5-0.73-0.5-1.2s0.17-0.87,0.5-1.2c0.3-0.33,0.68-0.5,1.15-0.5s0.85,0.17,1.15,0.5
					c0.33,0.33,0.5,0.73,0.5,1.2s-0.17,0.87-0.5,1.2c-0.3,0.33-0.68,0.5-1.15,0.5S25.58,61.12,25.28,60.78z"/>
			</g>
		</g>
		<g>
			<g>
				<path fill-rule="evenodd" clip-rule="evenodd" fill="#43B649" fill-opacity="0" d="M29.68,61.08c-0.33-0.33-0.5-0.73-0.5-1.2
					s0.17-0.87,0.5-1.2c0.3-0.33,0.68-0.5,1.15-0.5s0.85,0.17,1.15,0.5c0.33,0.33,0.5,0.73,0.5,1.2s-0.17,0.87-0.5,1.2
					c-0.3,0.33-0.68,0.5-1.15,0.5S29.98,61.42,29.68,61.08z M31.48,58.58c-0.27,0.13-0.28,0.33-0.05,0.6c0.07,0.1,0.13,0.13,0.2,0.1
					C32,59.02,31.95,58.78,31.48,58.58z"/>
				<path fill-rule="evenodd" clip-rule="evenodd" fill="#FFFFFF" d="M31.48,58.58c0.47,0.2,0.52,0.43,0.15,0.7
					c-0.07,0.03-0.13,0-0.2-0.1C31.2,58.92,31.22,58.72,31.48,58.58z"/>
				
					<path fill-rule="evenodd" clip-rule="evenodd" fill="none" stroke="#FFFFFF" stroke-linecap="round" stroke-linejoin="round" stroke-miterlimit="3" stroke-opacity="0.8" d="
					M29.68,61.08c-0.33-0.33-0.5-0.73-0.5-1.2s0.17-0.87,0.5-1.2c0.3-0.33,0.68-0.5,1.15-0.5s0.85,0.17,1.15,0.5
					c0.33,0.33,0.5,0.73,0.5,1.2s-0.17,0.87-0.5,1.2c-0.3,0.33-0.68,0.5-1.15,0.5S29.98,61.42,29.68,61.08z"/>
			</g>
		</g>
		<g>
			<g>
				<path fill-rule="evenodd" clip-rule="evenodd" fill="#43B649" fill-opacity="0" d="M34.88,59.88c0,0.47-0.17,0.87-0.5,1.2
					c-0.3,0.33-0.68,0.5-1.15,0.5s-0.85-0.17-1.15-0.5c-0.33-0.33-0.5-0.73-0.5-1.2s0.17-0.87,0.5-1.2c0.3-0.33,0.68-0.5,1.15-0.5
					s0.85,0.17,1.15,0.5C34.72,59.02,34.88,59.42,34.88,59.88z M33.83,59.18c0.07,0.1,0.13,0.13,0.2,0.1
					c0.37-0.27,0.32-0.5-0.15-0.7C33.62,58.72,33.6,58.92,33.83,59.18z"/>
				<path fill-rule="evenodd" clip-rule="evenodd" fill="#FFFFFF" d="M33.83,59.18c-0.23-0.27-0.22-0.47,0.05-0.6
					c0.47,0.2,0.52,0.43,0.15,0.7C33.97,59.32,33.9,59.28,33.83,59.18z"/>
				
					<path fill-rule="evenodd" clip-rule="evenodd" fill="none" stroke="#FFFFFF" stroke-linecap="round" stroke-linejoin="round" stroke-miterlimit="3" stroke-opacity="0.8" d="
					M34.88,59.88c0,0.47-0.17,0.87-0.5,1.2c-0.3,0.33-0.68,0.5-1.15,0.5s-0.85-0.17-1.15-0.5c-0.33-0.33-0.5-0.73-0.5-1.2
					s0.17-0.87,0.5-1.2c0.3-0.33,0.68-0.5,1.15-0.5s0.85,0.17,1.15,0.5C34.72,59.02,34.88,59.42,34.88,59.88z"/>
			</g>
		</g>
		<g>
			<g>
				<path fill-rule="evenodd" clip-rule="evenodd" fill="#43B649" fill-opacity="0" d="M34.33,62.73c0.47,0,0.85,0.17,1.15,0.5
					c0.33,0.33,0.5,0.73,0.5,1.2c0,0.47-0.17,0.87-0.5,1.2c-0.3,0.33-0.68,0.5-1.15,0.5s-0.85-0.17-1.15-0.5
					c-0.33-0.33-0.5-0.73-0.5-1.2c0-0.47,0.17-0.87,0.5-1.2C33.48,62.9,33.87,62.73,34.33,62.73z M34.98,63.13
					c-0.27,0.13-0.28,0.33-0.05,0.6c0.07,0.1,0.13,0.13,0.2,0.1C35.5,63.57,35.45,63.33,34.98,63.13z"/>
				<path fill-rule="evenodd" clip-rule="evenodd" fill="#FFFFFF" d="M34.98,63.13c0.47,0.2,0.52,0.43,0.15,0.7
					c-0.07,0.03-0.13,0-0.2-0.1C34.7,63.47,34.72,63.27,34.98,63.13z"/>
				
					<path fill-rule="evenodd" clip-rule="evenodd" fill="none" stroke="#FFFFFF" stroke-linecap="round" stroke-linejoin="round" stroke-miterlimit="3" stroke-opacity="0.8" d="
					M34.33,62.73c0.47,0,0.85,0.17,1.15,0.5c0.33,0.33,0.5,0.73,0.5,1.2c0,0.47-0.17,0.87-0.5,1.2c-0.3,0.33-0.68,0.5-1.15,0.5
					s-0.85-0.17-1.15-0.5c-0.33-0.33-0.5-0.73-0.5-1.2c0-0.47,0.17-0.87,0.5-1.2C33.48,62.9,33.87,62.73,34.33,62.73z"/>
			</g>
		</g>
		<g>
			<g>
				<path fill-rule="evenodd" clip-rule="evenodd" fill="#43B649" fill-opacity="0" d="M39.23,61.53c0.47,0,0.85,0.17,1.15,0.5
					c0.33,0.33,0.5,0.73,0.5,1.2c0,0.47-0.17,0.87-0.5,1.2c-0.3,0.33-0.68,0.5-1.15,0.5s-0.85-0.17-1.15-0.5
					c-0.33-0.33-0.5-0.73-0.5-1.2c0-0.47,0.17-0.87,0.5-1.2C38.38,61.7,38.77,61.53,39.23,61.53z M39.83,62.53
					c0.07,0.1,0.13,0.13,0.2,0.1c0.37-0.27,0.32-0.5-0.15-0.7C39.62,62.07,39.6,62.27,39.83,62.53z"/>
				<path fill-rule="evenodd" clip-rule="evenodd" fill="#FFFFFF" d="M39.83,62.53c-0.23-0.27-0.22-0.47,0.05-0.6
					c0.47,0.2,0.52,0.43,0.15,0.7C39.97,62.67,39.9,62.63,39.83,62.53z"/>
				
					<path fill-rule="evenodd" clip-rule="evenodd" fill="none" stroke="#FFFFFF" stroke-linecap="round" stroke-linejoin="round" stroke-miterlimit="3" stroke-opacity="0.8" d="
					M39.23,61.53c0.47,0,0.85,0.17,1.15,0.5c0.33,0.33,0.5,0.73,0.5,1.2c0,0.47-0.17,0.87-0.5,1.2c-0.3,0.33-0.68,0.5-1.15,0.5
					s-0.85-0.17-1.15-0.5c-0.33-0.33-0.5-0.73-0.5-1.2c0-0.47,0.17-0.87,0.5-1.2C38.38,61.7,38.77,61.53,39.23,61.53z"/>
			</g>
		</g>
		<g>
			<g>
				<path fill-rule="evenodd" clip-rule="evenodd" fill="#43B649" fill-opacity="0" d="M40.58,65.48c0,0.47-0.17,0.87-0.5,1.2
					c-0.3,0.33-0.68,0.5-1.15,0.5s-0.85-0.17-1.15-0.5c-0.33-0.33-0.5-0.73-0.5-1.2c0-0.47,0.17-0.87,0.5-1.2
					c0.3-0.33,0.68-0.5,1.15-0.5s0.85,0.17,1.15,0.5C40.42,64.62,40.58,65.02,40.58,65.48z M39.53,64.78c0.07,0.1,0.13,0.13,0.2,0.1
					c0.37-0.27,0.32-0.5-0.15-0.7C39.32,64.32,39.3,64.52,39.53,64.78z"/>
				<path fill-rule="evenodd" clip-rule="evenodd" fill="#FFFFFF" d="M39.53,64.78c-0.23-0.27-0.22-0.47,0.05-0.6
					c0.47,0.2,0.52,0.43,0.15,0.7C39.67,64.92,39.6,64.88,39.53,64.78z"/>
				
					<path fill-rule="evenodd" clip-rule="evenodd" fill="none" stroke="#FFFFFF" stroke-linecap="round" stroke-linejoin="round" stroke-miterlimit="3" stroke-opacity="0.8" d="
					M40.58,65.48c0,0.47-0.17,0.87-0.5,1.2c-0.3,0.33-0.68,0.5-1.15,0.5s-0.85-0.17-1.15-0.5c-0.33-0.33-0.5-0.73-0.5-1.2
					c0-0.47,0.17-0.87,0.5-1.2c0.3-0.33,0.68-0.5,1.15-0.5s0.85,0.17,1.15,0.5C40.42,64.62,40.58,65.02,40.58,65.48z"/>
			</g>
		</g>
		<g>
			<g>
				<path fill-rule="evenodd" clip-rule="evenodd" fill="#43B649" fill-opacity="0" d="M38.08,42.33c0.3-0.33,0.68-0.5,1.15-0.5
					s0.85,0.17,1.15,0.5c0.33,0.33,0.5,0.73,0.5,1.2s-0.17,0.87-0.5,1.2c-0.3,0.33-0.68,0.5-1.15,0.5s-0.85-0.17-1.15-0.5
					c-0.33-0.33-0.5-0.73-0.5-1.2S37.75,42.67,38.08,42.33z M40.03,42.93c0.37-0.27,0.32-0.5-0.15-0.7
					c-0.27,0.13-0.28,0.33-0.05,0.6C39.9,42.93,39.97,42.97,40.03,42.93z"/>
				<path fill-rule="evenodd" clip-rule="evenodd" fill="#FFFFFF" d="M40.03,42.93c-0.07,0.03-0.13,0-0.2-0.1
					c-0.23-0.27-0.22-0.47,0.05-0.6C40.35,42.43,40.4,42.67,40.03,42.93z"/>
				
					<path fill-rule="evenodd" clip-rule="evenodd" fill="none" stroke="#FFFFFF" stroke-linecap="round" stroke-linejoin="round" stroke-miterlimit="3" stroke-opacity="0.8" d="
					M38.08,42.33c0.3-0.33,0.68-0.5,1.15-0.5s0.85,0.17,1.15,0.5c0.33,0.33,0.5,0.73,0.5,1.2s-0.17,0.87-0.5,1.2
					c-0.3,0.33-0.68,0.5-1.15,0.5s-0.85-0.17-1.15-0.5c-0.33-0.33-0.5-0.73-0.5-1.2S37.75,42.67,38.08,42.33z"/>
			</g>
		</g>
		<g>
			<g>
				<path fill-rule="evenodd" clip-rule="evenodd" fill="#43B649" fill-opacity="0" d="M28.68,52.03c0.33,0.33,0.5,0.73,0.5,1.2
					c0,0.47-0.17,0.87-0.5,1.2c-0.3,0.33-0.68,0.5-1.15,0.5c-0.47,0-0.85-0.17-1.15-0.5c-0.33-0.33-0.5-0.73-0.5-1.2
					c0-0.47,0.17-0.87,0.5-1.2c0.3-0.33,0.68-0.5,1.15-0.5C28,51.53,28.38,51.7,28.68,52.03z M28.33,52.63
					c0.37-0.27,0.32-0.5-0.15-0.7c-0.27,0.13-0.28,0.33-0.05,0.6C28.2,52.63,28.27,52.67,28.33,52.63z"/>
				<path fill-rule="evenodd" clip-rule="evenodd" fill="#FFFFFF" d="M28.33,52.63c-0.07,0.03-0.13,0-0.2-0.1
					c-0.23-0.27-0.22-0.47,0.05-0.6C28.65,52.13,28.7,52.37,28.33,52.63z"/>
				
					<path fill-rule="evenodd" clip-rule="evenodd" fill="none" stroke="#FFFFFF" stroke-linecap="round" stroke-linejoin="round" stroke-miterlimit="3" stroke-opacity="0.8" d="
					M28.68,52.03c0.33,0.33,0.5,0.73,0.5,1.2c0,0.47-0.17,0.87-0.5,1.2c-0.3,0.33-0.68,0.5-1.15,0.5c-0.47,0-0.85-0.17-1.15-0.5
					c-0.33-0.33-0.5-0.73-0.5-1.2c0-0.47,0.17-0.87,0.5-1.2c0.3-0.33,0.68-0.5,1.15-0.5C28,51.53,28.38,51.7,28.68,52.03z"/>
			</g>
		</g>
		<g>
			<g>
				<path fill-rule="evenodd" clip-rule="evenodd" fill="#43B649" fill-opacity="0" d="M40.08,30.48c0.33,0.33,0.5,0.73,0.5,1.2
					s-0.17,0.87-0.5,1.2c-0.3,0.33-0.68,0.5-1.15,0.5s-0.85-0.17-1.15-0.5c-0.33-0.33-0.5-0.73-0.5-1.2s0.17-0.87,0.5-1.2
					c0.3-0.33,0.68-0.5,1.15-0.5S39.78,30.15,40.08,30.48z M39.73,31.08c0.37-0.27,0.32-0.5-0.15-0.7c-0.27,0.13-0.28,0.33-0.05,0.6
					C39.6,31.08,39.67,31.12,39.73,31.08z"/>
				<path fill-rule="evenodd" clip-rule="evenodd" fill="#FFFFFF" d="M39.73,31.08c-0.07,0.03-0.13,0-0.2-0.1
					c-0.23-0.27-0.22-0.47,0.05-0.6C40.05,30.58,40.1,30.82,39.73,31.08z"/>
				
					<path fill-rule="evenodd" clip-rule="evenodd" fill="none" stroke="#FFFFFF" stroke-linecap="round" stroke-linejoin="round" stroke-miterlimit="3" stroke-opacity="0.8" d="
					M40.08,30.48c0.33,0.33,0.5,0.73,0.5,1.2s-0.17,0.87-0.5,1.2c-0.3,0.33-0.68,0.5-1.15,0.5s-0.85-0.17-1.15-0.5
					c-0.33-0.33-0.5-0.73-0.5-1.2s0.17-0.87,0.5-1.2c0.3-0.33,0.68-0.5,1.15-0.5S39.78,30.15,40.08,30.48z"/>
			</g>
		</g>
		<g>
			<g>
				<path fill-rule="evenodd" clip-rule="evenodd" fill="#43B649" fill-opacity="0" d="M38.33,23.63c0.3-0.33,0.68-0.5,1.15-0.5
					s0.85,0.17,1.15,0.5c0.33,0.33,0.5,0.73,0.5,1.2s-0.17,0.87-0.5,1.2c-0.3,0.33-0.68,0.5-1.15,0.5s-0.85-0.17-1.15-0.5
					c-0.33-0.33-0.5-0.73-0.5-1.2S38,23.97,38.33,23.63z M40.08,24.13c0.07,0.1,0.13,0.13,0.2,0.1c0.37-0.27,0.32-0.5-0.15-0.7
					C39.87,23.67,39.85,23.87,40.08,24.13z"/>
				<path fill-rule="evenodd" clip-rule="evenodd" fill="#FFFFFF" d="M40.08,24.13c-0.23-0.27-0.22-0.47,0.05-0.6
					c0.47,0.2,0.52,0.43,0.15,0.7C40.22,24.27,40.15,24.23,40.08,24.13z"/>
				
					<path fill-rule="evenodd" clip-rule="evenodd" fill="none" stroke="#FFFFFF" stroke-linecap="round" stroke-linejoin="round" stroke-miterlimit="3" stroke-opacity="0.8" d="
					M38.33,23.63c0.3-0.33,0.68-0.5,1.15-0.5s0.85,0.17,1.15,0.5c0.33,0.33,0.5,0.73,0.5,1.2s-0.17,0.87-0.5,1.2
					c-0.3,0.33-0.68,0.5-1.15,0.5s-0.85-0.17-1.15-0.5c-0.33-0.33-0.5-0.73-0.5-1.2S38,23.97,38.33,23.63z"/>
			</g>
		</g>
		<g>
			<g>
				<path fill-rule="evenodd" clip-rule="evenodd" fill="#43B649" fill-opacity="0" d="M22.73,45.73c0,0.47-0.17,0.87-0.5,1.2
					c-0.3,0.33-0.68,0.5-1.15,0.5s-0.85-0.17-1.15-0.5c-0.33-0.33-0.5-0.73-0.5-1.2c0-0.47,0.17-0.87,0.5-1.2
					c0.3-0.33,0.68-0.5,1.15-0.5s0.85,0.17,1.15,0.5C22.57,44.87,22.73,45.27,22.73,45.73z M21.68,45.03c0.07,0.1,0.13,0.13,0.2,0.1
					c0.37-0.27,0.32-0.5-0.15-0.7C21.47,44.57,21.45,44.77,21.68,45.03z"/>
				<path fill-rule="evenodd" clip-rule="evenodd" fill="#FFFFFF" d="M21.68,45.03c-0.23-0.27-0.22-0.47,0.05-0.6
					c0.47,0.2,0.52,0.43,0.15,0.7C21.82,45.17,21.75,45.13,21.68,45.03z"/>
				
					<path fill-rule="evenodd" clip-rule="evenodd" fill="none" stroke="#FFFFFF" stroke-linecap="round" stroke-linejoin="round" stroke-miterlimit="3" stroke-opacity="0.8" d="
					M22.73,45.73c0,0.47-0.17,0.87-0.5,1.2c-0.3,0.33-0.68,0.5-1.15,0.5s-0.85-0.17-1.15-0.5c-0.33-0.33-0.5-0.73-0.5-1.2
					c0-0.47,0.17-0.87,0.5-1.2c0.3-0.33,0.68-0.5,1.15-0.5s0.85,0.17,1.15,0.5C22.57,44.87,22.73,45.27,22.73,45.73z"/>
			</g>
		</g>
		<g>
			<g>
				<path fill-rule="evenodd" clip-rule="evenodd" fill="#43B649" fill-opacity="0" d="M6.13,47.03c0.3-0.33,0.68-0.5,1.15-0.5
					c0.47,0,0.85,0.17,1.15,0.5c0.33,0.33,0.5,0.73,0.5,1.2c0,0.47-0.17,0.87-0.5,1.2c-0.3,0.33-0.68,0.5-1.15,0.5
					c-0.47,0-0.85-0.17-1.15-0.5c-0.33-0.33-0.5-0.73-0.5-1.2C5.63,47.77,5.8,47.37,6.13,47.03z M8.08,47.63
					c0.37-0.27,0.32-0.5-0.15-0.7c-0.27,0.13-0.28,0.33-0.05,0.6C7.95,47.63,8.02,47.67,8.08,47.63z"/>
				<path fill-rule="evenodd" clip-rule="evenodd" fill="#FFFFFF" d="M8.08,47.63c-0.07,0.03-0.13,0-0.2-0.1
					c-0.23-0.27-0.22-0.47,0.05-0.6C8.4,47.13,8.45,47.37,8.08,47.63z"/>
				
					<path fill-rule="evenodd" clip-rule="evenodd" fill="none" stroke="#FFFFFF" stroke-linecap="round" stroke-linejoin="round" stroke-miterlimit="3" stroke-opacity="0.8" d="
					M6.13,47.03c0.3-0.33,0.68-0.5,1.15-0.5c0.47,0,0.85,0.17,1.15,0.5c0.33,0.33,0.5,0.73,0.5,1.2c0,0.47-0.17,0.87-0.5,1.2
					c-0.3,0.33-0.68,0.5-1.15,0.5c-0.47,0-0.85-0.17-1.15-0.5c-0.33-0.33-0.5-0.73-0.5-1.2C5.63,47.77,5.8,47.37,6.13,47.03z"/>
			</g>
		</g>
		<g>
			<g>
				<path fill-rule="evenodd" clip-rule="evenodd" fill="#43B649" fill-opacity="0" d="M7.98,41.58c0.33,0.33,0.5,0.73,0.5,1.2
					s-0.17,0.87-0.5,1.2c-0.3,0.33-0.68,0.5-1.15,0.5s-0.85-0.17-1.15-0.5c-0.33-0.33-0.5-0.73-0.5-1.2s0.17-0.87,0.5-1.2
					c0.3-0.33,0.68-0.5,1.15-0.5S7.68,41.25,7.98,41.58z M7.63,42.18c0.37-0.27,0.32-0.5-0.15-0.7c-0.27,0.13-0.28,0.33-0.05,0.6
					C7.5,42.18,7.57,42.22,7.63,42.18z"/>
				<path fill-rule="evenodd" clip-rule="evenodd" fill="#FFFFFF" d="M7.63,42.18c-0.07,0.03-0.13,0-0.2-0.1
					c-0.23-0.27-0.22-0.47,0.05-0.6C7.95,41.68,8,41.92,7.63,42.18z"/>
				
					<path fill-rule="evenodd" clip-rule="evenodd" fill="none" stroke="#FFFFFF" stroke-linecap="round" stroke-linejoin="round" stroke-miterlimit="3" stroke-opacity="0.8" d="
					M7.98,41.58c0.33,0.33,0.5,0.73,0.5,1.2s-0.17,0.87-0.5,1.2c-0.3,0.33-0.68,0.5-1.15,0.5s-0.85-0.17-1.15-0.5
					c-0.33-0.33-0.5-0.73-0.5-1.2s0.17-0.87,0.5-1.2c0.3-0.33,0.68-0.5,1.15-0.5S7.68,41.25,7.98,41.58z"/>
			</g>
		</g>
		<g>
			<g>
				<path fill-rule="evenodd" clip-rule="evenodd" fill="#43B649" fill-opacity="0" d="M22.83,23.88c0.47,0,0.85,0.17,1.15,0.5
					c0.33,0.33,0.5,0.73,0.5,1.2s-0.17,0.87-0.5,1.2c-0.3,0.33-0.68,0.5-1.15,0.5s-0.85-0.17-1.15-0.5c-0.33-0.33-0.5-0.73-0.5-1.2
					s0.17-0.87,0.5-1.2C21.98,24.05,22.37,23.88,22.83,23.88z M23.43,24.88c0.07,0.1,0.13,0.13,0.2,0.1c0.37-0.27,0.32-0.5-0.15-0.7
					C23.22,24.42,23.2,24.62,23.43,24.88z"/>
				<path fill-rule="evenodd" clip-rule="evenodd" fill="#FFFFFF" d="M23.43,24.88c-0.23-0.27-0.22-0.47,0.05-0.6
					c0.47,0.2,0.52,0.43,0.15,0.7C23.57,25.02,23.5,24.98,23.43,24.88z"/>
				
					<path fill-rule="evenodd" clip-rule="evenodd" fill="none" stroke="#FFFFFF" stroke-linecap="round" stroke-linejoin="round" stroke-miterlimit="3" stroke-opacity="0.8" d="
					M22.83,23.88c0.47,0,0.85,0.17,1.15,0.5c0.33,0.33,0.5,0.73,0.5,1.2s-0.17,0.87-0.5,1.2c-0.3,0.33-0.68,0.5-1.15,0.5
					s-0.85-0.17-1.15-0.5c-0.33-0.33-0.5-0.73-0.5-1.2s0.17-0.87,0.5-1.2C21.98,24.05,22.37,23.88,22.83,23.88z"/>
			</g>
		</g>
		<g>
			<g>
				<path fill-rule="evenodd" clip-rule="evenodd" fill="#43B649" fill-opacity="0" d="M10.03,12.83c-0.33-0.33-0.5-0.73-0.5-1.2
					c0-0.47,0.17-0.87,0.5-1.2c0.3-0.33,0.68-0.5,1.15-0.5s0.85,0.17,1.15,0.5c0.33,0.33,0.5,0.73,0.5,1.2c0,0.47-0.17,0.87-0.5,1.2
					c-0.3,0.33-0.68,0.5-1.15,0.5S10.33,13.17,10.03,12.83z M11.78,10.93c0.07,0.1,0.13,0.13,0.2,0.1c0.37-0.27,0.32-0.5-0.15-0.7
					C11.57,10.47,11.55,10.67,11.78,10.93z"/>
				<path fill-rule="evenodd" clip-rule="evenodd" fill="#FFFFFF" d="M11.78,10.93c-0.23-0.27-0.22-0.47,0.05-0.6
					c0.47,0.2,0.52,0.43,0.15,0.7C11.92,11.07,11.85,11.03,11.78,10.93z"/>
				
					<path fill-rule="evenodd" clip-rule="evenodd" fill="none" stroke="#FFFFFF" stroke-linecap="round" stroke-linejoin="round" stroke-miterlimit="3" stroke-opacity="0.8" d="
					M10.03,12.83c-0.33-0.33-0.5-0.73-0.5-1.2c0-0.47,0.17-0.87,0.5-1.2c0.3-0.33,0.68-0.5,1.15-0.5s0.85,0.17,1.15,0.5
					c0.33,0.33,0.5,0.73,0.5,1.2c0,0.47-0.17,0.87-0.5,1.2c-0.3,0.33-0.68,0.5-1.15,0.5S10.33,13.17,10.03,12.83z"/>
			</g>
		</g>
		<g>
			<g>
				<path fill-rule="evenodd" clip-rule="evenodd" fill="#43B649" fill-opacity="0" d="M10.08,6.78c0.47,0,0.85,0.17,1.15,0.5
					c0.33,0.33,0.5,0.73,0.5,1.2s-0.17,0.87-0.5,1.2c-0.3,0.33-0.68,0.5-1.15,0.5s-0.85-0.17-1.15-0.5c-0.33-0.33-0.5-0.73-0.5-1.2
					s0.17-0.87,0.5-1.2C9.23,6.95,9.62,6.78,10.08,6.78z M10.68,7.78c0.07,0.1,0.13,0.13,0.2,0.1c0.37-0.27,0.32-0.5-0.15-0.7
					C10.47,7.32,10.45,7.52,10.68,7.78z"/>
				<path fill-rule="evenodd" clip-rule="evenodd" fill="#FFFFFF" d="M10.68,7.78c-0.23-0.27-0.22-0.47,0.05-0.6
					c0.47,0.2,0.52,0.43,0.15,0.7C10.82,7.92,10.75,7.88,10.68,7.78z"/>
				
					<path fill-rule="evenodd" clip-rule="evenodd" fill="none" stroke="#FFFFFF" stroke-linecap="round" stroke-linejoin="round" stroke-miterlimit="3" stroke-opacity="0.8" d="
					M10.08,6.78c0.47,0,0.85,0.17,1.15,0.5c0.33,0.33,0.5,0.73,0.5,1.2s-0.17,0.87-0.5,1.2c-0.3,0.33-0.68,0.5-1.15,0.5
					s-0.85-0.17-1.15-0.5c-0.33-0.33-0.5-0.73-0.5-1.2s0.17-0.87,0.5-1.2C9.23,6.95,9.62,6.78,10.08,6.78z"/>
			</g>
		</g>
		<g>
			<g>
				<path fill-rule="evenodd" clip-rule="evenodd" fill="#43B649" fill-opacity="0" d="M4.18,11.18c-0.33-0.33-0.5-0.73-0.5-1.2
					s0.17-0.87,0.5-1.2c0.3-0.33,0.68-0.5,1.15-0.5s0.85,0.17,1.15,0.5c0.33,0.33,0.5,0.73,0.5,1.2s-0.17,0.87-0.5,1.2
					c-0.3,0.33-0.68,0.5-1.15,0.5S4.48,11.52,4.18,11.18z M5.93,9.28c0.07,0.1,0.13,0.13,0.2,0.1c0.37-0.27,0.32-0.5-0.15-0.7
					C5.72,8.82,5.7,9.02,5.93,9.28z"/>
				<path fill-rule="evenodd" clip-rule="evenodd" fill="#FFFFFF" d="M5.93,9.28C5.7,9.02,5.72,8.82,5.98,8.68
					c0.47,0.2,0.52,0.43,0.15,0.7C6.07,9.42,6,9.38,5.93,9.28z"/>
				
					<path fill-rule="evenodd" clip-rule="evenodd" fill="none" stroke="#FFFFFF" stroke-linecap="round" stroke-linejoin="round" stroke-miterlimit="3" stroke-opacity="0.8" d="
					M4.18,11.18c-0.33-0.33-0.5-0.73-0.5-1.2s0.17-0.87,0.5-1.2c0.3-0.33,0.68-0.5,1.15-0.5s0.85,0.17,1.15,0.5
					c0.33,0.33,0.5,0.73,0.5,1.2s-0.17,0.87-0.5,1.2c-0.3,0.33-0.68,0.5-1.15,0.5S4.48,11.52,4.18,11.18z"/>
			</g>
		</g>
		<g>
			<g>
				<path fill-rule="evenodd" clip-rule="evenodd" fill="#43B649" fill-opacity="0" d="M6.08,22.88c0,0.47-0.17,0.87-0.5,1.2
					c-0.3,0.33-0.68,0.5-1.15,0.5s-0.85-0.17-1.15-0.5c-0.33-0.33-0.5-0.73-0.5-1.2c0-0.47,0.17-0.87,0.5-1.2
					c0.3-0.33,0.68-0.5,1.15-0.5s0.85,0.17,1.15,0.5C5.92,22.02,6.08,22.42,6.08,22.88z M5.03,22.18c0.07,0.1,0.13,0.13,0.2,0.1
					c0.37-0.27,0.32-0.5-0.15-0.7C4.82,21.72,4.8,21.92,5.03,22.18z"/>
				<path fill-rule="evenodd" clip-rule="evenodd" fill="#FFFFFF" d="M5.03,22.18c-0.23-0.27-0.22-0.47,0.05-0.6
					c0.47,0.2,0.52,0.43,0.15,0.7C5.17,22.32,5.1,22.28,5.03,22.18z"/>
				
					<path fill-rule="evenodd" clip-rule="evenodd" fill="none" stroke="#FFFFFF" stroke-linecap="round" stroke-linejoin="round" stroke-miterlimit="3" stroke-opacity="0.8" d="
					M6.08,22.88c0,0.47-0.17,0.87-0.5,1.2c-0.3,0.33-0.68,0.5-1.15,0.5s-0.85-0.17-1.15-0.5c-0.33-0.33-0.5-0.73-0.5-1.2
					c0-0.47,0.17-0.87,0.5-1.2c0.3-0.33,0.68-0.5,1.15-0.5s0.85,0.17,1.15,0.5C5.92,22.02,6.08,22.42,6.08,22.88z"/>
			</g>
		</g>
		<g>
			<g>
				<path fill-rule="evenodd" clip-rule="evenodd" fill="#43B649" fill-opacity="0" d="M13.58,55.73c0,0.47-0.17,0.87-0.5,1.2
					c-0.3,0.33-0.68,0.5-1.15,0.5s-0.85-0.17-1.15-0.5c-0.33-0.33-0.5-0.73-0.5-1.2c0-0.47,0.17-0.87,0.5-1.2
					c0.3-0.33,0.68-0.5,1.15-0.5s0.85,0.17,1.15,0.5C13.42,54.87,13.58,55.27,13.58,55.73z M12.53,55.03c0.07,0.1,0.13,0.13,0.2,0.1
					c0.37-0.27,0.32-0.5-0.15-0.7C12.32,54.57,12.3,54.77,12.53,55.03z"/>
				<path fill-rule="evenodd" clip-rule="evenodd" fill="#FFFFFF" d="M12.53,55.03c-0.23-0.27-0.22-0.47,0.05-0.6
					c0.47,0.2,0.52,0.43,0.15,0.7C12.67,55.17,12.6,55.13,12.53,55.03z"/>
				
					<path fill-rule="evenodd" clip-rule="evenodd" fill="none" stroke="#FFFFFF" stroke-linecap="round" stroke-linejoin="round" stroke-miterlimit="3" stroke-opacity="0.8" d="
					M13.58,55.73c0,0.47-0.17,0.87-0.5,1.2c-0.3,0.33-0.68,0.5-1.15,0.5s-0.85-0.17-1.15-0.5c-0.33-0.33-0.5-0.73-0.5-1.2
					c0-0.47,0.17-0.87,0.5-1.2c0.3-0.33,0.68-0.5,1.15-0.5s0.85,0.17,1.15,0.5C13.42,54.87,13.58,55.27,13.58,55.73z"/>
			</g>
		</g>
		<g>
			<g>
				<path fill-rule="evenodd" clip-rule="evenodd" fill="#43B649" fill-opacity="0" d="M83.93,50.43c0.47,0,0.85,0.17,1.15,0.5
					c0.33,0.33,0.5,0.73,0.5,1.2s-0.17,0.87-0.5,1.2c-0.3,0.33-0.68,0.5-1.15,0.5c-0.47,0-0.85-0.17-1.15-0.5
					c-0.33-0.33-0.5-0.73-0.5-1.2s0.17-0.87,0.5-1.2C83.08,50.6,83.47,50.43,83.93,50.43z M83.33,51.43
					c0.23-0.27,0.22-0.47-0.05-0.6c-0.47,0.2-0.52,0.43-0.15,0.7C83.2,51.57,83.27,51.53,83.33,51.43z"/>
				<path fill-rule="evenodd" clip-rule="evenodd" fill="#FFFFFF" d="M83.33,51.43c-0.07,0.1-0.13,0.13-0.2,0.1
					c-0.37-0.27-0.32-0.5,0.15-0.7C83.55,50.97,83.57,51.17,83.33,51.43z"/>
				
					<path fill-rule="evenodd" clip-rule="evenodd" fill="none" stroke="#FFFFFF" stroke-linecap="round" stroke-linejoin="round" stroke-miterlimit="3" stroke-opacity="0.8" d="
					M83.93,50.43c-0.47,0-0.85,0.17-1.15,0.5c-0.33,0.33-0.5,0.73-0.5,1.2s0.17,0.87,0.5,1.2c0.3,0.33,0.68,0.5,1.15,0.5
					c0.47,0,0.85-0.17,1.15-0.5c0.33-0.33,0.5-0.73,0.5-1.2s-0.17-0.87-0.5-1.2C84.78,50.6,84.4,50.43,83.93,50.43z"/>
			</g>
		</g>
		<g>
			<g>
				<path fill-rule="evenodd" clip-rule="evenodd" fill="#FFFFFF" d="M65.03,58.43c-0.37-0.27-0.32-0.5,0.15-0.7
					c0.27,0.13,0.28,0.33,0.05,0.6C65.17,58.43,65.1,58.47,65.03,58.43z"/>
				<path fill-rule="evenodd" clip-rule="evenodd" fill="#43B649" fill-opacity="0" d="M65.03,58.43c0.07,0.03,0.13,0,0.2-0.1
					c0.23-0.27,0.22-0.47-0.05-0.6C64.72,57.93,64.67,58.17,65.03,58.43z M66.98,60.23c-0.3,0.33-0.68,0.5-1.15,0.5
					s-0.85-0.17-1.15-0.5c-0.33-0.33-0.5-0.73-0.5-1.2s0.17-0.87,0.5-1.2c0.3-0.33,0.68-0.5,1.15-0.5s0.85,0.17,1.15,0.5
					c0.33,0.33,0.5,0.73,0.5,1.2S67.32,59.9,66.98,60.23z"/>
				
					<path fill-rule="evenodd" clip-rule="evenodd" fill="none" stroke="#FFFFFF" stroke-linecap="round" stroke-linejoin="round" stroke-miterlimit="3" stroke-opacity="0.8" d="
					M66.98,60.23c0.33-0.33,0.5-0.73,0.5-1.2s-0.17-0.87-0.5-1.2c-0.3-0.33-0.68-0.5-1.15-0.5s-0.85,0.17-1.15,0.5
					c-0.33,0.33-0.5,0.73-0.5,1.2s0.17,0.87,0.5,1.2c0.3,0.33,0.68,0.5,1.15,0.5S66.68,60.57,66.98,60.23z"/>
			</g>
		</g>
		<g>
			<g>
				<path fill-rule="evenodd" clip-rule="evenodd" fill="#FFFFFF" d="M61.63,57.53c-0.07,0.1-0.13,0.13-0.2,0.1
					c-0.37-0.27-0.32-0.5,0.15-0.7C61.85,57.07,61.87,57.27,61.63,57.53z"/>
				<path fill-rule="evenodd" clip-rule="evenodd" fill="#43B649" fill-opacity="0" d="M60.58,58.23c0-0.47,0.17-0.87,0.5-1.2
					c0.3-0.33,0.68-0.5,1.15-0.5c0.47,0,0.85,0.17,1.15,0.5c0.33,0.33,0.5,0.73,0.5,1.2c0,0.47-0.17,0.87-0.5,1.2
					c-0.3,0.33-0.68,0.5-1.15,0.5c-0.47,0-0.85-0.17-1.15-0.5C60.75,59.1,60.58,58.7,60.58,58.23z M61.63,57.53
					c0.23-0.27,0.22-0.47-0.05-0.6c-0.47,0.2-0.52,0.43-0.15,0.7C61.5,57.67,61.57,57.63,61.63,57.53z"/>
				
					<path fill-rule="evenodd" clip-rule="evenodd" fill="none" stroke="#FFFFFF" stroke-linecap="round" stroke-linejoin="round" stroke-miterlimit="3" stroke-opacity="0.8" d="
					M60.58,58.23c0,0.47,0.17,0.87,0.5,1.2c0.3,0.33,0.68,0.5,1.15,0.5c0.47,0,0.85-0.17,1.15-0.5c0.33-0.33,0.5-0.73,0.5-1.2
					c0-0.47-0.17-0.87-0.5-1.2c-0.3-0.33-0.68-0.5-1.15-0.5c-0.47,0-0.85,0.17-1.15,0.5C60.75,57.37,60.58,57.77,60.58,58.23z"/>
			</g>
		</g>
		<g>
			<g>
				<path fill-rule="evenodd" clip-rule="evenodd" fill="#43B649" fill-opacity="0" d="M57.88,56.83c0.47,0,0.85,0.17,1.15,0.5
					c0.33,0.33,0.5,0.73,0.5,1.2s-0.17,0.87-0.5,1.2c-0.3,0.33-0.68,0.5-1.15,0.5s-0.85-0.17-1.15-0.5c-0.33-0.33-0.5-0.73-0.5-1.2
					s0.17-0.87,0.5-1.2C57.03,57,57.42,56.83,57.88,56.83z M57.28,57.83c0.23-0.27,0.22-0.47-0.05-0.6c-0.47,0.2-0.52,0.43-0.15,0.7
					C57.15,57.97,57.22,57.93,57.28,57.83z"/>
				<path fill-rule="evenodd" clip-rule="evenodd" fill="#FFFFFF" d="M57.28,57.83c-0.07,0.1-0.13,0.13-0.2,0.1
					c-0.37-0.27-0.32-0.5,0.15-0.7C57.5,57.37,57.52,57.57,57.28,57.83z"/>
				
					<path fill-rule="evenodd" clip-rule="evenodd" fill="none" stroke="#FFFFFF" stroke-linecap="round" stroke-linejoin="round" stroke-miterlimit="3" stroke-opacity="0.8" d="
					M57.88,56.83c-0.47,0-0.85,0.17-1.15,0.5c-0.33,0.33-0.5,0.73-0.5,1.2s0.17,0.87,0.5,1.2c0.3,0.33,0.68,0.5,1.15,0.5
					s0.85-0.17,1.15-0.5c0.33-0.33,0.5-0.73,0.5-1.2s-0.17-0.87-0.5-1.2C58.73,57,58.35,56.83,57.88,56.83z"/>
			</g>
		</g>
		<g>
			<g>
				<path fill-rule="evenodd" clip-rule="evenodd" fill="#43B649" fill-opacity="0" d="M54.33,57.33c0.3-0.33,0.68-0.5,1.15-0.5
					c0.47,0,0.85,0.17,1.15,0.5c0.33,0.33,0.5,0.73,0.5,1.2s-0.17,0.87-0.5,1.2c-0.3,0.33-0.68,0.5-1.15,0.5
					c-0.47,0-0.85-0.17-1.15-0.5c-0.33-0.33-0.5-0.73-0.5-1.2S54,57.67,54.33,57.33z M54.88,57.83c0.23-0.27,0.22-0.47-0.05-0.6
					c-0.47,0.2-0.52,0.43-0.15,0.7C54.75,57.97,54.82,57.93,54.88,57.83z"/>
				<path fill-rule="evenodd" clip-rule="evenodd" fill="#FFFFFF" d="M54.88,57.83c-0.07,0.1-0.13,0.13-0.2,0.1
					c-0.37-0.27-0.32-0.5,0.15-0.7C55.1,57.37,55.12,57.57,54.88,57.83z"/>
				
					<path fill-rule="evenodd" clip-rule="evenodd" fill="none" stroke="#FFFFFF" stroke-linecap="round" stroke-linejoin="round" stroke-miterlimit="3" stroke-opacity="0.8" d="
					M54.33,57.33c-0.33,0.33-0.5,0.73-0.5,1.2s0.17,0.87,0.5,1.2c0.3,0.33,0.68,0.5,1.15,0.5c0.47,0,0.85-0.17,1.15-0.5
					c0.33-0.33,0.5-0.73,0.5-1.2s-0.17-0.87-0.5-1.2c-0.3-0.33-0.68-0.5-1.15-0.5C55.02,56.83,54.63,57,54.33,57.33z"/>
			</g>
		</g>
		<g>
			<g>
				<path fill-rule="evenodd" clip-rule="evenodd" fill="#43B649" fill-opacity="0" d="M54.38,61.38c0.47,0,0.85,0.17,1.15,0.5
					c0.33,0.33,0.5,0.73,0.5,1.2s-0.17,0.87-0.5,1.2c-0.3,0.33-0.68,0.5-1.15,0.5s-0.85-0.17-1.15-0.5c-0.33-0.33-0.5-0.73-0.5-1.2
					s0.17-0.87,0.5-1.2C53.53,61.55,53.92,61.38,54.38,61.38z M53.78,62.38c0.23-0.27,0.22-0.47-0.05-0.6
					c-0.47,0.2-0.52,0.43-0.15,0.7C53.65,62.52,53.72,62.48,53.78,62.38z"/>
				<path fill-rule="evenodd" clip-rule="evenodd" fill="#FFFFFF" d="M53.78,62.38c-0.07,0.1-0.13,0.13-0.2,0.1
					c-0.37-0.27-0.32-0.5,0.15-0.7C54,61.92,54.02,62.12,53.78,62.38z"/>
				
					<path fill-rule="evenodd" clip-rule="evenodd" fill="none" stroke="#FFFFFF" stroke-linecap="round" stroke-linejoin="round" stroke-miterlimit="3" stroke-opacity="0.8" d="
					M54.38,61.38c-0.47,0-0.85,0.17-1.15,0.5c-0.33,0.33-0.5,0.73-0.5,1.2s0.17,0.87,0.5,1.2c0.3,0.33,0.68,0.5,1.15,0.5
					s0.85-0.17,1.15-0.5c0.33-0.33,0.5-0.73,0.5-1.2s-0.17-0.87-0.5-1.2C55.23,61.55,54.85,61.38,54.38,61.38z"/>
			</g>
		</g>
		<g>
			<g>
				<path fill-rule="evenodd" clip-rule="evenodd" fill="#43B649" fill-opacity="0" d="M49.43,60.18c0.47,0,0.85,0.17,1.15,0.5
					c0.33,0.33,0.5,0.73,0.5,1.2s-0.17,0.87-0.5,1.2c-0.3,0.33-0.68,0.5-1.15,0.5c-0.47,0-0.85-0.17-1.15-0.5
					c-0.33-0.33-0.5-0.73-0.5-1.2s0.17-0.87,0.5-1.2C48.58,60.35,48.97,60.18,49.43,60.18z M48.83,61.18
					c0.23-0.27,0.22-0.47-0.05-0.6c-0.47,0.2-0.52,0.43-0.15,0.7C48.7,61.32,48.77,61.28,48.83,61.18z"/>
				<path fill-rule="evenodd" clip-rule="evenodd" fill="#FFFFFF" d="M48.83,61.18c-0.07,0.1-0.13,0.13-0.2,0.1
					c-0.37-0.27-0.32-0.5,0.15-0.7C49.05,60.72,49.07,60.92,48.83,61.18z"/>
				
					<path fill-rule="evenodd" clip-rule="evenodd" fill="none" stroke="#FFFFFF" stroke-linecap="round" stroke-linejoin="round" stroke-miterlimit="3" stroke-opacity="0.8" d="
					M49.43,60.18c-0.47,0-0.85,0.17-1.15,0.5c-0.33,0.33-0.5,0.73-0.5,1.2s0.17,0.87,0.5,1.2c0.3,0.33,0.68,0.5,1.15,0.5
					c0.47,0,0.85-0.17,1.15-0.5c0.33-0.33,0.5-0.73,0.5-1.2s-0.17-0.87-0.5-1.2C50.28,60.35,49.9,60.18,49.43,60.18z"/>
			</g>
		</g>
		<g>
			<g>
				<path fill-rule="evenodd" clip-rule="evenodd" fill="#43B649" fill-opacity="0" d="M49.78,62.43c0.47,0,0.85,0.17,1.15,0.5
					c0.33,0.33,0.5,0.73,0.5,1.2s-0.17,0.87-0.5,1.2c-0.3,0.33-0.68,0.5-1.15,0.5s-0.85-0.17-1.15-0.5c-0.33-0.33-0.5-0.73-0.5-1.2
					s0.17-0.87,0.5-1.2C48.93,62.6,49.32,62.43,49.78,62.43z M49.18,63.43c0.23-0.27,0.22-0.47-0.05-0.6
					c-0.47,0.2-0.52,0.43-0.15,0.7C49.05,63.57,49.12,63.53,49.18,63.43z"/>
				<path fill-rule="evenodd" clip-rule="evenodd" fill="#FFFFFF" d="M49.18,63.43c-0.07,0.1-0.13,0.13-0.2,0.1
					c-0.37-0.27-0.32-0.5,0.15-0.7C49.4,62.97,49.42,63.17,49.18,63.43z"/>
				
					<path fill-rule="evenodd" clip-rule="evenodd" fill="none" stroke="#FFFFFF" stroke-linecap="round" stroke-linejoin="round" stroke-miterlimit="3" stroke-opacity="0.8" d="
					M49.78,62.43c-0.47,0-0.85,0.17-1.15,0.5c-0.33,0.33-0.5,0.73-0.5,1.2s0.17,0.87,0.5,1.2c0.3,0.33,0.68,0.5,1.15,0.5
					s0.85-0.17,1.15-0.5c0.33-0.33,0.5-0.73,0.5-1.2s-0.17-0.87-0.5-1.2C50.63,62.6,50.25,62.43,49.78,62.43z"/>
			</g>
		</g>
		<g>
			<g>
				<path fill-rule="evenodd" clip-rule="evenodd" fill="#43B649" fill-opacity="0" d="M49.43,40.48c0.47,0,0.85,0.17,1.15,0.5
					c0.33,0.33,0.5,0.73,0.5,1.2c0,0.47-0.17,0.87-0.5,1.2c-0.3,0.33-0.68,0.5-1.15,0.5c-0.47,0-0.85-0.17-1.15-0.5
					c-0.33-0.33-0.5-0.73-0.5-1.2c0-0.47,0.17-0.87,0.5-1.2C48.58,40.65,48.97,40.48,49.43,40.48z M48.83,41.48
					c0.23-0.27,0.22-0.47-0.05-0.6c-0.47,0.2-0.52,0.43-0.15,0.7C48.7,41.62,48.77,41.58,48.83,41.48z"/>
				<path fill-rule="evenodd" clip-rule="evenodd" fill="#FFFFFF" d="M48.83,41.48c-0.07,0.1-0.13,0.13-0.2,0.1
					c-0.37-0.27-0.32-0.5,0.15-0.7C49.05,41.02,49.07,41.22,48.83,41.48z"/>
				
					<path fill-rule="evenodd" clip-rule="evenodd" fill="none" stroke="#FFFFFF" stroke-linecap="round" stroke-linejoin="round" stroke-miterlimit="3" stroke-opacity="0.8" d="
					M49.43,40.48c-0.47,0-0.85,0.17-1.15,0.5c-0.33,0.33-0.5,0.73-0.5,1.2c0,0.47,0.17,0.87,0.5,1.2c0.3,0.33,0.68,0.5,1.15,0.5
					c0.47,0,0.85-0.17,1.15-0.5c0.33-0.33,0.5-0.73,0.5-1.2c0-0.47-0.17-0.87-0.5-1.2C50.28,40.65,49.9,40.48,49.43,40.48z"/>
			</g>
		</g>
		<g>
			<g>
				<path fill-rule="evenodd" clip-rule="evenodd" fill="#43B649" fill-opacity="0" d="M60.58,51.18c0.23-0.27,0.22-0.47-0.05-0.6
					c-0.47,0.2-0.52,0.43-0.15,0.7C60.45,51.32,60.52,51.28,60.58,51.18z M60.03,50.68c0.3-0.33,0.68-0.5,1.15-0.5
					c0.47,0,0.85,0.17,1.15,0.5c0.33,0.33,0.5,0.73,0.5,1.2s-0.17,0.87-0.5,1.2c-0.3,0.33-0.68,0.5-1.15,0.5
					c-0.47,0-0.85-0.17-1.15-0.5c-0.33-0.33-0.5-0.73-0.5-1.2S59.7,51.02,60.03,50.68z"/>
				<path fill-rule="evenodd" clip-rule="evenodd" fill="#FFFFFF" d="M60.58,51.18c-0.07,0.1-0.13,0.13-0.2,0.1
					c-0.37-0.27-0.32-0.5,0.15-0.7C60.8,50.72,60.82,50.92,60.58,51.18z"/>
				
					<path fill-rule="evenodd" clip-rule="evenodd" fill="none" stroke="#FFFFFF" stroke-linecap="round" stroke-linejoin="round" stroke-miterlimit="3" stroke-opacity="0.8" d="
					M60.03,50.68c-0.33,0.33-0.5,0.73-0.5,1.2s0.17,0.87,0.5,1.2c0.3,0.33,0.68,0.5,1.15,0.5c0.47,0,0.85-0.17,1.15-0.5
					c0.33-0.33,0.5-0.73,0.5-1.2s-0.17-0.87-0.5-1.2c-0.3-0.33-0.68-0.5-1.15-0.5C60.72,50.18,60.33,50.35,60.03,50.68z"/>
			</g>
		</g>
		<g>
			<g>
				<path fill-rule="evenodd" clip-rule="evenodd" fill="#43B649" fill-opacity="0" d="M49.78,28.68c0.47,0,0.85,0.17,1.15,0.5
					c0.33,0.33,0.5,0.73,0.5,1.2c0,0.47-0.17,0.87-0.5,1.2c-0.3,0.33-0.68,0.5-1.15,0.5s-0.85-0.17-1.15-0.5
					c-0.33-0.33-0.5-0.73-0.5-1.2c0-0.47,0.17-0.87,0.5-1.2C48.93,28.85,49.32,28.68,49.78,28.68z M49.18,29.68
					c0.23-0.27,0.22-0.47-0.05-0.6c-0.47,0.2-0.52,0.43-0.15,0.7C49.05,29.82,49.12,29.78,49.18,29.68z"/>
				<path fill-rule="evenodd" clip-rule="evenodd" fill="#FFFFFF" d="M49.18,29.68c-0.07,0.1-0.13,0.13-0.2,0.1
					c-0.37-0.27-0.32-0.5,0.15-0.7C49.4,29.22,49.42,29.42,49.18,29.68z"/>
				
					<path fill-rule="evenodd" clip-rule="evenodd" fill="none" stroke="#FFFFFF" stroke-linecap="round" stroke-linejoin="round" stroke-miterlimit="3" stroke-opacity="0.8" d="
					M49.78,28.68c-0.47,0-0.85,0.17-1.15,0.5c-0.33,0.33-0.5,0.73-0.5,1.2c0,0.47,0.17,0.87,0.5,1.2c0.3,0.33,0.68,0.5,1.15,0.5
					s0.85-0.17,1.15-0.5c0.33-0.33,0.5-0.73,0.5-1.2c0-0.47-0.17-0.87-0.5-1.2C50.63,28.85,50.25,28.68,49.78,28.68z"/>
			</g>
		</g>
		<g>
			<g>
				<path fill-rule="evenodd" clip-rule="evenodd" fill="#43B649" fill-opacity="0" d="M50.38,22.33c0.33,0.33,0.5,0.73,0.5,1.2
					c0,0.47-0.17,0.87-0.5,1.2c-0.3,0.33-0.68,0.5-1.15,0.5c-0.47,0-0.85-0.17-1.15-0.5c-0.33-0.33-0.5-0.73-0.5-1.2
					c0-0.47,0.17-0.87,0.5-1.2c0.3-0.33,0.68-0.5,1.15-0.5C49.7,21.83,50.08,22,50.38,22.33z M48.63,22.83
					c0.23-0.27,0.22-0.47-0.05-0.6c-0.47,0.2-0.52,0.43-0.15,0.7C48.5,22.97,48.57,22.93,48.63,22.83z"/>
				<path fill-rule="evenodd" clip-rule="evenodd" fill="#FFFFFF" d="M48.63,22.83c-0.07,0.1-0.13,0.13-0.2,0.1
					c-0.37-0.27-0.32-0.5,0.15-0.7C48.85,22.37,48.87,22.57,48.63,22.83z"/>
				
					<path fill-rule="evenodd" clip-rule="evenodd" fill="none" stroke="#FFFFFF" stroke-linecap="round" stroke-linejoin="round" stroke-miterlimit="3" stroke-opacity="0.8" d="
					M50.38,22.33c-0.3-0.33-0.68-0.5-1.15-0.5c-0.47,0-0.85,0.17-1.15,0.5c-0.33,0.33-0.5,0.73-0.5,1.2c0,0.47,0.17,0.87,0.5,1.2
					c0.3,0.33,0.68,0.5,1.15,0.5c0.47,0,0.85-0.17,1.15-0.5c0.33-0.33,0.5-0.73,0.5-1.2C50.88,23.07,50.72,22.67,50.38,22.33z"/>
			</g>
		</g>
		<g>
			<g>
				<path fill-rule="evenodd" clip-rule="evenodd" fill="#43B649" fill-opacity="0" d="M67.58,42.68c0.47,0,0.85,0.17,1.15,0.5
					c0.33,0.33,0.5,0.73,0.5,1.2s-0.17,0.87-0.5,1.2c-0.3,0.33-0.68,0.5-1.15,0.5s-0.85-0.17-1.15-0.5c-0.33-0.33-0.5-0.73-0.5-1.2
					s0.17-0.87,0.5-1.2C66.73,42.85,67.12,42.68,67.58,42.68z M66.78,43.78c0.07,0.03,0.13,0,0.2-0.1c0.23-0.27,0.22-0.47-0.05-0.6
					C66.47,43.28,66.42,43.52,66.78,43.78z"/>
				<path fill-rule="evenodd" clip-rule="evenodd" fill="#FFFFFF" d="M66.78,43.78c-0.37-0.27-0.32-0.5,0.15-0.7
					c0.27,0.13,0.28,0.33,0.05,0.6C66.92,43.78,66.85,43.82,66.78,43.78z"/>
				
					<path fill-rule="evenodd" clip-rule="evenodd" fill="none" stroke="#FFFFFF" stroke-linecap="round" stroke-linejoin="round" stroke-miterlimit="3" stroke-opacity="0.8" d="
					M67.58,42.68c-0.47,0-0.85,0.17-1.15,0.5c-0.33,0.33-0.5,0.73-0.5,1.2s0.17,0.87,0.5,1.2c0.3,0.33,0.68,0.5,1.15,0.5
					s0.85-0.17,1.15-0.5c0.33-0.33,0.5-0.73,0.5-1.2s-0.17-0.87-0.5-1.2C68.43,42.85,68.05,42.68,67.58,42.68z"/>
			</g>
		</g>
		<g>
			<g>
				<path fill-rule="evenodd" clip-rule="evenodd" fill="#43B649" fill-opacity="0" d="M82.58,45.68c0.33,0.33,0.5,0.73,0.5,1.2
					s-0.17,0.87-0.5,1.2c-0.3,0.33-0.68,0.5-1.15,0.5c-0.47,0-0.85-0.17-1.15-0.5c-0.33-0.33-0.5-0.73-0.5-1.2s0.17-0.87,0.5-1.2
					c0.3-0.33,0.68-0.5,1.15-0.5C81.9,45.18,82.28,45.35,82.58,45.68z M80.83,46.18c0.23-0.27,0.22-0.47-0.05-0.6
					c-0.47,0.2-0.52,0.43-0.15,0.7C80.7,46.32,80.77,46.28,80.83,46.18z"/>
				<path fill-rule="evenodd" clip-rule="evenodd" fill="#FFFFFF" d="M80.83,46.18c-0.07,0.1-0.13,0.13-0.2,0.1
					c-0.37-0.27-0.32-0.5,0.15-0.7C81.05,45.72,81.07,45.92,80.83,46.18z"/>
				
					<path fill-rule="evenodd" clip-rule="evenodd" fill="none" stroke="#FFFFFF" stroke-linecap="round" stroke-linejoin="round" stroke-miterlimit="3" stroke-opacity="0.8" d="
					M82.58,45.68c-0.3-0.33-0.68-0.5-1.15-0.5c-0.47,0-0.85,0.17-1.15,0.5c-0.33,0.33-0.5,0.73-0.5,1.2s0.17,0.87,0.5,1.2
					c0.3,0.33,0.68,0.5,1.15,0.5c0.47,0,0.85-0.17,1.15-0.5c0.33-0.33,0.5-0.73,0.5-1.2S82.92,46.02,82.58,45.68z"/>
			</g>
		</g>
		<g>
			<g>
				<path fill-rule="evenodd" clip-rule="evenodd" fill="#43B649" fill-opacity="0" d="M83.03,40.23c0.33,0.33,0.5,0.73,0.5,1.2
					c0,0.47-0.17,0.87-0.5,1.2c-0.3,0.33-0.68,0.5-1.15,0.5s-0.85-0.17-1.15-0.5c-0.33-0.33-0.5-0.73-0.5-1.2
					c0-0.47,0.17-0.87,0.5-1.2c0.3-0.33,0.68-0.5,1.15-0.5S82.73,39.9,83.03,40.23z M81.28,40.73c0.23-0.27,0.22-0.47-0.05-0.6
					c-0.47,0.2-0.52,0.43-0.15,0.7C81.15,40.87,81.22,40.83,81.28,40.73z"/>
				<path fill-rule="evenodd" clip-rule="evenodd" fill="#FFFFFF" d="M81.28,40.73c-0.07,0.1-0.13,0.13-0.2,0.1
					c-0.37-0.27-0.32-0.5,0.15-0.7C81.5,40.27,81.52,40.47,81.28,40.73z"/>
				
					<path fill-rule="evenodd" clip-rule="evenodd" fill="none" stroke="#FFFFFF" stroke-linecap="round" stroke-linejoin="round" stroke-miterlimit="3" stroke-opacity="0.8" d="
					M83.03,40.23c-0.3-0.33-0.68-0.5-1.15-0.5s-0.85,0.17-1.15,0.5c-0.33,0.33-0.5,0.73-0.5,1.2c0,0.47,0.17,0.87,0.5,1.2
					c0.3,0.33,0.68,0.5,1.15,0.5s0.85-0.17,1.15-0.5c0.33-0.33,0.5-0.73,0.5-1.2C83.53,40.97,83.37,40.57,83.03,40.23z"/>
			</g>
		</g>
		<g>
			<g>
				<path fill-rule="evenodd" clip-rule="evenodd" fill="#FFFFFF" d="M65.18,22.93c0.27,0.13,0.28,0.33,0.05,0.6
					c-0.07,0.1-0.13,0.13-0.2,0.1C64.67,23.37,64.72,23.13,65.18,22.93z"/>
				<path fill-rule="evenodd" clip-rule="evenodd" fill="#43B649" fill-opacity="0" d="M64.68,23.03c0.3-0.33,0.68-0.5,1.15-0.5
					s0.85,0.17,1.15,0.5c0.33,0.33,0.5,0.73,0.5,1.2s-0.17,0.87-0.5,1.2c-0.3,0.33-0.68,0.5-1.15,0.5s-0.85-0.17-1.15-0.5
					c-0.33-0.33-0.5-0.73-0.5-1.2S64.35,23.37,64.68,23.03z M65.18,22.93c-0.47,0.2-0.52,0.43-0.15,0.7c0.07,0.03,0.13,0,0.2-0.1
					C65.47,23.27,65.45,23.07,65.18,22.93z"/>
				
					<path fill-rule="evenodd" clip-rule="evenodd" fill="none" stroke="#FFFFFF" stroke-linecap="round" stroke-linejoin="round" stroke-miterlimit="3" stroke-opacity="0.8" d="
					M64.68,23.03c-0.33,0.33-0.5,0.73-0.5,1.2s0.17,0.87,0.5,1.2c0.3,0.33,0.68,0.5,1.15,0.5s0.85-0.17,1.15-0.5
					c0.33-0.33,0.5-0.73,0.5-1.2s-0.17-0.87-0.5-1.2c-0.3-0.33-0.68-0.5-1.15-0.5S64.98,22.7,64.68,23.03z"/>
			</g>
		</g>
		<g>
			<g>
				<path fill-rule="evenodd" clip-rule="evenodd" fill="#FFFFFF" d="M76.73,9.68c-0.37-0.27-0.32-0.5,0.15-0.7
					c0.27,0.13,0.28,0.33,0.05,0.6C76.87,9.68,76.8,9.72,76.73,9.68z"/>
				<path fill-rule="evenodd" clip-rule="evenodd" fill="#43B649" fill-opacity="0" d="M76.73,9.68c0.07,0.03,0.13,0,0.2-0.1
					c0.23-0.27,0.22-0.47-0.05-0.6C76.42,9.18,76.37,9.42,76.73,9.68z M75.88,10.28c0-0.47,0.17-0.87,0.5-1.2
					c0.3-0.33,0.68-0.5,1.15-0.5s0.85,0.17,1.15,0.5c0.33,0.33,0.5,0.73,0.5,1.2c0,0.47-0.17,0.87-0.5,1.2
					c-0.3,0.33-0.68,0.5-1.15,0.5s-0.85-0.17-1.15-0.5C76.05,11.15,75.88,10.75,75.88,10.28z"/>
				
					<path fill-rule="evenodd" clip-rule="evenodd" fill="none" stroke="#FFFFFF" stroke-linecap="round" stroke-linejoin="round" stroke-miterlimit="3" stroke-opacity="0.8" d="
					M75.88,10.28c0,0.47,0.17,0.87,0.5,1.2c0.3,0.33,0.68,0.5,1.15,0.5s0.85-0.17,1.15-0.5c0.33-0.33,0.5-0.73,0.5-1.2
					c0-0.47-0.17-0.87-0.5-1.2c-0.3-0.33-0.68-0.5-1.15-0.5s-0.85,0.17-1.15,0.5C76.05,9.42,75.88,9.82,75.88,10.28z"/>
			</g>
		</g>
		<g>
			<g>
				<path fill-rule="evenodd" clip-rule="evenodd" fill="#43B649" fill-opacity="0" d="M77.48,5.93c0.3-0.33,0.68-0.5,1.15-0.5
					s0.85,0.17,1.15,0.5c0.33,0.33,0.5,0.73,0.5,1.2c0,0.47-0.17,0.87-0.5,1.2c-0.3,0.33-0.68,0.5-1.15,0.5s-0.85-0.17-1.15-0.5
					c-0.33-0.33-0.5-0.73-0.5-1.2C76.98,6.67,77.15,6.27,77.48,5.93z M77.83,6.53c0.07,0.03,0.13,0,0.2-0.1
					c0.23-0.27,0.22-0.47-0.05-0.6C77.52,6.03,77.47,6.27,77.83,6.53z"/>
				<path fill-rule="evenodd" clip-rule="evenodd" fill="#FFFFFF" d="M77.83,6.53c-0.37-0.27-0.32-0.5,0.15-0.7
					c0.27,0.13,0.28,0.33,0.05,0.6C77.97,6.53,77.9,6.57,77.83,6.53z"/>
				
					<path fill-rule="evenodd" clip-rule="evenodd" fill="none" stroke="#FFFFFF" stroke-linecap="round" stroke-linejoin="round" stroke-miterlimit="3" stroke-opacity="0.8" d="
					M77.48,5.93c-0.33,0.33-0.5,0.73-0.5,1.2c0,0.47,0.17,0.87,0.5,1.2c0.3,0.33,0.68,0.5,1.15,0.5s0.85-0.17,1.15-0.5
					c0.33-0.33,0.5-0.73,0.5-1.2c0-0.47-0.17-0.87-0.5-1.2c-0.3-0.33-0.68-0.5-1.15-0.5S77.78,5.6,77.48,5.93z"/>
			</g>
		</g>
		<g>
			<g>
				<path fill-rule="evenodd" clip-rule="evenodd" fill="#43B649" fill-opacity="0" d="M83.38,6.93c0.47,0,0.85,0.17,1.15,0.5
					c0.33,0.33,0.5,0.73,0.5,1.2c0,0.47-0.17,0.87-0.5,1.2c-0.3,0.33-0.68,0.5-1.15,0.5s-0.85-0.17-1.15-0.5
					c-0.33-0.33-0.5-0.73-0.5-1.2c0-0.47,0.17-0.87,0.5-1.2C82.53,7.1,82.92,6.93,83.38,6.93z M82.78,7.93
					c0.23-0.27,0.22-0.47-0.05-0.6c-0.47,0.2-0.52,0.43-0.15,0.7C82.65,8.07,82.72,8.03,82.78,7.93z"/>
				<path fill-rule="evenodd" clip-rule="evenodd" fill="#FFFFFF" d="M82.78,7.93c-0.07,0.1-0.13,0.13-0.2,0.1
					c-0.37-0.27-0.32-0.5,0.15-0.7C83,7.47,83.02,7.67,82.78,7.93z"/>
				
					<path fill-rule="evenodd" clip-rule="evenodd" fill="none" stroke="#FFFFFF" stroke-linecap="round" stroke-linejoin="round" stroke-miterlimit="3" stroke-opacity="0.8" d="
					M83.38,6.93c-0.47,0-0.85,0.17-1.15,0.5c-0.33,0.33-0.5,0.73-0.5,1.2c0,0.47,0.17,0.87,0.5,1.2c0.3,0.33,0.68,0.5,1.15,0.5
					s0.85-0.17,1.15-0.5c0.33-0.33,0.5-0.73,0.5-1.2c0-0.47-0.17-0.87-0.5-1.2C84.23,7.1,83.85,6.93,83.38,6.93z"/>
			</g>
		</g>
		<g>
			<g>
				<path fill-rule="evenodd" clip-rule="evenodd" fill="#43B649" fill-opacity="0" d="M83.13,20.33c0.3-0.33,0.68-0.5,1.15-0.5
					s0.85,0.17,1.15,0.5c0.33,0.33,0.5,0.73,0.5,1.2c0,0.47-0.17,0.87-0.5,1.2c-0.3,0.33-0.68,0.5-1.15,0.5s-0.85-0.17-1.15-0.5
					c-0.33-0.33-0.5-0.73-0.5-1.2C82.63,21.07,82.8,20.67,83.13,20.33z M83.68,20.83c0.23-0.27,0.22-0.47-0.05-0.6
					c-0.47,0.2-0.52,0.43-0.15,0.7C83.55,20.97,83.62,20.93,83.68,20.83z"/>
				<path fill-rule="evenodd" clip-rule="evenodd" fill="#FFFFFF" d="M83.68,20.83c-0.07,0.1-0.13,0.13-0.2,0.1
					c-0.37-0.27-0.32-0.5,0.15-0.7C83.9,20.37,83.92,20.57,83.68,20.83z"/>
				
					<path fill-rule="evenodd" clip-rule="evenodd" fill="none" stroke="#FFFFFF" stroke-linecap="round" stroke-linejoin="round" stroke-miterlimit="3" stroke-opacity="0.8" d="
					M83.13,20.33c-0.33,0.33-0.5,0.73-0.5,1.2c0,0.47,0.17,0.87,0.5,1.2c0.3,0.33,0.68,0.5,1.15,0.5s0.85-0.17,1.15-0.5
					c0.33-0.33,0.5-0.73,0.5-1.2c0-0.47-0.17-0.87-0.5-1.2c-0.3-0.33-0.68-0.5-1.15-0.5S83.43,20,83.13,20.33z"/>
			</g>
		</g>
		<g>
			<g>
				<path fill-rule="evenodd" clip-rule="evenodd" fill="#43B649" fill-opacity="0" d="M77.93,53.18c0.33,0.33,0.5,0.73,0.5,1.2
					s-0.17,0.87-0.5,1.2c-0.3,0.33-0.68,0.5-1.15,0.5s-0.85-0.17-1.15-0.5c-0.33-0.33-0.5-0.73-0.5-1.2s0.17-0.87,0.5-1.2
					c0.3-0.33,0.68-0.5,1.15-0.5S77.63,52.85,77.93,53.18z M75.98,53.78c0.07,0.03,0.13,0,0.2-0.1c0.23-0.27,0.22-0.47-0.05-0.6
					C75.67,53.28,75.62,53.52,75.98,53.78z"/>
				<path fill-rule="evenodd" clip-rule="evenodd" fill="#FFFFFF" d="M75.98,53.78c-0.37-0.27-0.32-0.5,0.15-0.7
					c0.27,0.13,0.28,0.33,0.05,0.6C76.12,53.78,76.05,53.82,75.98,53.78z"/>
				
					<path fill-rule="evenodd" clip-rule="evenodd" fill="none" stroke="#FFFFFF" stroke-linecap="round" stroke-linejoin="round" stroke-miterlimit="3" stroke-opacity="0.8" d="
					M77.93,53.18c-0.3-0.33-0.68-0.5-1.15-0.5s-0.85,0.17-1.15,0.5c-0.33,0.33-0.5,0.73-0.5,1.2s0.17,0.87,0.5,1.2
					c0.3,0.33,0.68,0.5,1.15,0.5s0.85-0.17,1.15-0.5c0.33-0.33,0.5-0.73,0.5-1.2S78.27,53.52,77.93,53.18z"/>
			</g>
		</g>
	</g>
</g>
</svg>
