<?xml version="1.0" encoding="utf-8"?>
<!-- Generator: Adobe Illustrator 16.0.0, SVG Export Plug-In . SVG Version: 6.00 Build 0)  -->
<!DOCTYPE svg PUBLIC "-//W3C//DTD SVG 1.1//EN" "http://www.w3.org/Graphics/SVG/1.1/DTD/svg11.dtd">
<svg version="1.1" id="Layer_1" xmlns="http://www.w3.org/2000/svg" xmlns:xlink="http://www.w3.org/1999/xlink" x="0px" y="0px"
	 width="700px" height="700px" viewBox="0 0 700 700" enable-background="new 0 0 700 700" xml:space="preserve">
<g>
	<path fill-rule="evenodd" clip-rule="evenodd" fill-opacity="0.2471" d="M191.3,593.2c2.5-1.4,3.6-2.7,3.1-4h9.6c0,0,0.1,0,0.1,0
		c6.5,0.2,12,0.6,16.3,1.1c1.4,2.9,2.5,6.9,3.5,12.2l-0.5,8.7c-0.6-4.9-1.7-10.5-3.4-16.8c-4-0.5-9.4-0.9-16-1.1L191.3,593.2z
		 M187.6,563.8c1.4,0.7,2.2,1.4,2.3,2.3h-7c0.8-0.8,1.1-1.5,0.9-2.3H187.6z M304.2,459.2c1,4.1,1.9,7.6,2.5,10.5v0
		c1.6,7.8,2.5,13.3,2.5,16.3c0,5.1-1.1,14.1-3.2,27.1c-2.1,12.7-3.2,21.9-3.2,27.7c0,6.1,1.1,14.7,3.2,25.8
		c2.1,11.4,3.2,19.7,3.2,25c0,11.3-5.4,20.1-16.2,26.2c-8.7,4.9-19.3,7.4-31.8,7.4c-9.3,0-18.2-0.7-26.6-2
		c-4.9-0.8-8.9-1.9-11.8-3.3l0.3-4.7c2.8,1.8,6.8,3.2,12.1,4c8.2,1.3,16.9,1.9,26,1.9c11.7,0,21.6-2.3,29.8-6.9
		c9.4-5.3,14.1-12.9,14.2-22.7c0-5.2-1.1-13.3-3.2-24.3c-2.2-11.3-3.3-20.2-3.3-26.5c0-5.9,1.1-15.3,3.3-28.3
		c2.1-12.7,3.2-21.5,3.2-26.5c0-2.9-0.8-8-2.4-15.5v0c-1.7-7.4-2.5-11.3-2.5-11.8c0-1.1,0.1-2.1,0.2-2.9
		C300.2,449.3,301.4,450.4,304.2,459.2z"/>
</g>
<g>
	<path fill-rule="evenodd" clip-rule="evenodd" fill="#FF0000" d="M304.5,448.2c0.1,0.3,0.1,0.6,0,0.9c-0.2,0.8-0.5,1.6-0.6,2.5
		c-1.6,6.4-2.7,13.5-3.3,21.2c-0.7,8.9-3.4,22.4-8,40.4c-4.6,17.6-2.8,37.8,5.3,60.8c4.2,12.1,5.5,21.2,3.9,27.3
		c-1.7,6.7-6.5,10.2-14.5,10.3c-7.2,0.2-13.2,0.6-18,1.3c-6.4,0.8-14.3,1.3-23.8,1.4c-10.4,0.1-16.5-4.8-18.3-14.7
		c-1.6-8.6-9.5-18.7-23.7-30.1c-7-5.6-12.3-8.8-16.1-9.4c-1.4-0.2-2.5,0-3.4,0.6c-0.9,0.8-1.4,2.1-1.7,3.9c-0.1,0.5-0.3,0.8-0.7,1.1
		c-0.4,0.3-0.8,0.4-1.3,0.3c-0.5-0.1-0.9-0.3-1.1-0.7c-0.3-0.4-0.4-0.8-0.3-1.3c0.4-2.8,1.4-4.8,2.9-6c1.5-1.3,3.6-1.8,6.2-1.4
		c4.2,0.6,10.1,4,17.8,10.2c15,12.2,23.3,22.9,24.9,32.2c1.4,8,6.3,11.9,14.8,11.8c9.3-0.1,17.1-0.5,23.4-1.3
		c4.9-0.7,11-1.2,18.4-1.4h0c6.1-0.1,9.9-2.7,11.3-7.8c1.4-5.7,0.1-14.1-3.9-25.3c-8.3-23.7-10.1-44.6-5.3-62.8v0
		c4.6-17.8,7.2-31,7.9-39.8c0.7-9,2-17.1,4-24.4c0.1-0.5,0.4-0.8,0.9-1.1c0.4-0.3,0.8-0.3,1.3-0.1c0.4,0.1,0.8,0.4,1.1,0.8
		C304.4,447.9,304.5,448,304.5,448.2z"/>
</g>
<g>
	<g>
		
			<radialGradient id="SVGID_1_" cx="295.7998" cy="485.1992" r="6.3252" gradientTransform="matrix(1 0 0 5.3755 0 -2122.9863)" gradientUnits="userSpaceOnUse">
			<stop  offset="0" style="stop-color:#FFFFFF"/>
			<stop  offset="0.5412" style="stop-color:#FFFFFF;stop-opacity:0.8118"/>
			<stop  offset="1" style="stop-color:#FFFFFF;stop-opacity:0"/>
		</radialGradient>
		<path fill-rule="evenodd" clip-rule="evenodd" fill="url(#SVGID_1_)" d="M298.4,472.7c0.6-7.9,1.7-15.1,3.4-21.6l0.9,0.3
			c-1.6,6.4-2.7,13.6-3.3,21.4c-0.7,8.8-3.4,22.2-8,40.2c-0.6,2.1-1,4.2-1.4,6.4l-1-0.1c0.4-2.2,0.9-4.4,1.5-6.5
			C295,494.8,297.6,481.5,298.4,472.7z"/>
		
			<radialGradient id="SVGID_2_" cx="185.6001" cy="556.7998" r="41.1375" gradientTransform="matrix(1 0 0 0.5752 0 236.5257)" gradientUnits="userSpaceOnUse">
			<stop  offset="0" style="stop-color:#FFFFFF"/>
			<stop  offset="0.5412" style="stop-color:#FFFFFF;stop-opacity:0.8118"/>
			<stop  offset="1" style="stop-color:#FFFFFF;stop-opacity:0"/>
		</radialGradient>
		<path fill-rule="evenodd" clip-rule="evenodd" fill="url(#SVGID_2_)" d="M181.1,564.4l-1-0.2c0.4-2.5,1.2-4.2,2.5-5.3
			c1.3-1.1,3-1.5,5.2-1.2c4.1,0.6,9.8,3.9,17.2,9.9v0c4.5,3.7,8.5,7.3,11.8,10.7l-0.7,0.7c-3.3-3.4-7.2-6.9-11.7-10.6
			c-7.2-5.8-12.8-9.1-16.8-9.7c-1.8-0.3-3.3,0-4.4,0.9C182.1,560.7,181.4,562.2,181.1,564.4z"/>
		
			<radialGradient id="SVGID_3_" cx="271.2002" cy="598.4004" r="58.75" gradientTransform="matrix(1 0 0 1.126 0 -75.373)" gradientUnits="userSpaceOnUse">
			<stop  offset="0" style="stop-color:#FFFFFF"/>
			<stop  offset="0.5412" style="stop-color:#FFFFFF;stop-opacity:0.8118"/>
			<stop  offset="1" style="stop-color:#FFFFFF;stop-opacity:0"/>
		</radialGradient>
		<path fill-rule="evenodd" clip-rule="evenodd" fill="url(#SVGID_3_)" d="M226,592.5l0.9-0.5c1.3,2.5,2.1,4.9,2.5,7.2
			c1.6,8.7,6.9,13,16,12.8c9.4-0.1,17.2-0.6,23.6-1.4c4.8-0.7,10.9-1.1,18.2-1.3c6.8-0.1,11-3,12.5-8.6c1.5-5.8,0.2-14.5-3.9-26
			c-5.9-16.6-8.5-31.9-7.8-45.7l1,0c-0.7,13.7,1.9,28.8,7.8,45.3c4.1,11.7,5.4,20.6,3.8,26.6c-1.6,6.1-6,9.3-13.4,9.4
			c-7.3,0.2-13.3,0.6-18,1.3c-6.4,0.8-14.3,1.3-23.7,1.4c-9.7,0.1-15.4-4.5-17-13.6C228,597.1,227.2,594.8,226,592.5z"/>
	</g>
</g>
<g>
	<g>
		
			<radialGradient id="SVGID_4_" cx="481.0918" cy="-257.1665" r="1.2438" gradientTransform="matrix(0.1005 0.9949 1.6884 -0.2211 689.2955 -90.2644)" gradientUnits="userSpaceOnUse">
			<stop  offset="0" style="stop-color:#FFFFFF"/>
			<stop  offset="1" style="stop-color:#000000"/>
		</radialGradient>
		<path fill-rule="evenodd" clip-rule="evenodd" fill="url(#SVGID_4_)" d="M303.9,444.5c0.2-0.1,0.3-0.2,0.4-0.3
			c0.1-0.1,0.2-0.1,0.4,0c0.1,0.1,0.2,0.2,0.3,0.5c0.1,0.2,0.1,0.5,0.1,0.8c-0.1,0.2-0.2,0.4-0.3,0.5c-0.2,0.1-0.4,0.3-0.5,0.3h0
			c-0.6,0.3-1.3,0.3-2.2,0c-0.2-0.1-0.3-0.2-0.3-0.5c-0.1-0.2-0.2-0.4-0.2-0.7c0-0.2,0.1-0.4,0.2-0.6c0.1-0.2,0.3-0.2,0.4-0.2
			C302.8,444.6,303.4,444.7,303.9,444.5L303.9,444.5z"/>
		
			<radialGradient id="SVGID_5_" cx="483.542" cy="-257.0698" r="1.2438" gradientTransform="matrix(0.1005 0.9949 1.6884 -0.2211 689.0363 -90.2305)" gradientUnits="userSpaceOnUse">
			<stop  offset="0" style="stop-color:#FFFFFF"/>
			<stop  offset="1" style="stop-color:#000000"/>
		</radialGradient>
		<path fill-rule="evenodd" clip-rule="evenodd" fill="url(#SVGID_5_)" d="M304.5,446.7c0-0.1,0.1-0.2,0.4,0
			c0.1,0.1,0.2,0.3,0.3,0.6c0,0.2,0,0.4,0,0.7c0,0.2-0.1,0.4-0.2,0.5c-0.2,0.1-0.3,0.2-0.5,0.3c-0.6,0.2-1.4,0.2-2.2,0
			c-0.2,0-0.3-0.2-0.4-0.4c-0.1-0.2-0.1-0.5-0.1-0.8c0-0.2,0-0.4,0.1-0.5c0.1-0.1,0.2-0.2,0.4-0.2c0.7,0.2,1.3,0.2,1.8,0.1v0.1
			C304.2,446.9,304.4,446.8,304.5,446.7z"/>
		
			<radialGradient id="SVGID_6_" cx="486.0039" cy="-257.0723" r="1.2438" gradientTransform="matrix(0.1005 0.9949 1.6884 -0.2211 689.0429 -90.2314)" gradientUnits="userSpaceOnUse">
			<stop  offset="0" style="stop-color:#FFFFFF"/>
			<stop  offset="1" style="stop-color:#000000"/>
		</radialGradient>
		<path fill-rule="evenodd" clip-rule="evenodd" fill="url(#SVGID_6_)" d="M304.2,449.3c0.2,0,0.3-0.1,0.4-0.3
			c0.1-0.1,0.2-0.1,0.3,0c0.1,0.1,0.2,0.3,0.3,0.6c0.1,0.2,0.1,0.4,0,0.8c0,0.2,0,0.3-0.1,0.4c-0.2,0.1-0.4,0.3-0.5,0.4h0
			c-0.6,0.3-1.3,0.3-2.1,0c-0.2,0-0.3-0.2-0.4-0.5c-0.1-0.2-0.1-0.4-0.1-0.7c0-0.3,0-0.5,0.1-0.5c0.2-0.2,0.3-0.2,0.5-0.2
			C303.2,449.5,303.7,449.5,304.2,449.3L304.2,449.3z"/>
	</g>
</g>
</svg>
