<?xml version="1.0" encoding="utf-8"?>
<!-- Generator: Adobe Illustrator 16.0.0, SVG Export Plug-In . SVG Version: 6.00 Build 0)  -->
<!DOCTYPE svg PUBLIC "-//W3C//DTD SVG 1.1//EN" "http://www.w3.org/Graphics/SVG/1.1/DTD/svg11.dtd">
<svg version="1.1" id="Layer_1" xmlns="http://www.w3.org/2000/svg" xmlns:xlink="http://www.w3.org/1999/xlink" x="0px" y="0px"
	 width="778.67px" height="735.67px" viewBox="0 0 778.67 735.67" enable-background="new 0 0 778.67 735.67" xml:space="preserve">
<g id="Layer_3" opacity="0.85">
	<rect x="-2.17" y="-2.67" opacity="0.8" fill="#050505" enable-background="new    " width="788" height="741"/>
</g>
<g id="Layer_2">
	<g>
		<path fill="#FFFFFF" d="M482.07,221.49c0-14.76-5.25-27.34-15.75-37.73c-10.4-10.4-22.92-15.6-37.58-15.6
			c-14.76,0-27.39,5.2-37.89,15.6c-10.39,10.5-15.6,23.08-15.6,37.73c0,0.11,0,0.21,0,0.31v0.16c0,14.56,5.2,26.98,15.6,37.26
			c10.4,10.5,23.03,15.75,37.89,15.75c14.66,0,27.19-5.25,37.58-15.75c10.4-10.29,15.65-22.72,15.75-37.26v-0.16
			C482.07,221.7,482.07,221.59,482.07,221.49z M523.08,196.85v6.71h-28.85v-6.71H523.08z M98,382.25c0.73-0.72,1.56-1.09,2.49-1.09
			h115.7c0.83,0,1.66,0.36,2.49,1.09c0.62,0.73,0.94,1.51,0.94,2.34c0,0.94-0.31,1.77-0.94,2.5c-0.83,0.73-1.66,1.09-2.49,1.09
			H100.5c-0.94,0-1.77-0.36-2.49-1.09c-0.73-0.73-1.09-1.56-1.09-2.5C96.91,383.76,97.27,382.98,98,382.25z M189.84,368.06
			c0.94,0,1.77,0.37,2.5,1.09c0.62,0.62,0.94,1.4,0.94,2.34c0,0.94-0.31,1.77-0.94,2.5c-0.73,0.62-1.56,0.94-2.5,0.94h-57.53
			c-0.94,0-1.72-0.31-2.34-0.94c-0.73-0.73-1.09-1.56-1.09-2.5c0-0.94,0.36-1.72,1.09-2.34c0.62-0.72,1.4-1.09,2.34-1.09H189.84z
			 M617.26,422.33l-19.5-10.29c1.04,2.8,2.24,5.51,3.59,8.11c4.47,9.36,9.77,14.87,15.91,16.53V422.33z M624.13,332.2l-10.61,8.11
			l30.09,15.91l-32.28,18.72l26.98,18.09l-27.92,17.94l13.72,7.17v18.72c6.14-1.76,11.49-7.33,16.06-16.69
			c5.93-12.17,8.89-26.98,8.89-44.44c0-17.47-2.96-32.33-8.89-44.59c-4.58-9.46-9.93-14.97-16.06-16.53L624.13,332.2L624.13,332.2z
			 M600.58,341.25l16.69-12.63v-14.04c-6.14,1.67-11.44,7.18-15.91,16.53c-6.13,12.27-9.2,27.14-9.2,44.59
			c0,13.31,1.82,25.16,5.46,35.55l28.07-18.4l-27.45-18.25l31.04-18.09L600.58,341.25z M624.13,218.37v89.04
			c8.63,1.14,16.06,8,22.3,20.59c6.24,12.79,9.46,28.69,9.68,47.71c0,0.52,0,1.09,0,1.71c-0.42,18.2-3.64,33.42-9.68,45.69
			c-5.92,12.06-12.89,18.97-20.9,20.74v0.31h-1.4V555.8H157.26V401.28h-24.95v-6.86h57.54v6.86h-25.73v147.52h453.15V444.16
			c-8.73-1.36-16.12-8.37-22.15-21.05c-6.55-13-9.82-28.8-9.82-47.4c0-18.61,3.27-34.51,9.82-47.71
			c6.03-12.58,13.42-19.44,22.15-20.59v-82.03h-128.5c-0.84,14.97-6.71,27.87-17.62,38.67c-11.75,11.85-25.89,17.78-42.41,17.78
			c-16.63,0-30.88-5.93-42.72-17.78c-10.92-10.82-16.79-23.71-17.62-38.67H164.12v129.42h52.08v7.02H102.52v-7.02h54.73V218.37
			h211.14c0.62-15.18,6.5-28.33,17.62-39.45c11.85-11.85,26.1-17.78,42.72-17.78c16.53,0,30.67,5.93,42.41,17.78
			c11.13,11.13,17.05,24.28,17.78,39.45H624.13z M450.1,202.3l13.26,33.06h-7.33l-2.81-7.49h-13.26l-2.65,7.49h-7.17l12.94-33.06
			H450.1z M421.41,211.97c1.35,0.73,2.28,1.82,2.8,3.27c0.52,0.94,0.78,2.55,0.78,4.84v15.28h-6.39v-13.72
			c0-2.39-0.26-3.9-0.78-4.52c-0.52-0.94-1.4-1.4-2.65-1.4c-0.94,0-1.77,0.31-2.5,0.94c-0.84,0.52-1.35,1.3-1.56,2.34
			c-0.42,1.04-0.62,2.71-0.62,4.99v11.38h-6.4v-13.1c0-2.29-0.1-3.74-0.31-4.37c-0.2-0.83-0.58-1.35-1.09-1.56
			c-0.41-0.41-1.04-0.62-1.87-0.62c-0.94,0-1.82,0.31-2.65,0.94c-0.73,0.52-1.3,1.25-1.71,2.18c-0.32,1.04-0.47,2.7-0.47,4.99v11.54
			h-6.24v-23.86h5.77v3.27c2.08-2.6,4.58-3.9,7.49-3.9c1.46,0,2.76,0.31,3.9,0.94c1.25,0.73,2.18,1.71,2.81,2.96
			c1.03-1.25,2.18-2.24,3.43-2.96c1.25-0.62,2.55-0.94,3.9-0.94C418.81,210.88,420.27,211.25,421.41,211.97z M446.52,210.1
			l-4.37,12.32h8.89L446.52,210.1z M334.24,201.84v-7.02l12.16-0.16v-11.7h7.02v11.7h11.85v7.17h-11.85v12.16h-7.02v-12.16
			L334.24,201.84L334.24,201.84z"/>
	</g>
</g>
</svg>
