<?xml version="1.0" encoding="utf-8"?>
<!-- Generator: Adobe Illustrator 16.0.0, SVG Export Plug-In . SVG Version: 6.00 Build 0)  -->
<!DOCTYPE svg PUBLIC "-//W3C//DTD SVG 1.1//EN" "http://www.w3.org/Graphics/SVG/1.1/DTD/svg11.dtd">
<svg version="1.1" xmlns="http://www.w3.org/2000/svg" xmlns:xlink="http://www.w3.org/1999/xlink" x="0px" y="0px" width="17.31px"
	 height="22.63px" viewBox="0 0 17.31 22.63" enable-background="new 0 0 17.31 22.63" xml:space="preserve">
<g id="Layer_1">
</g>
<g id="Layer_2">
	<g>
		<g>
			
				<radialGradient id="SVGID_1_" cx="8.8369" cy="16.7754" r="9.891" fx="9.38" fy="16.7754" gradientTransform="matrix(0.9998 -0.0201 0.0652 3.2406 -1.0912 -37.4098)" gradientUnits="userSpaceOnUse">
				<stop  offset="0.2235" style="stop-color:#5C7ECD;stop-opacity:0.498"/>
				<stop  offset="0.3373" style="stop-color:#C76DDE;stop-opacity:0.0667"/>
				<stop  offset="0.4275" style="stop-color:#8AE6FD;stop-opacity:0"/>
				<stop  offset="1" style="stop-color:#C2F1FD;stop-opacity:0"/>
			</radialGradient>
			<path fill-rule="evenodd" clip-rule="evenodd" fill="url(#SVGID_1_)" d="M5.89,18.08c-2.23-2.43-3.92-6.17-5.05-11.2l14.6-0.05
				c-0.57,4.33-1.43,7.98-2.6,10.95C10.54,20.08,8.22,20.17,5.89,18.08z"/>
		</g>
		<g>
			<path fill-rule="evenodd" clip-rule="evenodd" fill="#DAE2E9" fill-opacity="0.9922" d="M7.64,7.88c-0.67,2.9-1.13,5.07-1.4,6.5
				c-0.27,1.17-0.47,2.05-0.6,2.65c0,0.33,0.07,0.7,0.2,1.1v0.05c-0.2-0.17-0.33-0.32-0.4-0.45c-0.03,0.13-0.02,0.25,0.05,0.35H4.94
				c0.13-1.83,0.33-3.62,0.6-5.35c-0.1-0.23-0.08-0.5,0.05-0.8c0-0.03,0.02-0.05,0.05-0.05c0,0.03,0,0.07,0,0.1
				c0.2-1.1,0.43-2.17,0.7-3.2c-0.27-0.33-0.43-0.7-0.5-1.1c0.23,0.2,0.42,0.42,0.55,0.65c0.1-0.47,0.22-0.93,0.35-1.4h1.15
				C7.82,7.23,7.74,7.54,7.64,7.88z M9.34,11.23v0.05c-0.3-0.03-0.45-0.22-0.45-0.55c0-0.03,0.03-0.07,0.1-0.1h0.05
				C9.17,10.79,9.27,10.99,9.34,11.23z M11.84,7.78c0.07-0.03,0.13-0.05,0.2-0.05c-0.07,0.2-0.18,0.45-0.35,0.75
				c0.1,0.37,0.18,0.73,0.25,1.1c0.1,0,0.15,0.03,0.15,0.1c0.03,0,0.05,0.02,0.05,0.05c-0.03,0.07-0.08,0.1-0.15,0.1
				c0.13,0.87,0.28,1.72,0.45,2.55c0.07-0.1,0.15-0.17,0.25-0.2c0.1,0.03,0.13,0.12,0.1,0.25v0.05c-0.1,0.03-0.2,0.12-0.3,0.25
				c0.13,0.53,0.25,1.07,0.35,1.6c0.03-0.2,0.1-0.38,0.2-0.55c0.13,0.4,0.12,0.83-0.05,1.3c0.03,0.23,0.08,0.48,0.15,0.75v-0.05
				c0.03,0.27,0.1,0.55,0.2,0.85v0.05h-0.05c0.1,0.43,0.2,0.87,0.3,1.3h-0.45c-0.1-0.57-0.28-1.18-0.55-1.85
				c-0.3-0.87-0.6-1.87-0.9-3c-0.37-1.7-0.7-3.68-1-5.95c0-0.13,0-0.23,0-0.3h0.75c0.07,0.37,0.13,0.75,0.2,1.15
				c0-0.03,0.02-0.07,0.05-0.1C11.75,7.86,11.8,7.81,11.84,7.78z M10.54,11.58c0.07-0.07,0.12-0.12,0.15-0.15h0.05
				c0,0.3-0.15,0.55-0.45,0.75c-0.03,0.03-0.07,0.07-0.1,0.1v0.05c-0.03-0.03-0.05-0.07-0.05-0.1c-0.03,0-0.08,0.02-0.15,0.05
				c-0.03,0-0.05-0.02-0.05-0.05c0.07-0.07,0.13-0.15,0.2-0.25c0-0.33,0.15-0.65,0.45-0.95C10.59,11.19,10.57,11.38,10.54,11.58z
				 M12.94,13.53c-0.1-0.33,0.02-0.58,0.35-0.75c0.1,0.27,0,0.52-0.3,0.75H12.94z M7.39,15.58c0,0.03-0.02,0.05-0.05,0.05
				c-0.2-0.33-0.22-0.63-0.05-0.9C7.52,14.99,7.55,15.28,7.39,15.58z"/>
		</g>
		<g>
			
				<radialGradient id="SVGID_2_" cx="10.0371" cy="-0.3247" r="10.8913" gradientTransform="matrix(0.9996 -0.028 0.1821 6.4929 0.0631 2.065)" gradientUnits="userSpaceOnUse">
				<stop  offset="0.4235" style="stop-color:#046B84;stop-opacity:0.0824"/>
				<stop  offset="0.6902" style="stop-color:#8997A7;stop-opacity:0.1647"/>
				<stop  offset="0.9098" style="stop-color:#FFFFFF;stop-opacity:0"/>
			</radialGradient>
			<path fill-rule="evenodd" clip-rule="evenodd" fill="url(#SVGID_2_)" d="M1.89,6.78c3.67,0.37,8.45,0.35,14.35-0.05
				c-0.63,5.7-1.58,10.6-2.85,14.7c-3.53,1.6-6.67,1.6-9.4,0C2.75,18.83,2.05,13.94,1.89,6.78z"/>
		</g>
		<g>
			
				<radialGradient id="SVGID_3_" cx="9.7861" cy="18.8252" r="5.1013" gradientTransform="matrix(0.9999 -0.0101 0.012 1.1887 -0.2245 -3.4534)" gradientUnits="userSpaceOnUse">
				<stop  offset="7.843138e-003" style="stop-color:#FFFE97;stop-opacity:0.502"/>
				<stop  offset="0.3647" style="stop-color:#E6E200;stop-opacity:0.451"/>
				<stop  offset="0.702" style="stop-color:#E58F04;stop-opacity:0.502"/>
				<stop  offset="1" style="stop-color:#E58F04;stop-opacity:0"/>
			</radialGradient>
			<path fill-rule="evenodd" clip-rule="evenodd" fill="url(#SVGID_3_)" d="M5.24,19.42c-0.73-1.57-1.1-3.1-1.1-4.6
				c-0.03-1.67,0.43-3.08,1.4-4.25c0.97-1.2,2.13-1.8,3.5-1.8c1.37-0.03,2.53,0.53,3.5,1.7c0.97,1.17,1.47,2.58,1.5,4.25
				c0,1.63-0.33,3.07-1,4.3c0.13,0.67-0.93,1.17-3.2,1.5C7.74,20.56,6.2,20.19,5.24,19.42z"/>
		</g>
	</g>
</g>
<g id="Layer_3">
</g>
<g id="Layer_4">
</g>
<g id="Layer_5">
</g>
</svg>
