<?xml version="1.0" encoding="utf-8"?>
<!-- Generator: Adobe Illustrator 16.0.0, SVG Export Plug-In . SVG Version: 6.00 Build 0)  -->
<!DOCTYPE svg PUBLIC "-//W3C//DTD SVG 1.1//EN" "http://www.w3.org/Graphics/SVG/1.1/DTD/svg11.dtd">
<svg version="1.1" xmlns="http://www.w3.org/2000/svg" xmlns:xlink="http://www.w3.org/1999/xlink" x="0px" y="0px" width="17.31px"
	 height="22.63px" viewBox="0 0 17.31 22.63" enable-background="new 0 0 17.31 22.63" xml:space="preserve">
<g id="Layer_1">
</g>
<g id="Layer_2">
</g>
<g id="Layer_3">
</g>
<g id="Layer_4">
</g>
<g id="Layer_5">
	<g>
		<g>
			
				<radialGradient id="SVGID_1_" cx="8.8877" cy="16.249" r="9.8898" fx="9.4307" fy="16.249" gradientTransform="matrix(0.9998 -0.0201 0.0652 3.2406 -1.0569 -36.2294)" gradientUnits="userSpaceOnUse">
				<stop  offset="0.2118" style="stop-color:#5C7ECD;stop-opacity:0.4902"/>
				<stop  offset="0.3373" style="stop-color:#C76DDE;stop-opacity:0.0863"/>
				<stop  offset="0.4275" style="stop-color:#8AE6FD;stop-opacity:0"/>
				<stop  offset="1" style="stop-color:#C2F1FD;stop-opacity:0"/>
			</radialGradient>
			<path fill-rule="evenodd" clip-rule="evenodd" fill="url(#SVGID_1_)" d="M0.94,6.55h14.55c-0.57,4.23-1.43,7.8-2.6,10.7
				c-2.3,2.3-4.62,2.4-6.95,0.3C3.74,15.15,2.07,11.48,0.94,6.55z"/>
		</g>
		<g>
			<path fill-rule="evenodd" clip-rule="evenodd" fill="#DAE2E9" fill-opacity="0.9922" d="M9.29,8.2c0.13,0.2,0.1,0.53-0.1,1
				c0,0.03-0.02,0.05-0.05,0.05c-0.17-0.3-0.15-0.63,0.05-1C9.22,8.22,9.25,8.2,9.29,8.2z M6.59,7.7c-0.43-0.37-0.37-0.67,0.2-0.9
				c0-0.07,0-0.12,0-0.15c0.03-0.1,0.05-0.18,0.05-0.25h0.7C7.47,6.6,7.42,6.82,7.39,7.05c-0.33,1.7-0.83,4.58-1.5,8.65
				c-0.23,0.53-0.37,0.98-0.4,1.35c0.03,0.07,0.05,0.13,0.05,0.2H5.49c-0.03,0.1-0.02,0.2,0.05,0.3H4.99c0.17-1.07,0.33-2.07,0.5-3
				c-0.17-0.33-0.17-0.7,0-1.1h0.05c0.03,0.1,0.07,0.18,0.1,0.25C6,11.17,6.32,9.17,6.59,7.7z M6.74,7.05
				C6.7,7.08,6.65,7.1,6.59,7.1c0,0.1,0.03,0.22,0.1,0.35C6.69,7.32,6.7,7.18,6.74,7.05z M5.79,8.6C5.89,9.1,6,9.65,6.14,10.25v0.05
				C5.64,9.83,5.52,9.27,5.79,8.6z M7.69,9.9C7.25,9.57,7.07,9.13,7.14,8.6C7.4,8.97,7.59,9.38,7.69,9.85V9.9z M8.64,10.95
				c-0.07,0.5-0.03,1.02,0.1,1.55H8.69c-0.47-0.37-0.5-0.87-0.1-1.5C8.59,10.97,8.6,10.95,8.64,10.95z M11.24,6.4
				c0.13,0.67,0.28,1.33,0.45,2c-0.03-0.47,0.17-0.88,0.6-1.25c-0.07,0.43-0.25,0.93-0.55,1.5c0.13,0.67,0.27,1.32,0.4,1.95
				c0.03-0.03,0.05-0.07,0.05-0.1v-0.05c0.23,0.17,0.25,0.38,0.05,0.65c0.53,2.37,1,4.48,1.4,6.35h-0.45
				c-0.1-0.5-0.28-1.12-0.55-1.85c-0.53-2.1-1.15-5.08-1.85-8.95c-0.03-0.1-0.07-0.18-0.1-0.25H11.24z M12.99,11.85
				c0.07,0.3-0.02,0.68-0.25,1.15v0.05c-0.23-0.4-0.18-0.78,0.15-1.15C12.92,11.87,12.95,11.85,12.99,11.85z M8.14,15.2
				C8,14.87,8.12,14.55,8.49,14.25c0.07,0.3-0.03,0.62-0.3,0.95H8.14z M8.44,15.7c0.13,0.2,0.03,0.38-0.3,0.55H8.09
				C8.02,16.02,8.14,15.83,8.44,15.7z M10.09,12.3c-0.23-0.33-0.23-0.65,0-0.95c0.13,0.27,0.15,0.57,0.05,0.9L10.09,12.3z"/>
		</g>
		<g>
			
				<radialGradient id="SVGID_2_" cx="8.6377" cy="2.6499" r="10.6539" gradientTransform="matrix(0.9996 -0.0283 0.1882 6.6375 -0.4951 -14.694)" gradientUnits="userSpaceOnUse">
				<stop  offset="0.4549" style="stop-color:#034352;stop-opacity:0.0627"/>
				<stop  offset="0.6902" style="stop-color:#8E9AA7;stop-opacity:0.2235"/>
				<stop  offset="0.9098" style="stop-color:#FFFFFF;stop-opacity:0"/>
			</radialGradient>
			<path fill-rule="evenodd" clip-rule="evenodd" fill="url(#SVGID_2_)" d="M1.24,6.1c4.2,0.4,9.18,0.4,14.95,0
				c-0.63,5.8-1.6,10.8-2.9,15c-2.93,1.47-6.08,1.52-9.45,0.15C2.67,18.48,1.8,13.43,1.24,6.1z"/>
		</g>
		<g>
			
				<radialGradient id="SVGID_3_" cx="9.6377" cy="17.5" r="5.1002" gradientTransform="matrix(0.9999 -0.0101 0.019 1.8798 -0.3323 -15.2993)" gradientUnits="userSpaceOnUse">
				<stop  offset="7.843138e-003" style="stop-color:#FFFE97;stop-opacity:0.502"/>
				<stop  offset="0.3647" style="stop-color:#E6E200;stop-opacity:0.451"/>
				<stop  offset="0.702" style="stop-color:#E58F04;stop-opacity:0.502"/>
				<stop  offset="1" style="stop-color:#E58F04;stop-opacity:0"/>
			</radialGradient>
			<path fill-rule="evenodd" clip-rule="evenodd" fill="url(#SVGID_3_)" d="M5.39,18.5c-1-1.87-1.47-4.23-1.4-7.1
				c0.07-2.9,0.58-5.28,1.55-7.15c0.93-1.87,2.08-2.8,3.45-2.8c1.37-0.03,2.55,0.87,3.55,2.7c0.97,1.87,1.52,4.17,1.65,6.9
				c0.13,2.7-0.2,5.07-1,7.1c-0.07,0.1-0.13,0.21-0.2,0.35C9.99,20.47,7.45,20.47,5.39,18.5z"/>
		</g>
	</g>
</g>
</svg>
