<?xml version="1.0" encoding="utf-8"?>
<!-- Generator: Adobe Illustrator 16.0.0, SVG Export Plug-In . SVG Version: 6.00 Build 0)  -->
<!DOCTYPE svg PUBLIC "-//W3C//DTD SVG 1.1//EN" "http://www.w3.org/Graphics/SVG/1.1/DTD/svg11.dtd">
<svg version="1.1" xmlns="http://www.w3.org/2000/svg" xmlns:xlink="http://www.w3.org/1999/xlink" x="0px" y="0px" width="17.31px"
	 height="22.63px" viewBox="0 0 17.31 22.63" enable-background="new 0 0 17.31 22.63" xml:space="preserve">
<g id="Layer_1">
</g>
<g id="Layer_2">
</g>
<g id="Layer_3">
</g>
<g id="Layer_4">
	<g>
		<g>
			
				<radialGradient id="SVGID_1_" cx="8.8877" cy="16.249" r="9.8898" fx="9.4307" fy="16.249" gradientTransform="matrix(0.9998 -0.0201 0.0652 3.2406 -1.0569 -36.2294)" gradientUnits="userSpaceOnUse">
				<stop  offset="0.2118" style="stop-color:#5C7ECD;stop-opacity:0.4902"/>
				<stop  offset="0.3373" style="stop-color:#C76DDE;stop-opacity:0.0863"/>
				<stop  offset="0.4275" style="stop-color:#8AE6FD;stop-opacity:0"/>
				<stop  offset="1" style="stop-color:#C2F1FD;stop-opacity:0"/>
			</radialGradient>
			<path fill-rule="evenodd" clip-rule="evenodd" fill="url(#SVGID_1_)" d="M5.94,17.55C3.7,15.12,2.02,11.37,0.89,6.3h14.6
				c-0.53,4.33-1.4,7.98-2.6,10.95C10.59,19.55,8.27,19.65,5.94,17.55z"/>
		</g>
		<g>
			<path fill-rule="evenodd" clip-rule="evenodd" fill="#DAE2E9" fill-opacity="0.9922" d="M7.39,7.05C7.25,7.68,7.12,8.47,6.99,9.4
				c0.03,0.1,0.05,0.2,0.05,0.3v0.05c-0.07,0-0.1-0.02-0.1-0.05c-0.33,1.57-0.68,3.57-1.05,6c-0.33,0.8-0.45,1.42-0.35,1.85H4.99
				c0.17-1.17,0.35-2.25,0.55-3.25c-0.03,0-0.07,0-0.1,0v-0.05c0.03-0.03,0.07-0.07,0.1-0.1c0.1-0.67,0.2-1.3,0.3-1.9
				c-0.23-0.3-0.2-0.68,0.1-1.15c-0.03-0.03-0.08-0.03-0.15,0v-0.05c0-0.03,0.05-0.08,0.15-0.15v-0.05C5.97,10.92,6,10.97,6.04,11
				c0-0.13,0.02-0.25,0.05-0.35c0.03-0.23,0.07-0.45,0.1-0.65c0.07-0.33,0.13-0.63,0.2-0.9C6.05,8.57,5.84,7.97,5.74,7.3
				c0-0.1,0.03-0.17,0.1-0.2C6.1,7.17,6.22,7.32,6.19,7.55C6.02,7.78,6.1,8.17,6.44,8.7c0.13-0.8,0.25-1.48,0.35-2.05
				c0.03-0.07,0.05-0.13,0.05-0.2h0.65C7.45,6.65,7.42,6.85,7.39,7.05z M5.89,9.55c0.07,0.1,0.13,0.2,0.2,0.3
				c-0.6-0.07-0.63-0.32-0.1-0.75c0.2,0.13,0.17,0.27-0.1,0.4V9.55z M6.04,11.1H5.99c0,0.03,0,0.07,0,0.1
				C5.99,11.17,6,11.13,6.04,11.1z M9.59,11.2c0.07,0.17,0.02,0.35-0.15,0.55L9.39,11.8c-0.27-0.2-0.23-0.38,0.1-0.55
				C9.52,11.22,9.55,11.2,9.59,11.2z M9.84,9.05c-0.4-0.2-0.5-0.52-0.3-0.95C9.67,8.37,9.77,8.67,9.84,9V9.05z M10.79,6.65
				c-0.03-0.07-0.05-0.13-0.05-0.2h0.5c0.33,2.17,0.65,4.08,0.95,5.75l0.05-0.05c0.07,0.03,0.1,0.07,0.1,0.1v0.05
				c0,0.1-0.02,0.17-0.05,0.2c0.43,2.1,0.88,3.75,1.35,4.95h-0.45c-0.1-0.5-0.28-1.12-0.55-1.85c-0.63-1.57-1.15-3.75-1.55-6.55
				c-0.33-0.4-0.43-0.88-0.3-1.45c0.03,0.07,0.07,0.13,0.1,0.2C10.85,7.43,10.82,7.05,10.79,6.65z M12.19,10.75
				c0.17,0.13,0.17,0.27,0,0.4l-0.05,0.05c-0.17-0.17-0.15-0.3,0.05-0.4V10.75z M12.24,7.6c0,0.53-0.15,1.1-0.45,1.7
				C11.65,8.7,11.8,8.13,12.24,7.6z M12.79,13.25c-0.13-0.57-0.05-1.12,0.25-1.65c0.1,0.53,0.03,1.08-0.2,1.65H12.79z M7.99,15.05
				h0.05c0.2,0.1,0.22,0.25,0.05,0.45H8.04C7.87,15.4,7.85,15.25,7.99,15.05z"/>
		</g>
		<g>
			
				<radialGradient id="SVGID_2_" cx="8.6377" cy="2.6499" r="10.6539" gradientTransform="matrix(0.9996 -0.0283 0.1882 6.6375 -0.4951 -14.694)" gradientUnits="userSpaceOnUse">
				<stop  offset="0.4549" style="stop-color:#034352;stop-opacity:0.0627"/>
				<stop  offset="0.6902" style="stop-color:#8E9AA7;stop-opacity:0.2235"/>
				<stop  offset="0.9098" style="stop-color:#FFFFFF;stop-opacity:0"/>
			</radialGradient>
			<path fill-rule="evenodd" clip-rule="evenodd" fill="url(#SVGID_2_)" d="M1.29,6.3l14.95-0.25c-0.63,5.8-1.62,10.82-2.95,15.05
				c-2.93,1.47-6.08,1.52-9.45,0.15C2.67,18.52,1.82,13.53,1.29,6.3z"/>
		</g>
		<g>
			
				<radialGradient id="SVGID_3_" cx="8.6875" cy="17.75" r="5.1002" gradientTransform="matrix(0.9999 -0.0101 0.019 1.8798 -0.3371 -15.5289)" gradientUnits="userSpaceOnUse">
				<stop  offset="7.843138e-003" style="stop-color:#FFFE97;stop-opacity:0.502"/>
				<stop  offset="0.3647" style="stop-color:#E6E200;stop-opacity:0.451"/>
				<stop  offset="0.702" style="stop-color:#E58F04;stop-opacity:0.502"/>
				<stop  offset="1" style="stop-color:#E58F04;stop-opacity:0"/>
			</radialGradient>
			<path fill-rule="evenodd" clip-rule="evenodd" fill="url(#SVGID_3_)" d="M3.99,11c0.07-2.63,0.58-4.88,1.55-6.75
				c0.93-1.87,2.08-2.8,3.45-2.8c1.37-0.03,2.55,0.87,3.55,2.7c0.97,1.87,1.47,4.12,1.5,6.75c0.03,2.23-0.3,4.2-1,5.9
				c0.17,1.67-0.87,2.68-3.1,3.05H7.49c-1.1-0.23-1.97-1.1-2.6-2.6S3.95,13.67,3.99,11z"/>
		</g>
	</g>
</g>
<g id="Layer_5">
</g>
</svg>
