<?xml version="1.0" encoding="utf-8"?>
<!-- Generator: Adobe Illustrator 16.0.0, SVG Export Plug-In . SVG Version: 6.00 Build 0)  -->
<!DOCTYPE svg PUBLIC "-//W3C//DTD SVG 1.1//EN" "http://www.w3.org/Graphics/SVG/1.1/DTD/svg11.dtd">
<svg version="1.1" id="Layer_1" xmlns="http://www.w3.org/2000/svg" xmlns:xlink="http://www.w3.org/1999/xlink" x="0px" y="0px"
	 width="21.3px" height="27.3px" viewBox="0 0 21.3 27.3" enable-background="new 0 0 21.3 27.3" xml:space="preserve">
<g>
	<g>
		<g>
			<radialGradient id="SVGID_1_" cx="11.6001" cy="10.8999" r="2.7125" gradientUnits="userSpaceOnUse">
				<stop  offset="0" style="stop-color:#9B9A95"/>
				<stop  offset="1" style="stop-color:#7C7950"/>
			</radialGradient>
			<path fill-rule="evenodd" clip-rule="evenodd" fill="url(#SVGID_1_)" d="M8.7,10.6c0.5-0.4,0.8-0.6,0.9-0.8
				c-0.3,0-0.8,0.2-1.4,0.5c-0.6,0.4-0.9,0.7-0.9,1.1C8.2,11,8.6,10.7,8.7,10.6z M6.7,11.3V11c0,0,0-0.1,0-0.2
				c0.1-0.3,0.5-0.6,1-0.8c0.7-0.3,1.6-0.5,2.6-0.5c1.1,0,2,0.2,2.7,0.5c0.7,0.3,1.1,0.7,1.1,1.1v0.2c0,0.3-0.4,0.7-1.1,0.9
				c-0.7,0.3-1.6,0.5-2.7,0.5c-1,0-1.9-0.2-2.6-0.5C7.2,12.1,6.8,11.7,6.7,11.3z"/>
			<path fill-rule="evenodd" clip-rule="evenodd" fill="#FFFFFF" d="M8.7,10.6c-0.1,0.1-0.5,0.3-1.3,0.8c0-0.4,0.3-0.7,0.9-1.1
				c0.6-0.3,1-0.5,1.4-0.5C9.5,10,9.2,10.3,8.7,10.6z"/>
			<linearGradient id="SVGID_2_" gradientUnits="userSpaceOnUse" x1="6.6377" y1="18.6113" x2="14.1627" y2="18.6113">
				<stop  offset="0" style="stop-color:#908E77"/>
				<stop  offset="0.1608" style="stop-color:#F1EFD6"/>
				<stop  offset="0.3843" style="stop-color:#7F7A67"/>
				<stop  offset="0.651" style="stop-color:#423D15"/>
				<stop  offset="1" style="stop-color:#6B6E59"/>
			</linearGradient>
			<path fill-rule="evenodd" clip-rule="evenodd" fill="url(#SVGID_2_)" d="M14.2,11.4V24v1.4c-0.2,0.1-0.4,0.1-0.7,0.3
				c-0.9,0.2-1.9,0.3-3,0.3c-1.2,0-2.2-0.2-3.1-0.5c-0.3-0.1-0.5-0.2-0.7-0.4v-1.4V11.3c0.1,0.4,0.5,0.8,1.1,1
				c0.7,0.3,1.6,0.5,2.6,0.5c1.1,0,2-0.2,2.7-0.5C13.8,12,14.2,11.7,14.2,11.4z"/>
		</g>
	</g>
	<g>
		<g>
			<g>
				<linearGradient id="SVGID_3_" gradientUnits="userSpaceOnUse" x1="19.3877" y1="10.875" x2="2.2127" y2="10.875">
					<stop  offset="0" style="stop-color:#2E323B"/>
					<stop  offset="5.490196e-002" style="stop-color:#17181A"/>
					<stop  offset="0.8196" style="stop-color:#070808"/>
					<stop  offset="1" style="stop-color:#242529"/>
				</linearGradient>
				<path fill-rule="evenodd" clip-rule="evenodd" fill="url(#SVGID_3_)" d="M19.1,5.5L19.1,5.5l0.1,8.3c0.2,1.2-2.7,2.1-8.5,2.5
					c-5.8,0-8.6-0.7-8.5-2V6c0.2,0.9,1.3,1.4,3.3,1.7l10.1-0.3C17.9,7.2,19,6.6,19.1,5.5z"/>
				<path fill-rule="evenodd" clip-rule="evenodd" fill="#0C0D12" d="M19.1,5.5c-0.1,1.1-1.3,1.8-3.5,1.9L5.5,7.6
					c-2-0.3-3-0.8-3.3-1.7c0-0.1,0-0.2,0-0.3c0.1-1.1,0.6-1.8,1.6-2l1.5-0.3l10.1-0.7c2.8,0.4,4,1.3,3.7,2.6
					C19.2,5.3,19.2,5.4,19.1,5.5z"/>
			</g>
		</g>
		<g>
			<path fill-rule="evenodd" clip-rule="evenodd" fill="none" d="M2.3,6c0.2,0.9,1.3,1.4,3.3,1.7l10.1-0.3c2.2-0.2,3.4-0.8,3.5-1.9"
				/>
		</g>
	</g>
</g>
</svg>
