<?xml version="1.0" encoding="utf-8"?>
<!-- Generator: Adobe Illustrator 16.0.0, SVG Export Plug-In . SVG Version: 6.00 Build 0)  -->
<!DOCTYPE svg PUBLIC "-//W3C//DTD SVG 1.1//EN" "http://www.w3.org/Graphics/SVG/1.1/DTD/svg11.dtd">
<svg version="1.1" id="Layer_1" xmlns="http://www.w3.org/2000/svg" xmlns:xlink="http://www.w3.org/1999/xlink" x="0px" y="0px"
	 width="700px" height="700px" viewBox="0 0 700 700" enable-background="new 0 0 700 700" xml:space="preserve">
<g>
	<path fill-opacity="0.2471" d="M283.5,321.5h4.4c0.2,0.2,0.3,0.4,0.4,0.6c0,0.1,0,0.3,0,0.5v1.8c-0.2,0.6-0.6,1-1.1,1.2v-1.8
		l-0.1,0.1h-2.8c-0.2,0-0.4,0-0.5,0l-0.1-0.7C283.8,322.3,283.8,321.7,283.5,321.5z M371.4,344.5l-1.5,1.2c4.5,0.8,7.5,1.3,9.1,1.3
		c3.4,0,7.2-0.9,11.6-2.5c4.3-1.6,6.7-3.6,7.1-6c0.4-2.4-0.6-7-2.8-13.8c-0.2-0.5-0.1-1,0.1-1.5s0.6-0.8,1.2-1
		c0.5-0.2,1-0.1,1.5,0.1s0.8,0.6,1,1.1c2.4,7.5,3.4,13.5,2.8,18.1c-0.6,4.5-3.1,7-7.6,7.5s-7.9,0.8-10.2,0.9
		c-2.3,0.1-6.1-0.2-11.3-0.7c-1.7-0.2-3.4-0.5-4.9-0.9c-24.7-2.1-44.3-5.8-58.7-11v-4C329.4,340.2,350.2,344,371.4,344.5z
		 M298.9,327.9l0.4,2.6l-0.1,4l0.2-3.9h9.6l-0.1,3.9h-9.6l-0.1,2.8H299l0.1-1.9l-0.4-3.5h-9.8c-0.2,0-0.4,0-0.5,0l-0.1-1
		c0.2-1.6,0.1-2.6-0.1-2.9h0.1L298.9,327.9L298.9,327.9L298.9,327.9z"/>
</g>
<g>
	<path fill="#FF0000" d="M376.2,344.6L376.2,344.6c8,1.2,13.6,0.1,17-3.3c3.1-3.6,4-9.6,2.5-17.9c-0.1-0.5,0-0.9,0.3-1.3
		c0.3-0.4,0.6-0.6,1.1-0.7c0.5-0.1,0.9,0,1.3,0.3c0.4,0.3,0.6,0.6,0.8,1.1c1.7,9.7,0.5,16.6-3.5,20.8c-3.8,4.3-10.5,5.8-20,4.4l0,0
		c-7.8-0.9-15-2.6-21.6-5.1c-9.7-3.7-19.5-9.4-29.4-17.1l-0.1-0.1c-9.5-8.2-18.4-13-26.9-14.5c-4.4-0.8-7.7-0.3-9.9,1.5
		c-2.1,1.8-3.3,4.9-3.4,9.3c0,0.5-0.2,0.9-0.5,1.3c-0.4,0.3-0.8,0.5-1.3,0.5s-0.9-0.2-1.2-0.5c-0.3-0.4-0.5-0.8-0.5-1.3
		c0.1-5.7,1.7-9.7,4.7-12c2.9-2.5,7.1-3.2,12.7-2.2c9,1.5,18.5,6.6,28.5,15.3c9.6,7.5,19.1,13,28.5,16.6
		C361.8,342.1,368.8,343.8,376.2,344.6z"/>
</g>
<g>
	
		<radialGradient id="SVGID_1_" cx="385.3779" cy="421.4023" r="74.603" gradientTransform="matrix(1 0 0 -0.3272 -44.96 465.856)" gradientUnits="userSpaceOnUse">
		<stop  offset="0" style="stop-color:#FFFFFF"/>
		<stop  offset="0.5412" style="stop-color:#FFFFFF;stop-opacity:0.8118"/>
		<stop  offset="1" style="stop-color:#FFFFFF;stop-opacity:0"/>
	</radialGradient>
	<path fill="url(#SVGID_1_)" d="M376,345.9L376,345.9c8.5,1.2,14.5,0,18-3.8c3.4-3.8,4.4-10.1,2.9-18.9l1-0.1
		c1.6,9.2,0.6,15.8-3.1,19.7c-3.6,4-9.9,5.4-18.8,4c-7.7-0.9-14.8-2.6-21.3-5c-9.6-3.7-19.3-9.3-29.1-17
		c-9.7-8.4-18.9-13.3-27.5-14.9c-4.8-0.8-8.5-0.3-11,1.8c-2.4,2-3.7,5.4-3.9,10.3h-1c0.1-5.2,1.6-8.9,4.3-11c2.6-2.2,6.5-2.9,11.7-2
		c8.8,1.5,18.1,6.5,28,15v0.1c9.7,7.6,19.3,13.2,28.8,16.8C361.5,343.3,368.5,345,376,345.9z"/>
</g>
</svg>
