<?xml version="1.0" encoding="utf-8"?>
<!-- Generator: Adobe Illustrator 16.0.0, SVG Export Plug-In . SVG Version: 6.00 Build 0)  -->
<!DOCTYPE svg PUBLIC "-//W3C//DTD SVG 1.1//EN" "http://www.w3.org/Graphics/SVG/1.1/DTD/svg11.dtd">
<svg version="1.1" xmlns="http://www.w3.org/2000/svg" xmlns:xlink="http://www.w3.org/1999/xlink" x="0px" y="0px" width="40px"
	 height="72px" viewBox="0 0 40 72" enable-background="new 0 0 40 72" xml:space="preserve">
<g id="BG">
</g>
<g id="Layer_6">
	<g>
		<g>
			<radialGradient id="SVGID_1_" cx="19.4502" cy="15.0498" r="14.7" gradientUnits="userSpaceOnUse">
				<stop  offset="0" style="stop-color:#FFFF00;stop-opacity:0"/>
				<stop  offset="0.2824" style="stop-color:#FFFF00"/>
				<stop  offset="1" style="stop-color:#FFFF00;stop-opacity:0"/>
			</radialGradient>
			<path fill-rule="evenodd" clip-rule="evenodd" fill="url(#SVGID_1_)" d="M19.5,29.3c-3.9,0-7.3-1.4-10.1-4.1S5.3,19,5.3,15
				c0-3.9,1.4-7.2,4.1-10c2.8-2.8,6.1-4.2,10.1-4.2c3.9,0,7.2,1.4,10,4.2c2.8,2.8,4.2,6.1,4.2,10c0,3.9-1.4,7.3-4.2,10.1
				C26.7,27.9,23.3,29.3,19.5,29.3z"/>
		</g>
		<g>
			<path fill-rule="evenodd" clip-rule="evenodd" fill="#FFFF00" fill-opacity="0.502" d="M24.7,11.5c1.4,1.1,2.1,2.3,2.1,3.8v17
				c-0.1,0.3-0.2,0.5-0.3,0.8c-0.4,0.4-1,0.8-1.8,1.1h-0.1c-1.4,0.6-3.2,0.9-5.2,0.9c-2.1,0-3.9-0.3-5.3-0.9
				c-0.9-0.4-1.5-0.8-1.8-1.1c-0.2-0.2-0.3-0.4-0.4-0.6V15.2c0-1.5,0.8-2.7,2.1-3.8c1.4-1.1,3.2-1.6,5.3-1.6
				C21.4,9.8,23.2,10.3,24.7,11.5C24.6,11.4,24.7,11.4,24.7,11.5z"/>
		</g>
		<g>
			
				<radialGradient id="SVGID_2_" cx="19.75" cy="59.6504" r="20.375" gradientTransform="matrix(1 0 0 0.5871 0 24.6287)" gradientUnits="userSpaceOnUse">
				<stop  offset="0" style="stop-color:#FFFF00;stop-opacity:0"/>
				<stop  offset="0.2941" style="stop-color:#FFFF00;stop-opacity:0.251"/>
				<stop  offset="1" style="stop-color:#FFFF00;stop-opacity:0"/>
			</radialGradient>
			<path fill-rule="evenodd" clip-rule="evenodd" fill="url(#SVGID_2_)" d="M27.7,61c2.4-1.1,3.5-2.1,3.4-3.3c0-0.8,0-1.5,0.1-2.1
				l8.2,5.1c-0.4,2.7-2.3,5-5.7,7c-3.8,2.3-8.4,3.4-13.8,3.4c-5.5,0-10.1-1.1-14-3.4c-2.4-1.4-4.1-3-5-4.9L7,56.2
				c0.2,0.4,0.3,0.9,0.3,1.6c0.4,2,2.1,3.2,5,3.7C18.9,62.8,24.1,62.7,27.7,61z"/>
		</g>
	</g>
</g>
</svg>
