<?xml version="1.0" encoding="utf-8"?>
<!-- Generator: Adobe Illustrator 16.0.0, SVG Export Plug-In . SVG Version: 6.00 Build 0)  -->
<!DOCTYPE svg PUBLIC "-//W3C//DTD SVG 1.1//EN" "http://www.w3.org/Graphics/SVG/1.1/DTD/svg11.dtd">
<svg version="1.1" id="Layer_1" xmlns="http://www.w3.org/2000/svg" xmlns:xlink="http://www.w3.org/1999/xlink" x="0px" y="0px"
	 width="21.13px" height="22.31px" viewBox="0 0 21.13 22.31" enable-background="new 0 0 21.13 22.31" xml:space="preserve">
<g>
	<g>
		
			<radialGradient id="SVGID_1_" cx="-159.125" cy="-331.7998" r="9.6443" gradientTransform="matrix(0.488 0.7022 -0.6114 0.4566 -116.048 275.2753)" gradientUnits="userSpaceOnUse">
			<stop  offset="0" style="stop-color:#040404"/>
			<stop  offset="0.4471" style="stop-color:#030303;stop-opacity:0.7176"/>
			<stop  offset="1" style="stop-color:#000000;stop-opacity:0"/>
		</radialGradient>
		<path fill-rule="evenodd" clip-rule="evenodd" fill="url(#SVGID_1_)" d="M10.73,21.13c-2.81,0.46-5.93-1.49-9.35-5.84l5.09-8.31
			l7.22,6.02L10.73,21.13z"/>
	</g>
	<g>
		
			<radialGradient id="SVGID_2_" cx="-158.875" cy="-333.0498" r="10.375" gradientTransform="matrix(0.8349 0 0 0.8655 141.9976 299.208)" gradientUnits="userSpaceOnUse">
			<stop  offset="0" style="stop-color:#FD2424"/>
			<stop  offset="0.3922" style="stop-color:#FB2424;stop-opacity:0.6667"/>
			<stop  offset="0.7098" style="stop-color:#F82323;stop-opacity:0.2745"/>
			<stop  offset="1" style="stop-color:#F62222;stop-opacity:0"/>
		</radialGradient>
		<path fill-rule="evenodd" clip-rule="evenodd" fill="url(#SVGID_2_)" d="M16.79,3.43c1.81,1.88,2.71,4.14,2.71,6.79
			c0,2.65-0.9,4.9-2.71,6.75c-1.78,1.85-3.95,2.77-6.51,2.77c-2.53,0-4.7-0.92-6.51-2.77c-1.78-1.85-2.67-4.1-2.67-6.75
			c0-2.65,0.89-4.92,2.67-6.79c1.81-1.85,3.98-2.77,6.51-2.77C12.84,0.66,15.01,1.58,16.79,3.43z"/>
	</g>
	<g>
		<g>
			<g>
				
					<linearGradient id="SVGID_3_" gradientUnits="userSpaceOnUse" x1="-164.6499" y1="-336.7754" x2="-152.6997" y2="-336.7754" gradientTransform="matrix(0.8349 0 0 0.8655 141.9976 299.208)">
					<stop  offset="0" style="stop-color:#696971"/>
					<stop  offset="0.1725" style="stop-color:#B0B0B5"/>
					<stop  offset="0.4784" style="stop-color:#888891"/>
					<stop  offset="0.6745" style="stop-color:#787880"/>
					<stop  offset="0.8667" style="stop-color:#F2F2F2"/>
					<stop  offset="1" style="stop-color:#6B6B6F"/>
					<stop  offset="1" style="stop-color:#3B3B40"/>
					<stop  offset="1" style="stop-color:#6B6B6F"/>
				</linearGradient>
				<path fill-rule="evenodd" clip-rule="evenodd" fill="url(#SVGID_3_)" d="M14.53,10.39c-0.06-0.35-0.14-0.68-0.25-1
					c-0.22-0.75-0.64-1.41-1.25-1.99c-0.97-1.01-2.14-1.51-3.51-1.51c-1.36,0-2.53,0.5-3.51,1.51C5.43,7.98,5.03,8.65,4.81,9.4
					c-0.11,0.4-0.19,0.84-0.25,1.3l0.13-2.16c0.03-0.2,0.07-0.4,0.13-0.61c0.22-0.66,0.63-1.27,1.21-1.82
					c0.97-0.89,2.14-1.34,3.51-1.34c1.36,0,2.53,0.45,3.51,1.34c0.61,0.55,1.03,1.15,1.25,1.82c0.03,0.12,0.07,0.23,0.13,0.35
					L14.53,10.39z"/>
				
					<linearGradient id="SVGID_4_" gradientUnits="userSpaceOnUse" x1="-158.6255" y1="-338.8994" x2="-158.6255" y2="-326.9244" gradientTransform="matrix(0.8349 0 0 0.8655 141.9976 299.208)">
					<stop  offset="0" style="stop-color:#575350"/>
					<stop  offset="0.3961" style="stop-color:#54504D"/>
					<stop  offset="1" style="stop-color:#353231"/>
				</linearGradient>
				<path fill-rule="evenodd" clip-rule="evenodd" fill="url(#SVGID_4_)" d="M14.53,10.39c0.03,0.23,0.04,0.46,0.04,0.69
					c0,0.03,0,0.06,0,0.09c-0.03,1.38-0.54,2.57-1.54,3.55c-0.97,1.01-2.14,1.51-3.51,1.51c-1.36,0-2.53-0.5-3.51-1.51
					c-0.97-0.98-1.46-2.19-1.46-3.63c0-0.03,0-0.06,0-0.09c0-0.09,0-0.16,0-0.22c0-0.03,0-0.06,0-0.09C4.61,10.23,4.7,9.8,4.81,9.4
					c0.22-0.75,0.63-1.41,1.21-1.99C6.99,6.4,8.16,5.89,9.52,5.89c1.36,0,2.53,0.5,3.51,1.51c0.61,0.58,1.03,1.24,1.25,1.99
					C14.39,9.71,14.48,10.05,14.53,10.39z M9.48,7.23c-0.97,0-1.84,0.36-2.59,1.08C6.17,9.09,5.81,9.99,5.81,11
					c0,0.14,0.03,0.27,0.08,0.39c0.03,0.89,0.36,1.69,1,2.38c0.75,0.72,1.61,1.08,2.59,1.08c1.03,0,1.92-0.36,2.67-1.08
					c0.64-0.69,0.99-1.54,1.04-2.55c0-0.03,0-0.1,0-0.22c0-1.01-0.35-1.9-1.04-2.68C11.4,7.59,10.51,7.23,9.48,7.23z"/>
				
					<radialGradient id="SVGID_5_" cx="-158.6748" cy="-332.9502" r="4.65" gradientTransform="matrix(0.8349 0 0 0.8655 141.9976 299.208)" gradientUnits="userSpaceOnUse">
					<stop  offset="0" style="stop-color:#000000"/>
					<stop  offset="1" style="stop-color:#2F1A17"/>
				</radialGradient>
				<path fill-rule="evenodd" clip-rule="evenodd" fill="url(#SVGID_5_)" d="M9.48,7.23c1.03,0,1.92,0.36,2.67,1.08
					c0.7,0.78,1.04,1.67,1.04,2.68c0,0.12,0,0.19,0,0.22c-0.06,1.01-0.4,1.86-1.04,2.55c-0.75,0.72-1.64,1.08-2.67,1.08
					c-0.97,0-1.84-0.36-2.59-1.08c-0.64-0.69-0.97-1.49-1-2.38C5.84,11.27,5.81,11.14,5.81,11c0-1.01,0.36-1.9,1.09-2.68
					C7.65,7.59,8.51,7.23,9.48,7.23z M9.36,7.41c-0.86,0-1.64,0.33-2.34,1c-0.64,0.69-0.96,1.49-0.96,2.38
					c0,0.14,0.03,0.26,0.08,0.35c0.03,0.81,0.32,1.53,0.88,2.16c0.7,0.63,1.48,0.95,2.34,0.95c0.92,0,1.73-0.32,2.42-0.95
					c0.56-0.63,0.86-1.4,0.92-2.29c0-0.03,0-0.1,0-0.22c0-0.89-0.31-1.69-0.92-2.38C11.08,7.74,10.28,7.41,9.36,7.41z"/>
				
					<radialGradient id="SVGID_6_" cx="-158.6748" cy="-332.9502" r="4.65" gradientTransform="matrix(0.8349 0 0 0.8655 141.9976 299.208)" gradientUnits="userSpaceOnUse">
					<stop  offset="0" style="stop-color:#FD2424"/>
					<stop  offset="1" style="stop-color:#520000"/>
				</radialGradient>
				<path fill-rule="evenodd" clip-rule="evenodd" fill="url(#SVGID_6_)" d="M9.36,7.41c0.92,0,1.73,0.33,2.42,1
					c0.61,0.69,0.92,1.49,0.92,2.38c0,0.12,0,0.19,0,0.22c-0.06,0.89-0.36,1.66-0.92,2.29c-0.7,0.63-1.5,0.95-2.42,0.95
					c-0.86,0-1.64-0.32-2.34-0.95c-0.56-0.63-0.85-1.36-0.88-2.16c-0.06-0.09-0.08-0.2-0.08-0.35c0-0.89,0.32-1.69,0.96-2.38
					C7.72,7.74,8.5,7.41,9.36,7.41z"/>
			</g>
		</g>
		<g>
			
				<radialGradient id="SVGID_7_" cx="-157.7251" cy="-334.8501" r="3.4875" gradientTransform="matrix(0.8349 0 0 0.8655 141.9976 299.208)" gradientUnits="userSpaceOnUse">
				<stop  offset="0" style="stop-color:#F3FF00;stop-opacity:0.4314"/>
				<stop  offset="0.3098" style="stop-color:#FFFF00;stop-opacity:0.1216"/>
				<stop  offset="0.702" style="stop-color:#FFFF00;stop-opacity:0"/>
				<stop  offset="1" style="stop-color:#FFFF00;stop-opacity:0"/>
			</radialGradient>
			<path fill-rule="evenodd" clip-rule="evenodd" fill="url(#SVGID_7_)" d="M12.36,7.36c0.56,0.55,0.83,1.23,0.83,2.03
				c0,0.87-0.28,1.57-0.83,2.12c-0.58,0.58-1.27,0.87-2.05,0.87c-0.78,0-1.46-0.29-2.04-0.87c-0.53-0.55-0.79-1.25-0.79-2.12
				c0-0.81,0.26-1.49,0.79-2.03c0.58-0.61,1.27-0.91,2.04-0.91C11.1,6.46,11.78,6.76,12.36,7.36z"/>
		</g>
		<g>
			
				<radialGradient id="SVGID_8_" cx="-161.0752" cy="-338.4502" r="2.3633" gradientTransform="matrix(0.8171 -0.1775 0.0666 0.3295 161.6837 89.2107)" gradientUnits="userSpaceOnUse">
				<stop  offset="0" style="stop-color:#FFFFFF"/>
				<stop  offset="0.1765" style="stop-color:#FFFFFF"/>
				<stop  offset="0.3059" style="stop-color:#FFFFFF;stop-opacity:0.4235"/>
				<stop  offset="0.4902" style="stop-color:#FFFFFF;stop-opacity:0.2314"/>
				<stop  offset="0.651" style="stop-color:#FFFFFF;stop-opacity:0.0824"/>
				<stop  offset="1" style="stop-color:#FFFFFF;stop-opacity:0"/>
			</radialGradient>
			<path fill-rule="evenodd" clip-rule="evenodd" fill="url(#SVGID_8_)" d="M5.64,6.67c-0.06-0.2,0.08-0.4,0.42-0.61
				C6.39,5.81,6.83,5.62,7.35,5.5c0.53-0.12,0.99-0.13,1.38-0.04c0.42,0.06,0.65,0.19,0.71,0.39c0.06,0.23-0.1,0.46-0.46,0.69
				c-0.33,0.23-0.77,0.4-1.29,0.52C7.16,7.18,6.7,7.21,6.31,7.15C5.92,7.06,5.7,6.9,5.64,6.67z"/>
		</g>
		<g>
			
				<radialGradient id="SVGID_9_" cx="-157.4248" cy="-338.6499" r="3.5373" gradientTransform="matrix(0.8258 0.1271 -0.0495 0.3457 123.8104 143.1865)" gradientUnits="userSpaceOnUse">
				<stop  offset="0" style="stop-color:#FFFFFF"/>
				<stop  offset="0.1765" style="stop-color:#FFFFFF"/>
				<stop  offset="0.3059" style="stop-color:#FFFFFF;stop-opacity:0.4235"/>
				<stop  offset="0.4902" style="stop-color:#FFFFFF;stop-opacity:0.2314"/>
				<stop  offset="0.651" style="stop-color:#FFFFFF;stop-opacity:0.0824"/>
				<stop  offset="1" style="stop-color:#FFFFFF;stop-opacity:0"/>
			</radialGradient>
			<path fill-rule="evenodd" clip-rule="evenodd" fill="url(#SVGID_9_)" d="M12.49,7.28c-0.61,0.14-1.31,0.16-2.09,0.04
				c-0.78-0.12-1.45-0.33-2-0.65c-0.5-0.32-0.72-0.65-0.67-1c0.06-0.32,0.36-0.55,0.92-0.69c0.61-0.17,1.31-0.2,2.09-0.09
				c0.78,0.12,1.45,0.35,2,0.69c0.56,0.32,0.81,0.63,0.75,0.95C13.43,6.89,13.1,7.13,12.49,7.28z"/>
		</g>
		<g>
			
				<radialGradient id="SVGID_10_" cx="-160.5254" cy="-331" r="1.5877" gradientTransform="matrix(0.8349 0 0 0.8655 141.9976 299.208)" gradientUnits="userSpaceOnUse">
				<stop  offset="0" style="stop-color:#FFFFFF;stop-opacity:0.3686"/>
				<stop  offset="0.1765" style="stop-color:#FFFFFF;stop-opacity:0.2196"/>
				<stop  offset="0.3294" style="stop-color:#FFFFFF;stop-opacity:0.1216"/>
				<stop  offset="0.651" style="stop-color:#FFFFFF;stop-opacity:0"/>
				<stop  offset="1" style="stop-color:#FFFFFF;stop-opacity:0"/>
			</radialGradient>
			<path fill-rule="evenodd" clip-rule="evenodd" fill="url(#SVGID_10_)" d="M6.69,12.73c0-0.38,0.13-0.68,0.38-0.91
				c0.25-0.29,0.56-0.43,0.92-0.43s0.67,0.14,0.92,0.43c0.25,0.23,0.38,0.53,0.38,0.91c0,0.4-0.13,0.74-0.38,1s-0.56,0.39-0.92,0.39
				s-0.67-0.13-0.92-0.39C6.81,13.46,6.69,13.13,6.69,12.73z"/>
		</g>
	</g>
</g>
</svg>
