<?xml version="1.0" encoding="utf-8"?>
<!-- Generator: Adobe Illustrator 16.0.0, SVG Export Plug-In . SVG Version: 6.00 Build 0)  -->
<!DOCTYPE svg PUBLIC "-//W3C//DTD SVG 1.1//EN" "http://www.w3.org/Graphics/SVG/1.1/DTD/svg11.dtd">
<svg version="1.1" xmlns="http://www.w3.org/2000/svg" xmlns:xlink="http://www.w3.org/1999/xlink" x="0px" y="0px" width="700px"
	 height="700px" viewBox="0 0 700 700" enable-background="new 0 0 700 700" xml:space="preserve">
<g id="BG">
</g>
<g id="Layer_6">
	<g>
		<g>
			<g>
				<path fill-rule="evenodd" clip-rule="evenodd" fill="#6D593D" d="M404.8,318h-17l-0.3-1.5v-0.3h17L404.8,318z M598.9,318h-17.1
					l-0.2-1.5v-0.3h16.9L598.9,318z"/>
				<linearGradient id="SVGID_1_" gradientUnits="userSpaceOnUse" x1="396.5" y1="323.9248" x2="396.5" y2="341.7748">
					<stop  offset="0" style="stop-color:#16110C"/>
					<stop  offset="0.2353" style="stop-color:#483D27"/>
					<stop  offset="1" style="stop-color:#483D27"/>
				</linearGradient>
				<polygon fill-rule="evenodd" clip-rule="evenodd" fill="url(#SVGID_1_)" points="387.8,318 404.8,318 405.2,318 405.2,342.1 
					387.8,342.1 				"/>
				<path fill-rule="evenodd" clip-rule="evenodd" fill="#2C2318" d="M387.5,316.5l0.3,1.5v24.1l-0.3-1V316.5z M581.8,318v24.1
					l-0.2-1v-24.6L581.8,318z"/>
				<linearGradient id="SVGID_2_" gradientUnits="userSpaceOnUse" x1="590.5996" y1="322.5498" x2="590.5996" y2="342.7498">
					<stop  offset="0" style="stop-color:#16110C"/>
					<stop  offset="0.2353" style="stop-color:#483D27"/>
					<stop  offset="1" style="stop-color:#483D27"/>
				</linearGradient>
				<polygon fill-rule="evenodd" clip-rule="evenodd" fill="url(#SVGID_2_)" points="581.8,318 598.9,318 599.4,318 599.4,342.1 
					581.8,342.1 				"/>
			</g>
		</g>
		<g>
			<path fill-rule="evenodd" clip-rule="evenodd" d="M396.3,340.9c-2.4,0-4.4-0.8-6.1-2.3c-1.6-1.4-2.4-3.2-2.4-5.3
				c0-2.2,0.8-4,2.4-5.5c1.7-1.5,3.7-2.2,6.1-2.2c2.3,0,4.3,0.7,6,2.2c1.6,1.5,2.5,3.3,2.5,5.5c0,2.1-0.8,3.9-2.5,5.3
				C400.6,340.1,398.6,340.9,396.3,340.9z M581.8,333.9c0-2.2,0.9-4.1,2.5-5.6c1.7-1.6,3.8-2.4,6.2-2.4c2.3,0,4.4,0.8,6.1,2.4
				c1.7,1.6,2.6,3.5,2.6,5.6c0,2.1-0.9,4-2.6,5.6c-1.7,1.6-3.8,2.4-6.1,2.4c-2.4,0-4.4-0.8-6.2-2.4
				C582.7,337.9,581.8,336,581.8,333.9z"/>
		</g>
		<g>
			<g>
				<path fill-rule="evenodd" clip-rule="evenodd" fill="#695C49" d="M634.6,299.5c-0.2,0-0.5-0.6-0.7-1.8c-0.2-1.1-0.4-2.5-0.5-4.2
					c-0.1-1.6-0.1-3,0-4.1c0.1-1.1,0.2-1.7,0.3-1.7h0.1c0.2,0,0.4,0.6,0.6,1.7c0.2,1.1,0.4,2.5,0.5,4.1c0.1,1.7,0.1,3.1,0,4.2
					C634.9,298.9,634.8,299.4,634.6,299.5z"/>
				<linearGradient id="SVGID_3_" gradientUnits="userSpaceOnUse" x1="638.2461" y1="299.5747" x2="638.1875" y2="287.8336">
					<stop  offset="0" style="stop-color:#201C1B"/>
					<stop  offset="0.3294" style="stop-color:#2A2621"/>
					<stop  offset="0.5098" style="stop-color:#5D5040"/>
					<stop  offset="0.651" style="stop-color:#796D5A"/>
					<stop  offset="0.7294" style="stop-color:#2F2A24"/>
					<stop  offset="0.8471" style="stop-color:#FFFCF8"/>
					<stop  offset="0.9294" style="stop-color:#BCB6A1"/>
					<stop  offset="0.9647" style="stop-color:#8C775C"/>
					<stop  offset="1" style="stop-color:#94825A"/>
				</linearGradient>
				<path fill-rule="evenodd" clip-rule="evenodd" fill="url(#SVGID_3_)" d="M634.6,299.5c0.2,0,0.3-0.6,0.4-1.8
					c0.1-1.1,0.1-2.5,0-4.2c-0.1-1.6-0.3-3-0.5-4.1c-0.2-1.1-0.4-1.7-0.6-1.7h7.6c0.2,0,0.4,0.6,0.6,1.7c0.2,1.1,0.4,2.5,0.5,4.1
					c0.1,1.7,0.1,3.1,0,4.2c-0.1,1.2-0.3,1.8-0.5,1.8H634.6z"/>
			</g>
		</g>
		<g>
			<g>
				<path fill-rule="evenodd" clip-rule="evenodd" fill="#231D0F" d="M370.8,297l1.5,27.9l-1-0.1h-9.4l-1.2-27.8H370.8z
					 M614.3,324.9l-3.4-27.9h10l3.7,27.8h-9.4L614.3,324.9z"/>
				
					<linearGradient id="SVGID_4_" gradientUnits="userSpaceOnUse" x1="316.9058" y1="-322.8301" x2="343.7934" y2="-322.8301" gradientTransform="matrix(0.1255 0.9921 -1.0143 -5.006232e-002 -6.803870e-005 5.206838e-005)">
					<stop  offset="0" style="stop-color:#231D0F"/>
					<stop  offset="0.4902" style="stop-color:#403931"/>
					<stop  offset="0.6157" style="stop-color:#201D16"/>
					<stop  offset="0.7569" style="stop-color:#423B29"/>
				</linearGradient>
				<polygon fill-rule="evenodd" clip-rule="evenodd" fill="url(#SVGID_4_)" points="372.3,324.9 373.9,351.8 364.6,351.8 
					364.1,351.6 363.5,346 362,327.2 361.9,324.8 371.3,324.8 				"/>
				
					<linearGradient id="SVGID_5_" gradientUnits="userSpaceOnUse" x1="-378.6489" y1="-258.9121" x2="-357.9979" y2="-258.9121" gradientTransform="matrix(-0.9806 -0.1961 2.905030e-002 -1.014 2.847966e-004 2.089739e-004)">
					<stop  offset="0" style="stop-color:#1C1914"/>
					<stop  offset="1" style="stop-color:#726958"/>
				</linearGradient>
				<polygon fill-rule="evenodd" clip-rule="evenodd" fill="url(#SVGID_5_)" points="362,327.2 363.5,346 344.1,337.8 343.8,327.2 
									"/>
				<path fill-rule="evenodd" clip-rule="evenodd" fill="#42382D" d="M363.5,346l0.5,5.6l-18.9-8.4l-1.1-5.4L363.5,346z
					 M627.2,351.6l-0.4-5.6l18-8.2l-0.1,5.4L627.2,351.6z"/>
				<path fill-rule="evenodd" clip-rule="evenodd" fill="#1E160D" d="M372.3,324.9l-1.5-27.9l3.3,28.3l-0.2,26.5L372.3,324.9z
					 M610.9,297l3.4,27.9l3.2,26.9v0.2l-5-26.7L610.9,297z"/>
				<linearGradient id="SVGID_6_" gradientUnits="userSpaceOnUse" x1="620.5518" y1="332.7378" x2="621.4461" y2="354.863">
					<stop  offset="0" style="stop-color:#231D0F"/>
					<stop  offset="0.4902" style="stop-color:#403931"/>
					<stop  offset="0.6157" style="stop-color:#201D16"/>
					<stop  offset="0.7569" style="stop-color:#423B29"/>
				</linearGradient>
				<polygon fill-rule="evenodd" clip-rule="evenodd" fill="url(#SVGID_6_)" points="626.8,346 627.2,351.6 626.7,351.8 
					617.5,351.8 614.3,324.9 615.2,324.8 624.6,324.8 625,327.2 				"/>
				<linearGradient id="SVGID_7_" gradientUnits="userSpaceOnUse" x1="606.2627" y1="336.6001" x2="641.8377" y2="336.6001">
					<stop  offset="0" style="stop-color:#1C1914"/>
					<stop  offset="1" style="stop-color:#726958"/>
				</linearGradient>
				<polygon fill-rule="evenodd" clip-rule="evenodd" fill="url(#SVGID_7_)" points="626.8,346 625,327.2 642.8,327.2 644.8,337.8 
									"/>
			</g>
		</g>
		<g>
			<g>
				<linearGradient id="SVGID_8_" gradientUnits="userSpaceOnUse" x1="611.2178" y1="327.2114" x2="614.6339" y2="261.736">
					<stop  offset="0" style="stop-color:#605340"/>
					<stop  offset="0.1176" style="stop-color:#5B5145"/>
					<stop  offset="0.7608" style="stop-color:#7B7263"/>
					<stop  offset="1" style="stop-color:#A88E6B"/>
				</linearGradient>
				<path fill-rule="evenodd" clip-rule="evenodd" fill="url(#SVGID_8_)" d="M614,327.4h-0.1c-1.3,0-2.5-3.2-3.7-9.6
					c-1.2-6.4-1.9-14.2-2.1-23.3c-0.2-9.1,0-16.9,0.8-23.3c0.7-6.4,1.7-9.7,3-9.8h0.2c1.2,0.1,2.5,3.3,3.7,9.8
					c1.2,6.4,1.9,14.1,2.1,23.3c0.2,9.1,0,16.8-0.7,23.3C616.3,324.1,615.3,327.3,614,327.4z"/>
				<linearGradient id="SVGID_9_" gradientUnits="userSpaceOnUse" x1="623.917" y1="261.4253" x2="624.7715" y2="327.5291">
					<stop  offset="0" style="stop-color:#443B34"/>
					<stop  offset="8.627451e-002" style="stop-color:#726A67"/>
					<stop  offset="0.1882" style="stop-color:#5E5653"/>
					<stop  offset="0.2824" style="stop-color:#362F29"/>
					<stop  offset="0.5216" style="stop-color:#372F29"/>
					<stop  offset="0.6118" style="stop-color:#4A3F29"/>
					<stop  offset="0.7608" style="stop-color:#4A3F29"/>
					<stop  offset="1" style="stop-color:#000000"/>
				</linearGradient>
				<path fill-rule="evenodd" clip-rule="evenodd" fill="url(#SVGID_9_)" d="M614,327.4c1.2-0.1,2.2-3.3,3-9.6
					c0.7-6.4,0.9-14.2,0.7-23.3c-0.2-9.1-0.9-16.9-2.1-23.3c-1.2-6.4-2.4-9.7-3.7-9.8h18.5c1.3,0.1,2.5,3.3,3.8,9.8
					c1.1,6.4,1.8,14.1,2,23.3c0.2,9.1,0,16.8-0.7,23.3c-0.8,6.4-1.8,9.6-3.1,9.6H614z"/>
			</g>
		</g>
		<g>
			<linearGradient id="SVGID_10_" gradientUnits="userSpaceOnUse" x1="492.1172" y1="268.3999" x2="492.1172" y2="319.6499">
				<stop  offset="0" style="stop-color:#AA9A83"/>
				<stop  offset="0.1569" style="stop-color:#DAD1C0"/>
				<stop  offset="0.302" style="stop-color:#DDD1C3"/>
				<stop  offset="0.5255" style="stop-color:#A2937E"/>
				<stop  offset="0.651" style="stop-color:#8D7A59"/>
				<stop  offset="1" style="stop-color:#372F1E"/>
			</linearGradient>
			<path fill-rule="evenodd" clip-rule="evenodd" fill="url(#SVGID_10_)" d="M373.2,268.3H611c0.8,0,1.5,2.5,2.2,7.5
				c0.7,5,1.2,11.1,1.3,18.2c0.3,7.1,0.3,13.1,0,18c-0.3,4.6-0.8,7.1-1.5,7.5H371.2c-0.7-0.4-1.2-2.9-1.5-7.5
				c-0.4-4.9-0.4-10.9-0.1-18c0.2-7.1,0.7-13.2,1.4-18.2C371.7,270.8,372.4,268.3,373.2,268.3z"/>
		</g>
		<g>
			<g>
				
					<linearGradient id="SVGID_11_" gradientUnits="userSpaceOnUse" x1="-367.7866" y1="352.4883" x2="-302.0409" y2="352.4883" gradientTransform="matrix(-2.509670e-002 -0.9997 0.9974 -0.1145 -1.307949e-004 5.878955e-004)">
					<stop  offset="0" style="stop-color:#605340"/>
					<stop  offset="0.1176" style="stop-color:#5B5145"/>
					<stop  offset="0.7608" style="stop-color:#7B7263"/>
					<stop  offset="1" style="stop-color:#A88E6B"/>
				</linearGradient>
				<path fill-rule="evenodd" clip-rule="evenodd" fill="url(#SVGID_11_)" d="M359.4,261.5c0.6,0.1,1.2,3.3,1.8,9.8
					c0.6,6.4,0.9,14.1,1.1,23.3c0.1,9.1,0,16.8-0.3,23.3c-0.3,6.3-0.8,9.5-1.4,9.6h0c-0.6,0-1.2-3.2-1.8-9.6
					c-0.6-6.4-0.9-14.2-1-23.3c-0.2-9.1-0.1-16.9,0.2-23.3C358.3,264.8,358.8,261.6,359.4,261.5z"/>
				
					<linearGradient id="SVGID_12_" gradientUnits="userSpaceOnUse" x1="251.9844" y1="-370.9795" x2="318.0357" y2="-370.9795" gradientTransform="matrix(-6.434386e-003 1 -0.9999 -2.520652e-002 -3.105355e-004 1.428612e-004)">
					<stop  offset="0" style="stop-color:#443B34"/>
					<stop  offset="8.627451e-002" style="stop-color:#726A67"/>
					<stop  offset="0.1882" style="stop-color:#5E5653"/>
					<stop  offset="0.2824" style="stop-color:#362F29"/>
					<stop  offset="0.5216" style="stop-color:#372F29"/>
					<stop  offset="0.6118" style="stop-color:#4A3F29"/>
					<stop  offset="0.7608" style="stop-color:#4A3F29"/>
					<stop  offset="1" style="stop-color:#000000"/>
				</linearGradient>
				<path fill-rule="evenodd" clip-rule="evenodd" fill="url(#SVGID_12_)" d="M360.6,327.4c0.6-0.1,1.1-3.3,1.4-9.6
					c0.3-6.4,0.4-14.2,0.3-23.3c-0.2-9.1-0.5-16.9-1.1-23.3c-0.6-6.4-1.2-9.7-1.8-9.8H376c0.6,0.1,1.2,3.3,1.8,9.8
					c0.5,6.4,0.9,14.1,1,23.3c0.2,9.1,0.1,16.8-0.3,23.3c-0.3,6.4-0.8,9.6-1.3,9.6H360.6z"/>
			</g>
		</g>
		<g>
			<g>
				<g>
					<path fill-rule="evenodd" clip-rule="evenodd" fill="#695C49" d="M352.3,299.5c-0.3,0-0.5-0.6-0.8-1.8
						c-0.2-1.1-0.4-2.5-0.5-4.2c-0.1-1.6-0.1-3,0-4.1c0.1-1.1,0.2-1.7,0.4-1.7h0c0.2,0,0.5,0.6,0.6,1.7c0.2,1.1,0.4,2.5,0.5,4.1
						c0.1,1.7,0.1,3.1,0,4.2C352.5,298.9,352.4,299.4,352.3,299.5z"/>
					
						<linearGradient id="SVGID_13_" gradientUnits="userSpaceOnUse" x1="-296.0308" y1="358.7676" x2="-284.2803" y2="358.7676" gradientTransform="matrix(9.920533e-003 -1 1 9.920531e-003 1.762714e-004 1.202459e-004)">
						<stop  offset="0" style="stop-color:#201C1B"/>
						<stop  offset="0.3294" style="stop-color:#2A2621"/>
						<stop  offset="0.5098" style="stop-color:#5D5040"/>
						<stop  offset="0.651" style="stop-color:#796D5A"/>
						<stop  offset="0.7294" style="stop-color:#2F2A24"/>
						<stop  offset="0.8471" style="stop-color:#FFFCF8"/>
						<stop  offset="0.9294" style="stop-color:#BCB6A1"/>
						<stop  offset="0.9647" style="stop-color:#8C775C"/>
						<stop  offset="1" style="stop-color:#94825A"/>
					</linearGradient>
					<path fill-rule="evenodd" clip-rule="evenodd" fill="url(#SVGID_13_)" d="M352.3,299.5c0.2,0,0.3-0.6,0.3-1.8
						c0.1-1.1,0.1-2.5,0-4.2c-0.1-1.6-0.3-3-0.5-4.1c-0.2-1.1-0.4-1.7-0.6-1.7h7.5c0.2,0,0.3,0.3,0.5,1c1.2,6.8,1,10.4-0.5,10.8
						H352.3z"/>
				</g>
			</g>
		</g>
		<g>
			<g>
				<path fill-rule="evenodd" clip-rule="evenodd" d="M633.2,271h-9.4c-0.6-5.9-1.9-9-3.8-9.4v-0.1h12
					C632,263.2,632.4,266.4,633.2,271z"/>
			</g>
			<g>
				<g>
					<linearGradient id="SVGID_14_" gradientUnits="userSpaceOnUse" x1="654.2646" y1="240.1045" x2="653.7407" y2="247.9296">
						<stop  offset="0" style="stop-color:#363025"/>
						<stop  offset="0.2863" style="stop-color:#9E8C72"/>
						<stop  offset="0.8078" style="stop-color:#584E3E"/>
					</linearGradient>
					<path fill-rule="evenodd" clip-rule="evenodd" fill="url(#SVGID_14_)" d="M664,246.9h-18.7c0-2.1-0.1-3.9-0.3-5.4
						c-0.3-1.6-0.6-2.4-0.9-2.5l18.2,1.5h0.1c0.4,0,0.7,0.7,1.1,2.1C663.8,243.8,663.9,245.2,664,246.9z"/>
					<linearGradient id="SVGID_15_" gradientUnits="userSpaceOnUse" x1="654.1846" y1="250.0376" x2="654.1846" y2="257.2626">
						<stop  offset="0" style="stop-color:#584E3E"/>
						<stop  offset="1" style="stop-color:#000000"/>
					</linearGradient>
					<path fill-rule="evenodd" clip-rule="evenodd" fill="url(#SVGID_15_)" d="M644.3,255.5l0.3-0.1c0.2-0.2,0.4-1,0.6-2.4
						c0.2-1.6,0.2-3.5,0.2-5.8c0-0.2,0-0.3,0-0.4H664c0,0.1,0,0.2,0,0.4c0.1,1.8,0,3.3-0.3,4.6c-0.2,1.3-0.6,2-1,2l-17.1,1.5
						C645.4,255.4,645,255.5,644.3,255.5z"/>
					<path fill-rule="evenodd" clip-rule="evenodd" fill="#5F5343" d="M645.3,246.9c0,0.1,0,0.2,0,0.4c0,2.2,0,4.1-0.2,5.8
						c-0.2,1.3-0.4,2.1-0.6,2.4l-0.3,0.1c-0.3-0.2-0.5-1-0.8-2.5c-0.2-1.6-0.3-3.5-0.3-5.8c0-0.2,0-0.3,0-0.4
						c-0.1-2.1,0-3.9,0.2-5.4c0.2-1.6,0.5-2.4,0.7-2.5h0.1c0.3,0.1,0.6,0.9,0.9,2.5C645.2,243,645.3,244.8,645.3,246.9z"/>
				</g>
			</g>
			<g>
				<linearGradient id="SVGID_16_" gradientUnits="userSpaceOnUse" x1="655.0967" y1="256.0132" x2="654.6294" y2="238.488">
					<stop  offset="0" style="stop-color:#000000"/>
					<stop  offset="1" style="stop-color:#3C342B"/>
				</linearGradient>
				<path fill-rule="evenodd" clip-rule="evenodd" fill="url(#SVGID_16_)" d="M663.7,248.2c0,0.7-0.1,1.3-0.2,1.8l-16.7,1.3
					c0.1-0.9,0.3-1.7,0.4-2.5L663.7,248.2z M663.2,251.7l-0.7,1.4l-16.3,1.3l0.4-1.3L663.2,251.7z M663.1,241.6l0.3,1.6l-16.5-1
					c0.1-0.7-0.1-1.4-0.5-2.1L663.1,241.6z M663.6,245c0,0.5,0.1,1.1,0.1,1.6h-16.5c0-0.7,0-1.4,0-2.1L663.6,245z"/>
			</g>
			<g>
				<g>
					<path fill-rule="evenodd" clip-rule="evenodd" fill="#776955" d="M641,254.6c-0.3,0-0.5-0.7-0.6-2.2c-0.2-1.4-0.3-3.1-0.3-5.1
						c0-2,0.1-3.8,0.3-5.2c0.1-1.3,0.3-2,0.5-2h0.1c0.2,0,0.4,0.6,0.7,1.9c0.1,1.2,0.2,2.9,0.2,4.9c0,2-0.1,3.8-0.2,5.4
						C641.4,253.8,641.2,254.6,641,254.6z"/>
					
						<linearGradient id="SVGID_17_" gradientUnits="userSpaceOnUse" x1="-278.7944" y1="636.9834" x2="-262.3401" y2="636.9834" gradientTransform="matrix(-2.279043e-002 -0.9997 0.9994 -3.781504e-002 1.074709e-004 -2.522022e-005)">
						<stop  offset="0" style="stop-color:#1C1914"/>
						<stop  offset="0.2275" style="stop-color:#2E2820"/>
						<stop  offset="0.5882" style="stop-color:#836D5A"/>
						<stop  offset="0.898" style="stop-color:#372F27"/>
						<stop  offset="1" style="stop-color:#3C342B"/>
					</linearGradient>
					<path fill-rule="evenodd" clip-rule="evenodd" fill="url(#SVGID_17_)" d="M641,240h2.8c0.2,0,0.4,0.2,0.5,0.6
						c0.7,4.3,0.7,8.8,0,13.5c0,0.3-0.1,0.5-0.4,0.5H641c0.2,0,0.4-0.8,0.7-2.5c0.1-1.6,0.2-3.4,0.2-5.4c0-2-0.1-3.7-0.2-4.9
						C641.4,240.6,641.2,240,641,240z"/>
				</g>
			</g>
			<g>
				<g>
					<path fill-rule="evenodd" clip-rule="evenodd" fill="#695C49" d="M635.7,257c-0.3,0-0.6-1-0.9-2.9c-0.3-1.9-0.5-4.2-0.5-6.9
						s0.2-5.1,0.5-7c0.3-1.8,0.6-2.7,0.9-2.8h0c0.4,0,0.7,1,0.9,2.9c0.3,1.9,0.5,4.2,0.5,6.9c0,2.7-0.1,5.1-0.5,7
						C636.4,256,636.1,256.9,635.7,257z"/>
					<linearGradient id="SVGID_18_" gradientUnits="userSpaceOnUse" x1="638.8008" y1="237.3623" x2="638.8008" y2="256.9373">
						<stop  offset="0" style="stop-color:#363025"/>
						<stop  offset="0.1255" style="stop-color:#83725A"/>
						<stop  offset="0.2902" style="stop-color:#363025"/>
						<stop  offset="0.5529" style="stop-color:#605342"/>
						<stop  offset="0.8" style="stop-color:#363025"/>
						<stop  offset="1" style="stop-color:#251E16"/>
					</linearGradient>
					<path fill-rule="evenodd" clip-rule="evenodd" fill="url(#SVGID_18_)" d="M635.7,257c0.4,0,0.7-1,0.9-2.9
						c0.3-1.9,0.5-4.2,0.5-7c0-2.7-0.1-5-0.5-6.9c-0.2-1.9-0.5-2.8-0.9-2.9h4.8c0.4,0,0.7,1,1,2.9c0.3,1.9,0.4,4.2,0.4,6.9
						c0,2.7-0.1,5.1-0.4,7c-0.3,1.9-0.6,2.9-1,2.9H635.7z"/>
				</g>
			</g>
			<g>
				<g>
					<path fill-rule="evenodd" clip-rule="evenodd" fill="#695C49" d="M631.3,257.8c-0.3-0.1-0.6-1.1-1-3.2
						c-0.3-2.1-0.5-4.6-0.5-7.5c0-2.9,0.2-5.4,0.5-7.5c0.3-2,0.6-3,0.9-3h0c0.4,0,0.8,1,1,3.1c0.3,2,0.5,4.5,0.5,7.4
						c0,2.9-0.1,5.4-0.5,7.5C632.1,256.7,631.7,257.8,631.3,257.8z"/>
					<linearGradient id="SVGID_19_" gradientUnits="userSpaceOnUse" x1="634.6406" y1="236.5874" x2="634.6531" y2="257.7124">
						<stop  offset="0" style="stop-color:#363025"/>
						<stop  offset="0.2863" style="stop-color:#9E8C72"/>
						<stop  offset="0.5882" style="stop-color:#363025"/>
						<stop  offset="0.8039" style="stop-color:#363025"/>
						<stop  offset="1" style="stop-color:#251E16"/>
					</linearGradient>
					<path fill-rule="evenodd" clip-rule="evenodd" fill="url(#SVGID_19_)" d="M631.3,257.8c0.4,0,0.8-1.1,1-3.1
						c0.3-2.1,0.5-4.6,0.5-7.5c0-2.9-0.1-5.4-0.5-7.4c-0.3-2-0.6-3-1-3.1h5.2c0.4,0,0.8,1,1,3.1c0.3,2,0.5,4.5,0.5,7.4
						c0,2.9-0.2,5.4-0.5,7.5c-0.3,2.1-0.6,3.1-1,3.1H631.3z"/>
				</g>
			</g>
			<g>
				<g>
					<linearGradient id="SVGID_20_" gradientUnits="userSpaceOnUse" x1="627.4785" y1="232.8755" x2="627.6554" y2="270.6744">
						<stop  offset="0" style="stop-color:#363025"/>
						<stop  offset="0.2863" style="stop-color:#9E8C72"/>
						<stop  offset="0.5882" style="stop-color:#363025"/>
						<stop  offset="0.8039" style="stop-color:#363025"/>
						<stop  offset="1" style="stop-color:#251E16"/>
					</linearGradient>
					<path fill-rule="evenodd" clip-rule="evenodd" fill="url(#SVGID_20_)" d="M622.2,232.9h8c1.2,0.8,2,3.1,2.3,7
						c0.1,0.6,0.1,1.3,0.2,2.1v28.7h-8.5v-28.4c0,0-0.1-1.3-0.4-3.8C623.5,235.9,622.9,234,622.2,232.9z"/>
					<path fill-rule="evenodd" clip-rule="evenodd" fill="#7C6D58" d="M622.2,232.9c0.7,1.1,1.3,3,1.8,5.6c0.3,2.5,0.4,3.8,0.4,3.8
						v28.4h0c-0.8-5.7-2.2-8.7-4.3-9.1v-22.1C620.4,235.1,621.1,232.9,622.2,232.9z"/>
				</g>
			</g>
			<g>
				<g>
					<path fill-rule="evenodd" clip-rule="evenodd" fill="#695C49" d="M617,257.8c-0.3-0.1-0.7-1.1-1-3.2c-0.3-2.1-0.5-4.6-0.5-7.5
						c0-2.9,0.2-5.4,0.5-7.5c0.3-2,0.6-3,0.9-3h0.1c0.4,0,0.7,1,1,3.1c0.3,2,0.4,4.5,0.4,7.4c0,2.9-0.1,5.4-0.4,7.5
						C617.7,256.7,617.4,257.8,617,257.8z"/>
					<linearGradient id="SVGID_21_" gradientUnits="userSpaceOnUse" x1="620.3008" y1="236.5874" x2="620.3008" y2="257.7124">
						<stop  offset="0" style="stop-color:#363025"/>
						<stop  offset="0.2863" style="stop-color:#9E8C72"/>
						<stop  offset="0.5882" style="stop-color:#363025"/>
						<stop  offset="0.8039" style="stop-color:#363025"/>
						<stop  offset="1" style="stop-color:#251E16"/>
					</linearGradient>
					<path fill-rule="evenodd" clip-rule="evenodd" fill="url(#SVGID_21_)" d="M617,236.6h5.3c0.4,0,0.8,1,1,3.1
						c0.3,2,0.4,4.5,0.4,7.4c0,2.9-0.1,5.4-0.4,7.5c-0.3,2.1-0.7,3.1-1,3.1H617c0.4,0,0.7-1.1,1-3.1c0.3-2.1,0.4-4.6,0.4-7.5
						c0-2.9-0.1-5.4-0.4-7.4C617.7,237.7,617.4,236.7,617,236.6z"/>
				</g>
			</g>
			<g>
				<g>
					<g>
						<polygon fill-rule="evenodd" clip-rule="evenodd" fill="#593C1E" points="617.7,242.9 373.7,242.9 374.8,238.5 616.5,238.5 
													"/>
						<polygon fill-rule="evenodd" clip-rule="evenodd" fill="#21170B" points="373.7,242.9 617.7,242.9 617,253.9 374.3,253.9 
													"/>
					</g>
				</g>
				<g>
					<path fill-rule="evenodd" clip-rule="evenodd" fill="#FFFFFF" fill-opacity="0.3686" d="M373.2,242.3c0.2-0.1,0.3-0.1,0.5-0.1
						h244c0.1,0,0.3,0,0.3,0.1c0.1,0.1,0.2,0.3,0.2,0.4c0,0.2-0.1,0.3-0.2,0.5c-0.1,0.1-0.2,0.1-0.3,0.1H373.7c-0.1,0-0.3,0-0.5-0.1
						c-0.1-0.1-0.2-0.3-0.2-0.5C373,242.5,373.1,242.4,373.2,242.3z"/>
				</g>
			</g>
			<g>
				<g>
					<path fill-rule="evenodd" clip-rule="evenodd" d="M362.9,261.5c-0.1,0-0.2,0-0.3,0h11.8v0c0.2,1.7,0.5,4.9,1.2,9.5h-9.2
						C365.8,265.5,364.6,262.3,362.9,261.5z"/>
				</g>
				<g>
					<g>
						
							<linearGradient id="SVGID_22_" gradientUnits="userSpaceOnUse" x1="231.1602" y1="-371.0684" x2="268.939" y2="-371.0684" gradientTransform="matrix(-4.656697e-003 1 -1 -4.656696e-003 3.286116e-004 -9.816233e-005)">
							<stop  offset="0" style="stop-color:#363025"/>
							<stop  offset="0.2863" style="stop-color:#9E8C72"/>
							<stop  offset="0.5882" style="stop-color:#363025"/>
							<stop  offset="0.8039" style="stop-color:#363025"/>
							<stop  offset="1" style="stop-color:#251E16"/>
						</linearGradient>
						<path fill-rule="evenodd" clip-rule="evenodd" fill="url(#SVGID_22_)" d="M366.8,270.6V242c0-0.1,0-0.2-0.1-0.4l-0.2-2.3
							c-0.1-0.1-0.1-0.2-0.1-0.4s0-0.3,0-0.5c-0.2-1.4-0.4-2.6-0.7-3.5c-0.3-1.4-0.7-2.1-1.2-2.1h8.4c0.1,0,0.1,0,0.2,0.1
							c0.4,0.2,0.7,0.9,1,2c0.2,0.9,0.4,2.1,0.6,3.5c0.1,0.1,0.1,0.3,0.1,0.5c0.1,0.9,0.2,1.9,0.3,3v28.7H366.8z"/>
						<path fill-rule="evenodd" clip-rule="evenodd" fill="#7C6D58" d="M366.8,270.6L366.8,270.6c-1.1-6.6-2.5-9.6-4.3-9.1v-19.4
							c0.1-0.3,0.2-0.5,0.2-0.6c0-0.5,0-0.9,0.1-1.2l0.2-1.1c0-0.2,0-0.4,0-0.5c0.4-3.8,1-5.8,1.6-5.8c0.5,0,0.9,0.7,1.2,2.1
							c0.2,0.9,0.5,2.1,0.7,3.5c0,0.1,0,0.3,0,0.5s0,0.3,0.1,0.4l0.2,2.3c0.1,0.2,0.1,0.3,0.1,0.4V270.6z"/>
					</g>
				</g>
			</g>
			<g>
				<g>
					
						<radialGradient id="SVGID_23_" cx="-366.2998" cy="-244.6001" r="11.85" gradientTransform="matrix(-1 0 0 1 0 489.2002)" gradientUnits="userSpaceOnUse">
						<stop  offset="0" style="stop-color:#FFFFFF;stop-opacity:0.5373"/>
						<stop  offset="0.4745" style="stop-color:#FFFFFF;stop-opacity:0.3059"/>
						<stop  offset="1" style="stop-color:#FFFFFF;stop-opacity:0"/>
					</radialGradient>
					<path fill-rule="evenodd" clip-rule="evenodd" fill="url(#SVGID_23_)" d="M365.5,232.3c0.2,0,0.3,0.1,0.3,0.2
						c1.5,2.5,2.1,10.6,1.8,24.3c0,0.1,0,0.3-0.1,0.5c-0.2,0.1-0.3,0.1-0.5,0.1c-0.1,0-0.2,0-0.4-0.1c-0.1-0.2-0.1-0.3-0.1-0.5
						c0.3-13.4-0.2-21.3-1.6-23.7c-0.1-0.1-0.1-0.3,0-0.4c0.1-0.2,0.2-0.3,0.3-0.5C365.3,232.2,365.4,232.2,365.5,232.3z"/>
					<radialGradient id="SVGID_24_" cx="623.25" cy="245.4248" r="12.724" gradientUnits="userSpaceOnUse">
						<stop  offset="0" style="stop-color:#FFFFFF;stop-opacity:0.5373"/>
						<stop  offset="0.4745" style="stop-color:#FFFFFF;stop-opacity:0.3059"/>
						<stop  offset="1" style="stop-color:#FFFFFF;stop-opacity:0"/>
					</radialGradient>
					<path fill-rule="evenodd" clip-rule="evenodd" fill="url(#SVGID_24_)" d="M621.8,232.4c0.1-0.1,0.3-0.2,0.5-0.2
						c0.1,0,0.3,0.1,0.4,0.3c2.2,2.5,2.9,11,2.2,25.6c0,0.2-0.1,0.3-0.2,0.4c-0.1,0.1-0.2,0.1-0.3,0.1c-0.2,0-0.4,0-0.5-0.1
						c-0.1-0.1-0.1-0.3-0.1-0.5c0.6-14.1,0-22.3-2-24.8c-0.1-0.2-0.2-0.3-0.2-0.5C621.5,232.6,621.6,232.5,621.8,232.4z"/>
				</g>
			</g>
			<g>
				<g>
					
						<linearGradient id="SVGID_25_" gradientUnits="userSpaceOnUse" x1="241.4004" y1="-361.874" x2="250.4754" y2="-361.874" gradientTransform="matrix(1.101929e-004 1 -1 -1.000000e-003 -8.363943e-005 -1.809727e-004)">
						<stop  offset="0" style="stop-color:#363025"/>
						<stop  offset="0.2863" style="stop-color:#9E8C72"/>
						<stop  offset="0.5882" style="stop-color:#363025"/>
						<stop  offset="0.8039" style="stop-color:#363025"/>
						<stop  offset="1" style="stop-color:#251E16"/>
					</linearGradient>
					<path fill-rule="evenodd" clip-rule="evenodd" fill="url(#SVGID_25_)" d="M358.8,250.9c0.2,0,0.3-0.4,0.3-1.3
						c0.1-0.9,0.2-2,0.2-3.3c0-1.2-0.1-2.3-0.3-3.1c-0.1-0.9-0.2-1.3-0.3-1.3h5.8c0.2,0,0.3,0.4,0.4,1.3c0.1,0.9,0.2,2,0.3,3.1
						c0,1.2-0.1,2.3-0.2,3.2c0,0,0,0.1,0,0.1c-0.1,0.8-0.3,1.3-0.5,1.3H358.8z"/>
					<path fill-rule="evenodd" clip-rule="evenodd" fill="#695C49" d="M358.7,241.9c0.1,0,0.3,0.4,0.3,1.3c0.2,0.9,0.3,2,0.3,3.1
						c0,1.3-0.1,2.4-0.2,3.3c-0.1,0.8-0.2,1.2-0.3,1.3c-0.2,0-0.3-0.5-0.5-1.4c-0.1-0.9-0.2-1.9-0.2-3.2c0-1.2,0-2.3,0.2-3.1
						C358.4,242.3,358.5,241.9,358.7,241.9L358.7,241.9z"/>
				</g>
			</g>
		</g>
		<g>
			<g>
				<linearGradient id="SVGID_26_" gradientUnits="userSpaceOnUse" x1="491.2734" y1="266.5752" x2="491.2773" y2="323.1377">
					<stop  offset="0" style="stop-color:#5E5A3D"/>
					<stop  offset="0.1608" style="stop-color:#90876A"/>
					<stop  offset="0.298" style="stop-color:#7B6A5A"/>
					<stop  offset="0.4863" style="stop-color:#2D2010"/>
					<stop  offset="0.6588" style="stop-color:#3A3412"/>
					<stop  offset="0.7686" style="stop-color:#4D482B"/>
					<stop  offset="0.9882" style="stop-color:#393615"/>
				</linearGradient>
				<path fill-rule="evenodd" clip-rule="evenodd" fill="url(#SVGID_26_)" d="M396.4,291.9c-0.1-6.5,0.1-12.1,0.6-16.8
					c0.7-5.6,1.7-8.5,2.8-8.5h181.5c1.1,0,2.2,2.7,3.2,8.1c0.2,1.1,0.3,2.3,0.5,3.4c0.6,4.8,1,10.4,1.3,16.7v3.1
					c0.1,6.5-0.2,12-0.7,16.8c-0.7,5.6-1.6,8.5-2.7,8.5H401.3c-1.1,0-2.1-2.8-3.1-8.3c-0.1-1.1-0.3-2.2-0.5-3.3
					c-0.6-4.8-1-10.4-1.2-16.6C396.5,293.9,396.4,292.9,396.4,291.9z"/>
			</g>
			<g>
				<linearGradient id="SVGID_27_" gradientUnits="userSpaceOnUse" x1="592.1357" y1="323.2002" x2="592.1357" y2="266.6499">
					<stop  offset="0" style="stop-color:#554426"/>
					<stop  offset="0.1569" style="stop-color:#A89461"/>
					<stop  offset="0.349" style="stop-color:#201C1B"/>
					<stop  offset="0.5098" style="stop-color:#5D5040"/>
					<stop  offset="0.698" style="stop-color:#796D5A"/>
					<stop  offset="0.8627" style="stop-color:#FFFCF8"/>
					<stop  offset="0.9294" style="stop-color:#BCB6A1"/>
					<stop  offset="0.9647" style="stop-color:#8C775C"/>
					<stop  offset="1" style="stop-color:#94825A"/>
				</linearGradient>
				<path fill-rule="evenodd" clip-rule="evenodd" fill="url(#SVGID_27_)" d="M581.3,266.6H598c1.1,0,2.1,2.7,3.1,8.1
					c0.9,5.5,1.4,12.2,1.7,20.1c0.2,7.8,0,14.4-0.6,19.9c-0.7,5.6-1.6,8.5-2.8,8.5h-16.7c1.1,0,2-2.9,2.7-8.5
					c0.5-4.7,0.7-10.3,0.7-16.8c0-1,0-2.1,0-3.1c-0.2-6.3-0.6-11.9-1.3-16.7c-0.1-1.1-0.3-2.2-0.5-3.4
					C583.5,269.4,582.4,266.7,581.3,266.6z"/>
			</g>
			<g>
				
					<linearGradient id="SVGID_28_" gradientUnits="userSpaceOnUse" x1="-323.604" y1="395.4531" x2="-267.0352" y2="395.4531" gradientTransform="matrix(1.768347e-005 -1 1 -1.000000e-003 0 -1.800599e-004)">
					<stop  offset="0" style="stop-color:#554426"/>
					<stop  offset="0.1569" style="stop-color:#A89461"/>
					<stop  offset="0.349" style="stop-color:#201C1B"/>
					<stop  offset="0.5098" style="stop-color:#5D5040"/>
					<stop  offset="0.698" style="stop-color:#796D5A"/>
					<stop  offset="0.8627" style="stop-color:#FFFCF8"/>
					<stop  offset="0.9294" style="stop-color:#BCB6A1"/>
					<stop  offset="0.9647" style="stop-color:#8C775C"/>
					<stop  offset="1" style="stop-color:#94825A"/>
				</linearGradient>
				<path fill-rule="evenodd" clip-rule="evenodd" fill="url(#SVGID_28_)" d="M388.3,294.9c-0.2-6.3-0.4-11.9-0.8-16.7
					c-0.1-1.1-0.2-2.2-0.3-3.4c-0.7-5.4-1.4-8.1-2.1-8.1h17.4c0.7,0,1.4,2.7,2,8.1c0.6,5.5,1,12.2,1.2,20.1c0.1,7.8,0,14.4-0.5,19.9
					c-0.5,5.6-1.1,8.5-1.8,8.5h-15.9c-0.2,0,0-2.9,0.5-8.5c0.3-4.7,0.4-10.3,0.3-16.8C388.3,296.9,388.3,295.9,388.3,294.9z"/>
			</g>
		</g>
		<g>
			<g>
				
					<linearGradient id="SVGID_29_" gradientUnits="userSpaceOnUse" x1="272.875" y1="-441.7969" x2="331.2516" y2="-441.7969" gradientTransform="matrix(8.424605e-003 1 -1 8.424603e-003 -4.256759e-004 -9.644683e-005)">
					<stop  offset="0" style="stop-color:#5E5A3D"/>
					<stop  offset="0.1608" style="stop-color:#D5D5D5"/>
					<stop  offset="0.298" style="stop-color:#7B6A5A"/>
					<stop  offset="0.4863" style="stop-color:#2D2010"/>
					<stop  offset="0.6588" style="stop-color:#3A3412"/>
					<stop  offset="0.7686" style="stop-color:#4D482B"/>
					<stop  offset="1" style="stop-color:#000000"/>
				</linearGradient>
				<path fill-rule="evenodd" clip-rule="evenodd" fill="url(#SVGID_29_)" d="M437.5,266.6h1.1c0.7,10.1,1.1,20.1,1.1,30.1
					c0,8.8-0.3,17.5-0.8,26.2h-1.2c0.5-8.7,0.8-17.4,0.8-26.2C438.5,286.7,438.1,276.7,437.5,266.6z M433.2,266.6
					c0.7,10,1,19.9,1,29.8c0.1,8.8-0.2,17.6-0.8,26.4h-1.2c0.5-8.8,0.8-17.6,0.7-26.4c0-9.9-0.3-19.8-1-29.8H433.2z M480.8,266.6
					h1.2c2.2,18.4,2.3,37.2,0.3,56.3H481C483,303.8,482.9,285.1,480.8,266.6z M478,266.6h1.3c1,9.7,1.5,19.5,1.5,29.3
					c0,9-0.4,18-1.3,26.9h-1.3c0.9-9,1.3-18,1.3-26.9C479.5,286.1,479,276.4,478,266.6z M475.3,266.6h1.2c1.1,9.7,1.7,19.4,1.7,29.3
					c0,8.9-0.5,17.9-1.4,26.9h-1.2c0.9-9,1.3-18,1.3-26.9C476.9,286.1,476.4,276.4,475.3,266.6z M424,266.6h1.3
					c0.7,9.9,1,19.9,1,30.1c0,8.7-0.3,17.4-0.8,26.2h-1.2c0.5-8.8,0.7-17.5,0.7-26.2C425,286.6,424.7,276.5,424,266.6z M410.4,266.6
					h1.3c0.4,10,0.6,19.9,0.6,29.6c0,8.9-0.2,17.7-0.5,26.6h-1.3c0.4-8.9,0.5-17.7,0.5-26.6C411,286.4,410.8,276.5,410.4,266.6z
					 M415.8,266.6h1.2c0.5,10,0.8,20,0.8,29.9c0,8.8-0.2,17.6-0.5,26.4H416c0.3-6.9,0.5-14.6,0.5-23.3c0-0.5,0-1,0-1.6
					C416.5,286.7,416.3,276.3,415.8,266.6z M418.5,266.6h1.3c0.6,9.7,0.9,19.6,0.9,29.6c0,8.8-0.2,17.6-0.7,26.6h-1.2
					c0.4-9,0.7-17.8,0.7-26.6C419.5,286.3,419.2,276.4,418.5,266.6z M413.2,266.6h1.2c0.5,9.8,0.8,19.8,0.8,29.9
					c0,8.7-0.2,17.5-0.6,26.4h-1.3c0.4-8.9,0.6-17.7,0.6-26.4C413.9,286.4,413.7,276.5,413.2,266.6z M405,266.6h1.2
					c0.4,10,0.6,19.9,0.6,29.8c0,8.8-0.2,17.6-0.5,26.4h-1.1c0.3-8.8,0.5-17.6,0.5-26.4C405.7,286.5,405.5,276.6,405,266.6z
					 M407.8,266.6h1.2c0.6,9.7,0.8,19.6,0.8,29.6c0,8.8-0.2,17.6-0.7,26.6H408c0.4-9,0.6-17.8,0.6-26.6
					C408.6,286.3,408.3,276.4,407.8,266.6z M421.3,266.6h1.2c0.6,9.9,0.8,19.8,0.8,29.6c0,8.9-0.2,17.7-0.6,26.6h-1.3
					c0.5-8.9,0.7-17.7,0.6-26.6C422.1,286.4,421.8,276.5,421.3,266.6z M426.8,266.6h1.2c0.6,10.1,0.8,20.1,0.8,30.1
					c0,8.8-0.2,17.5-0.6,26.2h-1.3c0.5-8.7,0.8-17.4,0.8-26.2C427.7,286.7,427.3,276.7,426.8,266.6z M440.2,266.6h1.3
					c1.3,18.9,1.3,37.7,0.1,56.3h-1.2C441.5,304.3,441.5,285.5,440.2,266.6z M429.5,266.6h1.2c0.7,9.8,1.1,19.8,1.1,29.8
					c0,8.8-0.3,17.6-0.8,26.4h-1.2c0.5-8.9,0.8-17.7,0.8-26.4C430.5,286.5,430.2,276.5,429.5,266.6z M434.7,266.6h1.2
					c0.8,9.9,1.2,19.9,1.2,30.1c0,8.7-0.3,17.4-0.8,26.2H435c0.6-8.8,0.9-17.5,0.9-26.2C436,286.6,435.5,276.6,434.7,266.6z
					 M442.9,266.6h1.2c0.8,9.5,1.3,19.2,1.3,29.1c0,9-0.3,18-1,27.2h-1.2c0.7-9.1,1.1-18.2,1.1-27.2
					C444.2,285.9,443.7,276.3,442.9,266.6z M464.5,266.6h1.3c1,9.7,1.5,19.5,1.5,29.3c0,8.9-0.4,17.9-1.3,26.9h-1.2
					c0.8-9,1.3-18,1.3-26.9C466,286.1,465.5,276.4,464.5,266.6z M448.5,266.6h1.3c0.5,6.9,0.9,13.9,1.1,20.9
					c0.3,11.6-0.1,23.4-1,35.4h-1.2c1-11.9,1.4-23.7,1-35.3v-0.1C449.4,280.5,449,273.6,448.5,266.6z M445.7,266.6h1.3
					c0.7,9.7,1.1,19.4,1.1,29.1c0,9.1-0.3,18.2-1,27.2h-1.2c0.6-9.1,0.9-18.1,0.9-27.2C446.8,286,446.4,276.3,445.7,266.6z
					 M451,266.6h1.3c0.5,7,0.8,13.9,1,20.8c0.3,12,0,23.8-1,35.5h-1.2c0.9-11.8,1.2-23.6,0.9-35.5
					C451.8,280.5,451.5,273.6,451,266.6z M453.7,266.6h1.3c0.9,9.5,1.3,19.2,1.3,29.1c0,9-0.4,18-1.2,27.2h-1.2
					c0.7-9.1,1.1-18.2,1.1-27.2C455,285.9,454.6,276.3,453.7,266.6z M456.3,266.6h1.3c0.8,9.7,1.2,19.4,1.2,29.1
					c0,9.1-0.3,18.2-1,27.2h-1.2c0.7-9.1,1-18.1,1-27.2C457.6,286,457.2,276.3,456.3,266.6z M461.8,266.6h1.3c0.6,7,1,13.9,1.2,20.8
					c0.4,11.9,0,23.7-1,35.5H462c1-11.8,1.3-23.6,1-35.4C462.8,280.5,462.3,273.6,461.8,266.6z M459.2,266.6h1.2
					c0.6,6.9,1.1,13.9,1.3,20.9c0.3,11.6-0.1,23.4-1.1,35.4h-1.2c1-11.9,1.4-23.7,1.2-35.3v-0.1
					C460.3,280.5,459.8,273.6,459.2,266.6z M470,266.6h1.3c0.7,7,1.2,14.1,1.4,21.1c0.4,11.6,0,23.3-1.2,35.2h-1.2
					c1.1-11.8,1.5-23.5,1.2-35.1C471.3,280.8,470.8,273.8,470,266.6z M467.3,266.6h1.3c0.9,9.8,1.3,19.6,1.3,29.3
					c0,9-0.4,18-1.2,26.9h-1.2c0.8-9,1.2-18,1.2-26.9C468.7,286.2,468.2,276.5,467.3,266.6z M472.5,266.6h1.3c0.7,7,1.1,14,1.3,21
					c0.4,11.8,0,23.6-1.1,35.3h-1.3c1.1-11.7,1.5-23.4,1.1-35.3C473.7,280.7,473.2,273.7,472.5,266.6z"/>
				
					<linearGradient id="SVGID_30_" gradientUnits="userSpaceOnUse" x1="272.8721" y1="-482.6816" x2="331.2486" y2="-482.6816" gradientTransform="matrix(8.424605e-003 1 -1 8.424603e-003 -4.256759e-004 -9.644683e-005)">
					<stop  offset="0" style="stop-color:#5E5A3D"/>
					<stop  offset="0.1608" style="stop-color:#D5D5D5"/>
					<stop  offset="0.298" style="stop-color:#7B6A5A"/>
					<stop  offset="0.4863" style="stop-color:#2D2010"/>
					<stop  offset="0.6588" style="stop-color:#3A3412"/>
					<stop  offset="0.7686" style="stop-color:#4D482B"/>
					<stop  offset="1" style="stop-color:#000000"/>
				</linearGradient>
				<path fill-rule="evenodd" clip-rule="evenodd" fill="url(#SVGID_30_)" d="M483.7,266.6h1.1c1.2,9.6,1.8,19.3,1.8,29.1
					c0,8.9-0.5,17.9-1.5,27.1H484c1-9.1,1.5-18.2,1.5-27.1C485.4,286,484.8,276.3,483.7,266.6z"/>
				<linearGradient id="SVGID_31_" gradientUnits="userSpaceOnUse" x1="541.2334" y1="269.9316" x2="540.7416" y2="328.3061">
					<stop  offset="0" style="stop-color:#5E5A3D"/>
					<stop  offset="0.1608" style="stop-color:#D5D5D5"/>
					<stop  offset="0.298" style="stop-color:#7B6A5A"/>
					<stop  offset="0.4863" style="stop-color:#2D2010"/>
					<stop  offset="0.6588" style="stop-color:#3A3412"/>
					<stop  offset="0.7686" style="stop-color:#4D482B"/>
					<stop  offset="1" style="stop-color:#000000"/>
				</linearGradient>
				<path fill-rule="evenodd" clip-rule="evenodd" fill="url(#SVGID_31_)" d="M501.5,266.6h1.2c0.6,9.8,0.9,19.7,0.9,29.8
					c0,8.8-0.2,17.6-0.6,26.4h-1.2c0.4-8.9,0.7-17.7,0.7-26.4C502.4,286.4,502.1,276.5,501.5,266.6z M498.7,266.6h1.2
					c1,18.9,1,37.7,0.1,56.3h-1.3C499.7,304.3,499.6,285.5,498.7,266.6z M514.8,266.6h1.3c0.7,10,1,19.9,1,29.8
					c0,8.8-0.3,17.6-0.9,26.4h-1.1c0.5-8.8,0.8-17.6,0.8-26.4C515.9,286.5,515.5,276.6,514.8,266.6z M512.2,266.6h1.2
					c0.8,9.8,1.1,19.8,1.1,29.8c0,8.8-0.3,17.6-0.8,26.4h-1.3c0.6-8.9,0.9-17.7,0.9-26.4C513.3,286.5,513,276.5,512.2,266.6z
					 M507,266.6h1.2c0.6,9.7,0.9,19.6,0.9,29.6c0,8.8-0.2,17.7-0.6,26.7h-1.3c0.5-9,0.7-17.9,0.7-26.7
					C507.9,286.2,507.6,276.4,507,266.6z M509.5,266.6h1.2c0.6,9.9,0.9,19.8,0.9,29.6c0,8.9-0.2,17.8-0.7,26.7h-1.2
					c0.5-8.9,0.7-17.8,0.7-26.7C510.4,286.4,510.1,276.5,509.5,266.6z M520.4,266.6h1.1c0.5,7.2,0.9,14.4,1,21.6
					c0.2,11.7,0,23.3-0.8,34.7h-1.2c0.7-11.4,1-23,0.8-34.7C521.3,281.1,520.9,273.9,520.4,266.6z M523,266.6h1.3
					c0.9,10,1.4,20,1.4,30.1c0,8.7-0.3,17.4-1,26.2h-1.3c0.7-8.8,1-17.5,1-26.2C524.4,286.7,524,276.7,523,266.6z M517.7,266.6h1.3
					c0.5,7.3,0.9,14.5,1,21.6c0.2,11.5,0,23-0.9,34.6h-1.2c0.8-11.6,1.1-23.2,0.8-34.6C518.5,281.1,518.2,273.9,517.7,266.6z
					 M568,266.6c1.2,10,1.8,19.8,1.8,29.4c0,9.1-0.5,18.1-1.6,26.9h-1.3c1.1-8.9,1.6-17.8,1.6-26.9c0-9.6-0.6-19.4-1.8-29.4H568z
					 M577.4,266.6h1.3c2.4,18.3,2.6,36.2,0.5,53.6c-0.1,0.9-0.3,1.7-0.4,2.6h-1.1c0.1-0.9,0.2-1.8,0.3-2.6
					C580,302.8,579.8,285,577.4,266.6z M580.3,266.6h1.2c2.7,18.7,2.8,37.5,0.3,56.3h-1.3C583.1,304.1,583,285.4,580.3,266.6z
					 M572,266.6h1.2c0.8,7.1,1.4,14.1,1.8,21.1c0.4,11.9-0.1,23.7-1.5,35.2h-1.2c1.4-11.6,1.9-23.3,1.5-35.1
					C573.4,280.8,572.8,273.8,572,266.6z M569.5,266.6h1.2c1,7.1,1.6,14.2,1.8,21.2c0.4,11.7-0.1,23.4-1.5,35h-1.2
					c1.5-11.6,2-23.3,1.5-35C571,280.9,570.4,273.8,569.5,266.6z M574.7,266.6h1.1c2.5,17.8,2.8,35.5,0.8,53.3c-0.1,1-0.2,2-0.3,3
					h-1.2c0.1-1,0.2-2,0.4-3C577.5,302.1,577.2,284.4,574.7,266.6z M527,266.6c0.8,10.1,1.2,20.1,1.2,30.1c0,8.8-0.3,17.6-1,26.2
					h-1.2c0.6-8.7,0.9-17.4,0.9-26.2c0-10-0.4-20-1.2-30.1H527z M545,266.6h1.3c0.9,9.7,1.4,19.5,1.4,29.1c0,9.1-0.4,18.1-1.3,27.1
					h-1.2c0.9-9,1.3-18.1,1.3-27.1C546.5,286.1,546,276.4,545,266.6z M533.8,266.6h1.3c1.1,10,1.6,20.1,1.6,30.1
					c0,8.8-0.4,17.5-1.2,26.2h-1.2c0.7-8.8,1.1-17.5,1.1-26.2C535.3,286.7,534.8,276.7,533.8,266.6z M531.2,266.6h1.1
					c0.6,7.3,1,14.5,1.2,21.8c0.2,11.7,0,23.2-0.8,34.5h-1.2c0.8-11.4,1.1-22.9,0.8-34.4v-0.1C532.1,281.2,531.7,274,531.2,266.6z
					 M528.5,266.6h1.2c0.7,7.3,1.1,14.6,1.3,22c0.3,11.4,0,22.8-1,34.3h-1.2c0.9-11.4,1.2-22.9,1-34.3
					C529.6,281.3,529.2,274,528.5,266.6z M539.3,266.6h1.6c1.2,12.8,1.6,25.4,1.3,37.9v0c-0.2,6.2-0.6,12.4-1.3,18.4h-1.3
					c0.6-6.2,1-12.3,1.2-18.4C541.1,291.8,540.6,279.2,539.3,266.6z M542.4,266.6h1.2c1,9.6,1.5,19.4,1.5,29.1
					c0,8.9-0.4,17.9-1.3,27.1h-1.2c0.9-9.1,1.3-18.2,1.3-27.1C543.9,286,543.4,276.3,542.4,266.6z M536.5,266.6h1.3
					c0.9,10.1,1.3,20.1,1.3,30.1c0,8.9-0.3,17.6-1,26.2h-1.2c0.7-8.7,1.1-17.4,1.1-26.2C538,286.8,537.5,276.8,536.5,266.6z
					 M553.2,266.6h1.2c1.1,9.7,1.7,19.4,1.7,29.1c0,9-0.5,18-1.5,27.1h-1.2c1-9,1.5-18.1,1.5-27.1
					C554.8,286.1,554.3,276.4,553.2,266.6z M550.3,266.6h1.3c0.7,7,1.1,13.9,1.3,20.8c0.4,12,0.1,23.8-1.1,35.5h-1.3
					c1.2-11.7,1.6-23.5,1.2-35.4C551.5,280.5,551,273.6,550.3,266.6z M547.8,266.6h1.2c0.8,7,1.3,13.9,1.5,20.9
					c0.4,11.7-0.1,23.5-1.3,35.4H548c1.2-11.8,1.7-23.6,1.3-35.3C549.1,280.7,548.6,273.7,547.8,266.6z M564,266.6h1.3
					c1.3,9.7,1.9,19.5,1.9,29.4c0,8.9-0.6,17.9-1.7,26.9h-1.2c1.1-9,1.6-18,1.6-26.9C565.9,286.2,565.3,276.5,564,266.6z
					 M561.3,266.6h1.3c0.7,7,1.2,13.9,1.5,20.8c0.4,12,0,23.9-1.3,35.5h-1.3c1.3-11.6,1.7-23.4,1.3-35.4
					C562.6,280.5,562,273.6,561.3,266.6z M558.6,266.6h1.3c0.8,7,1.3,14,1.6,21c0.4,11.7,0,23.5-1.4,35.3h-1.2
					c1.4-11.8,1.8-23.5,1.4-35.3C560,280.7,559.4,273.7,558.6,266.6z M555.8,266.6h1.3c1.1,9.8,1.6,19.5,1.6,29.1
					c0,9.1-0.4,18.1-1.3,27.1H556c0.9-9,1.4-18.1,1.4-27.1C557.3,286.1,556.8,276.4,555.8,266.6z M504.2,266.6h1.2
					c0.5,10,0.8,19.9,0.8,29.8c0,8.8-0.2,17.6-0.7,26.4h-1.3c0.4-8.8,0.7-17.6,0.7-26.4C505,286.5,504.7,276.6,504.2,266.6z"/>
				
					<linearGradient id="SVGID_32_" gradientUnits="userSpaceOnUse" x1="273.7275" y1="-484.0254" x2="333.8863" y2="-484.0254" gradientTransform="matrix(1.352118e-002 0.9999 -0.9999 1.352118e-002 -3.609434e-005 -2.163835e-004)">
					<stop  offset="0" style="stop-color:#5E5A3D"/>
					<stop  offset="0.1608" style="stop-color:#D5D5D5"/>
					<stop  offset="0.298" style="stop-color:#7B6A5A"/>
					<stop  offset="0.4863" style="stop-color:#2D2010"/>
					<stop  offset="0.6588" style="stop-color:#3A3412"/>
					<stop  offset="0.7686" style="stop-color:#4D482B"/>
					<stop  offset="1" style="stop-color:#000000"/>
				</linearGradient>
				<path fill-rule="evenodd" clip-rule="evenodd" fill="url(#SVGID_32_)" d="M486.5,266.6h1.2c1,9.6,1.6,19.3,1.7,28.9
					c0.1,9.2-0.3,18.3-1.2,27.4h-1.2c0.8-9.2,1.2-18.3,1.1-27.4C488.1,285.9,487.5,276.3,486.5,266.6z"/>
				
					<linearGradient id="SVGID_33_" gradientUnits="userSpaceOnUse" x1="273.2407" y1="-486.7061" x2="333.3994" y2="-486.7061" gradientTransform="matrix(1.352118e-002 0.9999 -0.9999 1.352118e-002 -3.609434e-005 -2.163835e-004)">
					<stop  offset="0" style="stop-color:#5E5A3D"/>
					<stop  offset="0.1608" style="stop-color:#D5D5D5"/>
					<stop  offset="0.298" style="stop-color:#7B6A5A"/>
					<stop  offset="0.4863" style="stop-color:#2D2010"/>
					<stop  offset="0.6588" style="stop-color:#3A3412"/>
					<stop  offset="0.7686" style="stop-color:#4D482B"/>
					<stop  offset="1" style="stop-color:#000000"/>
				</linearGradient>
				<path fill-rule="evenodd" clip-rule="evenodd" fill="url(#SVGID_33_)" d="M489.3,266.6h1.2c1,9.5,1.6,18.9,1.6,28.3
					c0.1,9.4-0.3,18.7-1.1,27.9h-1.3c0.9-9.3,1.2-18.6,1.1-27.9C490.8,285.5,490.3,276.1,489.3,266.6z"/>
				<linearGradient id="SVGID_34_" gradientUnits="userSpaceOnUse" x1="497.2324" y1="269.5825" x2="496.7406" y2="327.957">
					<stop  offset="0" style="stop-color:#5E5A3D"/>
					<stop  offset="0.1608" style="stop-color:#D5D5D5"/>
					<stop  offset="0.298" style="stop-color:#7B6A5A"/>
					<stop  offset="0.4863" style="stop-color:#2D2010"/>
					<stop  offset="0.6588" style="stop-color:#3A3412"/>
					<stop  offset="0.7686" style="stop-color:#4D482B"/>
					<stop  offset="1" style="stop-color:#000000"/>
				</linearGradient>
				<path fill-rule="evenodd" clip-rule="evenodd" fill="url(#SVGID_34_)" d="M496.2,266.6h1.2c0.9,18.9,1,37.7,0.2,56.3h-1.3
					C497.1,304.3,497.1,285.5,496.2,266.6z"/>
				
					<linearGradient id="SVGID_35_" gradientUnits="userSpaceOnUse" x1="274.1069" y1="-489.9756" x2="334.2657" y2="-489.9756" gradientTransform="matrix(1.352118e-002 0.9999 -0.9999 1.352118e-002 -3.609434e-005 -2.163835e-004)">
					<stop  offset="0" style="stop-color:#5E5A3D"/>
					<stop  offset="0.1608" style="stop-color:#D5D5D5"/>
					<stop  offset="0.298" style="stop-color:#7B6A5A"/>
					<stop  offset="0.4863" style="stop-color:#2D2010"/>
					<stop  offset="0.6588" style="stop-color:#3A3412"/>
					<stop  offset="0.7686" style="stop-color:#4D482B"/>
					<stop  offset="1" style="stop-color:#000000"/>
				</linearGradient>
				<path fill-rule="evenodd" clip-rule="evenodd" fill="url(#SVGID_35_)" d="M492.3,266.6h1.2c1.1,9.7,1.7,19.4,1.8,29.1
					c0.1,9.1-0.3,18.1-1,27.1h-1.2c0.8-9.1,1.1-18.1,1-27.1C494,286.1,493.4,276.4,492.3,266.6z"/>
			</g>
		</g>
		<g>
			<linearGradient id="SVGID_36_" gradientUnits="userSpaceOnUse" x1="500.7998" y1="263.6499" x2="500.7998" y2="273.8499">
				<stop  offset="0" style="stop-color:#000000;stop-opacity:0"/>
				<stop  offset="0.4706" style="stop-color:#000000;stop-opacity:0.3098"/>
				<stop  offset="1" style="stop-color:#000000;stop-opacity:0"/>
			</linearGradient>
			<path fill-rule="evenodd" clip-rule="evenodd" fill="url(#SVGID_36_)" d="M377.5,270.1l-0.3-0.1c2.7,0.1,5.8,0.1,9.3,0l0.4-1.2
				h212.5l0.4,1.6h13.7v-7.2h7.6l3.2,7.2h-9.1v4.8h-14.1l-0.3-1H385.2l-0.3,1.5h-7.4V270.1z"/>
		</g>
		<g>
			<g>
				<g>
					
						<linearGradient id="SVGID_37_" gradientUnits="userSpaceOnUse" x1="411.6631" y1="320.3276" x2="416.1898" y2="320.3276" gradientTransform="matrix(0.9995 3.154735e-002 -3.154735e-002 0.9995 -9.195134e-005 2.261102e-004)">
						<stop  offset="1.568628e-002" style="stop-color:#2D2519"/>
						<stop  offset="1" style="stop-color:#100D0A"/>
					</linearGradient>
					<path fill-rule="evenodd" clip-rule="evenodd" fill="url(#SVGID_37_)" d="M404.1,339c-0.1-0.9-0.4-1.7-0.8-2.4
						c-0.2-0.3-0.5-0.5-0.7-0.8c-0.4-0.3-0.8-0.6-1.3-0.8l0.1-7.6c0.4,0.3,0.8,0.6,1.1,0.9c1.3,1.3,1.9,2.8,1.9,4.5L404.1,339z"/>
					
						<linearGradient id="SVGID_38_" gradientUnits="userSpaceOnUse" x1="-345.5327" y1="-389.0752" x2="-333.7614" y2="-389.0752" gradientTransform="matrix(-0.9876 0.1573 -0.1573 -0.9876 4.691780e-004 3.111362e-005)">
						<stop  offset="1.568628e-002" style="stop-color:#2D2519"/>
						<stop  offset="0.1882" style="stop-color:#2D2519"/>
						<stop  offset="0.5216" style="stop-color:#766245"/>
						<stop  offset="0.8039" style="stop-color:#2D2519"/>
						<stop  offset="1" style="stop-color:#2D2519"/>
					</linearGradient>
					<path fill-rule="evenodd" clip-rule="evenodd" fill="url(#SVGID_38_)" d="M401.5,327.4l-0.1,7.6c-0.7-0.5-1.6-0.8-2.6-0.9
						c-2.5-0.2-4.5,0.4-6,1.9l-2-7.8c0.2-0.1,0.3-0.2,0.4-0.3c1.7-1.3,3.6-1.9,5.8-1.8C398.7,326.1,400.2,326.5,401.5,327.4z"/>
					
						<linearGradient id="SVGID_39_" gradientUnits="userSpaceOnUse" x1="-280.1172" y1="-432.4805" x2="-276.9851" y2="-432.4805" gradientTransform="matrix(-0.9582 0.2859 -0.2859 -0.9582 8.353889e-004 -2.407432e-004)">
						<stop  offset="1.568628e-002" style="stop-color:#2D2519"/>
						<stop  offset="1" style="stop-color:#100D0A"/>
					</linearGradient>
					<path fill-rule="evenodd" clip-rule="evenodd" fill="url(#SVGID_39_)" d="M392.8,336c-0.5,0.5-1,1.1-1.5,1.9
						c-0.4,1-0.5,2.1-0.4,3.4l0-0.1L389,336c-0.2-0.4-0.4-0.9-0.5-1.5c-0.3-1.2-0.2-2.5,0.4-3.8c0.4-1,1.1-1.9,1.9-2.6L392.8,336z"
						/>
					<path fill-rule="evenodd" clip-rule="evenodd" fill="#AB926D" d="M401.3,335c0.5,0.2,0.9,0.5,1.3,0.8c0.2,0.3,0.4,0.5,0.7,0.8
						c0.5,0.7,0.8,1.5,0.8,2.4c0,0.1,0.1,0.2,0.1,0.3c0,0.1,0,0.1,0,0.1c0,0.2,0,0.4-0.1,0.5c-0.1,1.6-0.9,3-2.3,4
						c-1.2,0.9-2.6,1.3-4.1,1.4c-0.3,0.1-0.5,0.1-0.8,0.1c-1.9-0.1-3.4-0.8-4.5-2c-0.7-0.6-1.2-1.3-1.5-1.9c0-0.2-0.1-0.3-0.1-0.5
						c-0.1-1.3,0-2.4,0.4-3.4c0.5-0.8,1-1.4,1.5-1.9c1.5-1.4,3.5-2,6-1.9C399.8,334.2,400.7,334.5,401.3,335z M395,337.8
						c-0.7,0.6-1.1,1.3-1.2,2.2c0,0.9,0.3,1.7,1.1,2.3c0.7,0.7,1.5,1.1,2.5,1.1c1.1,0.1,2-0.2,2.8-0.8c0.7-0.5,1-1.3,1-2.2
						c0.1-0.9-0.2-1.6-0.9-2.4c-0.7-0.7-1.6-1-2.7-1C396.6,336.9,395.7,337.2,395,337.8z"/>
					<path fill-rule="evenodd" clip-rule="evenodd" fill="#150900" d="M395,337.8c0.7-0.6,1.6-0.9,2.7-0.8c1.1,0,2,0.3,2.7,1
						c0.7,0.7,1,1.5,0.9,2.4c0,0.9-0.3,1.7-1,2.2c-0.8,0.6-1.7,0.9-2.8,0.8c-1,0-1.8-0.4-2.5-1.1c-0.8-0.6-1.1-1.4-1.1-2.3
						C393.9,339.1,394.3,338.4,395,337.8z"/>
					
						<path fill-rule="evenodd" clip-rule="evenodd" fill="none" stroke="#000000" stroke-linecap="round" stroke-linejoin="round" stroke-miterlimit="3" d="
						M395,337.8c-0.7,0.6-1.1,1.3-1.2,2.2c0,0.9,0.3,1.7,1.1,2.3c0.7,0.7,1.5,1.1,2.5,1.1c1.1,0.1,2-0.2,2.8-0.8
						c0.7-0.5,1-1.3,1-2.2c0.1-0.9-0.2-1.6-0.9-2.4c-0.7-0.7-1.6-1-2.7-1C396.6,336.9,395.7,337.2,395,337.8z"/>
				</g>
			</g>
			<g>
				
					<radialGradient id="SVGID_40_" cx="-397.7002" cy="-343.25" r="5.2375" gradientTransform="matrix(-1 0 0 0.5107 0 518.5615)" gradientUnits="userSpaceOnUse">
					<stop  offset="0" style="stop-color:#FFFFFF"/>
					<stop  offset="0.1765" style="stop-color:#FFFFFF"/>
					<stop  offset="0.3059" style="stop-color:#FFFFFF;stop-opacity:0.4235"/>
					<stop  offset="0.4902" style="stop-color:#FFFFFF;stop-opacity:0.2314"/>
					<stop  offset="0.651" style="stop-color:#FFFFFF;stop-opacity:8.235294e-002"/>
					<stop  offset="1" style="stop-color:#FFFFFF;stop-opacity:0"/>
				</radialGradient>
				<path fill-rule="evenodd" clip-rule="evenodd" fill="url(#SVGID_40_)" d="M392.5,343.3c0-0.8,0.5-1.4,1.5-1.8
					c1.1-0.5,2.3-0.8,3.7-0.8c1.4,0,2.6,0.3,3.6,0.8c1,0.4,1.5,1,1.5,1.8c0,0.7-0.5,1.4-1.5,1.9c-1,0.5-2.3,0.8-3.6,0.8
					c-1.4,0-2.6-0.3-3.7-0.8C393,344.6,392.5,344,392.5,343.3z"/>
			</g>
			<g>
				
					<radialGradient id="SVGID_41_" cx="-397.6499" cy="-334.1499" r="5.2375" gradientTransform="matrix(-1 0 0 0.5107 0 504.8136)" gradientUnits="userSpaceOnUse">
					<stop  offset="0" style="stop-color:#FFFFFF"/>
					<stop  offset="0.1765" style="stop-color:#FFFFFF"/>
					<stop  offset="0.3059" style="stop-color:#FFFFFF;stop-opacity:0.4235"/>
					<stop  offset="0.4902" style="stop-color:#FFFFFF;stop-opacity:0.2314"/>
					<stop  offset="0.651" style="stop-color:#FFFFFF;stop-opacity:8.235294e-002"/>
					<stop  offset="1" style="stop-color:#FFFFFF;stop-opacity:0"/>
				</radialGradient>
				<path fill-rule="evenodd" clip-rule="evenodd" fill="url(#SVGID_41_)" d="M392.5,334.1c0-0.7,0.5-1.3,1.5-1.9
					c1-0.5,2.3-0.8,3.7-0.8c1.4,0,2.6,0.3,3.7,0.8c0.9,0.5,1.4,1.2,1.4,1.9c0,0.8-0.5,1.4-1.4,1.9c-1.1,0.5-2.3,0.8-3.7,0.8
					c-1.4,0-2.6-0.3-3.7-0.8S392.5,334.9,392.5,334.1z"/>
			</g>
		</g>
		<g>
			<g>
				<g>
					
						<linearGradient id="SVGID_42_" gradientUnits="userSpaceOnUse" x1="-401.0933" y1="-528.1611" x2="-397.3794" y2="-528.1611" gradientTransform="matrix(-0.9289 0.3702 -0.4028 -0.916 7.826388e-004 -2.844334e-004)">
						<stop  offset="1.568628e-002" style="stop-color:#2D2519"/>
						<stop  offset="1" style="stop-color:#100D0A"/>
					</linearGradient>
					<path fill-rule="evenodd" clip-rule="evenodd" fill="url(#SVGID_42_)" d="M587.3,336.5c-0.5,0.5-1,1.2-1.3,2
						c-0.4,1-0.4,2.1-0.1,3.3h-0.1l-2.3-5.1c-0.3-0.5-0.5-1-0.7-1.4c-0.3-0.9-0.4-1.8-0.3-2.8c0-0.3,0.1-0.7,0.3-1
						c0.3-0.9,0.9-1.7,1.6-2.4L587.3,336.5z"/>
					
						<linearGradient id="SVGID_43_" gradientUnits="userSpaceOnUse" x1="512.6572" y1="407.6074" x2="521.765" y2="407.6074" gradientTransform="matrix(0.9909 -0.1345 0.1907 0.9833 1.250058e-004 1.093745e-005)">
						<stop  offset="1.568628e-002" style="stop-color:#2D2519"/>
						<stop  offset="0.1882" style="stop-color:#2D2519"/>
						<stop  offset="0.5216" style="stop-color:#766245"/>
						<stop  offset="0.8039" style="stop-color:#2D2519"/>
						<stop  offset="1" style="stop-color:#2D2519"/>
					</linearGradient>
					<path fill-rule="evenodd" clip-rule="evenodd" fill="url(#SVGID_43_)" d="M594.8,327.4l0,7.3c-0.6-0.2-1.2-0.3-1.8-0.3
						c-2.4-0.1-4.3,0.6-5.8,2.1l-2.9-7.5c0.2-0.2,0.4-0.4,0.5-0.6c1.5-1.3,3.4-2,5.7-2C592.2,326.4,593.6,326.7,594.8,327.4z"/>
					
						<linearGradient id="SVGID_44_" gradientUnits="userSpaceOnUse" x1="393.2051" y1="-530.8364" x2="404.7009" y2="-530.8364" gradientTransform="matrix(0.1588 0.9873 -0.9965 0.1013 -3.043711e-004 -3.415421e-004)">
						<stop  offset="0" style="stop-color:#AB926D"/>
						<stop  offset="1" style="stop-color:#615038"/>
					</linearGradient>
					<path fill-rule="evenodd" clip-rule="evenodd" fill="url(#SVGID_44_)" d="M594.8,334.6c0.8,0.3,1.6,0.7,2.3,1.2
						c0.2,0.3,0.4,0.5,0.6,0.9c0.6,0.7,1,1.4,1.2,2.3c0,0.1,0,0.2,0,0.3c0,0.1,0,0.1,0,0.1c0,0.2,0,0.4,0,0.5c0.1,1.6-0.5,3-1.9,4.1
						c-1.2,1-2.5,1.5-3.9,1.6c-0.3,0.1-0.6,0.1-0.9,0.1c-1.9,0-3.5-0.6-4.8-1.7c-0.7-0.6-1.2-1.3-1.5-1.9c0-0.1-0.1-0.2-0.1-0.4
						v-0.1c-0.3-1.2-0.3-2.3,0.1-3.3c0.3-0.8,0.8-1.4,1.3-2c1.4-1.5,3.4-2.2,5.8-2.1C593.7,334.4,594.3,334.5,594.8,334.6z
						 M595,338.3c0-0.1-0.1-0.1-0.1-0.1c-0.8-0.6-1.7-0.9-2.7-0.9c-1,0-1.9,0.3-2.6,0.9c-0.5,0.5-0.8,1.1-0.9,1.8c0,0.2,0,0.4,0,0.6
						c0,0.9,0.4,1.7,1.2,2.3c0.8,0.6,1.7,0.9,2.8,0.9c1,0,1.8-0.3,2.5-0.9c0.7-0.6,1.1-1.4,1-2.3C596.1,339.6,595.8,338.9,595,338.3
						z"/>
					
						<linearGradient id="SVGID_45_" gradientUnits="userSpaceOnUse" x1="590.748" y1="306.7939" x2="594.7519" y2="306.7939" gradientTransform="matrix(0.999 4.370819e-002 1.504572e-002 1.0016 -1.612157e-004 4.477203e-004)">
						<stop  offset="1.568628e-002" style="stop-color:#2D2519"/>
						<stop  offset="1" style="stop-color:#100D0A"/>
					</linearGradient>
					<path fill-rule="evenodd" clip-rule="evenodd" fill="url(#SVGID_45_)" d="M594.8,327.4c0.5,0.3,1,0.6,1.5,1
						c1.4,1.1,2.2,2.4,2.4,4c0,0.1,0,0.2,0,0.3l0.3,6.3c-0.2-0.9-0.6-1.7-1.2-2.3c-0.2-0.3-0.4-0.6-0.6-0.9
						c-0.7-0.5-1.4-0.9-2.3-1.2L594.8,327.4z"/>
					<path fill-rule="evenodd" clip-rule="evenodd" fill="#150900" d="M595,338.3c0.7,0.6,1.1,1.3,1.1,2.2c0.1,0.9-0.3,1.7-1,2.3
						c-0.7,0.6-1.5,0.9-2.5,0.9c-1,0-2-0.3-2.8-0.9c-0.7-0.6-1.1-1.4-1.2-2.3c0-0.2,0-0.4,0-0.6c0.1-0.7,0.4-1.3,0.9-1.8
						c0.7-0.6,1.6-0.9,2.6-0.9c1,0,1.9,0.3,2.7,0.9C595,338.2,595,338.2,595,338.3z"/>
				</g>
			</g>
			<g>
				
					<radialGradient id="SVGID_46_" cx="573.3887" cy="343.5" r="5.2375" gradientTransform="matrix(1 0 2.863962e-002 0.5107 9.4236 168.0609)" gradientUnits="userSpaceOnUse">
					<stop  offset="0" style="stop-color:#FFFFFF"/>
					<stop  offset="0.1765" style="stop-color:#FFFFFF"/>
					<stop  offset="0.3059" style="stop-color:#FFFFFF;stop-opacity:0.4235"/>
					<stop  offset="0.4902" style="stop-color:#FFFFFF;stop-opacity:0.2314"/>
					<stop  offset="0.651" style="stop-color:#FFFFFF;stop-opacity:8.235294e-002"/>
					<stop  offset="1" style="stop-color:#FFFFFF;stop-opacity:0"/>
				</radialGradient>
				<path fill-rule="evenodd" clip-rule="evenodd" fill="url(#SVGID_46_)" d="M596.1,341.8c1.1,0.5,1.7,1,1.8,1.8
					c0,0.8-0.5,1.4-1.5,1.9c-1,0.5-2.2,0.8-3.6,0.8c-1.4,0-2.6-0.3-3.7-0.8c-1-0.5-1.5-1.1-1.5-1.9c0-0.7,0.4-1.3,1.3-1.8
					c1-0.6,2.3-0.9,3.7-0.9C593.8,340.9,595.1,341.2,596.1,341.8z"/>
			</g>
			<g>
				
					<radialGradient id="SVGID_47_" cx="573.4434" cy="334.5" r="5.2375" gradientTransform="matrix(1 0 2.863962e-002 0.5107 9.1767 163.6575)" gradientUnits="userSpaceOnUse">
					<stop  offset="0" style="stop-color:#FFFFFF"/>
					<stop  offset="0.1765" style="stop-color:#FFFFFF"/>
					<stop  offset="0.3059" style="stop-color:#FFFFFF;stop-opacity:0.4235"/>
					<stop  offset="0.4902" style="stop-color:#FFFFFF;stop-opacity:0.2314"/>
					<stop  offset="0.651" style="stop-color:#FFFFFF;stop-opacity:8.235294e-002"/>
					<stop  offset="1" style="stop-color:#FFFFFF;stop-opacity:0"/>
				</radialGradient>
				<path fill-rule="evenodd" clip-rule="evenodd" fill="url(#SVGID_47_)" d="M588.5,332.7c1-0.5,2.2-0.8,3.5-0.8
					c1.4,0,2.7,0.3,3.8,0.8c1.1,0.5,1.6,1.1,1.7,1.8c0,0.8-0.5,1.4-1.5,1.9c-1,0.5-2.2,0.8-3.6,0.8c-1.4,0-2.6-0.3-3.7-0.8
					c-1-0.5-1.5-1.1-1.6-1.9C587.1,333.8,587.5,333.2,588.5,332.7z"/>
			</g>
		</g>
	</g>
</g>
</svg>
