<?xml version="1.0" encoding="utf-8"?>
<!-- Generator: Adobe Illustrator 16.0.0, SVG Export Plug-In . SVG Version: 6.00 Build 0)  -->
<!DOCTYPE svg PUBLIC "-//W3C//DTD SVG 1.1//EN" "http://www.w3.org/Graphics/SVG/1.1/DTD/svg11.dtd">
<svg version="1.1" id="Layer_1" xmlns="http://www.w3.org/2000/svg" xmlns:xlink="http://www.w3.org/1999/xlink" x="0px" y="0px"
	 width="55px" height="75px" viewBox="0 0 55 75" enable-background="new 0 0 55 75" xml:space="preserve">
<g>
	<g>
		<g>
			<polygon fill-rule="evenodd" clip-rule="evenodd" fill="#83704F" points="52.1,7.3 3.1,7.3 3.1,3.9 11.9,3.9 12.9,2.9 41.7,2.9 
				42.7,3.9 49.3,3.9 			"/>
			<polygon fill-rule="evenodd" clip-rule="evenodd" fill="#83704F" points="52.1,7.3 3.1,7.3 3.1,3.9 11.9,3.9 12.9,2.9 41.7,2.9 
				42.7,3.9 49.3,3.9 			"/>
			<polygon fill-rule="evenodd" clip-rule="evenodd" fill="#5E4C36" points="3.1,7.3 52.1,7.3 52.4,7.6 52.4,8.1 3.1,8.1 			"/>
			<polygon fill-rule="evenodd" clip-rule="evenodd" fill="#5E4C36" points="3.1,7.3 52.1,7.3 52.4,7.6 52.4,8.1 3.1,8.1 			"/>
			<polygon fill-rule="evenodd" clip-rule="evenodd" fill="#1D1610" points="3.9,29 50.9,29 50.9,36.6 34.4,36.6 34.4,33.7 
				32.3,33.7 20.7,33.7 18.4,33.7 18.4,36.4 4,36.4 3.9,29.2 			"/>
			<polygon fill-rule="evenodd" clip-rule="evenodd" fill="#1D1610" points="3.9,29 50.9,29 50.9,36.6 34.4,36.6 34.4,33.7 
				32.3,33.7 20.7,33.7 18.4,33.7 18.4,36.4 4,36.4 3.9,29.2 			"/>
			<polygon fill-rule="evenodd" clip-rule="evenodd" fill="#504941" points="32.3,34.9 20.7,34.8 20.7,33.7 32.3,33.7 			"/>
			<polygon fill-rule="evenodd" clip-rule="evenodd" fill="#504941" points="32.3,34.9 20.7,34.8 20.7,33.7 32.3,33.7 			"/>
			<path fill-rule="evenodd" clip-rule="evenodd" fill="#2A2319" d="M10,21.1l36.3,0.3c0-0.3,0.1-0.7,0.1-1.1h6.1v1.1l-3.5,0h-2.7
				c-0.3,1.9-1.2,3-2.6,3.3H15.9c-0.1,0-0.1,0-0.2,0c-3.1-0.1-5-1.3-5.7-3.4C10,21.2,10,21.1,10,21.1z M3.1,20l6.8,0.1V21H6.4
				l-3.3-0.1V20z"/>
			<path fill-rule="evenodd" clip-rule="evenodd" fill="#2A2319" d="M10,21.1l36.3,0.3c0-0.3,0.1-0.7,0.1-1.1h6.1v1.1l-3.5,0h-2.7
				c-0.3,1.9-1.2,3-2.6,3.3H15.9c-0.1,0-0.1,0-0.2,0c-3.1-0.1-5-1.3-5.7-3.4C10,21.2,10,21.1,10,21.1z M3.1,20l6.8,0.1V21H6.4
				l-3.3-0.1V20z"/>
			<path fill-rule="evenodd" clip-rule="evenodd" fill="#17120C" d="M46,11.7l6.5-0.1v8.6h-6.1c0.1-1.5,0-3.3-0.4-5.4l0.1-0.4
				c0.2-0.8,0.2-1.6,0-2.3c0,0,0-0.1,0-0.2C46,12,46,11.8,46,11.7z M9.9,20.1L3.1,20v-8l6.4,0v0c0,0.1,0,0.1,0,0.2
				c-0.1,0.7-0.1,1.4,0,2.3c0-0.3,0-0.6,0.1-0.9L9.9,20.1z"/>
			<path fill-rule="evenodd" clip-rule="evenodd" fill="#17120C" d="M46,11.7l6.5-0.1v8.6h-6.1c0.1-1.5,0-3.3-0.4-5.4l0.1-0.4
				c0.2-0.8,0.2-1.6,0-2.3c0,0,0-0.1,0-0.2C46,12,46,11.8,46,11.7z M9.9,20.1L3.1,20v-8l6.4,0v0c0,0.1,0,0.1,0,0.2
				c-0.1,0.7-0.1,1.4,0,2.3c0-0.3,0-0.6,0.1-0.9L9.9,20.1z"/>
			<path fill-rule="evenodd" clip-rule="evenodd" fill="#393631" d="M52.4,11.6L46,11.7c-0.2-0.6-0.6-1.2-1.2-1.8h7.7V11.6z M9.5,12
				l-6.4,0V9.8l7.8-0.1C10.1,10,9.6,10.8,9.5,12z"/>
			<path fill-rule="evenodd" clip-rule="evenodd" fill="#393631" d="M52.4,11.6L46,11.7c-0.2-0.6-0.6-1.2-1.2-1.8h7.7V11.6z M9.5,12
				l-6.4,0V9.8l7.8-0.1C10.1,10,9.6,10.8,9.5,12z"/>
			<path fill-rule="evenodd" clip-rule="evenodd" fill="#1C130C" d="M50.9,29l-47,0H3.8c0,0-0.1,0-0.1,0H3.6l-0.1,0
				c-0.2-0.1-0.3-0.2-0.4-0.3v-7.8L6.4,21v0.4c0.1,3.1,2.7,4.8,7.6,5.3l30.8,0.3c2.2-0.5,3.5-2.2,4.1-5c0-0.2,0-0.3,0-0.5l3.5,0v6.5
				c0,0.1-0.1,0.2-0.1,0.3c-0.2,0.4-0.4,0.6-0.8,0.9H50.9z"/>
			<path fill-rule="evenodd" clip-rule="evenodd" fill="#1C130C" d="M50.9,29l-47,0H3.8c0,0-0.1,0-0.1,0H3.6l-0.1,0
				c-0.2-0.1-0.3-0.2-0.4-0.3v-7.8L6.4,21v0.4c0.1,3.1,2.7,4.8,7.6,5.3l30.8,0.3c2.2-0.5,3.5-2.2,4.1-5c0-0.2,0-0.3,0-0.5l3.5,0v6.5
				c0,0.1-0.1,0.2-0.1,0.3c-0.2,0.4-0.4,0.6-0.8,0.9H50.9z"/>
			<path fill-rule="evenodd" clip-rule="evenodd" fill="#9D958A" d="M3.1,8.1h49.3V10h-7.7c0.6,0.5,1,1.1,1.2,1.8
				C46,11.8,46,12,46,12c0,0.1,0,0.1,0,0.2c0.2,0.7,0.2,1.5,0,2.3h-0.2c0-0.9-0.2-1.6-0.5-2.3c0,0,0-0.1,0-0.2c0,0,0.1,0.1,0.2,0.1
				c-1.1-1.5-2.5-2.3-4.2-2.2H13c-1.3,0.4-2.2,1.1-2.9,2l0,0v0.1L10,12.2c-0.3,0.4-0.4,0.9-0.5,1.4c-0.1,0.3-0.1,0.6-0.1,0.9
				c-0.1-0.9-0.1-1.6,0-2.3c0,0,0-0.1,0-0.2v0c0.2-1.2,0.7-2,1.4-2.3L3.1,9.8V8.1z"/>
			<path fill-rule="evenodd" clip-rule="evenodd" fill="#9D958A" d="M3.1,8.1h49.3V10h-7.7c0.6,0.5,1,1.1,1.2,1.8
				C46,11.8,46,12,46,12c0,0.1,0,0.1,0,0.2c0.2,0.7,0.2,1.5,0,2.3h-0.2c0-0.9-0.2-1.6-0.5-2.3c0,0,0-0.1,0-0.2c0,0,0.1,0.1,0.2,0.1
				c-1.1-1.5-2.5-2.3-4.2-2.2H13c-1.3,0.4-2.2,1.1-2.9,2l0,0v0.1L10,12.2c-0.3,0.4-0.4,0.9-0.5,1.4c-0.1,0.3-0.1,0.6-0.1,0.9
				c-0.1-0.9-0.1-1.6,0-2.3c0,0,0-0.1,0-0.2v0c0.2-1.2,0.7-2,1.4-2.3L3.1,9.8V8.1z"/>
			<path fill-rule="evenodd" clip-rule="evenodd" fill="#7E7771" d="M10.1,12c0.6-0.9,1.6-1.6,2.9-2h28.3c1.7-0.1,3.1,0.7,4.2,2.2
				c-0.1-0.1-0.2-0.1-0.2-0.1h0l0,0L10.1,12z"/>
			<path fill-rule="evenodd" clip-rule="evenodd" fill="#7E7771" d="M10.1,12c0.6-0.9,1.6-1.6,2.9-2h28.3c1.7-0.1,3.1,0.7,4.2,2.2
				c-0.1-0.1-0.2-0.1-0.2-0.1h0l0,0L10.1,12z"/>
			<path fill-rule="evenodd" clip-rule="evenodd" fill="#1B1310" d="M45.3,12c0,0.1,0,0.2,0,0.2c0.3,0.7,0.5,1.4,0.5,2.3H46L46,14.9
				c0.4,2.1,0.5,3.9,0.4,5.4c0,0.4-0.1,0.8-0.1,1.1L10,21.1v0.1c0-0.1,0-0.1-0.1-0.1V21v-0.9l-0.3-6.5c0.1-0.5,0.2-1,0.5-1.4
				l0.1-0.1l0-0.1H45.3L45.3,12L45.3,12z"/>
			<path fill-rule="evenodd" clip-rule="evenodd" fill="#1B1310" d="M45.3,12c0,0.1,0,0.2,0,0.2c0.3,0.7,0.5,1.4,0.5,2.3H46L46,14.9
				c0.4,2.1,0.5,3.9,0.4,5.4c0,0.4-0.1,0.8-0.1,1.1L10,21.1v0.1c0-0.1,0-0.1-0.1-0.1V21v-0.9l-0.3-6.5c0.1-0.5,0.2-1,0.5-1.4
				l0.1-0.1l0-0.1H45.3L45.3,12L45.3,12z"/>
			<path fill-rule="evenodd" clip-rule="evenodd" fill="#171006" d="M49,21.4c0,0.2,0,0.3,0,0.5c-0.6,2.9-1.9,4.5-4.1,5L14,26.6
				c-5-0.5-7.5-2.2-7.6-5.3V21h3.5v0.1c0.1,0,0.1,0.1,0.1,0.1v-0.1c0,0,0,0.1,0,0.1c0.7,2.1,2.6,3.3,5.7,3.4c0.1,0,0.1,0,0.2,0h27.8
				c1.4-0.3,2.3-1.4,2.6-3.3H49z"/>
			<path fill-rule="evenodd" clip-rule="evenodd" fill="#171006" d="M49,21.4c0,0.2,0,0.3,0,0.5c-0.6,2.9-1.9,4.5-4.1,5L14,26.6
				c-5-0.5-7.5-2.2-7.6-5.3V21h3.5v0.1c0.1,0,0.1,0.1,0.1,0.1v-0.1c0,0,0,0.1,0,0.1c0.7,2.1,2.6,3.3,5.7,3.4c0.1,0,0.1,0,0.2,0h27.8
				c1.4-0.3,2.3-1.4,2.6-3.3H49z"/>
			<rect x="20.7" y="38.2" fill-rule="evenodd" clip-rule="evenodd" fill="#C9C0BB" width="11.6" height="1.2"/>
			<rect x="20.7" y="38.2" fill-rule="evenodd" clip-rule="evenodd" fill="#C9C0BB" width="11.6" height="1.2"/>
			<polygon fill-rule="evenodd" clip-rule="evenodd" fill="#696258" points="20.7,36.4 32.3,36.5 32.3,38.2 20.7,38.2 			"/>
			<polygon fill-rule="evenodd" clip-rule="evenodd" fill="#696258" points="20.7,36.4 32.3,36.5 32.3,38.2 20.7,38.2 			"/>
			<polygon fill-rule="evenodd" clip-rule="evenodd" fill="#211916" points="32.3,36.5 20.7,36.4 20.7,34.8 32.3,34.9 			"/>
			<polygon fill-rule="evenodd" clip-rule="evenodd" fill="#211916" points="32.3,36.5 20.7,36.4 20.7,34.8 32.3,34.9 			"/>
			<linearGradient id="SVGID_1_" gradientUnits="userSpaceOnUse" x1="26.3999" y1="41.043" x2="26.6995" y2="74.368">
				<stop  offset="0" style="stop-color:#201A14"/>
				<stop  offset="9.803922e-002" style="stop-color:#928C88"/>
				<stop  offset="0.1961" style="stop-color:#9F9995"/>
				<stop  offset="0.2588" style="stop-color:#F2EDEA"/>
				<stop  offset="0.2902" style="stop-color:#928A84"/>
				<stop  offset="0.5569" style="stop-color:#8F867E"/>
				<stop  offset="0.6157" style="stop-color:#7E705B"/>
				<stop  offset="0.7922" style="stop-color:#221D15"/>
				<stop  offset="0.8667" style="stop-color:#8F7D57"/>
				<stop  offset="0.9176" style="stop-color:#A89565"/>
				<stop  offset="1" style="stop-color:#B9A46F"/>
			</linearGradient>
			<path fill-rule="evenodd" clip-rule="evenodd" fill="url(#SVGID_1_)" d="M20.7,39.3h11.6l0.1,31.5c-4,2.4-8,2.4-11.8-0.3V39.3z"
				/>
			<linearGradient id="SVGID_2_" gradientUnits="userSpaceOnUse" x1="26.3999" y1="41.043" x2="26.6995" y2="74.368">
				<stop  offset="0" style="stop-color:#201A14"/>
				<stop  offset="9.803922e-002" style="stop-color:#928C88"/>
				<stop  offset="0.1961" style="stop-color:#9F9995"/>
				<stop  offset="0.2588" style="stop-color:#F2EDEA"/>
				<stop  offset="0.2902" style="stop-color:#928A84"/>
				<stop  offset="0.5569" style="stop-color:#8F867E"/>
				<stop  offset="0.6157" style="stop-color:#7E705B"/>
				<stop  offset="0.7922" style="stop-color:#221D15"/>
				<stop  offset="0.8667" style="stop-color:#8F7D57"/>
				<stop  offset="0.9176" style="stop-color:#A89565"/>
				<stop  offset="1" style="stop-color:#B9A46F"/>
			</linearGradient>
			<path fill-rule="evenodd" clip-rule="evenodd" fill="url(#SVGID_2_)" d="M20.7,39.3h11.6l0.1,31.5c-4,2.4-8,2.4-11.8-0.3V39.3z"
				/>
		</g>
	</g>
	<g>
		
			<radialGradient id="SVGID_3_" cx="27.2998" cy="7.1001" r="24.0875" gradientTransform="matrix(1 0 0 2.8334 0 -13.0175)" gradientUnits="userSpaceOnUse">
			<stop  offset="0" style="stop-color:#FFFFFF;stop-opacity:0.6235"/>
			<stop  offset="1" style="stop-color:#FFFFFF;stop-opacity:0"/>
		</radialGradient>
		<path fill-rule="evenodd" clip-rule="evenodd" fill="url(#SVGID_3_)" d="M51.3,7.3l0,0.1H3.5l0-0.1c0,0,0-0.1,0-0.1V7
			c0-0.1,0-0.1,0,0h47.7c0-0.1,0-0.1,0,0v0.1C51.3,7.2,51.3,7.2,51.3,7.3z"/>
		
			<radialGradient id="SVGID_4_" cx="27.2998" cy="7.1001" r="24.0875" gradientTransform="matrix(1 0 0 2.8334 0 -13.0175)" gradientUnits="userSpaceOnUse">
			<stop  offset="0" style="stop-color:#FFFFFF;stop-opacity:0.6235"/>
			<stop  offset="1" style="stop-color:#FFFFFF;stop-opacity:0"/>
		</radialGradient>
		<path fill-rule="evenodd" clip-rule="evenodd" fill="url(#SVGID_4_)" d="M51.3,7.3l0,0.1H3.5l0-0.1c0,0,0-0.1,0-0.1V7
			c0-0.1,0-0.1,0,0h47.7c0-0.1,0-0.1,0,0v0.1C51.3,7.2,51.3,7.2,51.3,7.3z"/>
	</g>
</g>
</svg>
