<?xml version="1.0" encoding="utf-8"?>
<!-- Generator: Adobe Illustrator 16.0.0, SVG Export Plug-In . SVG Version: 6.00 Build 0)  -->
<!DOCTYPE svg PUBLIC "-//W3C//DTD SVG 1.1//EN" "http://www.w3.org/Graphics/SVG/1.1/DTD/svg11.dtd">
<svg version="1.1" id="Layer_1" xmlns="http://www.w3.org/2000/svg" xmlns:xlink="http://www.w3.org/1999/xlink" x="0px" y="0px"
	 width="700px" height="700px" viewBox="0 0 700 700" enable-background="new 0 0 700 700" xml:space="preserve">
<g>
	<path fill-rule="evenodd" clip-rule="evenodd" fill-opacity="0.2471" d="M634,547.6c0.1,0,0.3,0,0.5,0c0.3,0,0.7,0,1,0
		c1.9,0.5,2.7,1.2,2.6,2.1c-0.1,0.8-0.8,1.4-2,1.8c-1.2,0.1-1.9,0.1-2.1,0.1c-0.8,0-1.3,0-1.7,0c-0.1,0-0.3,0-0.4,0
		c-0.6,0-1-0.2-1.4-0.5c-0.4-0.4-0.6-0.9-0.6-1.5s0.2-1,0.6-1.4c0.4-0.4,0.8-0.6,1.4-0.6c0.1,0,0.3,0,0.5,0
		C632.9,547.6,633.4,547.6,634,547.6z M661.8,575.5c-2-0.4-5.9-0.8-11.8-1.3l-7.6-0.5V571c0.3-0.2,0.6-0.4,1-0.4
		c8.5-0.9,14.6-0.4,18.4,1.5V575.5z M670.6,344.8c-0.4-2.7-0.9-5.5-1.4-8.3c-2.1-10.7-8-16-17.7-16l-6.9,0.1l-0.8-4
		c2.2,0,4.7-0.1,7.6-0.1c8.8-0.1,15,3.4,18.8,10.5c2.4,3.5,3.8,11.9,4.2,25.3c-0.2,7.2-0.3,13.2-0.3,18.1c0,1.3-0.5,13.7-1.6,37.2
		c0,0,0,0.1,0,0.1c0,3.8,0.1,10.8,0.4,21.1c0.3,10.5,0.4,21.9,0.4,34.4c0,21.4,1.7,47,5.2,76.7c1.7,14.8,3.5,28,5.2,39.4
		c0,0.1,0,0.2,0,0.3c0,3.7-0.2,8.4-0.5,14.2c-0.1,3.8-2.7,6.3-7.8,7.6c-2.8,0.7-6.8,1-11.8,0.9v-4c4.6,0.2,8.2-0.1,10.8-0.8
		c3-0.8,4.6-2.1,4.8-4c0.3-5.6,0.5-10.2,0.5-13.8c-1.7-11.5-3.4-24.6-5.1-39.4c-3.5-29.9-5.3-55.6-5.3-77.1
		c0-12.4-0.1-23.8-0.4-34.3c-0.3-10.5-0.4-17.6-0.4-21.4c0,0,0-0.1,0-0.1c1.1-23.4,1.6-35.8,1.6-37.1
		C670,364,670.2,355.4,670.6,344.8z"/>
</g>
<g>
	<path fill-rule="evenodd" clip-rule="evenodd" fill="#FF0000" d="M675.6,235.5c-1.1-1.9-2.6-3-4.5-3.4c-1.5-0.3-3.8-0.3-6.9-0.1
		l-0.3-3.5c3.5-0.3,6.2-0.3,7.9,0.1c3,0.6,5.3,2.3,6.9,5.1c2.2,3.8,3.2,10.3,3,19.5c-0.1,7-1.1,17.7-2.8,32c-1,8.5-2.9,23.1-5.5,44
		v-0.1c-3.7,70.2-5.3,123.8-4.9,160.9c0.5,40.8,3.4,67.7,8.8,80.7c1.3,3.1,1.8,5.8,1.5,8v0c-0.4,2.5-1.6,4-3.7,4.5h0
		c-1.8,0.5-3.8,0-6-1.6c-2.1-1.5-4-3.8-5.8-6.8c-0.1-0.2-0.2-0.3-0.2-0.4c-0.5-2-1.5-4.6-2.9-7.6c-3-6.2-7.2-12.3-12.7-18.3
		c-3.7-4.2-7-6.4-9.8-6.8c-2.8,0-4.9,2.4-6.2,7.4c-0.1,0.5-0.4,0.8-0.8,1c-0.4,0.3-0.8,0.3-1.3,0.2c-0.5-0.1-0.9-0.4-1.1-0.8
		c-0.3-0.4-0.3-0.8-0.2-1.3c1.9-7.2,5.2-10.6,9.9-10c3.5,0.2,7.6,2.8,12.1,7.9c5.7,6.3,10.2,12.7,13.3,19.1c1.5,3.1,2.5,5.8,3.1,7.9
		c1.4,2.5,2.9,4.3,4.6,5.5c1.2,0.8,2.3,1.2,3.2,1c0.6-0.3,0.9-0.8,1.1-1.6c0.2-1.7-0.3-3.7-1.3-6.1c-5.6-13.2-8.6-40.5-9.1-82
		c-0.4-37.1,1.2-90.8,4.9-161.1c0,0,0-0.1,0.1-0.1c2.6-20.8,4.4-35.5,5.5-44c1.7-14.2,2.6-24.8,2.8-31.6
		C678.3,244.8,677.5,238.9,675.6,235.5L675.6,235.5z"/>
</g>
<g>
	<g>
		
			<radialGradient id="SVGID_1_" cx="677.2002" cy="251.3999" r="28.8125" gradientTransform="matrix(1 0 0 2.1826 0 -297.3172)" gradientUnits="userSpaceOnUse">
			<stop  offset="0" style="stop-color:#FFFFFF"/>
			<stop  offset="0.5412" style="stop-color:#FFFFFF;stop-opacity:0.8118"/>
			<stop  offset="1" style="stop-color:#FFFFFF;stop-opacity:0"/>
		</radialGradient>
		<path fill-rule="evenodd" clip-rule="evenodd" fill="url(#SVGID_1_)" d="M671.5,229.9c2.6,0.5,4.6,2,6,4.5c2.1,3.6,3,9.9,2.9,18.9
			c-0.1,5-0.6,12-1.5,20.8c-0.3,2.4-2.2,17.4-5.9,44.9l-1-0.1c3.6-27.5,5.6-42.4,5.9-44.8c0.9-8.8,1.4-15.7,1.5-20.7
			c0.2-8.7-0.7-14.8-2.7-18.4c-1.3-2.2-3.1-3.5-5.4-4c-1.6-0.3-4-0.4-7.3-0.1l-0.1-1C667.3,229.5,669.8,229.5,671.5,229.9z"/>
		
			<radialGradient id="SVGID_2_" cx="664.7998" cy="461.7998" r="53.525" gradientTransform="matrix(1 0 0 2.2688 0 -585.9314)" gradientUnits="userSpaceOnUse">
			<stop  offset="0" style="stop-color:#FFFFFF"/>
			<stop  offset="0.5412" style="stop-color:#FFFFFF;stop-opacity:0.8118"/>
			<stop  offset="1" style="stop-color:#FFFFFF;stop-opacity:0"/>
		</radialGradient>
		<path fill-rule="evenodd" clip-rule="evenodd" fill="url(#SVGID_2_)" d="M671.1,329l1,0.1c-3.7,70.2-5.3,123.9-4.9,160.9
			c0.5,41,3.4,68.1,8.9,81.2c1.2,2.9,1.7,5.3,1.4,7.3c-0.3,1.9-1.2,3.1-2.8,3.5c-1.2,0.3-2.4,0.1-3.8-0.6l0.5-0.9
			c1.1,0.6,2.1,0.8,3,0.6c1.1-0.3,1.8-1.2,2-2.7c0.3-1.8-0.2-4.1-1.3-6.8c-5.5-13.1-8.5-40.3-9-81.5
			C665.8,453,667.4,399.3,671.1,329z"/>
		
			<radialGradient id="SVGID_3_" cx="649.4004" cy="544.7998" r="20.675" gradientTransform="matrix(1 0 0 0.9788 0 11.5284)" gradientUnits="userSpaceOnUse">
			<stop  offset="0" style="stop-color:#FFFFFF"/>
			<stop  offset="0.5412" style="stop-color:#FFFFFF;stop-opacity:0.8118"/>
			<stop  offset="1" style="stop-color:#FFFFFF;stop-opacity:0"/>
		</radialGradient>
		<path fill-rule="evenodd" clip-rule="evenodd" fill="url(#SVGID_3_)" d="M649.2,547c5.6,6.2,10,12.5,13,18.9
			c1.5,3.1,2.5,5.7,3,7.8c0.1,0.2,0.3,0.5,0.4,0.7l-0.8,0.6c-0.2-0.3-0.4-0.5-0.5-0.8c0,0,0-0.1,0-0.1c-0.5-2.1-1.5-4.7-3-7.8
			c-3-6.3-7.3-12.5-12.8-18.6c-4-4.5-7.6-6.9-10.7-7.2c-3.5-0.2-6,2.5-7.5,8.3l-1-0.3c1.6-6.4,4.5-9.4,8.5-9
			C641.1,539.8,644.9,542.3,649.2,547z"/>
	</g>
</g>
</svg>
