<?xml version="1.0" encoding="utf-8"?>
<!-- Generator: Adobe Illustrator 16.0.0, SVG Export Plug-In . SVG Version: 6.00 Build 0)  -->
<!DOCTYPE svg PUBLIC "-//W3C//DTD SVG 1.1//EN" "http://www.w3.org/Graphics/SVG/1.1/DTD/svg11.dtd">
<svg version="1.1" id="Layer_1" xmlns="http://www.w3.org/2000/svg" xmlns:xlink="http://www.w3.org/1999/xlink" x="0px" y="0px"
	 width="25.81px" height="18.69px" viewBox="0 0 25.81 18.69" enable-background="new 0 0 25.81 18.69" xml:space="preserve">
<g>
	<g>
		<path fill-rule="evenodd" clip-rule="evenodd" fill-opacity="0.298" d="M24,1.6c0.83,0,1.25,0.46,1.25,1.39v12.07
			c0,0.69-0.07,1.19-0.22,1.52l-0.47,1.13c-0.04,0.09-0.08,0.17-0.12,0.26c-0.19,0.34-0.54,0.52-1.06,0.52H1.58
			c-0.83,0-1.25-0.45-1.25-1.36V4.47c0-0.09,0.01-0.17,0.03-0.26c0-0.02,0-0.04,0-0.06C0.39,3.96,0.43,3.8,0.49,3.7l0.56-1.32
			c0.02-0.09,0.05-0.15,0.09-0.19C1.33,1.79,1.69,1.6,2.21,1.6H24z"/>
	</g>
	<g>
		<g>
			<path fill-rule="evenodd" clip-rule="evenodd" fill="#1E1E1E" d="M0.74,2.66c0-0.02,0-0.04,0-0.06c0.02-0.17,0.06-0.31,0.12-0.42
				l0.56-1.26C1.45,0.86,1.48,0.8,1.52,0.76c0.19-0.37,0.54-0.55,1.06-0.55h21.79c0.83,0,1.25,0.43,1.25,1.29v11.43
				c0,0.65-0.07,1.12-0.22,1.42L25,15.25V2.92c0-0.86-0.42-1.29-1.25-1.29H1.99C1.32,1.72,0.91,2.06,0.74,2.66z"/>
			<path fill-rule="evenodd" clip-rule="evenodd" fill="#0D0D0D" d="M25,15.25l-0.06,0.16c-0.04,0.09-0.08,0.17-0.13,0.26
				c-0.19,0.32-0.54,0.48-1.06,0.48H1.96c-0.83,0-1.25-0.43-1.25-1.29V2.92c0-0.09,0.01-0.17,0.03-0.26
				c0.17-0.6,0.58-0.95,1.25-1.03h21.76c0.83,0,1.25,0.43,1.25,1.29V15.25z"/>
		</g>
	</g>
	<g>
		<path fill-rule="evenodd" clip-rule="evenodd" d="M22.54,3.05c0.83,0,1.25,0.43,1.25,1.29v8.78c0,0.86-0.42,1.29-1.25,1.29H3.61
			c-0.83,0-1.25-0.43-1.25-1.29V4.34c0-0.86,0.42-1.29,1.25-1.29H22.54z"/>
	</g>
	<g>
		<g>
			<polygon fill-rule="evenodd" clip-rule="evenodd" fill="#2C1010" points="22.6,3.76 22.6,11.51 22.1,13.15 22.1,4.41 			"/>
			<path fill-rule="evenodd" clip-rule="evenodd" fill="#693838" d="M3.86,3.76H22.6l-0.5,0.65C16.68,4.19,11.47,4.57,6.47,5.54
				L3.86,3.76z"/>
			
				<linearGradient id="SVGID_1_" gradientUnits="userSpaceOnUse" x1="-274.7505" y1="-188.7461" x2="-249.6494" y2="-188.7461" gradientTransform="matrix(0.6227 0 0 0.6455 177.5534 131.3003)">
				<stop  offset="0" style="stop-color:#5F1C1C"/>
				<stop  offset="0.4902" style="stop-color:#8E3E3E"/>
				<stop  offset="1" style="stop-color:#5B1313"/>
			</linearGradient>
			<path fill-rule="evenodd" clip-rule="evenodd" fill="url(#SVGID_1_)" d="M6.47,5.54c5-0.97,10.21-1.34,15.63-1.13v8.75
				c-4.79-0.56-10-0.09-15.63,1.42V5.54z"/>
			<polygon fill-rule="evenodd" clip-rule="evenodd" fill="#381414" points="6.47,5.54 6.47,14.57 3.86,13.12 3.86,3.76 			"/>
		</g>
	</g>
	<g>
		<g>
			
				<radialGradient id="SVGID_2_" cx="-267.3501" cy="-196.4751" r="15.6" gradientTransform="matrix(0.6227 0 0 0.5255 177.5534 107.7231)" gradientUnits="userSpaceOnUse">
				<stop  offset="0" style="stop-color:#FFFFFF;stop-opacity:0.4706"/>
				<stop  offset="1" style="stop-color:#FAFAFA;stop-opacity:0"/>
			</radialGradient>
			<path fill-rule="evenodd" clip-rule="evenodd" fill="url(#SVGID_2_)" d="M21.91,4.57C16.67,4.32,11.56,4.69,6.6,5.67V5.54
				c0-0.04-0.02-0.08-0.05-0.11C6.52,5.39,6.48,5.38,6.44,5.38H6.41c0.02,0,0.04-0.01,0.06-0.02c5.05-1,10.25-1.37,15.6-1.11
				c0.04,0,0.08,0.02,0.11,0.05c0.03,0.03,0.05,0.07,0.05,0.11c0,0.05-0.02,0.08-0.05,0.11c-0.03,0.03-0.07,0.05-0.11,0.05
				C22.02,4.57,21.97,4.57,21.91,4.57z"/>
			
				<radialGradient id="SVGID_3_" cx="-249.7002" cy="-189.9248" r="6.7" gradientTransform="matrix(0.6227 0 0 0.6455 177.5534 131.3003)" gradientUnits="userSpaceOnUse">
				<stop  offset="0" style="stop-color:#FFFFFF;stop-opacity:0.3176"/>
				<stop  offset="1" style="stop-color:#FAFAFA;stop-opacity:0"/>
			</radialGradient>
			<path fill-rule="evenodd" clip-rule="evenodd" fill="url(#SVGID_3_)" d="M22.23,4.41v8.55c0,0.04-0.02,0.08-0.05,0.11
				c-0.03,0.03-0.07,0.05-0.11,0.05c-0.04,0-0.08-0.02-0.11-0.05s-0.05-0.07-0.05-0.11V4.57c0.05,0,0.1,0,0.16,0
				c0.04,0,0.08-0.02,0.11-0.05C22.21,4.49,22.22,4.45,22.23,4.41z"/>
			
				<radialGradient id="SVGID_4_" cx="-275.6499" cy="-195.375" r="3.7375" gradientTransform="matrix(0.6227 0 0 0.6455 177.5534 131.3003)" gradientUnits="userSpaceOnUse">
				<stop  offset="0" style="stop-color:#FFFFFF;stop-opacity:0.2118"/>
				<stop  offset="1" style="stop-color:#FAFAFA;stop-opacity:0"/>
			</radialGradient>
			<path fill-rule="evenodd" clip-rule="evenodd" fill="url(#SVGID_4_)" d="M6.41,5.38C6.38,5.38,6.35,5.4,6.33,5.42L6.32,5.44
				C6.3,5.47,6.29,5.5,6.29,5.54v0.08L3.73,3.86C3.7,3.83,3.68,3.8,3.67,3.76c-0.01-0.05,0-0.09,0.03-0.13
				C3.72,3.6,3.75,3.57,3.79,3.57c0.04-0.01,0.09,0,0.12,0.03l2.55,1.76C6.45,5.37,6.43,5.37,6.41,5.38z"/>
			
				<radialGradient id="SVGID_5_" cx="-274.75" cy="-192.875" r="17.65" gradientTransform="matrix(0.6227 0 0 0.6455 177.5534 131.3003)" gradientUnits="userSpaceOnUse">
				<stop  offset="0" style="stop-color:#FFFFFF;stop-opacity:0.1569"/>
				<stop  offset="1" style="stop-color:#FAFAFA;stop-opacity:0"/>
			</radialGradient>
			<path fill-rule="evenodd" clip-rule="evenodd" fill="url(#SVGID_5_)" d="M6.6,5.67v8.91c0,0.04-0.02,0.08-0.05,0.11
				c-0.03,0.03-0.07,0.05-0.11,0.05c-0.04,0-0.08-0.02-0.11-0.05c-0.03-0.03-0.05-0.07-0.05-0.11V5.62V5.54
				c0-0.03,0.01-0.07,0.03-0.1l0.02-0.02C6.35,5.4,6.38,5.38,6.41,5.38h0.03c0.04,0,0.08,0.02,0.11,0.05
				C6.58,5.45,6.6,5.49,6.6,5.54V5.67z"/>
		</g>
	</g>
	<g>
		<g>
			<path fill-rule="evenodd" clip-rule="evenodd" fill="#FFFFFF" fill-opacity="0.4902" d="M19.21,7.38
				c0.35,0.32,0.53,0.77,0.53,1.36c0,0.56-0.18,1.01-0.53,1.35c-0.33,0.32-0.78,0.48-1.34,0.48s-1.02-0.16-1.37-0.48
				C16.17,9.74,16,9.29,16,8.73c0-0.58,0.17-1.03,0.5-1.36c0.35-0.34,0.81-0.52,1.37-0.52S18.87,7.03,19.21,7.38z M17.03,7.7
				c-0.21,0.24-0.31,0.58-0.31,1.03c0,0.43,0.1,0.76,0.31,1c0.19,0.22,0.47,0.32,0.84,0.32c0.35,0,0.63-0.11,0.84-0.32
				c0.21-0.24,0.31-0.57,0.31-1c0-0.45-0.1-0.8-0.31-1.03c-0.19-0.21-0.47-0.32-0.84-0.32C17.49,7.38,17.21,7.48,17.03,7.7z"/>
			<path fill-rule="evenodd" clip-rule="evenodd" fill="#FFFFFF" fill-opacity="0.5059" d="M12.01,9.38
				c-0.05,0.07-0.12,0.12-0.2,0.13l-3.24,0.52c-0.09,0.01-0.16-0.01-0.23-0.06C8.27,9.91,8.23,9.84,8.22,9.75
				C8.2,9.66,8.23,9.58,8.28,9.51c0.05-0.07,0.12-0.12,0.2-0.13l3.24-0.52c0.09-0.01,0.16,0.01,0.23,0.06
				c0.07,0.05,0.11,0.12,0.12,0.21C12.09,9.22,12.07,9.3,12.01,9.38z"/>
		</g>
	</g>
	<g>
		<g>
			
				<radialGradient id="SVGID_6_" cx="-264.5757" cy="-200.9248" r="17.4757" gradientTransform="matrix(0.6227 0 0 0.6455 177.5534 131.3003)" gradientUnits="userSpaceOnUse">
				<stop  offset="0" style="stop-color:#FFFFFF;stop-opacity:0.2118"/>
				<stop  offset="1" style="stop-color:#FAFAFA;stop-opacity:0"/>
			</radialGradient>
			<path fill-rule="evenodd" clip-rule="evenodd" fill="url(#SVGID_6_)" d="M23.74,1.49c0.03,0.03,0.05,0.07,0.05,0.11
				s-0.02,0.08-0.05,0.11c-0.03,0.03-0.07,0.05-0.11,0.05H1.99c-0.04,0-0.08-0.02-0.11-0.05C1.85,1.68,1.83,1.64,1.83,1.6
				c0-0.04,0.02-0.08,0.05-0.11c0.03-0.03,0.07-0.05,0.11-0.05h21.64C23.67,1.44,23.71,1.45,23.74,1.49z"/>
			
				<radialGradient id="SVGID_7_" cx="-244.9502" cy="-194.8252" r="9.5" gradientTransform="matrix(0.6227 0 0 0.6455 177.5534 131.3003)" gradientUnits="userSpaceOnUse">
				<stop  offset="0" style="stop-color:#FFFFFF;stop-opacity:0.2118"/>
				<stop  offset="1" style="stop-color:#FAFAFA;stop-opacity:0"/>
			</radialGradient>
			<path fill-rule="evenodd" clip-rule="evenodd" fill="url(#SVGID_7_)" d="M24.86,2.2c0.03-0.03,0.07-0.05,0.11-0.05
				c0.04,0,0.08,0.02,0.11,0.05c0.03,0.03,0.05,0.07,0.05,0.11v12.2c0,0.04-0.02,0.08-0.05,0.11c-0.03,0.03-0.07,0.05-0.11,0.05
				c-0.04,0-0.08-0.02-0.11-0.05c-0.03-0.03-0.05-0.07-0.05-0.11V2.31C24.81,2.26,24.83,2.23,24.86,2.2z"/>
		</g>
	</g>
	<g>
		
			<radialGradient id="SVGID_8_" cx="-245.8999" cy="-200.6753" r="1.7476" gradientTransform="matrix(0.3119 -0.5587 0.6771 0.4063 237.0166 -54.1005)" gradientUnits="userSpaceOnUse">
			<stop  offset="0" style="stop-color:#FFFFFF"/>
			<stop  offset="0.1765" style="stop-color:#FFFFFF"/>
			<stop  offset="0.3059" style="stop-color:#FFFFFF;stop-opacity:0.4235"/>
			<stop  offset="0.4902" style="stop-color:#FFFFFF;stop-opacity:0.2314"/>
			<stop  offset="0.651" style="stop-color:#FFFFFF;stop-opacity:0.0824"/>
			<stop  offset="1" style="stop-color:#FFFFFF;stop-opacity:0"/>
		</radialGradient>
		<path fill-rule="evenodd" clip-rule="evenodd" fill="url(#SVGID_8_)" d="M25.62,1.57c0.15,0.34,0.15,0.65,0,0.9
			s-0.39,0.41-0.75,0.45c-0.31,0.06-0.63,0-0.96-0.19c-0.31-0.19-0.53-0.45-0.65-0.77c-0.12-0.32-0.11-0.61,0.03-0.87
			C23.43,0.82,23.67,0.66,24,0.6c0.33-0.06,0.65,0,0.97,0.19C25.3,0.99,25.52,1.24,25.62,1.57z"/>
	</g>
</g>
</svg>
