<?xml version="1.0" encoding="utf-8"?>
<!-- Generator: Adobe Illustrator 16.0.0, SVG Export Plug-In . SVG Version: 6.00 Build 0)  -->
<!DOCTYPE svg PUBLIC "-//W3C//DTD SVG 1.1//EN" "http://www.w3.org/Graphics/SVG/1.1/DTD/svg11.dtd">
<svg version="1.1" xmlns="http://www.w3.org/2000/svg" xmlns:xlink="http://www.w3.org/1999/xlink" x="0px" y="0px" width="25.81px"
	 height="18.69px" viewBox="0 0 25.81 18.69" enable-background="new 0 0 25.81 18.69" xml:space="preserve">
<g id="Layer_1">
	<g>
		<g>
			<path fill-rule="evenodd" clip-rule="evenodd" fill-opacity="0.298" d="M24,1.6c0.83,0,1.25,0.46,1.25,1.39v12.07
				c0,0.69-0.07,1.19-0.22,1.52l-0.47,1.13c-0.04,0.09-0.08,0.17-0.12,0.26c-0.19,0.34-0.54,0.52-1.06,0.52H1.58
				c-0.83,0-1.25-0.45-1.25-1.36V4.47c0-0.09,0.01-0.17,0.03-0.26c0-0.02,0-0.04,0-0.06C0.39,3.96,0.43,3.8,0.49,3.7l0.56-1.32
				c0.02-0.09,0.05-0.15,0.09-0.19C1.33,1.79,1.69,1.6,2.21,1.6H24z"/>
		</g>
		<g>
			<g>
				<path fill-rule="evenodd" clip-rule="evenodd" fill="#1E1E1E" d="M0.74,2.66c0-0.02,0-0.04,0-0.06
					c0.02-0.17,0.06-0.31,0.12-0.42l0.56-1.26C1.45,0.86,1.48,0.8,1.52,0.76c0.19-0.37,0.54-0.55,1.06-0.55h21.79
					c0.83,0,1.25,0.43,1.25,1.29v11.43c0,0.65-0.07,1.12-0.22,1.42L25,15.25V2.92c0-0.86-0.42-1.29-1.25-1.29H1.99
					C1.32,1.72,0.91,2.06,0.74,2.66z"/>
				<path fill-rule="evenodd" clip-rule="evenodd" fill="#0D0D0D" d="M25,15.25l-0.06,0.16c-0.04,0.09-0.08,0.17-0.13,0.26
					c-0.19,0.32-0.54,0.48-1.06,0.48H1.96c-0.83,0-1.25-0.43-1.25-1.29V2.92c0-0.09,0.01-0.17,0.03-0.26
					c0.17-0.6,0.58-0.95,1.25-1.03h21.76c0.83,0,1.25,0.43,1.25,1.29V15.25z"/>
			</g>
		</g>
		<g>
			<path fill-rule="evenodd" clip-rule="evenodd" d="M22.54,3.05c0.83,0,1.25,0.43,1.25,1.29v8.78c0,0.86-0.42,1.29-1.25,1.29H3.61
				c-0.83,0-1.25-0.43-1.25-1.29V4.34c0-0.86,0.42-1.29,1.25-1.29H22.54z"/>
		</g>
		<g>
			<g>
				
					<radialGradient id="SVGID_1_" cx="-264.5757" cy="-200.9248" r="17.4757" gradientTransform="matrix(0.6227 0 0 0.6455 177.5534 131.3003)" gradientUnits="userSpaceOnUse">
					<stop  offset="0" style="stop-color:#FFFFFF;stop-opacity:0.2118"/>
					<stop  offset="1" style="stop-color:#FAFAFA;stop-opacity:0"/>
				</radialGradient>
				<path fill-rule="evenodd" clip-rule="evenodd" fill="url(#SVGID_1_)" d="M23.74,1.49c0.03,0.03,0.05,0.07,0.05,0.11
					s-0.02,0.08-0.05,0.11c-0.03,0.03-0.07,0.05-0.11,0.05H1.99c-0.04,0-0.08-0.02-0.11-0.05C1.85,1.68,1.83,1.64,1.83,1.6
					c0-0.04,0.02-0.08,0.05-0.11c0.03-0.03,0.07-0.05,0.11-0.05h21.64C23.67,1.44,23.71,1.45,23.74,1.49z"/>
				
					<radialGradient id="SVGID_2_" cx="-244.9502" cy="-194.8252" r="9.5" gradientTransform="matrix(0.6227 0 0 0.6455 177.5534 131.3003)" gradientUnits="userSpaceOnUse">
					<stop  offset="0" style="stop-color:#FFFFFF;stop-opacity:0.2118"/>
					<stop  offset="1" style="stop-color:#FAFAFA;stop-opacity:0"/>
				</radialGradient>
				<path fill-rule="evenodd" clip-rule="evenodd" fill="url(#SVGID_2_)" d="M24.86,2.2c0.03-0.03,0.07-0.05,0.11-0.05
					c0.04,0,0.08,0.02,0.11,0.05c0.03,0.03,0.05,0.07,0.05,0.11v12.2c0,0.04-0.02,0.08-0.05,0.11c-0.03,0.03-0.07,0.05-0.11,0.05
					c-0.04,0-0.08-0.02-0.11-0.05c-0.03-0.03-0.05-0.07-0.05-0.11V2.31C24.81,2.26,24.83,2.23,24.86,2.2z"/>
			</g>
		</g>
		<g>
			
				<radialGradient id="SVGID_3_" cx="-245.8999" cy="-200.6753" r="1.7476" gradientTransform="matrix(0.3119 -0.5587 0.6771 0.4063 237.0166 -54.1005)" gradientUnits="userSpaceOnUse">
				<stop  offset="0" style="stop-color:#FFFFFF"/>
				<stop  offset="0.1765" style="stop-color:#FFFFFF"/>
				<stop  offset="0.3059" style="stop-color:#FFFFFF;stop-opacity:0.4235"/>
				<stop  offset="0.4902" style="stop-color:#FFFFFF;stop-opacity:0.2314"/>
				<stop  offset="0.651" style="stop-color:#FFFFFF;stop-opacity:0.0824"/>
				<stop  offset="1" style="stop-color:#FFFFFF;stop-opacity:0"/>
			</radialGradient>
			<path fill-rule="evenodd" clip-rule="evenodd" fill="url(#SVGID_3_)" d="M25.62,1.57c0.15,0.34,0.15,0.65,0,0.9
				s-0.39,0.41-0.75,0.45c-0.31,0.06-0.63,0-0.96-0.19c-0.31-0.19-0.53-0.45-0.65-0.77c-0.12-0.32-0.11-0.61,0.03-0.87
				C23.43,0.82,23.67,0.66,24,0.6c0.33-0.06,0.65,0,0.97,0.19C25.3,0.99,25.52,1.24,25.62,1.57z"/>
		</g>
	</g>
</g>
<g id="Layer_2">
	<g>
		<g>
			<g>
				<path fill-rule="evenodd" clip-rule="evenodd" fill="#693838" d="M20.18,5.55c-5-0.97-10.21-1.34-15.63-1.13l-0.5-0.65H22.8
					L20.18,5.55z"/>
				<polygon fill-rule="evenodd" clip-rule="evenodd" fill="#381414" points="20.18,14.59 20.18,5.55 22.8,3.77 22.8,13.13 				"/>
				
					<linearGradient id="SVGID_4_" gradientUnits="userSpaceOnUse" x1="-494.3774" y1="31.4102" x2="-469.2769" y2="31.4102" gradientTransform="matrix(-0.6227 0 0 -0.6455 -287.654 29.7495)">
					<stop  offset="0" style="stop-color:#5F1C1C"/>
					<stop  offset="0.4902" style="stop-color:#8E3E3E"/>
					<stop  offset="1" style="stop-color:#5B1313"/>
				</linearGradient>
				<path fill-rule="evenodd" clip-rule="evenodd" fill="url(#SVGID_4_)" d="M4.56,13.17V4.42C9.97,4.2,15.18,4.58,20.18,5.55v9.04
					C14.56,13.08,9.35,12.61,4.56,13.17z"/>
				<polygon fill-rule="evenodd" clip-rule="evenodd" fill="#2C1010" points="4.56,4.42 4.56,13.17 4.06,11.52 4.06,3.77 				"/>
			</g>
		</g>
		<g>
			<g>
				
					<radialGradient id="SVGID_5_" cx="-495.2759" cy="38.0391" r="3.7378" gradientTransform="matrix(-0.6227 0 0 0.6455 -287.654 -19.3607)" gradientUnits="userSpaceOnUse">
					<stop  offset="0" style="stop-color:#FFFFFF;stop-opacity:0.2118"/>
					<stop  offset="1" style="stop-color:#FAFAFA;stop-opacity:0"/>
				</radialGradient>
				<path fill-rule="evenodd" clip-rule="evenodd" fill="url(#SVGID_5_)" d="M20.18,5.37l2.55-1.76c0.04-0.03,0.08-0.04,0.12-0.03
					c0.04,0.01,0.07,0.03,0.09,0.06c0.03,0.04,0.04,0.08,0.03,0.13c-0.01,0.04-0.03,0.07-0.06,0.1l-2.55,1.76l-0.06,0.05
					c-0.04,0.03-0.08,0.04-0.12,0.03c-0.04-0.01-0.07-0.03-0.09-0.06c-0.02-0.03-0.03-0.06-0.03-0.1V5.52
					c0.01-0.03,0.02-0.06,0.05-0.08l0.03-0.03L20.18,5.37z"/>
				
					<radialGradient id="SVGID_6_" cx="-486.9761" cy="39.1396" r="15.6" gradientTransform="matrix(-0.6227 0 0 0.5255 -287.654 -16.0848)" gradientUnits="userSpaceOnUse">
					<stop  offset="0" style="stop-color:#FFFFFF;stop-opacity:0.4706"/>
					<stop  offset="1" style="stop-color:#FAFAFA;stop-opacity:0"/>
				</radialGradient>
				<path fill-rule="evenodd" clip-rule="evenodd" fill="url(#SVGID_6_)" d="M20.06,5.68C15.09,4.7,9.99,4.34,4.74,4.58V4.42
					c0-0.04-0.02-0.08-0.05-0.11C4.67,4.27,4.63,4.26,4.59,4.26C9.93,4,15.13,4.37,20.18,5.37L20.14,5.4l-0.03,0.03
					c-0.02,0.02-0.04,0.05-0.05,0.08v0.03V5.68z"/>
				
					<radialGradient id="SVGID_7_" cx="-494.376" cy="35.54" r="17.6504" gradientTransform="matrix(-0.6227 0 0 0.6455 -287.654 -16.1343)" gradientUnits="userSpaceOnUse">
					<stop  offset="0" style="stop-color:#FFFFFF;stop-opacity:0.1569"/>
					<stop  offset="1" style="stop-color:#FAFAFA;stop-opacity:0"/>
				</radialGradient>
				<path fill-rule="evenodd" clip-rule="evenodd" fill="url(#SVGID_7_)" d="M20.37,5.63v8.96c0,0.04-0.02,0.08-0.05,0.11
					c-0.03,0.03-0.07,0.05-0.11,0.05c-0.04,0-0.08-0.02-0.11-0.05c-0.03-0.03-0.05-0.07-0.05-0.11V5.68V5.55
					c0,0.04,0.01,0.07,0.03,0.1c0.02,0.04,0.05,0.06,0.09,0.06c0.04,0.01,0.08,0,0.12-0.03L20.37,5.63z"/>
				
					<radialGradient id="SVGID_8_" cx="-469.3262" cy="32.5898" r="6.7" gradientTransform="matrix(-0.6227 0 0 0.6455 -287.654 -12.3255)" gradientUnits="userSpaceOnUse">
					<stop  offset="0" style="stop-color:#FFFFFF;stop-opacity:0.3176"/>
					<stop  offset="1" style="stop-color:#FAFAFA;stop-opacity:0"/>
				</radialGradient>
				<path fill-rule="evenodd" clip-rule="evenodd" fill="url(#SVGID_8_)" d="M4.74,4.58v8.39c0,0.04-0.02,0.08-0.05,0.11
					c-0.03,0.03-0.07,0.05-0.11,0.05c-0.04,0-0.08-0.02-0.11-0.05c-0.03-0.03-0.05-0.07-0.05-0.11V4.42c0-0.04,0.02-0.08,0.05-0.11
					c0.03-0.03,0.07-0.05,0.11-0.05c0.04,0,0.08,0.02,0.11,0.05c0.03,0.03,0.05,0.07,0.05,0.11V4.58z"/>
			</g>
		</g>
		<g>
			<g>
				<path fill-rule="evenodd" clip-rule="evenodd" fill="#FFFFFF" fill-opacity="0.4902" d="M17.35,7.29
					c0.56,0.06,1.01,0.28,1.34,0.65c0.35,0.37,0.53,0.84,0.53,1.42c0,0.56-0.18,0.99-0.53,1.29c-0.33,0.3-0.78,0.42-1.34,0.36
					c-0.56-0.04-1.02-0.25-1.37-0.61c-0.33-0.37-0.5-0.83-0.5-1.39c0-0.58,0.17-1.02,0.5-1.32C16.33,7.38,16.79,7.25,17.35,7.29z
					 M18.5,9.26c0-0.45-0.1-0.8-0.31-1.03C18,7.99,17.72,7.85,17.35,7.81c-0.37-0.04-0.65,0.04-0.84,0.26
					c-0.21,0.21-0.31,0.55-0.31,1c0,0.43,0.1,0.77,0.31,1.03c0.19,0.22,0.47,0.34,0.84,0.39c0.35,0.04,0.63-0.03,0.84-0.23
					C18.4,10.02,18.5,9.69,18.5,9.26z"/>
				<path fill-rule="evenodd" clip-rule="evenodd" fill="#FFFFFF" fill-opacity="0.5059" d="M9.82,8.26c0.08,0,0.16,0.03,0.22,0.1
					c0.06,0.06,0.09,0.14,0.09,0.23c0,0.09-0.03,0.16-0.09,0.23c-0.06,0.06-0.13,0.1-0.22,0.1H6.58c-0.08,0-0.16-0.03-0.22-0.1
					C6.3,8.75,6.27,8.67,6.27,8.58c0-0.09,0.03-0.16,0.09-0.23c0.06-0.06,0.13-0.1,0.22-0.1H9.82z"/>
			</g>
		</g>
	</g>
</g>
</svg>
