<?xml version="1.0" encoding="utf-8"?>
<!-- Generator: Adobe Illustrator 16.0.0, SVG Export Plug-In . SVG Version: 6.00 Build 0)  -->
<!DOCTYPE svg PUBLIC "-//W3C//DTD SVG 1.1//EN" "http://www.w3.org/Graphics/SVG/1.1/DTD/svg11.dtd">
<svg version="1.1" id="Layer_1" xmlns="http://www.w3.org/2000/svg" xmlns:xlink="http://www.w3.org/1999/xlink" x="0px" y="0px"
	 width="124.67px" height="311px" viewBox="0 0 124.67 311" enable-background="new 0 0 124.67 311" xml:space="preserve">
<g>
	<g>
		<path fill-rule="evenodd" clip-rule="evenodd" fill="#343157" d="M7.73,6.3c-0.13,0.27-0.25,0.6-0.35,1
			c-0.57,2.4-0.97,5.68-1.2,9.85c-0.07,1.17-0.12,2.17-0.15,3c-0.07,0.23-0.13,0.47-0.2,0.7H2.28c-0.03-0.2-0.05-0.43-0.05-0.7
			c-0.1-1.07-0.15-2.47-0.15-4.2c0.07-3.87,0.43-7.1,1.1-9.7c0.4-1.77,0.95-2.97,1.65-3.6c1.13-1.27,2.5-1.55,4.1-0.85
			c2.87,1,6.92,8.58,12.15,22.75c9.83,26.6,17,49.53,21.5,68.8c4.43,19.17,14.43,53.22,30,102.15c15.53,48.9,25.37,78.4,29.5,88.5
			c3.4,8.47,6.92,11.98,10.55,10.55c3.7-1.77,6.5-1.23,8.4,1.6c1.53,2.03,2.38,5.73,2.55,11.1c0,0.6-0.2,1.12-0.6,1.55
			c-0.43,0.43-0.95,0.67-1.55,0.7c-0.6,0-1.12-0.2-1.55-0.6c-0.47-0.43-0.7-0.97-0.7-1.6c-0.13-4.13-0.7-6.98-1.7-8.55
			c-0.7-0.73-1.68-0.8-2.95-0.2c-6.2,3.3-11.7-0.97-16.5-12.8c-4.13-10.2-14-39.85-29.6-88.95c-15.6-49.07-25.63-83.2-30.1-102.4
			c-4.47-19.17-11.58-41.93-21.35-68.3C12.82,14.83,9.73,8.23,7.73,6.3z"/>
	</g>
	<g>
		<g>
			
				<radialGradient id="SVGID_1_" cx="16.6201" cy="26.3999" r="23.3179" gradientTransform="matrix(1 1.072384e-003 -1.082732e-003 1.0096 0.0287 -0.2725)" gradientUnits="userSpaceOnUse">
				<stop  offset="0" style="stop-color:#FFFFFF"/>
				<stop  offset="1" style="stop-color:#FFFFFF;stop-opacity:0.0471"/>
			</radialGradient>
			<path fill-rule="evenodd" clip-rule="evenodd" fill="url(#SVGID_1_)" d="M13.53,12.65c-1.67-3.53-3.08-5.88-4.25-7.05
				C8.75,5.03,8.27,4.73,7.83,4.7c-0.33,0-0.65,0.2-0.95,0.6c-0.07,0.07-0.13,0.12-0.2,0.15c-0.1,0-0.18-0.02-0.25-0.05
				c-0.07-0.07-0.1-0.15-0.1-0.25C6.27,5.08,6.27,5,6.33,4.9c0.47-0.67,1-0.95,1.6-0.85c0.53,0.03,1.13,0.38,1.8,1.05
				c1.23,1.27,2.7,3.7,4.4,7.3c3.33,7.07,7.6,18.78,12.8,35.15c0.03,0.07,0.03,0.15,0,0.25c-0.03,0.07-0.08,0.12-0.15,0.15
				c-0.13,0-0.23,0-0.3,0c-0.1-0.07-0.17-0.15-0.2-0.25C21.12,31.4,16.87,19.72,13.53,12.65z"/>
			
				<radialGradient id="SVGID_2_" cx="4.0332" cy="14" r="4.925" gradientTransform="matrix(1 1.269032e-003 -1.278691e-003 1.0076 0.0181 -0.1117)" gradientUnits="userSpaceOnUse">
				<stop  offset="0" style="stop-color:#FFFFFF"/>
				<stop  offset="1" style="stop-color:#FFFFFF;stop-opacity:0.0471"/>
			</radialGradient>
			<path fill-rule="evenodd" clip-rule="evenodd" fill="url(#SVGID_2_)" d="M3.78,8.65c0.1,0,0.17,0.02,0.2,0.05
				c0.1,0.1,0.15,0.18,0.15,0.25l0.5,9.9c0,0.13-0.02,0.22-0.05,0.25c-0.07,0.07-0.15,0.1-0.25,0.1s-0.17-0.02-0.2-0.05
				C4.03,19.08,3.98,19,3.98,18.9L3.48,9c0-0.07,0.03-0.13,0.1-0.2C3.62,8.7,3.68,8.65,3.78,8.65z"/>
			
				<radialGradient id="SVGID_3_" cx="64.083" cy="175.25" r="69.0126" gradientTransform="matrix(1 9.961949e-004 -1.005937e-003 1.0098 0.1764 -1.7775)" gradientUnits="userSpaceOnUse">
				<stop  offset="0" style="stop-color:#FFFFFF"/>
				<stop  offset="1" style="stop-color:#FFFFFF;stop-opacity:0.0471"/>
			</radialGradient>
			<path fill-rule="evenodd" clip-rule="evenodd" fill="url(#SVGID_3_)" d="M43.28,108.8c0-0.1,0.03-0.18,0.1-0.25
				c0.03-0.13,0.08-0.2,0.15-0.2c0.07-0.03,0.15-0.03,0.25,0c0.07,0.07,0.12,0.15,0.15,0.25l41.05,133.15c0,0.07,0,0.15,0,0.25
				c-0.03,0.07-0.12,0.12-0.25,0.15c-0.07,0.03-0.15,0.03-0.25,0c-0.07-0.03-0.12-0.12-0.15-0.25L43.28,108.8z"/>
			
				<radialGradient id="SVGID_4_" cx="117.3896" cy="300.4502" r="6.2835" gradientTransform="matrix(1 9.940345e-004 -1.001937e-003 1.0079 0.3012 -2.5052)" gradientUnits="userSpaceOnUse">
				<stop  offset="0" style="stop-color:#FFFFFF"/>
				<stop  offset="1" style="stop-color:#FFFFFF;stop-opacity:0.0471"/>
			</radialGradient>
			<path fill-rule="evenodd" clip-rule="evenodd" fill="url(#SVGID_4_)" d="M118.23,296.35c-1.2-1.5-2.75-1.7-4.65-0.6
				c-0.07,0.03-0.13,0.05-0.2,0.05c-0.1-0.03-0.17-0.08-0.2-0.15c-0.03-0.1-0.05-0.18-0.05-0.25c0.03-0.07,0.1-0.13,0.2-0.2
				c2.2-1.3,3.98-1.05,5.35,0.75c1.4,1.7,2.38,4.83,2.95,9.4c0.03,0.07,0,0.15-0.1,0.25c-0.03,0.07-0.1,0.1-0.2,0.1
				c-0.1,0.03-0.18,0.02-0.25-0.05c-0.03-0.03-0.08-0.1-0.15-0.2C120.4,301.05,119.5,298.02,118.23,296.35z"/>
		</g>
	</g>
</g>
</svg>
