<?xml version="1.0" encoding="utf-8"?>
<!-- Generator: Adobe Illustrator 16.0.0, SVG Export Plug-In . SVG Version: 6.00 Build 0)  -->
<!DOCTYPE svg PUBLIC "-//W3C//DTD SVG 1.1//EN" "http://www.w3.org/Graphics/SVG/1.1/DTD/svg11.dtd">
<svg version="1.1" id="Layer_1" xmlns="http://www.w3.org/2000/svg" xmlns:xlink="http://www.w3.org/1999/xlink" x="0px" y="0px"
	 width="700px" height="700px" viewBox="0 0 700 700" enable-background="new 0 0 700 700" xml:space="preserve">
<g>
	<path fill-rule="evenodd" clip-rule="evenodd" fill-opacity="0.2471" d="M310.1,456.3c0.2,0,0.3,0,0.5,0c1.7,0.4,4,0.7,7,1
		c2.2-0.1,4.3-1.1,6.4-3l0.1,0c2.4-2.4,4.6-5.3,6.8-8.7c2.2-3.6,4.8-7.9,7.6-12.9v0.1c2.9-5.2,5.3-8.8,7-10.9v0c2-2.5,4.7-3.8,8.2-4
		c0.3,0,3.2,0,8.5,0.1l-0.4,3.6c-2.7,0-5.3,0.1-7.8,0.3h0c-2.3,0.1-4.1,1-5.4,2.6c-1.7,1.9-3.9,5.3-6.6,10.2
		c-2.9,5.1-5.5,9.4-7.7,13v0.1c-2.4,3.7-4.8,6.8-7.4,9.4c-3,2.8-6.1,4.2-9.4,4.2c0,0-0.1,0-0.1,0c-3.1-0.2-5.6-0.6-7.5-1h-2.5
		c-0.3,0.2-0.6,0.3-1,0.3h-0.8c-0.2,0-1.9-0.3-5.1-0.8c-0.1-0.5-0.1-0.8-0.1-1c0-1.3,0.1-2.3,0.3-3.2l2.3,0.4
		c1.3-0.1,1.9-0.1,1.8,0.1c0,0,0,0,0,0.1c-0.1,0.1-0.1,0.2-0.2,0.4c0.3-0.2,0.7-0.3,1.1-0.3H310.1z"/>
</g>
<g>
	<path fill-rule="evenodd" clip-rule="evenodd" d="M304.5,448.2c0.3,0,0.5,0.1,0.8,0.3c4.6,2.8,8.6,4.3,11.8,4.3
		c2.9,0,5.1-1.2,6.7-3.5c3.9-5.9,7.7-12.8,11.5-20.9c2.6-5.6,4.3-9.4,5.2-11.5c0-0.1,0-0.1,0.1-0.2c7.9-13.8,16.6-17.8,25.9-12.1h0
		c0.3,0.2,0.7,0.3,1,0.5c0.4,0.2,0.6,0.6,0.8,1c0.1,0.5,0,0.9-0.2,1.4c-0.3,0.4-0.6,0.6-1.1,0.8c-0.5,0.1-0.9,0-1.3-0.2
		c-0.3-0.2-0.5-0.3-0.8-0.5v0c-7.5-4.2-14.5-0.5-21.1,10.8v0c-0.9,2.2-2.7,6-5.2,11.5c-3.9,8.3-7.8,15.4-11.8,21.4
		c-2.3,3.4-5.5,5.1-9.6,5.1c-3.7,0-8.1-1.5-13.3-4.7c0.2-0.9,0.4-1.7,0.6-2.5C304.6,448.8,304.6,448.5,304.5,448.2z"/>
</g>
<g>
	<g>
		
			<radialGradient id="SVGID_1_" cx="320.2998" cy="444.4502" r="13.925" gradientTransform="matrix(1 0 0 0.7217 0 123.6801)" gradientUnits="userSpaceOnUse">
			<stop  offset="0" style="stop-color:#FFFFFF"/>
			<stop  offset="0.5412" style="stop-color:#FFFFFF;stop-opacity:0.8118"/>
			<stop  offset="1" style="stop-color:#FFFFFF;stop-opacity:0"/>
		</radialGradient>
		<path fill-rule="evenodd" clip-rule="evenodd" fill="url(#SVGID_1_)" d="M306.1,451.5l0.5-0.9c4.3,2.4,8.1,3.5,11.1,3.4
			c3-0.2,5.3-1.5,7.1-4.1c3-4.6,6-9.8,8.9-15.7l0.9,0.5c-3,5.9-6,11.2-9,15.8c-2,2.9-4.6,4.4-7.9,4.5
			C314.6,455.2,310.7,454,306.1,451.5z"/>
		
			<radialGradient id="SVGID_2_" cx="353.6504" cy="412.0996" r="12.825" gradientTransform="matrix(1 0 0 0.6452 0 146.203)" gradientUnits="userSpaceOnUse">
			<stop  offset="0" style="stop-color:#FFFFFF"/>
			<stop  offset="0.5412" style="stop-color:#FFFFFF;stop-opacity:0.8118"/>
			<stop  offset="1" style="stop-color:#FFFFFF;stop-opacity:0"/>
		</radialGradient>
		<path fill-rule="evenodd" clip-rule="evenodd" fill="url(#SVGID_2_)" d="M365.9,405.5c0.3,0.1,0.6,0.3,0.9,0.5l-0.5,0.9
			c-0.3-0.2-0.5-0.3-0.8-0.5c-8.2-4.7-15.8-1-22.8,11.3c-0.3,0.8-0.8,1.8-1.3,2.9l-0.9-0.4c0.5-1.2,1-2.2,1.3-2.9c0,0,0-0.1,0.1-0.1
			C349.1,404.3,357.2,400.4,365.9,405.5z"/>
	</g>
</g>
<g>
	<g>
		
			<radialGradient id="SVGID_3_" cx="-369.5" cy="-408.1001" r="1.55" gradientTransform="matrix(-1 0 0 2.8387 0 1566.5779)" gradientUnits="userSpaceOnUse">
			<stop  offset="0" style="stop-color:#FFFFFF"/>
			<stop  offset="1" style="stop-color:#000000"/>
		</radialGradient>
		<path fill-rule="evenodd" clip-rule="evenodd" fill="url(#SVGID_3_)" d="M369.1,404.3c0.3-0.1,0.6-0.1,0.9,0
			c0.3,0,0.5,0.2,0.7,0.4c0.2,0.3,0.2,0.5,0.1,0.8c-0.4,1.4-0.5,2.7-0.3,3.7h0c0.1,0.3,0.2,0.6,0.3,0.9c0.1,0.2,0.1,0.5-0.1,0.8
			c-0.1,0.2-0.4,0.4-0.7,0.5c-0.3,0.1-0.6,0.1-0.9,0s-0.5-0.3-0.6-0.5c-0.1-0.4-0.2-0.8-0.4-1.2v0c-0.2-1.3-0.1-2.8,0.4-4.5
			C368.6,404.7,368.8,404.5,369.1,404.3z"/>
		
			<radialGradient id="SVGID_4_" cx="-366.1499" cy="-408" r="1.55" gradientTransform="matrix(-1 0 0 2.8387 0 1566.1936)" gradientUnits="userSpaceOnUse">
			<stop  offset="0" style="stop-color:#FFFFFF"/>
			<stop  offset="1" style="stop-color:#000000"/>
		</radialGradient>
		<path fill-rule="evenodd" clip-rule="evenodd" fill="url(#SVGID_4_)" d="M366.6,404.2c0.3,0.1,0.6,0.2,0.8,0.4
			c0.1,0.3,0.2,0.5,0.1,0.8c-0.4,1.4-0.5,2.6-0.3,3.6h0c0.1,0.3,0.2,0.6,0.3,0.9c0.1,0.3,0.1,0.5,0,0.8c-0.2,0.2-0.4,0.4-0.8,0.5
			c-0.3,0.1-0.6,0.1-0.9,0c-0.3-0.1-0.5-0.3-0.6-0.6c-0.1-0.4-0.3-0.8-0.3-1.1v0c-0.3-1.3-0.1-2.8,0.4-4.5c0.1-0.3,0.3-0.5,0.6-0.6
			C366,404.1,366.3,404.1,366.6,404.2z"/>
		
			<radialGradient id="SVGID_5_" cx="-373.0498" cy="-408.2002" r="1.55" gradientTransform="matrix(-1 0 0 2.8387 0 1566.9622)" gradientUnits="userSpaceOnUse">
			<stop  offset="0" style="stop-color:#FFFFFF"/>
			<stop  offset="1" style="stop-color:#000000"/>
		</radialGradient>
		<path fill-rule="evenodd" clip-rule="evenodd" fill="url(#SVGID_5_)" d="M374.3,404.8c0.2,0.3,0.2,0.5,0.1,0.8
			c-0.4,1.4-0.5,2.6-0.3,3.7h-0.1c0.1,0.3,0.2,0.6,0.3,0.9c0.1,0.2,0.1,0.5-0.1,0.8c-0.2,0.2-0.4,0.3-0.7,0.5
			c-0.3,0.1-0.6,0.1-0.9-0.1c-0.3-0.1-0.5-0.3-0.6-0.5c-0.1-0.4-0.3-0.8-0.3-1.2v-0.1c-0.2-1.3-0.1-2.8,0.4-4.5
			c0.1-0.3,0.3-0.5,0.6-0.6c0.3-0.1,0.6-0.1,0.9-0.1C373.8,404.4,374.1,404.6,374.3,404.8z"/>
	</g>
</g>
<g>
	<g>
		
			<radialGradient id="SVGID_6_" cx="481.0918" cy="-257.1665" r="1.2438" gradientTransform="matrix(0.1005 0.9949 1.6884 -0.2211 689.2955 -90.2644)" gradientUnits="userSpaceOnUse">
			<stop  offset="0" style="stop-color:#FFFFFF"/>
			<stop  offset="1" style="stop-color:#000000"/>
		</radialGradient>
		<path fill-rule="evenodd" clip-rule="evenodd" fill="url(#SVGID_6_)" d="M303.9,444.5c0.2-0.1,0.3-0.2,0.4-0.3
			c0.1-0.1,0.2-0.1,0.4,0c0.1,0.1,0.2,0.2,0.3,0.5c0.1,0.2,0.1,0.5,0.1,0.8c-0.1,0.2-0.2,0.4-0.3,0.5c-0.2,0.1-0.4,0.3-0.5,0.3h0
			c-0.6,0.3-1.3,0.3-2.2,0c-0.2-0.1-0.3-0.2-0.3-0.5c-0.1-0.2-0.2-0.4-0.2-0.7c0-0.2,0.1-0.4,0.2-0.6c0.1-0.2,0.3-0.2,0.4-0.2
			C302.8,444.6,303.4,444.7,303.9,444.5L303.9,444.5z"/>
		
			<radialGradient id="SVGID_7_" cx="483.542" cy="-257.0698" r="1.2438" gradientTransform="matrix(0.1005 0.9949 1.6884 -0.2211 689.0363 -90.2305)" gradientUnits="userSpaceOnUse">
			<stop  offset="0" style="stop-color:#FFFFFF"/>
			<stop  offset="1" style="stop-color:#000000"/>
		</radialGradient>
		<path fill-rule="evenodd" clip-rule="evenodd" fill="url(#SVGID_7_)" d="M304.5,446.7c0-0.1,0.1-0.2,0.4,0
			c0.1,0.1,0.2,0.3,0.3,0.6c0,0.2,0,0.4,0,0.7c0,0.2-0.1,0.4-0.2,0.5c-0.2,0.1-0.3,0.2-0.5,0.3c-0.6,0.2-1.4,0.2-2.2,0
			c-0.2,0-0.3-0.2-0.4-0.4c-0.1-0.2-0.1-0.5-0.1-0.8c0-0.2,0-0.4,0.1-0.5c0.1-0.1,0.2-0.2,0.4-0.2c0.7,0.2,1.3,0.2,1.8,0.1v0.1
			C304.2,446.9,304.4,446.8,304.5,446.7z"/>
		
			<radialGradient id="SVGID_8_" cx="486.0039" cy="-257.0723" r="1.2438" gradientTransform="matrix(0.1005 0.9949 1.6884 -0.2211 689.0429 -90.2314)" gradientUnits="userSpaceOnUse">
			<stop  offset="0" style="stop-color:#FFFFFF"/>
			<stop  offset="1" style="stop-color:#000000"/>
		</radialGradient>
		<path fill-rule="evenodd" clip-rule="evenodd" fill="url(#SVGID_8_)" d="M304.2,449.3c0.2,0,0.3-0.1,0.4-0.3
			c0.1-0.1,0.2-0.1,0.3,0c0.1,0.1,0.2,0.3,0.3,0.6c0.1,0.2,0.1,0.4,0,0.8c0,0.2,0,0.3-0.1,0.4c-0.2,0.1-0.4,0.3-0.5,0.4h0
			c-0.6,0.3-1.3,0.3-2.1,0c-0.2,0-0.3-0.2-0.4-0.5c-0.1-0.2-0.1-0.4-0.1-0.7c0-0.3,0-0.5,0.1-0.5c0.2-0.2,0.3-0.2,0.5-0.2
			C303.2,449.5,303.7,449.5,304.2,449.3L304.2,449.3z"/>
	</g>
</g>
</svg>
