<?xml version="1.0" encoding="utf-8"?>
<!-- Generator: Adobe Illustrator 16.0.0, SVG Export Plug-In . SVG Version: 6.00 Build 0)  -->
<!DOCTYPE svg PUBLIC "-//W3C//DTD SVG 1.1//EN" "http://www.w3.org/Graphics/SVG/1.1/DTD/svg11.dtd">
<svg version="1.1" id="Layer_1" xmlns="http://www.w3.org/2000/svg" xmlns:xlink="http://www.w3.org/1999/xlink" x="0px" y="0px"
	 width="700px" height="700px" viewBox="0 0 700 700" enable-background="new 0 0 700 700" xml:space="preserve">
<g>
	<path fill-rule="evenodd" clip-rule="evenodd" fill-opacity="0.2471" d="M478.1,402.6c0.7,0.7,1,1.8,0.9,3.4v0
		c-0.1,1.9-2.3,6.7-6.7,14.5c-2.8,4.8-5,8.6-6.6,11.4c-6.2,10.8-9.3,21.2-9.3,31.2c0,5.6,1.2,13.3,3.5,23.3
		c2.4,10.3,3.6,17.9,3.6,22.8c0,5.7-2.2,12.5-6.8,20.3c-2.4,4.1-7.2,11-14.4,20.8c-6.7,9-11.4,16-14.2,21
		c-4.1,7.7-6.2,14.6-6.3,20.7c0,6,2.5,10.8,7.7,14.2c5.3,3.5,11.3,4.9,18,4.1l0,0c2.1-0.3,5.3-0.5,9.5-0.8c6.9-0.4,16.5-0.8,29-1.1
		l0.2,4c-12.5,0.3-22.2,0.7-29.1,1.1c-3.9,0.2-6.9,0.5-9,0.8c-7.7,0.8-14.6-0.8-20.7-4.8c-6.3-4.2-9.5-10.1-9.5-17.5
		c0-6.7,2.2-14.3,6.8-22.6c2.8-5.2,7.6-12.4,14.5-21.6c7.1-9.6,11.8-16.4,14.2-20.4c4.1-7,6.2-13.1,6.2-18.3
		c0-4.6-1.2-11.9-3.5-21.9c-2.4-10.3-3.6-18.3-3.6-24.1c0-10.7,3.3-21.7,9.9-33.2c1.6-2.8,3.8-6.6,6.6-11.4l-0.1,0.1
		c3.9-7.1,5.9-11.4,6.2-13c0-0.1,0-0.1,0-0.2c-0.6,0.1-1.2,0.1-1.8,0.1l-0.3-3.6c0.7-0.3,1.3-0.4,1.8-0.5l0,0
		C476.3,401.3,477.4,401.7,478.1,402.6z M488.2,570.3c4.3-0.2,9.2-0.4,14.7-0.5c2-0.1,4.1-0.1,6.3-0.2l0.2,4
		c-2.3,0.1-4.5,0.1-6.5,0.2c-5.5,0.2-10.3,0.3-14.3,0.5l-3.7,9.8l-0.3-5.4L488.2,570.3z M513.5,550.3c-0.3-0.9,0.1-1.6,1.1-2.1
		c2.4,0,4.9,0,7.5,0v2.1H513.5z"/>
</g>
<g>
	<path fill-rule="evenodd" clip-rule="evenodd" d="M467.1,389.3c0.1-0.4,0.3-0.7,0.6-0.8c0.4-0.3,1-0.7,2-1.1h0
		c1.2-0.5,2.3-0.7,3.3-0.7c3.3,0,5.5,1.7,6.5,5.1v0c0.3,1.2,0.5,3,0.5,5.5c0,2.5-4.5,17.4-13.6,44.8c-8.8,26.2-10,43.5-3.6,51.8v0
		c7.3,9,6.2,22.9-3.3,41.9c-9.2,18.1-14.4,28.3-15.6,30.4c-1.3,2.1-5,10.5-11.3,25.3h0c-2.8,6.5-2.7,11.3,0.2,14.2
		c3.4,2.9,9.9,4,19.5,3.2c9.9-0.8,17-2.7,21.5-5.7c4-2.7,5.6-6.4,4.7-11c0-0.1,0-0.2,0-0.2c-0.9-11.4,3.2-21.8,12.2-31.1
		c8.7-9,15.3-15.2,19.9-18.5c2.9-2.1,5.5-2.5,7.6-1.4c1.9,0.9,3.6,3.2,5.1,7c0.2,0.5,0.1,0.9,0,1.4c-0.2,0.4-0.5,0.8-1,1
		c-0.5,0.2-0.9,0.1-1.4-0.1c-0.4-0.2-0.7-0.5-0.9-0.9c-1.1-2.7-2.3-4.5-3.5-5.2l0,0c-1.1-0.4-2.5-0.1-4,1h0c-4.5,3.2-11,9.2-19.4,18
		l-0.1,0c-8.2,8.5-11.9,18-11.2,28.4c1.1,6.1-0.9,10.9-6.2,14.5c-4.8,3.3-12.5,5.4-23.2,6.3c-11,0.9-18.3-0.4-22.1-4.1
		c-4.3-3.7-4.6-9.7-1.1-18.1c6.4-15.1,10.2-23.7,11.5-25.8v0c1.2-2.1,6.4-12.2,15.5-30.2c8.6-17.3,9.8-30.1,3.6-38.2
		c-7.3-8.8-6.3-27.2,3.1-55.1c8.9-26.7,13.4-41.3,13.4-43.7c0-2-0.1-3.6-0.4-4.6l0,0.1c-0.5-1.7-1.6-2.5-3.2-2.6
		c-0.4,0-0.9,0.1-1.3,0.3c0,0.1-0.1,0.1-0.1,0.2c-0.2,0.5-0.4,0.8-0.8,1c-0.4,0.2-0.9,0.2-1.3,0.1c-0.3-0.1-0.5-0.2-0.7-0.2
		c-0.4,0-0.7-0.1-1-0.3c-0.3-0.2-0.5-0.5-0.7-0.9C467,390,467,389.6,467.1,389.3z"/>
</g>
<g>
	<g>
		
			<radialGradient id="SVGID_1_" cx="467.6504" cy="438.1504" r="10.625" gradientTransform="matrix(1 0 0 4.6894 0 -1616.5171)" gradientUnits="userSpaceOnUse">
			<stop  offset="0" style="stop-color:#FFFFFF"/>
			<stop  offset="0.5412" style="stop-color:#FFFFFF;stop-opacity:0.8118"/>
			<stop  offset="1" style="stop-color:#FFFFFF;stop-opacity:0"/>
		</radialGradient>
		<path fill-rule="evenodd" clip-rule="evenodd" fill="url(#SVGID_1_)" d="M470.6,389.4L470.6,389.4c-0.2,0-0.4,0.1-0.5,0.2
			l-0.3,0.9c-0.4-0.2-0.8-0.3-1-0.3c-0.1,0-0.2,0-0.3-0.1c-0.1-0.1-0.2-0.2-0.2-0.3c0-0.1,0-0.2,0-0.3c0-0.1,0-0.2,0.2-0.3
			c0.3-0.2,0.9-0.5,1.8-0.9h0c1-0.4,1.9-0.6,2.8-0.6c2.7,0,4.4,1.4,5.3,4.2v0c0.3,1.1,0.5,2.8,0.5,5.1c0,1.5-1.8,7.9-5.3,19.2
			c-0.8,2.4-1.6,5.1-2.5,8c-1.6,5-3.5,10.8-5.7,17.2c-7.1,21.1-9.3,36.5-6.6,46.4l-1,0.3c-2.8-9.9-0.5-25.5,6.6-46.9
			c2.1-6.4,4-12.2,5.7-17.2c0.9-2.9,1.8-5.6,2.5-8c3.5-11.1,5.3-17.4,5.3-18.9c0-2.2-0.1-3.8-0.4-4.9c-0.7-2.3-2.2-3.5-4.4-3.5
			C472.3,388.8,471.5,389,470.6,389.4z"/>
		
			<radialGradient id="SVGID_2_" cx="511.5" cy="547.3496" r="10.3" gradientTransform="matrix(1 0 0 0.5194 0 263.0467)" gradientUnits="userSpaceOnUse">
			<stop  offset="0" style="stop-color:#FFFFFF"/>
			<stop  offset="0.5412" style="stop-color:#FFFFFF;stop-opacity:0.8118"/>
			<stop  offset="1" style="stop-color:#FFFFFF;stop-opacity:0"/>
		</radialGradient>
		<path fill-rule="evenodd" clip-rule="evenodd" fill="url(#SVGID_2_)" d="M511.5,543.2c2.5-1.7,4.6-2.2,6.3-1.3
			c1.6,0.8,3.1,3,4.5,6.4l-1,0.4c-1.3-3.1-2.6-5.1-4-5.9c-1.5-0.7-3.2-0.3-5.3,1.2c-2.8,2-6.3,5-10.5,9l-0.7-0.7
			C505.2,548.2,508.7,545.2,511.5,543.2z"/>
		
			<radialGradient id="SVGID_3_" cx="472.9502" cy="586.0996" r="19.15" gradientTransform="matrix(1 0 0 1.2663 0 -156.0892)" gradientUnits="userSpaceOnUse">
			<stop  offset="0" style="stop-color:#FFFFFF"/>
			<stop  offset="0.5412" style="stop-color:#FFFFFF;stop-opacity:0.8118"/>
			<stop  offset="1" style="stop-color:#FFFFFF;stop-opacity:0"/>
		</radialGradient>
		<path fill-rule="evenodd" clip-rule="evenodd" fill="url(#SVGID_3_)" d="M491.8,561.5l0.7,0.7c-8.5,8.8-12.3,18.6-11.5,29.3
			c1,5.5-0.8,9.9-5.4,13.2c-4.5,3.2-11.7,5.2-21.7,6.1l-0.1-1c9.8-0.9,16.8-2.9,21.3-5.9c4.2-3,5.9-7.1,4.9-12.2v0
			C479.1,580.6,483,570.5,491.8,561.5z"/>
		
			<radialGradient id="SVGID_4_" cx="447.3496" cy="553.75" r="18.425" gradientTransform="matrix(1 0 0 3.0801 0 -1151.8301)" gradientUnits="userSpaceOnUse">
			<stop  offset="0" style="stop-color:#FFFFFF"/>
			<stop  offset="0.5412" style="stop-color:#FFFFFF;stop-opacity:0.8118"/>
			<stop  offset="1" style="stop-color:#FFFFFF;stop-opacity:0"/>
		</radialGradient>
		<path fill-rule="evenodd" clip-rule="evenodd" fill="url(#SVGID_4_)" d="M463.4,496.8c5.1,8.7,3.5,21.5-5,38.3
			c-9.1,18.1-14.3,28.2-15.5,30.3c-1.3,2.1-5,10.6-11.4,25.4c-2.4,5.8-2.8,10.3-1.1,13.5c1.7,3.2,5.5,5.1,11.3,5.7l-0.1,1
			c-6.3-0.7-10.3-2.8-12.1-6.2c-1.9-3.4-1.5-8.2,1-14.3c6.3-14.9,10.1-23.5,11.4-25.5c1.2-2.1,6.4-12.2,15.5-30.3
			c8.2-16.4,9.9-28.9,5-37.4L463.4,496.8z"/>
	</g>
</g>
<g>
	<g>
		
			<radialGradient id="SVGID_5_" cx="465.9004" cy="392.0996" r="1.55" gradientTransform="matrix(1 0 0 2.8387 0 -720.9573)" gradientUnits="userSpaceOnUse">
			<stop  offset="0" style="stop-color:#FFFFFF"/>
			<stop  offset="1" style="stop-color:#000000"/>
		</radialGradient>
		<path fill-rule="evenodd" clip-rule="evenodd" fill="url(#SVGID_5_)" d="M464.6,389.5c-0.1-0.3,0-0.5,0.2-0.8s0.4-0.4,0.7-0.5
			s0.6,0,0.9,0.1c0.3,0.1,0.5,0.3,0.6,0.6c0.5,1.7,0.6,3.2,0.4,4.5v0c-0.1,0.4-0.3,0.8-0.3,1.2c-0.1,0.2-0.3,0.4-0.6,0.5
			c-0.3,0.1-0.6,0.2-0.9,0c-0.3-0.1-0.5-0.3-0.7-0.5c-0.2-0.3-0.2-0.5,0-0.8c0.1-0.3,0.2-0.5,0.3-0.8h0
			C465.1,392.1,465,390.8,464.6,389.5z"/>
		
			<radialGradient id="SVGID_6_" cx="462.4004" cy="392.2002" r="1.55" gradientTransform="matrix(1 0 0 2.8387 0 -721.1422)" gradientUnits="userSpaceOnUse">
			<stop  offset="0" style="stop-color:#FFFFFF"/>
			<stop  offset="1" style="stop-color:#000000"/>
		</radialGradient>
		<path fill-rule="evenodd" clip-rule="evenodd" fill="url(#SVGID_6_)" d="M461.9,388.3c0.3-0.1,0.6,0,0.9,0.1
			c0.3,0.1,0.5,0.3,0.6,0.6c0.5,1.7,0.6,3.2,0.4,4.5v0c-0.1,0.4-0.3,0.8-0.3,1.2c-0.1,0.2-0.3,0.4-0.6,0.5c-0.3,0.1-0.6,0.2-0.9,0.1
			c-0.3-0.1-0.5-0.3-0.7-0.5c-0.2-0.3-0.2-0.5,0-0.8c0.1-0.3,0.2-0.5,0.3-0.8h0c0.1-1.1,0-2.3-0.4-3.7c-0.1-0.3-0.1-0.5,0.1-0.8
			C461.4,388.6,461.6,388.4,461.9,388.3z"/>
		
			<radialGradient id="SVGID_7_" cx="469.2998" cy="392" r="1.55" gradientTransform="matrix(1 0 0 2.8387 0 -720.7742)" gradientUnits="userSpaceOnUse">
			<stop  offset="0" style="stop-color:#FFFFFF"/>
			<stop  offset="1" style="stop-color:#000000"/>
		</radialGradient>
		<path fill-rule="evenodd" clip-rule="evenodd" fill="url(#SVGID_7_)" d="M468.1,388.6c0.2-0.2,0.4-0.4,0.7-0.4
			c0.3-0.1,0.6,0,0.9,0.1s0.5,0.3,0.6,0.6c0.5,1.7,0.6,3.2,0.4,4.5v0.1c-0.1,0.4-0.2,0.8-0.4,1.2c-0.1,0.2-0.3,0.4-0.6,0.6
			c-0.3,0.1-0.6,0.1-0.8,0c-0.3-0.1-0.6-0.3-0.8-0.5c-0.1-0.3-0.2-0.5-0.1-0.8c0.1-0.3,0.2-0.6,0.3-0.9h-0.1
			c0.2-1.1,0.1-2.3-0.3-3.7C467.9,389.1,467.9,388.8,468.1,388.6z"/>
	</g>
</g>
</svg>
