<?xml version="1.0" encoding="utf-8"?>
<!-- Generator: Adobe Illustrator 16.0.0, SVG Export Plug-In . SVG Version: 6.00 Build 0)  -->
<!DOCTYPE svg PUBLIC "-//W3C//DTD SVG 1.1//EN" "http://www.w3.org/Graphics/SVG/1.1/DTD/svg11.dtd">
<svg version="1.1" id="Layer_1" xmlns="http://www.w3.org/2000/svg" xmlns:xlink="http://www.w3.org/1999/xlink" x="0px" y="0px"
	 width="496.67px" height="38.67px" viewBox="0 0 496.67 38.67" enable-background="new 0 0 496.67 38.67" xml:space="preserve">
<g>
	<g>
		<path fill-rule="evenodd" clip-rule="evenodd" fill-opacity="0.1451" d="M485.87,25.12c-5.37-2.67-14.22-4.87-26.55-6.6h0.1
			c-68.17-4.03-128.48-2.38-180.95,4.95h0.05c-42.6,7.33-75.12,10.28-97.55,8.85l-46.75-2.25c-0.33-0.03-0.58-0.17-0.75-0.4
			c-0.2-0.23-0.3-0.52-0.3-0.85c0-0.33,0.12-0.6,0.35-0.8c0.23-0.27,0.5-0.4,0.8-0.4l46.8,2.35c22.27,1.4,54.62-1.55,97.05-8.85
			c52.53-7.33,113-9,181.4-5c0.03,0,0.05,0.03,0.05,0.1c12.67,1.77,21.75,4.02,27.25,6.75c6.2,3.07,8.23,6.73,6.1,11
			c-0.1,0.3-0.32,0.52-0.65,0.65c-0.3,0.1-0.6,0.07-0.9-0.1c-0.27-0.13-0.43-0.35-0.5-0.65c-0.17-0.33-0.17-0.65,0-0.95
			C492.12,29.98,490.43,27.38,485.87,25.12z"/>
	</g>
	<g>
		<path fill-rule="evenodd" clip-rule="evenodd" fill="#B70000" d="M464.57,14.42c0.4,0.03,0.72,0.23,0.95,0.6
			c0.3,0.3,0.42,0.7,0.35,1.2c-0.03,0.4-0.2,0.73-0.5,1c-0.37,0.27-0.75,0.38-1.15,0.35C381.08,8,314.43,8.72,264.27,19.72
			c-50.87,11.1-82.6,13.52-95.2,7.25c-12.4-6-42.85-12.12-91.35-18.35c-24.1-3.13-42.17-2.47-54.2,2
			c-11.5,4.3-17.27,12.27-17.3,23.9c0,0.43-0.13,0.82-0.4,1.15c-0.27,0.27-0.62,0.4-1.05,0.4c-0.43,0-0.82-0.13-1.15-0.4
			c-0.27-0.33-0.4-0.72-0.4-1.15C3.18,21.45,9.6,12.5,22.47,7.67c12.37-4.7,30.9-5.43,55.6-2.2c49.07,6.33,79.83,12.57,92.3,18.7
			c12.37,5.83,43.45,3.3,93.25-7.6C314.02,5.5,381,4.78,464.57,14.42z"/>
	</g>
	<g>
		<g>
			
				<radialGradient id="SVGID_1_" cx="326.1167" cy="6.4658" r="57.7" gradientTransform="matrix(1 0 0 1.0366 0 -0.2367)" gradientUnits="userSpaceOnUse">
				<stop  offset="0" style="stop-color:#FFFFFF"/>
				<stop  offset="1" style="stop-color:#FFFFFF;stop-opacity:0"/>
				<stop  offset="1" style="stop-color:#000000"/>
			</radialGradient>
			<path fill-rule="evenodd" clip-rule="evenodd" fill="url(#SVGID_1_)" d="M419.52,10.62c0.2,0.03,0.37,0.13,0.5,0.3
				c0.13,0.17,0.18,0.37,0.15,0.6c0,0.2-0.07,0.35-0.2,0.45c-0.17,0.17-0.35,0.25-0.55,0.25c-71.73-5.43-130.15-1.75-175.25,11.05
				c-0.23,0.03-0.43,0.02-0.6-0.05c-0.2-0.17-0.32-0.33-0.35-0.5c-0.07-0.23-0.05-0.45,0.05-0.65c0.13-0.2,0.3-0.32,0.5-0.35
				C288.97,8.88,347.55,5.18,419.52,10.62z"/>
			
				<radialGradient id="SVGID_2_" cx="87.8667" cy="13.3164" r="60.8375" gradientTransform="matrix(1 0 0 1.0366 0 -0.487)" gradientUnits="userSpaceOnUse">
				<stop  offset="0" style="stop-color:#FFFFFF;stop-opacity:0.6588"/>
				<stop  offset="1" style="stop-color:#FFFFFF;stop-opacity:0.0275"/>
			</radialGradient>
			<path fill-rule="evenodd" clip-rule="evenodd" fill="url(#SVGID_2_)" d="M26.72,7.32c0.1-0.17,0.27-0.27,0.5-0.3
				c19.67-3.9,46.42-2.8,80.25,3.3c16.7,2.97,27.93,4.93,33.7,5.9c0.03-0.07,0.07-0.12,0.1-0.15c0.2-0.1,0.4-0.13,0.6-0.1
				c1.33,0.27,2.33,0.48,3,0.65c0.33,0.07,0.58,0.13,0.75,0.2c0.13,0.03,0.23,0.07,0.3,0.1c1,0.43,1.05,0.88,0.15,1.35
				c-0.03,0.03-0.07,0.08-0.1,0.15c-0.03,0.03-0.23,0.03-0.6,0c-0.7-0.07-2.15-0.27-4.35-0.6c-5.73-0.97-17.02-2.95-33.85-5.95
				C73.6,5.8,47.03,4.7,27.47,8.57c-0.2,0.03-0.38-0.02-0.55-0.15c-0.2-0.1-0.3-0.27-0.3-0.5C26.55,7.72,26.58,7.52,26.72,7.32z"/>
			
				<radialGradient id="SVGID_3_" cx="181.4883" cy="26.2158" r="16.2173" gradientTransform="matrix(1 0 0 1.037 0 -0.9687)" gradientUnits="userSpaceOnUse">
				<stop  offset="0" style="stop-color:#FFFFFF;stop-opacity:0.6588"/>
				<stop  offset="1" style="stop-color:#FFFFFF;stop-opacity:0.0275"/>
			</radialGradient>
			<path fill-rule="evenodd" clip-rule="evenodd" fill="url(#SVGID_3_)" d="M164.82,23.32c0.1-0.2,0.25-0.32,0.45-0.35
				c0.2-0.03,0.4,0,0.6,0.1c7.5,4.7,18.02,6.3,31.55,4.8c0.2-0.03,0.4,0.03,0.6,0.2c0.13,0.1,0.2,0.27,0.2,0.5
				c0.07,0.2,0.03,0.4-0.1,0.6c-0.17,0.17-0.35,0.25-0.55,0.25c-13.93,1.57-24.75-0.12-32.45-5.05c-0.23-0.07-0.35-0.22-0.35-0.45
				C164.7,23.72,164.72,23.52,164.82,23.32z"/>
		</g>
	</g>
</g>
</svg>
