<?xml version="1.0" encoding="utf-8"?>
<!-- Generator: Adobe Illustrator 16.0.0, SVG Export Plug-In . SVG Version: 6.00 Build 0)  -->
<!DOCTYPE svg PUBLIC "-//W3C//DTD SVG 1.1//EN" "http://www.w3.org/Graphics/SVG/1.1/DTD/svg11.dtd">
<svg version="1.1" id="Layer_1" xmlns="http://www.w3.org/2000/svg" xmlns:xlink="http://www.w3.org/1999/xlink" x="0px" y="0px"
	 width="244px" height="351px" viewBox="0 0 244 351" enable-background="new 0 0 244 351" xml:space="preserve">
<g>
	<g>
		<g>
			<path fill-rule="evenodd" clip-rule="evenodd" fill-opacity="0.1451" d="M205.75,311.45c3.93,7.43,3.2,13.93-2.2,19.5
				c-5.1,5.27-14.57,9.62-28.4,13.05l-0.05,0.05c-24.07,5.3-42.07,7.02-54,5.15c-12.7-1.93-18.92-7.7-18.65-17.3
				c0-0.33,0.15-0.63,0.45-0.9c0.23-0.27,0.52-0.4,0.85-0.4c0.37,0,0.67,0.13,0.9,0.4c0.23,0.3,0.35,0.62,0.35,0.95
				c-0.03,8.1,5.45,13,16.45,14.7c11.73,1.77,29.43,0.03,53.1-5.2c13.27-3.27,22.33-7.37,27.2-12.3c4.5-4.67,5.08-10.15,1.75-16.45
				c-0.17-0.3-0.2-0.63-0.1-1c0.1-0.33,0.3-0.58,0.6-0.75c0.33-0.17,0.65-0.22,0.95-0.15C205.28,310.93,205.55,311.15,205.75,311.45
				z M240.05,274.45c1.63-0.67,2.55-1.17,2.75-1.5c-0.2-0.37-1.1-0.85-2.7-1.45c-0.3-0.17-0.53-0.4-0.7-0.7
				c-0.17-0.33-0.18-0.67-0.05-1c0.1-0.33,0.32-0.57,0.65-0.7c0.37-0.17,0.7-0.2,1-0.1c3.1,1.2,4.52,2.52,4.25,3.95
				c0.2,1.4-1.23,2.72-4.3,3.95c-4.7,1.87-14.08,3.8-28.15,5.8h0.05c-12.77,2.23-19.5,4.25-20.2,6.05c-0.1,0.37-0.3,0.63-0.6,0.8
				c-0.33,0.13-0.65,0.17-0.95,0.1c-0.33-0.07-0.6-0.27-0.8-0.6c-0.13-0.3-0.15-0.63-0.05-1c0.53-2.83,7.93-5.47,22.2-7.9h0.05
				C226.3,278.18,235.48,276.28,240.05,274.45z"/>
		</g>
		<g>
			<path fill-rule="evenodd" clip-rule="evenodd" d="M13.9,6.75V6.8c-2.6,3.07-3.9,5.48-3.9,7.25v0.05c0.17,2.63-0.6,4.67-2.3,6.1
				c-0.33,0.3-0.72,0.43-1.15,0.4c-0.43-0.07-0.78-0.25-1.05-0.55c-0.3-0.37-0.42-0.77-0.35-1.2c0.07-0.43,0.25-0.8,0.55-1.1
				c0.93-0.8,1.35-1.95,1.25-3.45c-0.27-2.4,1.28-5.6,4.65-9.6c3.5-4.5,12.48-0.28,26.95,12.65c13.8,12.4,23.02,29.43,27.65,51.1
				l0.05,0.1l33.2,188.85c2.7,15.5,3.68,34.73,2.95,57.7c-0.3,10.77,2.12,18.48,7.25,23.15c5.3,4.6,13.4,6.12,24.3,4.55
				c0-0.03,0.02-0.05,0.05-0.05c16.2-1.23,29.68-2.88,40.45-4.95c0.97-0.17,1.95-0.37,2.95-0.6c7.23-1.8,14.02-5.37,20.35-10.7
				c4.47-3.77,6.28-8.45,5.45-14.05c-0.97-5.9-4.73-12.82-11.3-20.75c-2.93-3.53-3.7-6.43-2.3-8.7c1.03-2.2,4-3.7,8.9-4.5
				c8.53-1.43,19.62-3.12,33.25-5.05c3.1-0.47,5.3-1.1,6.6-1.9c0.6-0.4,0.8-0.87,0.6-1.4c-1.27-2.5-6.32-5.87-15.15-10.1
				c-8.3-2.6-12.9-9.85-13.8-21.75c-0.87-11.27,1.77-26.95,7.9-47.05c1.73-5.63,3.35-9.6,4.85-11.9c2.1-3.37,4.12-4.27,6.05-2.7
				c1.1,0.77,1.87,2.65,2.3,5.65c0.23,1.87,0.33,3.65,0.3,5.35c-1.03,0.37-2.03,0.37-3,0c0.03-1.2,0-2.53-0.1-4
				c-0.2-2.43-0.62-3.87-1.25-4.3c-0.43-0.13-1.02,0.43-1.75,1.7c-1.4,2.2-2.9,5.92-4.5,11.15c-5.97,19.6-8.53,34.88-7.7,45.85
				c0.73,10.33,4.67,16.67,11.8,19c0.03,0,0.08,0.02,0.15,0.05c9.83,4.73,15.38,8.6,16.65,11.6c1.03,2.23,0.47,4.08-1.7,5.55
				c-1.5,1-4.12,1.78-7.85,2.35c-13.63,1.9-24.67,3.58-33.1,5.05c-3.7,0.6-5.98,1.57-6.85,2.9c-0.47,1.27,0.22,2.97,2.05,5.1
				c7.03,8.47,11.02,15.92,11.95,22.35c1.03,6.77-1.13,12.43-6.5,17c-6.73,5.67-13.95,9.42-21.65,11.25
				c-1.03,0.27-2.07,0.48-3.1,0.65c-10.77,2.1-24.33,3.78-40.7,5.05h0.1c-12,1.67-20.88-0.08-26.65-5.25
				c-5.93-5.13-8.72-13.72-8.35-25.75c0.7-22.63-0.28-41.63-2.95-57L63.25,69.05v0.1c-4.53-20.97-13.43-37.42-26.7-49.35
				C23.92,8.43,16.37,4.08,13.9,6.75z"/>
		</g>
		<g>
			<g>
				
					<radialGradient id="SVGID_1_" cx="39.7002" cy="30.6001" r="32.2875" gradientTransform="matrix(1 0 0 1.0368 0 -1.1254)" gradientUnits="userSpaceOnUse">
					<stop  offset="0" style="stop-color:#FFFFFF;stop-opacity:0.6196"/>
					<stop  offset="1" style="stop-color:#FFFFFF;stop-opacity:0.0275"/>
				</radialGradient>
				<path fill-rule="evenodd" clip-rule="evenodd" fill="url(#SVGID_1_)" d="M20,5.65c0.03-0.13,0.12-0.2,0.25-0.2
					c0.07-0.07,0.17-0.07,0.3,0c20.8,11.27,34.47,28,41,50.2c0.07,0.1,0.05,0.2-0.05,0.3c-0.03,0.1-0.08,0.17-0.15,0.2
					c-0.13,0.03-0.23,0.03-0.3,0c-0.1-0.1-0.17-0.18-0.2-0.25c-6.47-22-20.02-38.58-40.65-49.75c-0.1-0.03-0.17-0.1-0.2-0.2
					C19.97,5.82,19.97,5.72,20,5.65z"/>
				
					<radialGradient id="SVGID_2_" cx="77.0498" cy="138.6504" r="55.2745" gradientTransform="matrix(1 0 0 1.0369 0 -5.1108)" gradientUnits="userSpaceOnUse">
					<stop  offset="0" style="stop-color:#FFFFFF;stop-opacity:0.6196"/>
					<stop  offset="1" style="stop-color:#FFFFFF;stop-opacity:0.0275"/>
				</radialGradient>
				<path fill-rule="evenodd" clip-rule="evenodd" fill="url(#SVGID_2_)" d="M67,81.85c0.1,0,0.2,0.05,0.3,0.15
					c0.1,0.03,0.17,0.12,0.2,0.25L87.3,195c0,0.07-0.05,0.15-0.15,0.25c-0.03,0.1-0.08,0.17-0.15,0.2c-0.13,0-0.23-0.03-0.3-0.1
					c-0.13-0.07-0.2-0.15-0.2-0.25L66.7,82.35c-0.03-0.07,0-0.15,0.1-0.25C66.83,82,66.9,81.92,67,81.85z"/>
				
					<radialGradient id="SVGID_3_" cx="230.4502" cy="182.25" r="1.45" gradientTransform="matrix(1 0 0 1.0431 0 -7.8556)" gradientUnits="userSpaceOnUse">
					<stop  offset="0" style="stop-color:#FFFFFF;stop-opacity:0.6196"/>
					<stop  offset="1" style="stop-color:#FFFFFF;stop-opacity:0.0275"/>
				</radialGradient>
				<path fill-rule="evenodd" clip-rule="evenodd" fill="url(#SVGID_3_)" d="M230.2,180.35c0.1-0.07,0.18-0.05,0.25,0.05
					c0.07,0.07,0.13,0.17,0.2,0.3l0.35,3c0,0.13-0.05,0.23-0.15,0.3c-0.03,0.1-0.08,0.15-0.15,0.15c-0.17,0.03-0.28,0-0.35-0.1
					c-0.1-0.03-0.15-0.1-0.15-0.2l-0.35-3.05c-0.03-0.1-0.02-0.2,0.05-0.3C230,180.43,230.1,180.38,230.2,180.35z"/>
				
					<radialGradient id="SVGID_4_" cx="217.8496" cy="221.25" r="29.95" gradientTransform="matrix(1 0 0 1.0371 0 -8.2184)" gradientUnits="userSpaceOnUse">
					<stop  offset="0" style="stop-color:#FFFFFF;stop-opacity:0.6196"/>
					<stop  offset="1" style="stop-color:#FFFFFF;stop-opacity:0.0275"/>
				</radialGradient>
				<path fill-rule="evenodd" clip-rule="evenodd" fill="url(#SVGID_4_)" d="M219.5,190.15c0-0.1,0.05-0.17,0.15-0.2
					c0.1-0.1,0.2-0.1,0.3,0c0.1,0,0.17,0.05,0.2,0.15c0.07,0.1,0.08,0.2,0.05,0.3c-9.57,30.43-10.92,50.97-4.05,61.6
					c0.07,0.07,0.07,0.17,0,0.3c0,0.13-0.03,0.23-0.1,0.3c-0.13,0.03-0.25,0.03-0.35,0c-0.1,0-0.17-0.03-0.2-0.1
					C208.47,241.7,209.8,220.92,219.5,190.15z"/>
				
					<radialGradient id="SVGID_5_" cx="214.3301" cy="277.75" r="17.3688" gradientTransform="matrix(1 0 0 1.0367 0 -10.2055)" gradientUnits="userSpaceOnUse">
					<stop  offset="0" style="stop-color:#FFFFFF;stop-opacity:0.6196"/>
					<stop  offset="1" style="stop-color:#FFFFFF;stop-opacity:0.0275"/>
				</radialGradient>
				<path fill-rule="evenodd" clip-rule="evenodd" fill="url(#SVGID_5_)" d="M231.75,275.35c-0.03,0.1-0.12,0.15-0.25,0.15
					l-34.3,5.25c-0.13,0-0.23-0.03-0.3-0.1c-0.07-0.03-0.1-0.12-0.1-0.25c-0.07-0.13-0.05-0.23,0.05-0.3
					c0.03-0.07,0.12-0.13,0.25-0.2l34.3-5.2c0.13-0.03,0.23-0.02,0.3,0.05c0.07,0.1,0.13,0.2,0.2,0.3
					C231.9,275.18,231.85,275.28,231.75,275.35z"/>
				
					<radialGradient id="SVGID_6_" cx="179.9248" cy="333.5498" r="22.7479" gradientTransform="matrix(1 0 0 1.0363 0 -12.1091)" gradientUnits="userSpaceOnUse">
					<stop  offset="0" style="stop-color:#FFFFFF;stop-opacity:0.6196"/>
					<stop  offset="1" style="stop-color:#FFFFFF;stop-opacity:0.0275"/>
				</radialGradient>
				<path fill-rule="evenodd" clip-rule="evenodd" fill="url(#SVGID_6_)" d="M158.75,342.3c-0.13,0-0.23-0.02-0.3-0.05
					c-0.1-0.1-0.15-0.2-0.15-0.3c0-0.13,0.05-0.23,0.15-0.3c0.03-0.1,0.1-0.15,0.2-0.15c20.6-2,34.67-7.48,42.2-16.45
					c0.1-0.13,0.2-0.2,0.3-0.2c0.1,0,0.18,0.05,0.25,0.15c0.1,0.03,0.15,0.12,0.15,0.25c0,0.1-0.03,0.18-0.1,0.25
					C193.82,334.63,179.58,340.23,158.75,342.3z"/>
				
					<radialGradient id="SVGID_7_" cx="111.25" cy="330.5498" r="17.2" gradientTransform="matrix(1 0 0 1.0363 0 -12.0113)" gradientUnits="userSpaceOnUse">
					<stop  offset="0" style="stop-color:#FFFFFF;stop-opacity:0.6196"/>
					<stop  offset="1" style="stop-color:#FFFFFF;stop-opacity:0.0275"/>
				</radialGradient>
				<path fill-rule="evenodd" clip-rule="evenodd" fill="url(#SVGID_7_)" d="M101.05,316.1c0.07,0.03,0.1,0.13,0.1,0.3
					c0.73,17.77,7.55,27.07,20.45,27.9c0.13,0,0.23,0.03,0.3,0.1c0.03,0.1,0.05,0.2,0.05,0.3c0,0.13-0.03,0.23-0.1,0.3
					c-0.07,0.03-0.15,0.05-0.25,0.05c-13.43-0.73-20.5-10.28-21.2-28.65c0-0.13,0.03-0.23,0.1-0.3c0.1-0.1,0.2-0.15,0.3-0.15
					C100.9,315.95,100.98,316,101.05,316.1z"/>
			</g>
		</g>
	</g>
	<g>
		<path fill-rule="evenodd" clip-rule="evenodd" d="M5.9,20.1c-0.37-0.03-0.77-0.17-1.2-0.4c0,0.23,0.1,0.47,0.3,0.7
			c0.03-0.03,0.1-0.03,0.2,0c0.6,0.27,1.02,0.35,1.25,0.25c0.07-0.17,0.1-0.37,0.1-0.6C6.35,20.12,6.13,20.13,5.9,20.1z M4.4,17.1
			c0.1,0,0.17,0.02,0.2,0.05c0.5,0.23,1.38,0.35,2.65,0.35c0.17,0,0.28,0.03,0.35,0.1c0.1,0.1,0.17,0.22,0.2,0.35
			c-0.03,0.17-0.1,0.28-0.2,0.35c-0.07,0.1-0.18,0.17-0.35,0.2c-1.03-0.03-1.83-0.12-2.4-0.25C4.88,18.38,4.93,18.53,5,18.7
			c0.37,0.23,0.68,0.37,0.95,0.4c0.23,0.03,0.45-0.05,0.65-0.25c0.1-0.1,0.2-0.15,0.3-0.15c0.13-0.07,0.25-0.05,0.35,0.05
			c0.13,0.07,0.22,0.18,0.25,0.35c0.2,1.13,0.07,1.88-0.4,2.25c-0.47,0.43-1.23,0.43-2.3,0c-0.17-0.07-0.27-0.17-0.3-0.3
			c0-0.03,0-0.07,0-0.1c-0.57-0.6-0.72-1.22-0.45-1.85c-0.2-0.57-0.32-0.97-0.35-1.2c-0.03-0.23-0.02-0.42,0.05-0.55
			C3.88,17.08,4.1,17,4.4,17.1z"/>
	</g>
</g>
</svg>
