<?xml version="1.0" encoding="utf-8"?>
<!-- Generator: Adobe Illustrator 16.0.0, SVG Export Plug-In . SVG Version: 6.00 Build 0)  -->
<!DOCTYPE svg PUBLIC "-//W3C//DTD SVG 1.1//EN" "http://www.w3.org/Graphics/SVG/1.1/DTD/svg11.dtd">
<svg version="1.1" id="Layer_1" xmlns="http://www.w3.org/2000/svg" xmlns:xlink="http://www.w3.org/1999/xlink" x="0px" y="0px"
	 width="616px" height="109px" viewBox="0 0 616 109" enable-background="new 0 0 616 109" xml:space="preserve">
<g>
	<g>
		<path fill-rule="evenodd" clip-rule="evenodd" fill-opacity="0.1412" d="M27.75,65.35c0.27-0.13,0.57-0.17,0.9-0.1
			c0.27,0.07,0.48,0.27,0.65,0.6c0.1,0.27,0.12,0.57,0.05,0.9c-4.3,15.3-8.85,21.93-13.65,19.9c-4.33-1.5-8.55-11.32-12.65-29.45
			c-0.1-0.33-0.07-0.63,0.1-0.9c0.17-0.27,0.4-0.45,0.7-0.55c0.33-0.07,0.63-0.02,0.9,0.15c0.23,0.17,0.38,0.4,0.45,0.7
			c3.9,16.9,7.68,26.18,11.35,27.85c3.27,1.17,6.8-4.95,10.6-18.35C27.28,65.77,27.48,65.52,27.75,65.35z M497.35,22.3
			c-0.03,2.23-1.23,4.63-3.6,7.2c-3.13,14.4-2.7,23.4,1.3,27c0.13,0.07,0.23,0.17,0.3,0.3c9.4,15.97,11.37,28.17,5.9,36.6
			c-0.03,0.03-0.05,0.08-0.05,0.15c-2.37,2.97-2.97,5.27-1.8,6.9c1.5,1.8,5.02,2.9,10.55,3.3c10.23-0.07,25.7-1.42,46.4-4.05
			c16.97-1.4,28.48-16.28,34.55-44.65c0.03-0.23,0.13-0.45,0.3-0.65c0.17-0.17,0.35-0.27,0.55-0.3c2.8-0.73,5.13-1.47,7-2.2
			c0.47,0.5,1.1,1.08,1.9,1.75c-2.03,0.87-4.57,1.73-7.6,2.6c-6.43,29.27-18.58,44.53-36.45,45.8c-20.87,2.67-36.45,4.02-46.75,4.05
			h-0.05c-6.47-0.47-10.53-1.85-12.2-4.15c-2.1-2.4-1.48-5.72,1.85-9.95c4.67-7.8,2.68-19.07-5.95-33.8
			c-4.73-3.97-5.37-13.8-1.9-29.5c0.1-0.27,0.2-0.47,0.3-0.6c1.97-2.13,3.02-4.12,3.15-5.95c0-1.7-0.85-3.28-2.55-4.75
			c-4.07-3.33-12.33-6.07-24.8-8.2c-0.3-0.07-0.53-0.23-0.7-0.5c-0.2-0.27-0.25-0.57-0.15-0.9c0-0.3,0.13-0.55,0.4-0.75
			c0.27-0.2,0.55-0.27,0.85-0.2c13,2.23,21.63,5.15,25.9,8.75C496.37,17.6,497.48,19.83,497.35,22.3z"/>
	</g>
	<g>
		<path fill-rule="evenodd" clip-rule="evenodd" fill="#B70000" d="M6.9,23.3l3.05,0.4c0.03,0.37,0,1.57-0.1,3.6
			C9.68,29.37,9.23,31.6,8.5,34l-0.1,0.5c-0.1,0.53-0.22,1.08-0.35,1.65c-0.07,0.3-0.12,0.62-0.15,0.95
			c-0.47,2.97-0.78,5.88-0.95,8.75c-0.87,8.53,1.07,17.88,5.8,28.05c0.03,0,0.05,0.02,0.05,0.05c2.53,4.6,4.42,7.15,5.65,7.65
			c0-0.07,0.03-0.18,0.1-0.35c0.37-0.87,0.6-2.27,0.7-4.2c0-0.03,0-0.07,0-0.1c0.63-5.53,2.27-10.55,4.9-15.05
			c2.23-3.93,4.52-6.45,6.85-7.55c0.4-0.2,0.8-0.23,1.2-0.1c0.43,0.1,0.73,0.35,0.9,0.75c0.13,0.4,0.15,0.82,0.05,1.25
			c-0.13,0.4-0.4,0.72-0.8,0.95c-1.87,1.1-3.78,3.37-5.75,6.8c-2.27,4.13-3.68,8.58-4.25,13.35c-0.17,2.4-0.52,4.15-1.05,5.25
			c-0.87,1.9-2.08,2.58-3.65,2.05c-1.83-0.33-4.35-3.4-7.55-9.2L10,75.4C4.97,64.57,2.93,54.6,3.9,45.5v-0.05
			c0.37-4.47,1.02-8.55,1.95-12.25c0.2-1.17,0.4-2.18,0.6-3.05C6.85,27.95,7,25.67,6.9,23.3z M603.65,22.85
			c1.77,0.7,3.62,4.08,5.55,10.15c-0.87,0.4-1.9,0.52-3.1,0.35c-0.4-1.17-0.92-2.5-1.55-4c-0.83-2.1-1.42-3.25-1.75-3.45
			c-0.57,0-1.32,0.68-2.25,2.05c-2.8,4.2-6.17,13.3-10.1,27.3c-8.27,29.3-21.2,44.22-38.8,44.75c-16.9,0.6-30.67,1.45-41.3,2.55
			c-6,0.63-9.97-0.38-11.9-3.05c-2.2-2.53-2.23-6.63-0.1-12.3c3.53-9.57,2.67-19.78-2.6-30.65c-5.77-11.9-6.02-22.6-0.75-32.1
			c1.9-3.63,0.72-6.73-3.55-9.3c-5.13-3.03-14.03-5.42-26.7-7.15c-0.4-0.1-0.73-0.3-1-0.6c-0.27-0.37-0.37-0.77-0.3-1.2
			c0.07-0.43,0.27-0.77,0.6-1c0.3-0.3,0.67-0.42,1.1-0.35c13.2,1.77,22.47,4.3,27.8,7.6c6.17,3.67,7.73,8.2,4.7,13.6
			c-4.63,8.6-4.33,18.28,0.9,29.05c5.7,11.8,6.58,22.88,2.65,33.25c-1.57,4.2-1.7,7.25-0.4,9.15c1.53,1.73,4.62,2.37,9.25,1.9
			c10.67-1.1,24.5-1.97,41.5-2.6c16.2-0.77,28.2-14.92,36-42.45c4-14.47,7.52-23.85,10.55-28.15
			C599.97,23.3,601.82,22.18,603.65,22.85z"/>
	</g>
	<g>
		<g>
			
				<radialGradient id="SVGID_1_" cx="498.2998" cy="71.792" r="16.757" gradientTransform="matrix(1 0 0 1.0358 0 -2.5717)" gradientUnits="userSpaceOnUse">
				<stop  offset="0" style="stop-color:#FFFFFF"/>
				<stop  offset="1" style="stop-color:#FFFFFF;stop-opacity:0"/>
			</radialGradient>
			<path fill-rule="evenodd" clip-rule="evenodd" fill="url(#SVGID_1_)" d="M496.35,54.4c0.17-0.07,0.33-0.08,0.5-0.05
				c0.1,0.03,0.18,0.13,0.25,0.3c6.13,10.87,7.25,22.27,3.35,34.2c-0.03,0.17-0.13,0.28-0.3,0.35c-0.17,0.07-0.3,0.07-0.4,0
				c-0.17-0.03-0.28-0.12-0.35-0.25c-0.07-0.13-0.07-0.28,0-0.45c3.83-11.6,2.77-22.68-3.2-33.25c-0.1-0.17-0.13-0.33-0.1-0.5
				C496.17,54.62,496.25,54.5,496.35,54.4z"/>
			
				<radialGradient id="SVGID_2_" cx="532.0996" cy="99.4004" r="21.95" gradientTransform="matrix(1 0 0 1.0364 0 -3.6228)" gradientUnits="userSpaceOnUse">
				<stop  offset="0" style="stop-color:#FFFFFF"/>
				<stop  offset="1" style="stop-color:#FFFFFF;stop-opacity:0"/>
			</radialGradient>
			<path fill-rule="evenodd" clip-rule="evenodd" fill="url(#SVGID_2_)" d="M510,100.75c0-0.2,0.05-0.35,0.15-0.45
				c0.1-0.13,0.22-0.22,0.35-0.25c15.6-1.73,29.97-2.58,43.1-2.55c0.17,0,0.33,0.08,0.5,0.25c0.07,0.07,0.1,0.18,0.1,0.35
				c0,0.17-0.03,0.32-0.1,0.45c-0.17,0.1-0.33,0.15-0.5,0.15c-13.1-0.03-27.42,0.82-42.95,2.55c-0.17,0.03-0.32-0.02-0.45-0.15
				C510.1,101.03,510.03,100.92,510,100.75z"/>
			
				<radialGradient id="SVGID_3_" cx="572.4004" cy="81.5" r="15.5875" gradientTransform="matrix(1 0 0 1.1275 0 -10.3917)" gradientUnits="userSpaceOnUse">
				<stop  offset="0" style="stop-color:#FFFFFF"/>
				<stop  offset="1" style="stop-color:#FFFFFF;stop-opacity:0"/>
			</radialGradient>
			<path fill-rule="evenodd" clip-rule="evenodd" fill="url(#SVGID_3_)" d="M555.7,96.8c0.1-0.13,0.23-0.22,0.4-0.25
				c12.17-2.1,22.15-13.4,29.95-33.9c0.03-0.2,0.13-0.32,0.3-0.35c0.17-0.1,0.32-0.12,0.45-0.05c0.13,0.07,0.23,0.18,0.3,0.35
				c0.1,0.13,0.1,0.28,0,0.45c-7.97,21.03-18.23,32.6-30.8,34.7c-0.17,0.03-0.33-0.02-0.5-0.15c-0.1-0.07-0.18-0.18-0.25-0.35
				C555.55,97.12,555.6,96.97,555.7,96.8z"/>
			
				<radialGradient id="SVGID_4_" cx="9.75" cy="62.375" r="16.7273" gradientTransform="matrix(1 0 0 1.0358 0 -2.2343)" gradientUnits="userSpaceOnUse">
				<stop  offset="0" style="stop-color:#FFFFFF;stop-opacity:0.6588"/>
				<stop  offset="1" style="stop-color:#FFFFFF;stop-opacity:0.0275"/>
			</radialGradient>
			<path fill-rule="evenodd" clip-rule="evenodd" fill="url(#SVGID_4_)" d="M4.85,45.65C4.92,45.45,5,45.3,5.1,45.2
				c0.07-0.1,0.2-0.15,0.4-0.15c0.17,0.03,0.28,0.12,0.35,0.25c0.13,0.1,0.18,0.25,0.15,0.45c-1.03,11.9,1.82,22.9,8.55,33
				c0.07,0.17,0.08,0.33,0.05,0.5s-0.12,0.28-0.25,0.35c-0.17,0.07-0.32,0.1-0.45,0.1c-0.13-0.07-0.23-0.13-0.3-0.2
				C6.67,69.1,3.75,57.82,4.85,45.65z"/>
			
				<radialGradient id="SVGID_5_" cx="39.9219" cy="68.0498" r="11.3125" gradientTransform="matrix(1 0 -0.0762 1.0365 -10.4836 -2.4814)" gradientUnits="userSpaceOnUse">
				<stop  offset="0" style="stop-color:#FFFFFF;stop-opacity:0.6588"/>
				<stop  offset="1" style="stop-color:#FFFFFF;stop-opacity:0.0275"/>
			</radialGradient>
			<path fill-rule="evenodd" clip-rule="evenodd" fill="url(#SVGID_5_)" d="M30.25,57.55c-0.03,0.17-0.12,0.28-0.25,0.35
				c-4.07,2.33-6.93,8.78-8.6,19.35c-0.03,0.13-0.12,0.27-0.25,0.4c-0.1,0.07-0.23,0.1-0.4,0.1c-0.17-0.03-0.28-0.1-0.35-0.2
				c-0.17-0.13-0.2-0.28-0.1-0.45c1.73-11.1,4.78-17.83,9.15-20.2c0.13-0.07,0.28-0.08,0.45-0.05c0.13,0.03,0.25,0.13,0.35,0.3
				C30.28,57.25,30.28,57.38,30.25,57.55z"/>
		</g>
	</g>
</g>
</svg>
